<svg width="29" height="29" viewBox="0 0 29 29" fill="none" xmlns="http://www.w3.org/2000/svg">
<path d="M11.543 0.839111C12.3742 0.839111 13.043 1.50786 13.043 2.33911V7.83911C13.043 10.1141 13.7805 12.3204 15.143 14.1391L16.343 15.7391C18.093 18.0766 19.043 20.9204 19.043 23.8391V27.3391C19.043 28.1704 18.3742 28.8391 17.543 28.8391C16.7117 28.8391 16.043 28.1704 16.043 27.3391V23.8391C16.043 21.5704 15.3055 19.3579 13.943 17.5391L12.743 15.9391C10.993 13.6016 10.043 10.7579 10.043 7.83911V2.33911C10.043 1.50786 10.7117 0.839111 11.543 0.839111ZM2.04297 4.83911C2.87422 4.83911 3.54297 5.50786 3.54297 6.33911V8.70786C3.54297 10.7829 4.15547 12.8079 5.30547 14.5329L7.27422 17.4891C8.75547 19.7079 9.54297 22.3141 9.54297 24.9766V27.3454C9.54297 28.1766 8.87422 28.8454 8.04297 28.8454C7.21172 28.8454 6.54297 28.1766 6.54297 27.3454V24.9766C6.54297 22.9016 5.93047 20.8766 4.78047 19.1516L2.81172 16.1954C1.33047 13.9766 0.542969 11.3704 0.542969 8.70786V6.33911C0.542969 5.50786 1.21172 4.83911 2.04297 4.83911ZM22.543 6.33911V8.70786C22.543 10.7829 23.1555 12.8079 24.3055 14.5329L26.2742 17.4891C27.7555 19.7079 28.543 22.3141 28.543 24.9766V27.3454C28.543 28.1766 27.8742 28.8454 27.043 28.8454C26.2117 28.8454 25.543 28.1766 25.543 27.3454V24.9766C25.543 22.9016 24.9305 20.8766 23.7805 19.1516L21.8117 16.1954C20.3305 13.9766 19.543 11.3704 19.543 8.70786V6.33911C19.543 5.50786 20.2117 4.83911 21.043 4.83911C21.8742 4.83911 22.543 5.50786 22.543 6.33911Z" fill="#FFB700"/>
</svg>
