<svg width="37" height="33" viewBox="0 0 37 33" fill="none" xmlns="http://www.w3.org/2000/svg">
<path d="M18.5055 0.463929C19.1992 0.445179 19.818 0.907679 19.993 1.58268L24.9117 20.4389L27.1742 15.3577C27.418 14.8139 27.9492 14.4639 28.543 14.4639H35.043C35.8742 14.4639 36.543 15.1327 36.543 15.9639C36.543 16.7952 35.8742 17.4639 35.043 17.4639H29.518L25.9117 25.5702C25.6555 26.1514 25.0555 26.5077 24.418 26.4577C23.7805 26.4077 23.2492 25.9577 23.0867 25.3389L18.7055 8.55143L14.0055 31.2639C13.8617 31.9452 13.2742 32.4389 12.5805 32.4577C11.8867 32.4764 11.268 32.0139 11.0867 31.3452L7.39297 17.4639H2.04297C1.21172 17.4639 0.542969 16.7952 0.542969 15.9639C0.542969 15.1327 1.21172 14.4639 2.04297 14.4639H8.54297C9.22422 14.4639 9.81797 14.9202 9.99297 15.5764L12.3617 24.4514L17.0742 1.65768C17.218 0.976429 17.8055 0.482679 18.5055 0.463929Z" fill="#FFB700"/>
</svg>
