<svg width="32" height="17" viewBox="0 0 32 17" fill="none" xmlns="http://www.w3.org/2000/svg">
<path d="M22.9398 14.2979L26.8773 10.3604L1.49609 10.3604C0.664843 10.3604 -0.00390656 9.69165 -0.0039066 8.8604C-0.00390664 8.02915 0.664843 7.3604 1.49609 7.3604L26.8773 7.3604L22.9398 3.4229C22.3523 2.8354 22.3523 1.8854 22.9398 1.30415C23.5273 0.722899 24.4773 0.716649 25.0586 1.30415L31.5586 7.80415C32.1461 8.39165 32.1461 9.34165 31.5586 9.9229L25.0648 16.4229C24.4773 17.0104 23.5273 17.0104 22.9461 16.4229C22.3648 15.8354 22.3586 14.8854 22.9461 14.3041L22.9398 14.2979Z" fill="#FFB700"/>
</svg>
