<svg width="30" height="33" viewBox="0 0 30 33" fill="none" xmlns="http://www.w3.org/2000/svg">
<path d="M5.625 7.46387C5.625 5.25762 7.41875 3.46387 9.625 3.46387C11.8313 3.46387 13.625 5.25762 13.625 7.46387V18.3639C13.625 18.7451 13.7687 19.1076 14.025 19.3826C15.0187 20.4514 15.625 21.8826 15.625 23.4639C15.625 26.7764 12.9375 29.4639 9.625 29.4639C6.3125 29.4639 3.625 26.7764 3.625 23.4639C3.625 21.8889 4.23125 20.4576 5.225 19.3826C5.48125 19.1076 5.625 18.7389 5.625 18.3639V7.46387ZM9.625 0.463867C5.75625 0.463867 2.625 3.59512 2.625 7.46387V17.8076C1.375 19.3514 0.625 21.3201 0.625 23.4639C0.625 28.4326 4.65625 32.4639 9.625 32.4639C14.5938 32.4639 18.625 28.4326 18.625 23.4639C18.625 21.3201 17.875 19.3514 16.625 17.8076V7.46387C16.625 3.59512 13.4937 0.463867 9.625 0.463867ZM9.625 26.4639C11.2812 26.4639 12.625 25.1201 12.625 23.4639C12.625 22.3514 12.0188 21.3826 11.125 20.8639V7.46387C11.125 6.63262 10.4563 5.96387 9.625 5.96387C8.79375 5.96387 8.125 6.63262 8.125 7.46387V20.8639C7.23125 21.3826 6.625 22.3514 6.625 23.4639C6.625 25.1201 7.96875 26.4639 9.625 26.4639ZM22.625 5.46387C22.625 4.35762 23.5187 3.46387 24.625 3.46387C25.7313 3.46387 26.625 4.35762 26.625 5.46387C26.625 6.57012 25.7313 7.46387 24.625 7.46387C23.5187 7.46387 22.625 6.57012 22.625 5.46387ZM29.625 5.46387C29.625 2.70137 27.3875 0.463867 24.625 0.463867C21.8625 0.463867 19.625 2.70137 19.625 5.46387C19.625 8.22637 21.8625 10.4639 24.625 10.4639C27.3875 10.4639 29.625 8.22637 29.625 5.46387Z" fill="#FFB700"/>
</svg>
