<svg width="33" height="29" viewBox="0 0 33 29" fill="none" xmlns="http://www.w3.org/2000/svg">
<path d="M32.0993 3.47663C32.7306 2.93914 32.7993 1.98914 32.2618 1.36414C31.7243 0.739135 30.7743 0.664135 30.1493 1.20164L20.6368 9.35789L13.6118 3.20788C13.0993 2.76413 12.3556 2.71414 11.7931 3.08914L1.29308 10.0891C0.605581 10.5516 0.418081 11.4829 0.874331 12.1704C1.33058 12.8579 2.26808 13.0454 2.95558 12.5891L12.4993 6.22663L19.6368 12.4704C20.1993 12.9641 21.0368 12.9641 21.5993 12.4829L32.0993 3.48289V3.47663ZM14.1243 14.3391C14.1243 13.5079 13.4556 12.8391 12.6243 12.8391C11.7931 12.8391 11.1243 13.5079 11.1243 14.3391V27.3391C11.1243 28.1704 11.7931 28.8391 12.6243 28.8391C13.4556 28.8391 14.1243 28.1704 14.1243 27.3391V14.3391ZM30.6243 14.3391C30.6243 13.5079 29.9556 12.8391 29.1243 12.8391C28.2931 12.8391 27.6243 13.5079 27.6243 14.3391V27.3391C27.6243 28.1704 28.2931 28.8391 29.1243 28.8391C29.9556 28.8391 30.6243 28.1704 30.6243 27.3391V14.3391ZM22.1243 18.3391C22.1243 17.5079 21.4556 16.8391 20.6243 16.8391C19.7931 16.8391 19.1243 17.5079 19.1243 18.3391V27.3391C19.1243 28.1704 19.7931 28.8391 20.6243 28.8391C21.4556 28.8391 22.1243 28.1704 22.1243 27.3391V18.3391ZM5.62433 20.3391C5.62433 19.5079 4.95558 18.8391 4.12433 18.8391C3.29308 18.8391 2.62433 19.5079 2.62433 20.3391V27.3391C2.62433 28.1704 3.29308 28.8391 4.12433 28.8391C4.95558 28.8391 5.62433 28.1704 5.62433 27.3391V20.3391Z" fill="#FFB700"/>
</svg>
