<svg width="33" height="29" viewBox="0 0 33 29" fill="none" xmlns="http://www.w3.org/2000/svg">
<path d="M1.58398 0.839111C2.41523 0.839111 3.08398 1.50786 3.08398 2.33911V23.8391C3.08398 24.9454 3.97773 25.8391 5.08398 25.8391H30.584C31.4152 25.8391 32.084 26.5079 32.084 27.3391C32.084 28.1704 31.4152 28.8391 30.584 28.8391H5.08398C2.32148 28.8391 0.0839844 26.6016 0.0839844 23.8391V2.33911C0.0839844 1.50786 0.752734 0.839111 1.58398 0.839111ZM11.084 14.8391C12.7402 14.8391 14.084 16.1829 14.084 17.8391C14.084 19.4954 12.7402 20.8391 11.084 20.8391C9.42773 20.8391 8.08398 19.4954 8.08398 17.8391C8.08398 16.1829 9.42773 14.8391 11.084 14.8391ZM23.584 16.8391C23.584 16.0079 22.9152 15.3391 22.084 15.3391C21.2527 15.3391 20.584 16.0079 20.584 16.8391C20.584 17.6704 21.2527 18.3391 22.084 18.3391C22.9152 18.3391 23.584 17.6704 23.584 16.8391ZM18.084 16.8391C18.084 14.6329 19.8777 12.8391 22.084 12.8391C24.2902 12.8391 26.084 14.6329 26.084 16.8391C26.084 19.0454 24.2902 20.8391 22.084 20.8391C19.8777 20.8391 18.084 19.0454 18.084 16.8391ZM15.084 6.83911C16.7402 6.83911 18.084 8.18286 18.084 9.83911C18.084 11.4954 16.7402 12.8391 15.084 12.8391C13.4277 12.8391 12.084 11.4954 12.084 9.83911C12.084 8.18286 13.4277 6.83911 15.084 6.83911ZM25.584 6.83911C25.584 6.00786 24.9152 5.33911 24.084 5.33911C23.2527 5.33911 22.584 6.00786 22.584 6.83911C22.584 7.67036 23.2527 8.33911 24.084 8.33911C24.9152 8.33911 25.584 7.67036 25.584 6.83911ZM20.084 6.83911C20.084 4.63286 21.8777 2.83911 24.084 2.83911C26.2902 2.83911 28.084 4.63286 28.084 6.83911C28.084 9.04536 26.2902 10.8391 24.084 10.8391C21.8777 10.8391 20.084 9.04536 20.084 6.83911Z" fill="#FFB700"/>
</svg>
