<svg width="33" height="33" viewBox="0 0 33 33" fill="none" xmlns="http://www.w3.org/2000/svg">
<path d="M9.85 13.954C10.4375 14.5415 10.4375 15.4915 9.85 16.0728C9.2625 16.654 8.3125 16.6603 7.73125 16.0728L1.225 9.57903C0.637499 8.99153 0.637499 8.04153 1.225 7.46028L7.725 0.960277C8.3125 0.372776 9.2625 0.372776 9.84375 0.960277C10.425 1.54778 10.4312 2.49778 9.84375 3.07903L5.90625 7.01653L31.2875 7.01653C32.1187 7.01653 32.7875 7.68528 32.7875 8.51653C32.7875 9.34778 32.1187 10.0165 31.2875 10.0165L5.90625 10.0165L9.84375 13.954L9.85 13.954ZM23.725 29.954L27.6625 26.0165L2.28125 26.0165C1.45 26.0165 0.78125 25.3478 0.78125 24.5165C0.78125 23.6853 1.45 23.0165 2.28125 23.0165L27.6625 23.0165L23.725 19.079C23.1375 18.4915 23.1375 17.5415 23.725 16.9603C24.3125 16.379 25.2625 16.3728 25.8437 16.9603L32.3438 23.4603C32.9313 24.0478 32.9313 24.9978 32.3438 25.579L25.85 32.079C25.2625 32.6665 24.3125 32.6665 23.7313 32.079C23.15 31.4915 23.1438 30.5415 23.7313 29.9603L23.725 29.954Z" fill="#FFB700"/>
</svg>
