<svg width="24" height="33" viewBox="0 0 24 33" fill="none" xmlns="http://www.w3.org/2000/svg">
<path d="M13.0688 1.03125C17.625 5.28125 21.1125 10.5563 23.2375 16.4125L23.2812 16.5312C23.7563 17.8375 24 19.2125 24 20.6C24 27.175 18.575 32.5 12 32.5C5.425 32.5 0 27.1688 0 20.6C0 19.2125 0.24375 17.8375 0.71875 16.5312L0.7625 16.4125L3.58125 17.4375L3.5375 17.5562C3.18125 18.5312 3 19.5625 3 20.6C3 25.4813 7.05 29.5 12 29.5C16.95 29.5 21 25.4813 21 20.6C21 19.5625 20.8188 18.5312 20.4625 17.5562L20.4188 17.4375C18.6063 12.45 15.7312 7.925 12 4.175C8.26875 7.93125 5.39375 12.4563 3.58125 17.4375L0.7625 16.4125C2.8875 10.55 6.375 5.28125 10.9312 1.03125L11.1375 0.84375C11.3688 0.625 11.6812 0.5 12 0.5C12.3188 0.5 12.6312 0.625 12.8625 0.84375L13.0688 1.03125ZM17.6063 18.6187C17.8625 19.2 17.9937 19.8312 17.9937 20.4625C17.9937 23.775 15.3062 26.4937 11.9937 26.4937C8.68125 26.4937 5.99375 23.775 5.99375 20.4625C5.99375 19.8312 6.125 19.1938 6.38125 18.6187L6.5 18.35C7.4875 16.1375 8.86875 14.1187 10.5812 12.4062L11.1375 11.85C11.3625 11.625 11.6687 11.5 11.9875 11.5C12.3062 11.5 12.6125 11.625 12.8375 11.85L13.3937 12.4062C15.1062 14.1187 16.4937 16.1375 17.475 18.35L17.5938 18.6187H17.6063Z" fill="#FFB700"/>
</svg>
