<svg width="33" height="33" viewBox="0 0 33 33" fill="none" xmlns="http://www.w3.org/2000/svg">
<path d="M18.084 1.96387C18.084 2.79512 18.7527 3.46387 19.584 3.46387H22.334C23.8527 3.46387 25.084 4.69512 25.084 6.21387C25.084 7.73262 23.8527 8.96387 22.334 8.96387H1.58398C0.752734 8.96387 0.0839844 9.63262 0.0839844 10.4639C0.0839844 11.2951 0.752734 11.9639 1.58398 11.9639H22.334C25.509 11.9639 28.084 9.38887 28.084 6.21387C28.084 3.03887 25.509 0.463867 22.334 0.463867H19.584C18.7527 0.463867 18.084 1.13262 18.084 1.96387ZM22.084 24.9639C22.084 25.7951 22.7527 26.4639 23.584 26.4639H26.334C29.509 26.4639 32.084 23.8889 32.084 20.7139C32.084 17.5389 29.509 14.9639 26.334 14.9639H1.58398C0.752734 14.9639 0.0839844 15.6326 0.0839844 16.4639C0.0839844 17.2951 0.752734 17.9639 1.58398 17.9639H26.334C27.8527 17.9639 29.084 19.1951 29.084 20.7139C29.084 22.2326 27.8527 23.4639 26.334 23.4639H23.584C22.7527 23.4639 22.084 24.1326 22.084 24.9639ZM7.58398 32.4639H10.334C13.509 32.4639 16.084 29.8889 16.084 26.7139C16.084 23.5389 13.509 20.9639 10.334 20.9639H1.58398C0.752734 20.9639 0.0839844 21.6326 0.0839844 22.4639C0.0839844 23.2951 0.752734 23.9639 1.58398 23.9639H10.334C11.8527 23.9639 13.084 25.1951 13.084 26.7139C13.084 28.2326 11.8527 29.4639 10.334 29.4639H7.58398C6.75273 29.4639 6.08398 30.1326 6.08398 30.9639C6.08398 31.7951 6.75273 32.4639 7.58398 32.4639Z" fill="#FFB700"/>
</svg>
