<svg width="40" height="41" viewBox="0 0 40 41" fill="none" xmlns="http://www.w3.org/2000/svg">
<path d="M26.002 9.46387V31.4639H30.002C30.552 31.4639 31.002 31.0139 31.002 30.4639V10.4639C31.002 9.91387 30.552 9.46387 30.002 9.46387H26.002ZM23.002 9.46387H17.002V31.4639H23.002V9.46387ZM14.002 31.4639V9.46387H10.002C9.45195 9.46387 9.00195 9.91387 9.00195 10.4639V30.4639C9.00195 31.0139 9.45195 31.4639 10.002 31.4639H14.002ZM6.00195 10.4639C6.00195 8.25762 7.7957 6.46387 10.002 6.46387H30.002C32.2082 6.46387 34.002 8.25762 34.002 10.4639V30.4639C34.002 32.6701 32.2082 34.4639 30.002 34.4639H10.002C7.7957 34.4639 6.00195 32.6701 6.00195 30.4639V10.4639Z" fill="#FFB700"/>
</svg>
