<svg width="147" height="147" viewBox="0 0 147 147" fill="none" xmlns="http://www.w3.org/2000/svg">
<path d="M145.466 67.3791C145.627 69.3474 145.71 71.3433 145.71 73.3563C145.71 79.4832 144.945 85.4378 143.509 91.121L98.226 79.6491C98.736 77.6366 99.0079 75.5293 99.0079 73.3558C99.0079 72.6406 98.9804 71.9309 98.9191 71.2324L145.466 67.3791Z" fill="#C70F0A"/>
<path d="M145.464 67.379L98.9169 71.2327C98.6843 68.344 97.9686 65.5883 96.8489 63.0491L139.631 44.286C142.775 51.4496 144.799 59.2233 145.464 67.379Z" fill="#C70F0A"/>
<path d="M98.2234 79.6495L143.506 91.1213C141.527 98.978 138.255 106.33 133.931 112.928L94.8301 87.3844C96.366 85.0445 97.5249 82.4385 98.2234 79.6495Z" fill="#CE0F09"/>
<path d="M94.8314 87.3839L133.932 112.928C129.551 119.62 124.09 125.547 117.797 130.454L89.1094 93.5938C91.3438 91.8586 93.2793 89.7572 94.8314 87.3839Z" fill="#CE0F09"/>
<path d="M126.583 24.3478L92.2238 55.9798C90.3164 53.9005 88.0653 52.1428 85.5648 50.7845L107.793 9.70453C114.846 13.5303 121.188 18.4929 126.583 24.3478Z" fill="#CE0F09"/>
<path d="M89.1087 93.5939L117.796 130.454C111.553 135.317 104.489 139.187 96.849 141.804L81.6844 97.6248C84.3959 96.6936 86.8964 95.3241 89.1087 93.5939Z" fill="#F9FBFC"/>
<path d="M107.796 9.70448L85.5674 50.7845C83.1224 49.4592 80.4331 48.5221 77.5831 48.0455L85.268 1.9754C93.2961 3.30612 100.887 5.96169 107.796 9.70448Z" fill="#006B63"/>
<path d="M81.6822 97.6247L96.8468 141.804C89.478 144.332 81.5771 145.707 73.3542 145.707V99.0055C76.2709 99.0055 79.0708 98.5176 81.6822 97.6247Z" fill="#007DAA"/>
<path d="M61.4429 1.9754L69.1278 48.0509C66.2779 48.5221 63.5943 49.4592 61.1435 50.7845L38.9154 9.71034C45.8238 5.96169 53.4085 3.30612 61.4429 1.9754Z" fill="#009245"/>
<path d="M38.9119 9.70984L61.14 50.784C58.6396 52.1422 56.3939 53.9 54.481 55.9792L20.1213 24.3473C25.5164 18.4928 31.8593 13.5302 38.9119 9.70984Z" fill="#4EAB3F"/>
<path d="M57.5999 93.5997L28.9121 130.454C22.6188 125.547 17.1575 119.62 12.7771 112.928L51.8775 87.3839C53.4305 89.7572 55.3655 91.8586 57.5999 93.5997Z" fill="#DB9D00"/>
<path d="M65.0226 97.6194L49.858 141.804C42.2178 139.187 35.1538 135.317 28.9106 130.454L57.5984 93.5997C59.8107 95.3241 62.3111 96.6936 65.0226 97.6194Z" fill="#1DA7DA"/>
<path d="M7.07513 44.286L49.857 63.0491C48.7368 65.5883 48.0217 68.344 47.789 71.2327L1.24225 67.379C1.90738 59.2233 3.93119 51.4496 7.07513 44.286Z" fill="#B2DA4F"/>
<path d="M51.8776 87.384L12.7772 112.928C8.45226 106.33 5.18116 98.9776 3.20154 91.1209L48.4843 79.6491C49.1828 82.4386 50.3417 85.0445 51.8776 87.384Z" fill="#F5B000"/>
<path d="M48.4838 79.6495L3.20103 91.1214C1.76479 85.4382 1 79.4831 1 73.3567C1 71.3441 1.08297 69.3478 1.24396 67.3795L47.7907 71.2332C47.7298 71.9317 47.7018 72.6415 47.7018 73.3567C47.7018 75.5297 47.9738 77.637 48.4838 79.6495Z" fill="#FFC123"/>
<path d="M73.3574 99.0056V145.707C65.1292 145.707 57.2283 144.333 49.8595 141.804L65.0241 97.6194C67.6355 98.5177 70.4412 99.0056 73.3574 99.0056Z" fill="#198EB9"/>
<path d="M85.2664 1.97538L77.5815 48.0455C76.2066 47.8182 74.7983 47.7018 73.3567 47.7018C71.915 47.7018 70.5013 47.8182 69.126 48.0513L61.4411 1.97583C65.3169 1.33279 69.2978 1 73.3562 1C77.4156 0.99955 81.391 1.33189 85.2664 1.97538Z" fill="#00745D"/>
<path d="M20.1242 24.3478L54.4839 55.9798C52.5764 58.0478 51.0076 60.4319 49.8595 63.0491L7.0777 44.2861C10.3159 36.9173 14.7463 30.1861 20.1242 24.3478Z" fill="#9CC33A"/>
<path d="M139.631 44.2861L96.8492 63.0491C95.7015 60.4319 94.1323 58.0478 92.2248 55.9798L126.584 24.3478C131.963 30.1861 136.393 36.9173 139.631 44.2861Z" fill="#CE0F09"/>
<path d="M88.6658 93.641L117.803 130.143C111.547 135.127 104.505 139.046 96.9918 141.736L81.2872 97.7471C83.9526 96.7988 86.4486 95.409 88.6658 93.641Z" fill="#CE0F09"/>
<path d="M106.562 106.569C124.906 88.2248 124.906 58.4827 106.562 40.1383C88.2176 21.7939 58.4755 21.7939 40.1311 40.1383C21.7867 58.4827 21.7867 88.2248 40.1311 106.569C58.4755 124.914 88.2176 124.914 106.562 106.569Z" fill="#E4E5E6"/>
<path d="M145.466 67.3791C145.627 69.3474 145.71 71.3433 145.71 73.3563C145.71 79.4832 144.945 85.4378 143.509 91.121L98.226 79.6491C98.736 77.6366 99.0079 75.5293 99.0079 73.3558C99.0079 72.6406 98.9804 71.9309 98.9191 71.2324L145.466 67.3791Z" stroke="#F7F9FA" stroke-width="1.1089" stroke-miterlimit="10"/>
<path d="M145.464 67.379L98.9169 71.2327C98.6843 68.344 97.9686 65.5883 96.8489 63.0491L139.631 44.286C142.775 51.4496 144.799 59.2233 145.464 67.379Z" stroke="#F7F9FA" stroke-width="1.1089" stroke-miterlimit="10"/>
<path d="M98.2234 79.6495L143.506 91.1213C141.527 98.978 138.255 106.33 133.931 112.928L94.8301 87.3844C96.366 85.0445 97.5249 82.4385 98.2234 79.6495Z" stroke="#F7F9FA" stroke-width="1.1089" stroke-miterlimit="10"/>
<path d="M94.8314 87.3839L133.932 112.928C129.551 119.62 124.09 125.547 117.797 130.454L89.1094 93.5938C91.3438 91.8586 93.2793 89.7572 94.8314 87.3839Z" stroke="#F7F9FA" stroke-width="1.1089" stroke-miterlimit="10"/>
<path d="M126.583 24.3478L92.2238 55.9798C90.3164 53.9005 88.0653 52.1428 85.5648 50.7845L107.793 9.70453C114.846 13.5303 121.188 18.4929 126.583 24.3478Z" stroke="#F7F9FA" stroke-width="1.1089" stroke-miterlimit="10"/>
<path d="M89.1087 93.5939L117.796 130.454C111.553 135.317 104.489 139.187 96.849 141.804L81.6844 97.6248C84.3959 96.6936 86.8964 95.3241 89.1087 93.5939Z" stroke="#F7F9FA" stroke-width="1.1089" stroke-miterlimit="10"/>
<path d="M107.796 9.70448L85.5674 50.7845C83.1224 49.4592 80.4331 48.5221 77.5831 48.0455L85.268 1.9754C93.2961 3.30612 100.887 5.96169 107.796 9.70448Z" stroke="#F7F9FA" stroke-width="1.1089" stroke-miterlimit="10"/>
<path d="M81.6822 97.6247L96.8468 141.804C89.478 144.332 81.5771 145.707 73.3542 145.707V99.0055C76.2709 99.0055 79.0708 98.5176 81.6822 97.6247Z" stroke="#F7F9FA" stroke-width="1.1089" stroke-miterlimit="10"/>
<path d="M61.4429 1.9754L69.1278 48.0509C66.2779 48.5221 63.5943 49.4592 61.1435 50.7845L38.9154 9.71034C45.8238 5.96169 53.4085 3.30612 61.4429 1.9754Z" stroke="#F7F9FA" stroke-width="1.1089" stroke-miterlimit="10"/>
<path d="M38.9119 9.70984L61.14 50.784C58.6396 52.1422 56.3939 53.9 54.481 55.9792L20.1213 24.3473C25.5164 18.4928 31.8593 13.5302 38.9119 9.70984Z" stroke="#F7F9FA" stroke-width="1.1089" stroke-miterlimit="10"/>
<path d="M57.5999 93.5997L28.9121 130.454C22.6188 125.547 17.1575 119.62 12.7771 112.928L51.8775 87.3839C53.4305 89.7572 55.3655 91.8586 57.5999 93.5997Z" stroke="#F7F9FA" stroke-width="1.1089" stroke-miterlimit="10"/>
<path d="M65.0226 97.6194L49.858 141.804C42.2178 139.187 35.1538 135.317 28.9106 130.454L57.5984 93.5997C59.8107 95.3241 62.3111 96.6936 65.0226 97.6194Z" stroke="#F7F9FA" stroke-width="1.1089" stroke-miterlimit="10"/>
<path d="M7.07513 44.286L49.857 63.0491C48.7368 65.5883 48.0217 68.344 47.789 71.2327L1.24225 67.379C1.90738 59.2233 3.93119 51.4496 7.07513 44.286Z" stroke="#F7F9FA" stroke-width="1.1089" stroke-miterlimit="10"/>
<path d="M51.8776 87.384L12.7772 112.928C8.45226 106.33 5.18116 98.9776 3.20154 91.1209L48.4843 79.6491C49.1828 82.4386 50.3417 85.0445 51.8776 87.384Z" stroke="#F7F9FA" stroke-width="1.1089" stroke-miterlimit="10"/>
<path d="M48.4838 79.6495L3.20103 91.1214C1.76479 85.4382 1 79.4831 1 73.3567C1 71.3441 1.08297 69.3478 1.24396 67.3795L47.7907 71.2332C47.7298 71.9317 47.7018 72.6415 47.7018 73.3567C47.7018 75.5297 47.9738 77.637 48.4838 79.6495Z" stroke="#F7F9FA" stroke-width="1.1089" stroke-miterlimit="10"/>
<path d="M73.3574 99.0056V145.707C65.1292 145.707 57.2283 144.333 49.8595 141.804L65.0241 97.6194C67.6355 98.5177 70.4412 99.0056 73.3574 99.0056Z" stroke="#F7F9FA" stroke-width="1.1089" stroke-miterlimit="10"/>
<path d="M85.2664 1.97538L77.5815 48.0455C76.2066 47.8182 74.7983 47.7018 73.3567 47.7018C71.915 47.7018 70.5013 47.8182 69.126 48.0513L61.4411 1.97583C65.3169 1.33279 69.2978 1 73.3562 1C77.4156 0.99955 81.391 1.33189 85.2664 1.97538Z" stroke="#F7F9FA" stroke-width="1.1089" stroke-miterlimit="10"/>
<path d="M20.1242 24.3478L54.4839 55.9798C52.5764 58.0478 51.0076 60.4319 49.8595 63.0491L7.0777 44.2861C10.3159 36.9173 14.7463 30.1861 20.1242 24.3478Z" stroke="#F7F9FA" stroke-width="1.1089" stroke-miterlimit="10"/>
<path d="M139.631 44.2861L96.8492 63.0491C95.7015 60.4319 94.1323 58.0478 92.2248 55.9798L126.584 24.3478C131.963 30.1861 136.393 36.9173 139.631 44.2861Z" stroke="#F7F9FA" stroke-width="1.1089" stroke-miterlimit="10"/>
<path d="M73.3466 41.4724C90.9544 41.4724 105.228 55.7464 105.228 73.3537C105.228 90.9615 90.9539 105.235 73.3466 105.235C55.7393 105.235 41.4653 90.9615 41.4653 73.3537C41.4653 55.7464 55.7393 41.4724 73.3466 41.4724ZM73.3466 39.2145C54.5222 39.2145 39.2075 54.5293 39.2075 73.3537C39.2075 92.1781 54.5222 107.493 73.3466 107.493C92.171 107.493 107.486 92.1786 107.486 73.3537C107.486 54.5293 92.1715 39.2145 73.3466 39.2145Z" fill="#E4E5E6"/>
<g filter="url(#filter0_dddd_1_330)">
<path d="M73.3505 26.3797C99.2934 26.3797 120.325 47.411 120.325 73.3539C120.325 99.2968 99.2938 120.328 73.3505 120.328C47.4071 120.328 26.3763 99.2968 26.3763 73.3539C26.3763 47.411 47.4075 26.3797 73.3505 26.3797ZM73.3505 23.0526C59.9148 23.0526 47.2826 28.2849 37.7823 37.7857C28.2815 47.2865 23.0497 59.9182 23.0497 73.3539C23.0497 86.7896 28.2819 99.4212 37.7823 108.922C47.2826 118.423 59.9148 123.655 73.3505 123.655C86.7862 123.655 99.4178 118.423 108.919 108.922C118.419 99.4212 123.651 86.7896 123.651 73.3539C123.651 59.9182 118.419 47.2865 108.919 37.7857C99.4183 28.2853 86.7866 23.0526 73.3505 23.0526Z" fill="#CFD1D2"/>
</g>
<path d="M104.86 78.4682C107.684 61.0669 95.8666 44.6709 78.4653 41.8468C61.064 39.0227 44.668 50.8398 41.8439 68.2411C39.0198 85.6425 50.8369 102.038 68.2382 104.863C85.6396 107.687 102.036 95.8695 104.86 78.4682Z" fill="#F9FBFC"/>
<g filter="url(#filter1_dddd_1_330)">
<path d="M85.1643 73.3536C85.1643 74.0322 85.1075 74.6969 84.9975 75.344C84.8293 76.3379 84.5362 77.2898 84.1348 78.1827C82.2896 82.2993 78.1558 85.1659 73.352 85.1659C68.5486 85.1659 64.4144 82.2993 62.5692 78.1827C62.1678 77.2903 61.8747 76.3383 61.7065 75.344C61.5969 74.6969 61.5397 74.0322 61.5397 73.3536C61.5397 66.8294 66.8278 61.5413 73.352 61.5413C79.8762 61.5413 85.1643 66.8294 85.1643 73.3536Z" fill="#E4E5E6"/>
</g>
<path d="M77.4734 71.0376L69.7813 69.7154L77.8288 38.1308C78.2337 36.5417 80.5939 36.9476 80.4446 38.5809L77.4734 71.0376Z" fill="#333234"/>
<path d="M78.2608 38.2426C78.4092 37.6605 78.8935 37.5284 79.2633 37.5924C79.633 37.656 80.0452 37.9423 79.9902 38.5398L77.0641 70.5104L70.3338 69.3538L78.2608 38.2426Z" fill="#49484A"/>
<path d="M77.0649 70.5105L79.991 38.5399C80.046 37.9424 79.6339 37.656 79.2641 37.5924L73.6914 69.931L77.0649 70.5105Z" fill="#333234"/>
<path d="M78.3419 75.9721C76.8957 78.7292 73.4884 79.7916 70.7314 78.3459C67.9744 76.8997 66.9115 73.4924 68.3577 70.7354C69.8038 67.9784 73.2111 66.9155 75.9681 68.3617C78.7256 69.8078 79.788 73.2151 78.3419 75.9721Z" fill="#333234"/>
<g filter="url(#filter2_dddd_1_330)">
<path d="M76.1278 74.8093C75.3238 76.3416 73.4299 76.9323 71.8976 76.1287C70.3649 75.3247 69.7746 73.4307 70.5782 71.8985C71.3822 70.3662 73.2761 69.7754 74.8084 70.579C76.3407 71.3826 76.9314 73.2765 76.1278 74.8093Z" fill="#49484A"/>
</g>
<path d="M71.8502 36.4901L73.706 32.8168V32.7869H71.5519V32.1264H74.5242V32.8018L72.6705 36.4901H71.8502Z" fill="#525252"/>
<path d="M85.8319 38.789C85.5323 38.6861 85.2836 38.5444 85.0858 38.3638C84.8893 38.1838 84.7552 37.9838 84.6835 37.7639C84.6136 37.5432 84.6176 37.3216 84.6955 37.099C84.7537 36.9252 84.8459 36.779 84.9723 36.6601C85.0987 36.5413 85.2437 36.4559 85.4072 36.404C85.5725 36.3511 85.7404 36.3389 85.9108 36.3674L85.9205 36.3391C85.7244 36.2193 85.5896 36.0521 85.516 35.8376C85.4443 35.6222 85.4474 35.4033 85.5253 35.1807C85.5968 34.968 85.7209 34.7989 85.8977 34.6733C86.0745 34.5478 86.2833 34.4731 86.5243 34.4492C86.7658 34.4239 87.0202 34.4572 87.2875 34.549C87.5522 34.6398 87.7713 34.7691 87.945 34.9369C88.1205 35.1038 88.2395 35.291 88.3018 35.4987C88.3656 35.7068 88.361 35.917 88.2881 36.1292C88.2115 36.3522 88.0775 36.5262 87.8859 36.6512C87.6961 36.7753 87.489 36.8251 87.2647 36.8006L87.255 36.8288C87.407 36.911 87.5306 37.0233 87.6259 37.1657C87.723 37.3071 87.785 37.4636 87.8117 37.6349C87.8398 37.8068 87.8241 37.9794 87.7647 38.1527C87.6881 38.3757 87.5538 38.5526 87.3617 38.6834C87.1701 38.8128 86.9414 38.8883 86.6758 38.9097C86.4114 38.9316 86.1301 38.8913 85.8319 38.789ZM86.0298 38.2126C86.1843 38.2656 86.3276 38.2856 86.4598 38.2724C86.5924 38.2578 86.7069 38.2131 86.8033 38.138C86.8996 38.0629 86.9701 37.9625 87.0148 37.8367C87.0587 37.7046 87.0643 37.5766 87.0318 37.4528C87.001 37.3281 86.9377 37.217 86.842 37.1196C86.7477 37.0226 86.6273 36.949 86.4808 36.8987C86.3331 36.848 86.1915 36.8316 86.0561 36.8498C85.9207 36.8679 85.8019 36.9164 85.6997 36.9955C85.5993 37.0736 85.5272 37.1788 85.4833 37.3109C85.4386 37.4367 85.4312 37.5588 85.4612 37.6772C85.4915 37.7943 85.5546 37.8993 85.6504 37.9922C85.7475 38.0857 85.8739 38.1591 86.0298 38.2126ZM86.6752 36.3324C86.8015 36.3758 86.9218 36.3885 87.0361 36.3707C87.1517 36.3533 87.2533 36.3086 87.3411 36.2366C87.4289 36.1647 87.494 36.0691 87.5364 35.95C87.5757 35.8313 87.583 35.7182 87.5583 35.6106C87.5341 35.5017 87.4813 35.4062 87.3998 35.3242C87.3188 35.2408 87.2145 35.1772 87.0869 35.1334C86.9566 35.0886 86.8332 35.0741 86.7167 35.0896C86.602 35.1043 86.5017 35.1472 86.4157 35.2183C86.3315 35.2886 86.2698 35.383 86.2306 35.5017C86.1882 35.6208 86.1788 35.7355 86.2025 35.8458C86.2281 35.9551 86.2809 36.0529 86.361 36.1389C86.4429 36.2241 86.5476 36.2886 86.6752 36.3324Z" fill="#525252"/>
<path d="M98.7626 41.0752C98.9265 41.2046 99.0641 41.3585 99.1754 41.5369C99.2887 41.7151 99.3584 41.917 99.3845 42.1425C99.4115 42.3668 99.379 42.6143 99.2873 42.8848C99.1955 43.1554 99.0274 43.4476 98.7831 43.7614C98.5539 44.0582 98.3167 44.2983 98.0713 44.4817C97.8279 44.6649 97.585 44.7908 97.3426 44.8595C97.1001 44.9282 96.8632 44.94 96.6319 44.8949C96.4006 44.8499 96.1812 44.7466 95.9739 44.5852C95.7564 44.416 95.5968 44.2233 95.495 44.0073C95.3943 43.7921 95.3499 43.5704 95.362 43.3422C95.374 43.114 95.4424 42.8954 95.5672 42.6865L96.1809 43.1642C96.1058 43.3254 96.0851 43.4838 96.1187 43.6396C96.1542 43.7951 96.246 43.9304 96.394 44.0455C96.6327 44.2314 96.8972 44.2708 97.1875 44.1637C97.4778 44.0567 97.7665 43.8188 98.0535 43.45L98.03 43.4317C97.8983 43.4876 97.7608 43.5174 97.6176 43.5211C97.4752 43.5236 97.3337 43.5008 97.193 43.4525C97.0535 43.4051 96.9221 43.3335 96.7988 43.2375C96.5971 43.0805 96.453 42.8909 96.3666 42.6689C96.2814 42.4477 96.2571 42.2165 96.2938 41.975C96.3316 41.7345 96.4342 41.5056 96.6014 41.2884C96.7759 41.0642 96.9841 40.9032 97.2259 40.8052C97.4698 40.707 97.7249 40.6788 97.9912 40.7205C98.2584 40.7611 98.5155 40.8793 98.7626 41.0752ZM98.3717 41.5809C98.2506 41.4867 98.1182 41.4314 97.9745 41.4149C97.8327 41.3981 97.6946 41.4184 97.56 41.4756C97.4274 41.5326 97.3132 41.6228 97.2172 41.7461C97.1232 41.8691 97.0643 42.0015 97.0405 42.1431C97.0177 42.2856 97.0308 42.4227 97.0796 42.5542C97.1295 42.6867 97.2155 42.8004 97.3377 42.8955C97.4285 42.9662 97.5266 43.0147 97.6321 43.041C97.7376 43.0673 97.8435 43.0724 97.9498 43.0561C98.0581 43.0396 98.1594 43.0042 98.2539 42.9499C98.3494 42.8965 98.4311 42.825 98.4989 42.7356C98.5905 42.6179 98.6471 42.4874 98.6687 42.344C98.6915 42.2015 98.6782 42.0625 98.6289 41.9269C98.5807 41.7922 98.495 41.6769 98.3717 41.5809Z" fill="#525252"/>
<path d="M107.655 49.3031L104.001 51.6896L103.569 51.0278L106.578 49.062L106.564 49.0406L105.46 48.5427L106.067 48.1465L107.243 48.6734L107.655 49.3031ZM105.42 54.0129C105.228 53.7192 105.138 53.4185 105.149 53.1109C105.162 52.8038 105.273 52.5016 105.481 52.2045C105.691 51.9079 105.995 51.6294 106.393 51.3692C106.792 51.1101 107.168 50.9452 107.521 50.8744C107.875 50.804 108.194 50.8254 108.479 50.9383C108.764 51.0525 109.002 51.2558 109.193 51.5484C109.384 51.8409 109.474 52.1406 109.464 52.4474C109.454 52.7542 109.346 53.0552 109.138 53.3503C108.931 53.6466 108.629 53.9245 108.232 54.184C107.832 54.445 107.454 54.6115 107.097 54.6834C106.742 54.7557 106.422 54.7352 106.136 54.6218C105.85 54.5096 105.612 54.3067 105.42 54.0129ZM105.978 53.6482C106.127 53.8765 106.358 53.9833 106.668 53.9685C106.981 53.954 107.357 53.8035 107.796 53.5169C108.086 53.3273 108.31 53.1377 108.468 52.9481C108.626 52.7585 108.719 52.5758 108.746 52.3999C108.775 52.2233 108.74 52.0595 108.642 51.9084C108.493 51.6813 108.263 51.5755 107.951 51.5911C107.64 51.606 107.266 51.7549 106.83 52.0381C106.538 52.2272 106.312 52.4164 106.152 52.6056C105.993 52.796 105.899 52.9795 105.871 53.1561C105.843 53.3319 105.879 53.496 105.978 53.6482Z" fill="#525252"/>
<path d="M112.636 62.5499L108.406 63.6212L108.212 62.8549L111.696 61.9724L111.69 61.9476L110.807 61.1183L111.51 60.9405L112.451 61.8208L112.636 62.5499ZM113.344 65.3445L109.114 66.4158L108.92 65.6495L112.404 64.767L112.398 64.7422L111.515 63.9129L112.217 63.7351L113.159 64.6154L113.344 65.3445Z" fill="#525252"/>
<path d="M114.446 75.8703L110.098 75.5098L110.163 74.722L113.745 75.0189L113.747 74.9934L113.182 73.9225L113.904 73.9823L114.508 75.1207L114.446 75.8703ZM110.006 76.614L110.575 76.6612L111.93 78.2936C112.064 78.4501 112.183 78.5811 112.289 78.6868C112.394 78.7924 112.498 78.8737 112.6 78.9307C112.702 78.9876 112.813 79.021 112.934 79.031C113.071 79.0424 113.191 79.021 113.294 78.9668C113.398 78.9127 113.482 78.8334 113.544 78.7289C113.607 78.6243 113.644 78.5027 113.656 78.364C113.668 78.221 113.648 78.0932 113.598 77.9807C113.549 77.8683 113.473 77.7779 113.37 77.7096C113.267 77.6426 113.142 77.603 112.993 77.5906L113.055 76.8411C113.331 76.864 113.566 76.9468 113.759 77.0897C113.953 77.2326 114.096 77.4191 114.19 77.6492C114.283 77.8807 114.318 78.1402 114.294 78.4276C114.27 78.7192 114.194 78.9709 114.067 79.1827C113.94 79.3945 113.776 79.5534 113.576 79.6594C113.376 79.7669 113.155 79.8105 112.911 79.7903C112.748 79.7768 112.591 79.7324 112.439 79.6571C112.287 79.5818 112.122 79.4576 111.944 79.2847C111.766 79.1131 111.553 78.8752 111.304 78.571L110.604 77.7582L110.574 77.7558L110.417 79.6499L109.759 79.5953L110.006 76.614Z" fill="#525252"/>
<path d="M111.556 88.407L107.56 86.6541L107.878 85.9302L111.169 87.3741L111.18 87.3507L110.992 86.1541L111.656 86.4451L111.858 87.7182L111.556 88.407ZM106.431 89.079C106.554 88.7981 106.712 88.5694 106.904 88.3931C107.096 88.2181 107.305 88.1051 107.532 88.0543C107.759 88.0034 107.987 88.0234 108.215 88.1143L107.894 88.848C107.783 88.8072 107.673 88.8016 107.564 88.8312C107.456 88.8615 107.356 88.9209 107.264 89.0094C107.173 89.098 107.098 89.2093 107.039 89.3433C106.976 89.4864 106.945 89.624 106.946 89.7563C106.948 89.8891 106.981 90.0064 107.043 90.1083C107.105 90.2101 107.195 90.286 107.313 90.336C107.433 90.3904 107.554 90.406 107.674 90.3828C107.795 90.3595 107.907 90.2988 108.012 90.2007C108.117 90.1038 108.206 89.9708 108.28 89.8017L108.435 89.4485L108.993 89.6933L108.838 90.0465C108.777 90.1857 108.748 90.3179 108.751 90.4431C108.752 90.5696 108.784 90.6818 108.845 90.7799C108.907 90.8785 108.996 90.9526 109.113 91.0021C109.225 91.053 109.335 91.0707 109.441 91.0552C109.547 91.0416 109.645 90.9982 109.733 90.9251C109.82 90.8533 109.891 90.7549 109.946 90.63C110 90.5077 110.027 90.3849 110.029 90.2614C110.03 90.1379 110.004 90.0264 109.95 89.9267C109.897 89.8275 109.816 89.7515 109.705 89.6985L110.011 89.0019C110.232 89.1053 110.401 89.2558 110.515 89.4536C110.631 89.6532 110.691 89.8779 110.694 90.1277C110.699 90.3781 110.645 90.6327 110.532 90.8915C110.415 91.1582 110.263 91.3678 110.077 91.5203C109.891 91.6747 109.691 91.769 109.475 91.8034C109.26 91.8378 109.051 91.8104 108.848 91.7214C108.623 91.624 108.463 91.4749 108.37 91.2742C108.276 91.0747 108.253 90.8568 108.301 90.6203L108.269 90.6066C108.107 90.8705 107.909 91.0401 107.674 91.1155C107.44 91.1928 107.198 91.176 106.949 91.0652C106.725 90.967 106.553 90.8154 106.432 90.6103C106.312 90.4071 106.25 90.1723 106.248 89.9059C106.244 89.6409 106.306 89.3652 106.431 89.079Z" fill="#525252"/>
<path d="M103.924 100.496L100.714 97.5402L101.249 96.9587L103.894 99.3932L103.911 99.3744L104.123 98.1819L104.656 98.6726L104.434 99.9424L103.924 100.496ZM100.612 98.8457L101.075 99.2714L101.973 102.615L101.618 103.001L100.96 102.395L101.176 102.159L100.567 99.9046L100.542 99.8815L98.7917 101.783L98.3136 101.343L100.612 98.8457ZM98.6069 99.8288L99.3436 100.507L99.5448 100.704L101.811 102.791L101.306 103.339L98.096 100.384L98.6069 99.8288Z" fill="#525252"/>
<path d="M46.3706 97.8618C46.6082 98.1199 46.7468 98.4016 46.7865 98.7068C46.8241 99.0119 46.7648 99.3282 46.6086 99.6554C46.4503 99.9826 46.1961 100.307 45.846 100.63C45.495 100.951 45.1514 101.175 44.8154 101.303C44.4774 101.431 44.1589 101.463 43.86 101.398C43.5601 101.332 43.2919 101.171 43.0552 100.914C42.8185 100.657 42.6798 100.376 42.6391 100.072C42.5984 99.7677 42.6562 99.4529 42.8124 99.1276C42.9676 98.8013 43.2197 98.4774 43.5688 98.1561C43.9199 97.8329 44.2655 97.6064 44.6056 97.4767C44.9438 97.3469 45.2633 97.3144 45.5642 97.3791C45.8641 97.4427 46.1329 97.6036 46.3706 97.8618ZM45.8799 98.3135C45.6952 98.1128 45.4507 98.0454 45.1464 98.1112C44.8401 98.177 44.4941 98.3874 44.1085 98.7424C43.8535 98.9771 43.6638 99.201 43.5394 99.414C43.415 99.627 43.3536 99.8225 43.3553 100C43.356 100.179 43.4174 100.335 43.5396 100.468C43.7233 100.668 43.9679 100.734 44.2732 100.667C44.5775 100.601 44.9214 100.393 45.3048 100.042C45.5618 99.8072 45.7535 99.5834 45.88 99.3705C46.0054 99.1565 46.0678 98.9601 46.0672 98.7811C46.0655 98.6031 46.0031 98.4472 45.8799 98.3135Z" fill="#525252"/>
<path d="M35.0791 89.4649L39.0753 87.712L39.3928 88.436L36.101 89.8799L36.1113 89.9033L37.1184 90.576L36.4549 90.867L35.3812 90.1537L35.0791 89.4649Z" fill="#525252"/>
<path d="M35.6428 77.9489L35.0737 77.996L33.4685 76.6089C33.3107 76.4766 33.1712 76.367 33.05 76.2802C32.9288 76.1933 32.8131 76.1302 32.7029 76.0908C32.5928 76.0515 32.4775 76.0368 32.3572 76.0468C32.2199 76.0582 32.105 76.0991 32.0124 76.1695C31.9185 76.24 31.8492 76.3319 31.8044 76.4454C31.7596 76.5589 31.743 76.685 31.7545 76.8237C31.7664 76.9667 31.8065 77.0895 31.8748 77.1921C31.9418 77.2949 32.0315 77.3716 32.1441 77.4221C32.2565 77.4712 32.387 77.4896 32.5356 77.4773L32.5977 78.2269C32.3217 78.2498 32.0765 78.2067 31.8622 78.0976C31.6479 77.9885 31.4757 77.8281 31.3456 77.6166C31.2153 77.4036 31.1383 77.1534 31.1145 76.866C31.0903 76.5744 31.1236 76.3137 31.2143 76.0838C31.305 75.8539 31.4401 75.6703 31.6197 75.5328C31.7992 75.3939 32.0107 75.3144 32.2542 75.2942C32.417 75.2807 32.5795 75.2986 32.7418 75.3479C32.9041 75.3971 33.0873 75.4924 33.2915 75.6337C33.4955 75.7736 33.7451 75.9731 34.0402 76.2323L34.8647 76.9187L34.8944 76.9162L34.7374 75.0221L35.3957 74.9676L35.6428 77.9489Z" fill="#525252"/>
<path d="M36.8518 63.7009C36.7765 63.9983 36.6586 64.2498 36.4981 64.4553C36.338 64.6595 36.1501 64.8053 35.9345 64.8928C35.7189 64.9804 35.491 64.9981 35.2507 64.946L35.4474 64.1694C35.5634 64.1915 35.6728 64.1789 35.7756 64.1317C35.8771 64.0841 35.9657 64.0091 36.0414 63.9066C36.1172 63.8042 36.173 63.6821 36.2089 63.5403C36.2473 63.3888 36.2551 63.2479 36.2324 63.1176C36.2084 62.987 36.1572 62.8766 36.0789 62.7864C36.0007 62.6962 35.8994 62.6362 35.7751 62.6062C35.6474 62.5724 35.5261 62.5768 35.4113 62.6195C35.2964 62.6622 35.1952 62.7406 35.1077 62.8548C35.0206 62.9675 34.9543 63.1134 34.909 63.2924L34.8143 63.6662L34.2236 63.5166L34.3183 63.1428C34.3556 62.9954 34.3627 62.8602 34.3396 62.7372C34.3169 62.6127 34.2675 62.5072 34.1913 62.4204C34.1137 62.3334 34.0134 62.275 33.8905 62.2454C33.7711 62.2137 33.6603 62.2142 33.5582 62.2469C33.4551 62.278 33.3662 62.3368 33.2916 62.4234C33.2172 62.5086 33.1633 62.6173 33.1299 62.7495C33.0971 62.8789 33.0901 63.0047 33.1091 63.1267C33.128 63.2487 33.1723 63.3544 33.2419 63.4439C33.3102 63.5329 33.4031 63.5946 33.5204 63.6287L33.3337 64.3661C33.0982 64.3006 32.9076 64.1797 32.7617 64.0036C32.6148 63.8257 32.519 63.6139 32.4742 63.3681C32.4281 63.122 32.4398 62.8619 32.5092 62.5879C32.5807 62.3056 32.6958 62.0739 32.8544 61.8929C33.0121 61.7101 33.1942 61.584 33.4008 61.5147C33.6074 61.4454 33.8181 61.438 34.0329 61.4924C34.2714 61.5513 34.4533 61.6721 34.5785 61.8547C34.704 62.036 34.7627 62.2472 34.7543 62.4883L34.7874 62.4967C34.904 62.2097 35.0719 62.0097 35.291 61.8967C35.5091 61.782 35.7501 61.7588 36.0142 61.8271C36.251 61.8871 36.446 62.0082 36.5991 62.1906C36.7512 62.3713 36.8504 62.5927 36.8968 62.8551C36.9435 63.116 36.9285 63.3979 36.8518 63.7009Z" fill="#525252"/>
<path d="M39.2622 53.9242L38.736 53.5804L37.2995 50.4304L37.5861 49.9915L38.3353 50.481L38.1605 50.7485L39.1324 52.8723L39.161 52.8909L40.5745 50.7271L41.1185 51.0825L39.2622 53.9242ZM41.0786 52.6242L40.2402 52.0765L40.0094 51.9155L37.43 50.2306L37.8378 49.6062L41.4911 51.9927L41.0786 52.6242Z" fill="#525252"/>
<path d="M50.0236 43.5686C49.7995 43.7431 49.5661 43.8572 49.3236 43.911C49.0802 43.9636 48.8488 43.9566 48.6294 43.8897C48.4111 43.8221 48.2244 43.6955 48.0694 43.5102L48.6747 43.0391C48.7958 43.1716 48.9467 43.2395 49.1275 43.2428C49.3074 43.245 49.4752 43.1855 49.6311 43.0642C49.7532 42.9691 49.8401 42.8564 49.8918 42.7262C49.9434 42.596 49.9579 42.4597 49.9352 42.3172C49.9125 42.1747 49.8508 42.04 49.7502 41.913C49.6501 41.7822 49.5328 41.6881 49.3983 41.6308C49.2637 41.5736 49.1254 41.5543 48.9834 41.573C48.8405 41.5907 48.7057 41.6488 48.5791 41.7473C48.4751 41.8265 48.3885 41.9245 48.3193 42.0414C48.25 42.1583 48.2111 42.2713 48.2026 42.3806L47.5674 42.7265L46.3653 40.811L48.3627 39.2563L48.7684 39.7775L47.2872 40.9305L47.8986 41.9206L47.9188 41.9049C47.9242 41.7801 47.966 41.6477 48.0442 41.5076C48.1215 41.3664 48.2296 41.2417 48.3686 41.1336C48.5771 40.9713 48.8016 40.8758 49.042 40.847C49.2816 40.8172 49.5151 40.8514 49.7428 40.9496C49.9704 41.0478 50.1702 41.2073 50.342 41.4281C50.5192 41.6556 50.6244 41.8995 50.6577 42.1598C50.6913 42.418 50.6548 42.6705 50.5481 42.9173C50.4417 43.1622 50.2669 43.3793 50.0236 43.5686Z" fill="#525252"/>
<path d="M61.621 38.1957C61.4231 38.2622 61.2185 38.2941 61.0074 38.2915C60.7958 38.2876 60.5884 38.2348 60.3854 38.1333C60.1819 38.0305 59.992 37.8667 59.8157 37.6418C59.6389 37.4157 59.4862 37.1129 59.3574 36.7336C59.2361 36.3803 59.1656 36.0523 59.1458 35.7498C59.126 35.4472 59.1539 35.1763 59.2295 34.9371C59.3046 34.6965 59.4243 34.4918 59.5885 34.3227C59.7541 34.1533 59.9605 34.0261 60.2077 33.9412C60.467 33.8522 60.7143 33.8244 60.9495 33.8578C61.1861 33.8907 61.3966 33.9746 61.5811 34.1095C61.7651 34.2431 61.9099 34.4156 62.0156 34.6271L61.28 34.8796C61.188 34.734 61.0674 34.6343 60.9182 34.5804C60.7699 34.5246 60.6071 34.5272 60.4298 34.5881C60.1436 34.6863 59.966 34.8862 59.8968 35.1878C59.829 35.4889 59.8689 35.8567 60.0165 36.2911L60.0447 36.2814C60.0699 36.1406 60.1204 36.0099 60.1962 35.8893C60.2719 35.7687 60.3678 35.6629 60.4837 35.572C60.6006 35.4793 60.7329 35.4076 60.8807 35.3569C61.1225 35.2739 61.3593 35.2572 61.5911 35.3067C61.8242 35.3559 62.032 35.4625 62.2145 35.6266C62.3966 35.7894 62.5317 36.0013 62.6198 36.2624C62.7143 36.5333 62.7362 36.7984 62.6855 37.0576C62.6344 37.3154 62.5185 37.5444 62.3379 37.7446C62.1573 37.9448 61.9184 38.0951 61.621 38.1957ZM61.4094 37.5925C61.5559 37.5423 61.6746 37.4617 61.7657 37.3508C61.8568 37.24 61.9152 37.1125 61.9409 36.9686C61.9665 36.8246 61.9529 36.6776 61.8999 36.5276C61.8505 36.3794 61.7723 36.2568 61.6654 36.1598C61.5599 36.0624 61.4381 35.9983 61.2999 35.9677C61.1617 35.937 61.0194 35.9468 60.873 35.9971C60.7641 36.0344 60.6699 36.0901 60.5901 36.164C60.5104 36.2379 60.4482 36.3239 60.4037 36.4217C60.3588 36.5183 60.3328 36.6218 60.3257 36.7324C60.3195 36.8411 60.3344 36.9502 60.3704 37.0594C60.4211 37.2027 60.5001 37.3235 60.6074 37.4218C60.7148 37.5202 60.8387 37.5857 60.9791 37.6186C61.1195 37.6515 61.263 37.6428 61.4094 37.5925Z" fill="#525252"/>
<defs>
<filter id="filter0_dddd_1_330" x="22.0497" y="3.05264" width="120.602" height="121.602" filterUnits="userSpaceOnUse" color-interpolation-filters="sRGB">
<feFlood flood-opacity="0" result="BackgroundImageFix"/>
<feColorMatrix in="SourceAlpha" type="matrix" values="0 0 0 0 0 0 0 0 0 0 0 0 0 0 0 0 0 0 127 0" result="hardAlpha"/>
<feOffset dx="1" dy="-1"/>
<feGaussianBlur stdDeviation="1"/>
<feColorMatrix type="matrix" values="0 0 0 0 0 0 0 0 0 0 0 0 0 0 0 0 0 0 0.19 0"/>
<feBlend mode="normal" in2="BackgroundImageFix" result="effect1_dropShadow_1_330"/>
<feColorMatrix in="SourceAlpha" type="matrix" values="0 0 0 0 0 0 0 0 0 0 0 0 0 0 0 0 0 0 127 0" result="hardAlpha"/>
<feOffset dx="3" dy="-3"/>
<feGaussianBlur stdDeviation="2"/>
<feColorMatrix type="matrix" values="0 0 0 0 0 0 0 0 0 0 0 0 0 0 0 0 0 0 0.16 0"/>
<feBlend mode="normal" in2="effect1_dropShadow_1_330" result="effect2_dropShadow_1_330"/>
<feColorMatrix in="SourceAlpha" type="matrix" values="0 0 0 0 0 0 0 0 0 0 0 0 0 0 0 0 0 0 127 0" result="hardAlpha"/>
<feOffset dx="7" dy="-7"/>
<feGaussianBlur stdDeviation="3"/>
<feColorMatrix type="matrix" values="0 0 0 0 0 0 0 0 0 0 0 0 0 0 0 0 0 0 0.09 0"/>
<feBlend mode="normal" in2="effect2_dropShadow_1_330" result="effect3_dropShadow_1_330"/>
<feColorMatrix in="SourceAlpha" type="matrix" values="0 0 0 0 0 0 0 0 0 0 0 0 0 0 0 0 0 0 127 0" result="hardAlpha"/>
<feOffset dx="12" dy="-13"/>
<feGaussianBlur stdDeviation="3.5"/>
<feColorMatrix type="matrix" values="0 0 0 0 0 0 0 0 0 0 0 0 0 0 0 0 0 0 0.03 0"/>
<feBlend mode="normal" in2="effect3_dropShadow_1_330" result="effect4_dropShadow_1_330"/>
<feBlend mode="normal" in="SourceGraphic" in2="effect4_dropShadow_1_330" result="shape"/>
</filter>
<filter id="filter1_dddd_1_330" x="46.5397" y="59.5413" width="39.6246" height="36.6246" filterUnits="userSpaceOnUse" color-interpolation-filters="sRGB">
<feFlood flood-opacity="0" result="BackgroundImageFix"/>
<feColorMatrix in="SourceAlpha" type="matrix" values="0 0 0 0 0 0 0 0 0 0 0 0 0 0 0 0 0 0 127 0" result="hardAlpha"/>
<feOffset dx="-1"/>
<feGaussianBlur stdDeviation="1"/>
<feColorMatrix type="matrix" values="0 0 0 0 0 0 0 0 0 0 0 0 0 0 0 0 0 0 0.1 0"/>
<feBlend mode="normal" in2="BackgroundImageFix" result="effect1_dropShadow_1_330"/>
<feColorMatrix in="SourceAlpha" type="matrix" values="0 0 0 0 0 0 0 0 0 0 0 0 0 0 0 0 0 0 127 0" result="hardAlpha"/>
<feOffset dx="-2" dy="2"/>
<feGaussianBlur stdDeviation="1.5"/>
<feColorMatrix type="matrix" values="0 0 0 0 0 0 0 0 0 0 0 0 0 0 0 0 0 0 0.09 0"/>
<feBlend mode="normal" in2="effect1_dropShadow_1_330" result="effect2_dropShadow_1_330"/>
<feColorMatrix in="SourceAlpha" type="matrix" values="0 0 0 0 0 0 0 0 0 0 0 0 0 0 0 0 0 0 127 0" result="hardAlpha"/>
<feOffset dx="-6" dy="3"/>
<feGaussianBlur stdDeviation="2"/>
<feColorMatrix type="matrix" values="0 0 0 0 0 0 0 0 0 0 0 0 0 0 0 0 0 0 0.05 0"/>
<feBlend mode="normal" in2="effect2_dropShadow_1_330" result="effect3_dropShadow_1_330"/>
<feColorMatrix in="SourceAlpha" type="matrix" values="0 0 0 0 0 0 0 0 0 0 0 0 0 0 0 0 0 0 127 0" result="hardAlpha"/>
<feOffset dx="-10" dy="6"/>
<feGaussianBlur stdDeviation="2.5"/>
<feColorMatrix type="matrix" values="0 0 0 0 0 0 0 0 0 0 0 0 0 0 0 0 0 0 0.01 0"/>
<feBlend mode="normal" in2="effect3_dropShadow_1_330" result="effect4_dropShadow_1_330"/>
<feBlend mode="normal" in="SourceGraphic" in2="effect4_dropShadow_1_330" result="shape"/>
</filter>
<filter id="filter2_dddd_1_330" x="69.2191" y="69.22" width="10.2678" height="9.26773" filterUnits="userSpaceOnUse" color-interpolation-filters="sRGB">
<feFlood flood-opacity="0" result="BackgroundImageFix"/>
<feColorMatrix in="SourceAlpha" type="matrix" values="0 0 0 0 0 0 0 0 0 0 0 0 0 0 0 0 0 0 127 0" result="hardAlpha"/>
<feOffset/>
<feGaussianBlur stdDeviation="0.5"/>
<feColorMatrix type="matrix" values="0 0 0 0 0 0 0 0 0 0 0 0 0 0 0 0 0 0 0.85 0"/>
<feBlend mode="normal" in2="BackgroundImageFix" result="effect1_dropShadow_1_330"/>
<feColorMatrix in="SourceAlpha" type="matrix" values="0 0 0 0 0 0 0 0 0 0 0 0 0 0 0 0 0 0 127 0" result="hardAlpha"/>
<feOffset dx="1"/>
<feGaussianBlur stdDeviation="0.5"/>
<feColorMatrix type="matrix" values="0 0 0 0 0 0 0 0 0 0 0 0 0 0 0 0 0 0 0.5 0"/>
<feBlend mode="normal" in2="effect1_dropShadow_1_330" result="effect2_dropShadow_1_330"/>
<feColorMatrix in="SourceAlpha" type="matrix" values="0 0 0 0 0 0 0 0 0 0 0 0 0 0 0 0 0 0 127 0" result="hardAlpha"/>
<feOffset dx="1" dy="1"/>
<feGaussianBlur stdDeviation="0.5"/>
<feColorMatrix type="matrix" values="0 0 0 0 0 0 0 0 0 0 0 0 0 0 0 0 0 0 0.15 0"/>
<feBlend mode="normal" in2="effect2_dropShadow_1_330" result="effect3_dropShadow_1_330"/>
<feColorMatrix in="SourceAlpha" type="matrix" values="0 0 0 0 0 0 0 0 0 0 0 0 0 0 0 0 0 0 127 0" result="hardAlpha"/>
<feOffset dx="2" dy="1"/>
<feGaussianBlur stdDeviation="0.5"/>
<feColorMatrix type="matrix" values="0 0 0 0 0 0 0 0 0 0 0 0 0 0 0 0 0 0 0.02 0"/>
<feBlend mode="normal" in2="effect3_dropShadow_1_330" result="effect4_dropShadow_1_330"/>
<feBlend mode="normal" in="SourceGraphic" in2="effect4_dropShadow_1_330" result="shape"/>
</filter>
</defs>
</svg>
