<svg width="47" height="141" viewBox="0 0 47 141" fill="none" xmlns="http://www.w3.org/2000/svg">
<mask id="mask0_1_543" style="mask-type:luminance" maskUnits="userSpaceOnUse" x="0" y="3" width="46" height="138">
<path d="M0.00012207 3.97953H45.5846V140.284H0.00012207V3.97953Z" fill="white"/>
</mask>
<g mask="url(#mask0_1_543)">
<path d="M22.7832 6.54744C18.1725 6.54744 14.4204 10.3142 14.4204 14.9395V98.7029L13.7628 99.028C10.3943 100.698 7.54822 103.262 5.53149 106.452C3.45997 109.729 2.36392 113.518 2.36392 117.416C2.36392 128.716 11.5232 137.912 22.7832 137.912C34.0396 137.912 43.1989 128.716 43.1989 117.416C43.1989 113.518 42.1028 109.729 40.035 106.452C38.0183 103.262 35.1722 100.698 31.8037 99.028L31.1461 98.7029V14.9395C31.1461 10.3142 27.3939 6.54744 22.7832 6.54744ZM22.7832 140.287C10.2189 140.287 0.00012207 130.024 0.00012207 117.416C0.00012207 113.068 1.22404 108.834 3.53304 105.181C5.65206 101.834 8.58581 99.1011 12.0566 97.2378V14.9395C12.0566 9.00258 16.8682 4.17267 22.7832 4.17267C28.6982 4.17267 33.5099 9.00258 33.5099 14.9395V97.2378C36.9807 99.1011 39.9144 101.834 42.0298 105.181C44.3424 108.834 45.5627 113.068 45.5627 117.416C45.5627 130.024 35.3439 140.287 22.7832 140.287Z" fill="#949494"/>
</g>
<mask id="mask1_1_543" style="mask-type:luminance" maskUnits="userSpaceOnUse" x="35" y="90" width="12" height="4">
<path d="M35.6747 90.8026H46.2076V93.1006H35.6747V90.8026Z" fill="white"/>
</mask>
<g mask="url(#mask1_1_543)">
<path d="M45.3566 92.7245H36.6102C36.1389 92.7245 35.7553 92.3372 35.7553 91.8659C35.7553 91.391 36.1389 91.011 36.6102 91.011H45.3566C45.8279 91.011 46.2079 91.391 46.2079 91.8659C46.2079 92.3372 45.8279 92.7245 45.3566 92.7245Z" fill="#949494"/>
</g>
<path d="M41.693 88.1405H36.4357C36.063 88.1405 35.7561 87.8372 35.7561 87.4609V87.1102C35.7561 86.7339 36.063 86.4306 36.4357 86.4306H41.693C42.0693 86.4306 42.3726 86.7339 42.3726 87.1102V87.4609C42.3726 87.8372 42.0693 88.1405 41.693 88.1405Z" fill="#949494"/>
<mask id="mask2_1_543" style="mask-type:luminance" maskUnits="userSpaceOnUse" x="35" y="81" width="12" height="3">
<path d="M35.6747 81.5626H46.2077V83.952H35.6747V81.5626Z" fill="white"/>
</mask>
<g mask="url(#mask2_1_543)">
<path d="M45.3566 83.5626H36.6102C36.1389 83.5626 35.7553 83.179 35.7553 82.7041C35.7553 82.2328 36.1389 81.8492 36.6102 81.8492H45.3566C45.8279 81.8492 46.2079 82.2328 46.2079 82.7041C46.2079 83.179 45.8279 83.5626 45.3566 83.5626Z" fill="#949494"/>
</g>
<path d="M41.693 78.9808H36.4357C36.063 78.9808 35.7561 78.6739 35.7561 78.2976V77.9505C35.7561 77.5742 36.063 77.2673 36.4357 77.2673H41.693C42.0693 77.2673 42.3726 77.5742 42.3726 77.9505V78.2976C42.3726 78.6739 42.0693 78.9808 41.693 78.9808Z" fill="#949494"/>
<mask id="mask3_1_543" style="mask-type:luminance" maskUnits="userSpaceOnUse" x="35" y="72" width="12" height="3">
<path d="M35.6747 72.4123H46.2076V74.4034H35.6747V72.4123Z" fill="white"/>
</mask>
<g mask="url(#mask3_1_543)">
<path d="M45.3566 74.4008H36.6102C36.1389 74.4008 35.7553 74.0172 35.7553 73.5459C35.7553 73.0709 36.1389 72.6873 36.6102 72.6873H45.3566C45.8279 72.6873 46.2079 73.0709 46.2079 73.5459C46.2079 74.0172 45.8279 74.4008 45.3566 74.4008Z" fill="#949494"/>
</g>
<path d="M41.693 69.8187H36.4357C36.063 69.8187 35.7561 69.5155 35.7561 69.1392V68.7884C35.7561 68.4121 36.063 68.1052 36.4357 68.1052H41.693C42.0693 68.1052 42.3726 68.4121 42.3726 68.7884V69.1392C42.3726 69.5155 42.0693 69.8187 41.693 69.8187Z" fill="#949494"/>
<mask id="mask4_1_543" style="mask-type:luminance" maskUnits="userSpaceOnUse" x="35" y="63" width="12" height="3">
<path d="M35.6747 63.2616H46.2076V65.2527H35.6747V63.2616Z" fill="white"/>
</mask>
<g mask="url(#mask4_1_543)">
<path d="M45.3566 65.2375H36.6102C36.1389 65.2375 35.7553 64.8575 35.7553 64.3825C35.7553 63.9076 36.1389 63.524 36.6102 63.524H45.3566C45.8279 63.524 46.2079 63.9076 46.2079 64.3825C46.2079 64.8575 45.8279 65.2375 45.3566 65.2375Z" fill="#949494"/>
</g>
<path d="M41.693 60.6554H36.4357C36.063 60.6554 35.7561 60.3522 35.7561 59.9759V59.6251C35.7561 59.2488 36.063 58.9456 36.4357 58.9456H41.693C42.0693 58.9456 42.3726 59.2488 42.3726 59.6251V59.9759C42.3726 60.3522 42.0693 60.6554 41.693 60.6554Z" fill="#949494"/>
<mask id="mask5_1_543" style="mask-type:luminance" maskUnits="userSpaceOnUse" x="35" y="54" width="12" height="3">
<path d="M35.6747 54.3273H46.2076V56.0993H35.6747V54.3273Z" fill="white"/>
</mask>
<g mask="url(#mask5_1_543)">
<path d="M45.3566 56.0763H36.6102C36.1389 56.0763 35.7553 55.6927 35.7553 55.2177C35.7553 54.7464 36.1389 54.3628 36.6102 54.3628H45.3566C45.8279 54.3628 46.2079 54.7464 46.2079 55.2177C46.2079 55.6927 45.8279 56.0763 45.3566 56.0763Z" fill="#949494"/>
</g>
<path d="M41.693 51.4957H36.4357C36.063 51.4957 35.7561 51.1888 35.7561 50.8125V50.4655C35.7561 50.0891 36.063 49.7822 36.4357 49.7822H41.693C42.0693 49.7822 42.3726 50.0891 42.3726 50.4655V50.8125C42.3726 51.1888 42.0693 51.4957 41.693 51.4957Z" fill="#949494"/>
<mask id="mask6_1_543" style="mask-type:luminance" maskUnits="userSpaceOnUse" x="35" y="44" width="12" height="3">
<path d="M35.6746 44.9747H46.2076V46.9476H35.6746V44.9747Z" fill="white"/>
</mask>
<g mask="url(#mask6_1_543)">
<path d="M45.3566 46.9144H36.6102C36.1389 46.9144 35.7553 46.5308 35.7553 46.0595C35.7553 45.5846 36.1389 45.2009 36.6102 45.2009H45.3566C45.8279 45.2009 46.2079 45.5846 46.2079 46.0595C46.2079 46.5308 45.8279 46.9144 45.3566 46.9144Z" fill="#949494"/>
</g>
<path d="M41.693 42.3336H36.4357C36.063 42.3336 35.7561 42.0304 35.7561 41.6541V41.3034C35.7561 40.927 36.063 40.6238 36.4357 40.6238H41.693C42.0693 40.6238 42.3726 40.927 42.3726 41.3034V41.6541C42.3726 42.0304 42.0693 42.3336 41.693 42.3336Z" fill="#949494"/>
<mask id="mask7_1_543" style="mask-type:luminance" maskUnits="userSpaceOnUse" x="35" y="35" width="12" height="3">
<path d="M35.6747 35.8076H46.2076V37.7987H35.6747V35.8076Z" fill="white"/>
</mask>
<g mask="url(#mask7_1_543)">
<path d="M45.3566 37.7509H36.6102C36.1389 37.7509 35.7553 37.3709 35.7553 36.896C35.7553 36.421 36.1389 36.0374 36.6102 36.0374H45.3566C45.8279 36.0374 46.2079 36.421 46.2079 36.896C46.2079 37.3709 45.8279 37.7509 45.3566 37.7509Z" fill="#949494"/>
</g>
<path d="M41.693 33.174H36.4357C36.063 33.174 35.7561 32.8671 35.7561 32.4908V32.14C35.7561 31.7637 36.063 31.4605 36.4357 31.4605H41.693C42.0693 31.4605 42.3726 31.7637 42.3726 32.14V32.4908C42.3726 32.8671 42.0693 33.174 41.693 33.174Z" fill="#949494"/>
<mask id="mask8_1_543" style="mask-type:luminance" maskUnits="userSpaceOnUse" x="35" y="26" width="12" height="3">
<path d="M35.6747 26.6567H46.2076V28.6478H35.6747V26.6567Z" fill="white"/>
</mask>
<g mask="url(#mask8_1_543)">
<path d="M45.3566 28.5898H36.6102C36.1389 28.5898 35.7553 28.2098 35.7553 27.7349C35.7553 27.2636 36.1389 26.8799 36.6102 26.8799H45.3566C45.8279 26.8799 46.2079 27.2636 46.2079 27.7349C46.2079 28.2098 45.8279 28.5898 45.3566 28.5898Z" fill="#949494"/>
</g>
<mask id="mask9_1_543" style="mask-type:luminance" maskUnits="userSpaceOnUse" x="35" y="17" width="12" height="3">
<path d="M35.6742 17.5044H46.2072V19.4955H35.6742V17.5044Z" fill="white"/>
</mask>
<g mask="url(#mask9_1_543)">
<path d="M45.3566 19.4299H36.6102C36.1389 19.4299 35.7553 19.0462 35.7553 18.5749C35.7553 18.1 36.1389 17.7164 36.6102 17.7164H45.3566C45.8279 17.7164 46.2079 18.1 46.2079 18.5749C46.2079 19.0462 45.8279 19.4299 45.3566 19.4299Z" fill="#949494"/>
</g>
<path d="M41.693 24.0107H36.4357C36.063 24.0107 35.7561 23.7038 35.7561 23.3275V22.9804C35.7561 22.6004 36.063 22.2972 36.4357 22.2972H41.693C42.0693 22.2972 42.3726 22.6004 42.3726 22.9804V23.3275C42.3726 23.7038 42.0693 24.0107 41.693 24.0107Z" fill="#949494"/>
<g filter="url(#filter0_d_1_543)">
<path d="M27.7639 102.082V24.8446C27.7639 22.092 25.5324 19.8605 22.7798 19.8605V19.8605C20.0272 19.8605 17.7957 22.092 17.7957 24.8446V102.082C11.815 104.548 6.35556 110.452 6.35556 117.346C6.35556 126.451 13.71 133.835 22.7816 133.835C31.8532 133.835 39.2077 126.451 39.2077 117.346C39.2077 110.452 33.7483 104.548 27.7639 102.082Z" fill="url(#paint0_linear_1_543)"/>
</g>
<mask id="mask10_1_543" style="mask-type:luminance" maskUnits="userSpaceOnUse" x="37" y="1" width="10" height="12">
<path d="M37.263 1.58794H46.2104V12.2378H37.263V1.58794Z" fill="white"/>
</mask>
<g mask="url(#mask10_1_543)">
<path d="M46.2104 8.82982C45.7975 10.631 44.4494 11.9535 42.0418 11.9535C38.9546 11.9535 37.4603 9.71031 37.4603 6.87886C37.4603 4.15336 38.9838 1.70553 42.1258 1.70553C44.665 1.70553 45.9437 3.18884 46.2067 4.85483H44.3398C44.0841 3.978 43.4885 3.1925 42.0637 3.1925C40.1493 3.1925 39.393 4.9279 39.393 6.8131C39.393 8.59234 40.0725 10.4666 42.1221 10.4666C43.5653 10.4666 44.0877 9.54225 44.3398 8.82982H46.2104Z" fill="#DD2C01"/>
</g>
<mask id="mask11_1_543" style="mask-type:luminance" maskUnits="userSpaceOnUse" x="35" y="0" width="5" height="3">
<path d="M35.3416 1.52588e-05H39.0827V2.88627H35.3416V1.52588e-05Z" fill="white"/>
</mask>
<g mask="url(#mask11_1_543)">
<path d="M37.0672 0.588226C36.669 0.588226 36.3438 0.913386 36.3438 1.31527C36.3438 1.7135 36.669 2.04231 37.0672 2.04231C37.4691 2.04231 37.7942 1.7135 37.7942 1.31527C37.7942 0.913386 37.4691 0.588226 37.0672 0.588226ZM37.0672 2.63052C36.3438 2.63052 35.7556 2.03866 35.7556 1.31527C35.7556 0.588227 36.3438 1.52588e-05 37.0672 1.52588e-05C37.7906 1.52588e-05 38.3788 0.588227 38.3788 1.31527C38.3788 2.03866 37.7906 2.63052 37.0672 2.63052Z" fill="#DD2C01"/>
</g>
<defs>
<filter id="filter0_d_1_543" x="5.10862" y="19.8605" width="35.346" height="116.468" filterUnits="userSpaceOnUse" color-interpolation-filters="sRGB">
<feFlood flood-opacity="0" result="BackgroundImageFix"/>
<feColorMatrix in="SourceAlpha" type="matrix" values="0 0 0 0 0 0 0 0 0 0 0 0 0 0 0 0 0 0 127 0" result="hardAlpha"/>
<feOffset dy="1.24694"/>
<feGaussianBlur stdDeviation="0.623471"/>
<feColorMatrix type="matrix" values="0 0 0 0 0 0 0 0 0 0 0 0 0 0 0 0 0 0 0.26 0"/>
<feBlend mode="normal" in2="BackgroundImageFix" result="effect1_dropShadow_1_543"/>
<feBlend mode="normal" in="SourceGraphic" in2="effect1_dropShadow_1_543" result="shape"/>
</filter>
<linearGradient id="paint0_linear_1_543" x1="22.7816" y1="19.8605" x2="22.7816" y2="133.835" gradientUnits="userSpaceOnUse">
<stop stop-color="#FF3D00"/>
<stop offset="1" stop-color="#992500"/>
</linearGradient>
</defs>
</svg>
