<svg width="109" height="236" viewBox="0 0 101 195" fill="none" xmlns="http://www.w3.org/2000/svg">
<g filter="url(#filter0_dddd_556_1541)">
<path d="M83.6511 137.969L83.6531 138.2L83.6511 138.378L83.6451 166.552C83.6452 171.298 83.7714 176.08 83.6379 180.821L83.6421 180.911C83.7034 182.568 83.2621 183.873 82.122 185.09C76.052 191.567 56.248 193.049 47.635 193.29C37.9443 193.56 15.2114 192.283 7.99564 185.366C6.96431 184.377 6.28017 183.186 6.10601 181.75C5.96275 180.57 6.04242 179.308 6.04118 178.117L6.04118 171.461L6.04388 149.743L5.97309 106.924C6.00804 94.2107 6.24591 81.4525 5.98512 68.7429C5.91378 65.262 6.04332 61.7467 6.04422 58.2614L6.04276 32.6253L6.03501 20.8718C6.02793 18.887 5.82479 16.6667 6.09962 14.704C6.27399 13.459 6.91994 12.3247 7.78936 11.4333C14.299 4.75891 35.2589 3.37084 44.3512 3.32399C53.677 3.2759 75.2387 4.60386 81.9776 11.3726C82.7393 12.1377 83.4909 13.2076 83.6232 14.3074C83.7376 15.2578 83.6412 16.2949 83.6374 17.2567L83.6263 23.0554L83.6241 42.4078L83.64 108.126C83.7405 111.415 83.6468 114.737 83.6463 118.029L83.6531 137.744L83.6511 137.969Z" fill="#4C4645"/>
<path d="M82.7549 137.908C82.6357 149.649 82.7582 161.405 82.7559 173.149C82.7556 174.76 82.7841 176.376 82.7449 177.987C82.7201 179.007 82.3849 180.26 82.6321 181.234C82.6893 181.46 82.7366 181.69 82.7425 181.925C82.7692 182.975 82.0321 183.939 81.3299 184.643C74.84 191.136 53.6113 192.455 44.5006 192.426C35.5272 192.397 14.7602 191.04 8.42235 184.555C7.39237 183.501 7.16463 182.561 7.01339 181.152C6.73217 178.533 6.9198 175.725 6.91935 173.086L6.91744 157.975L6.9398 109.421C7.31306 109.923 7.78462 110.371 8.26832 110.763C10.7485 112.775 14.1099 113.92 17.1379 114.786C29.8905 118.433 46.0694 118.701 59.174 117.265C65.8555 116.533 78.4554 114.661 82.75 109.312L82.7513 137.272C81.0012 136.347 76.8503 133.368 74.7637 134.066C74.5594 134.135 74.4471 134.259 74.3227 134.428C74.2003 134.785 74.2852 135.084 74.3598 135.44C74.9102 136.32 75.7286 136.771 76.4411 137.486C75.9824 137.541 75.4742 137.631 75.0151 137.546C73.9398 137.348 64.8543 134.586 64.2284 134.174C64.7152 134.021 65.3069 133.9 65.6897 133.55L65.6551 133.374C64.9936 133.108 64.0793 133.24 63.4346 133.51C63.1994 133.608 63.031 133.747 62.859 133.932C62.763 134.209 62.7334 134.239 62.8219 134.531C63.8923 135.159 63.5073 135.883 64.1975 136.695C64.3404 136.868 64.3331 136.894 64.5515 136.927L64.6445 136.737C64.5291 136.062 64.2374 135.407 63.9984 134.767C66.5481 135.604 69.0861 136.392 71.6563 137.156C72.6277 137.445 73.6192 137.856 74.6163 138.029C75.1815 138.127 76.0925 138.217 76.6201 137.941C76.8449 137.823 76.8492 137.745 76.9271 137.519C76.7138 136.505 75.3533 135.985 74.8583 135.053L74.8009 134.943C74.8585 134.844 74.9365 134.754 75.0062 134.663C77.2411 134.185 80.7912 136.885 82.7549 137.908Z" fill="#FAFAFA"/>
<path d="M82.9893 142.772C82.8699 152.943 82.9925 163.127 82.9903 173.3C82.9899 174.696 83.0185 176.096 82.9792 177.491C82.9544 178.375 82.6188 179.46 82.8663 180.304C82.9236 180.5 82.9709 180.699 82.9769 180.903C83.0035 181.813 82.2656 182.648 81.5625 183.257C75.0647 188.882 53.8101 190.025 44.6882 190C35.7038 189.974 14.9114 188.799 8.56581 183.181C7.53457 182.268 7.30655 181.454 7.15513 180.233C6.87356 177.964 7.06141 175.532 7.06096 173.246L7.05906 160.156L7.08144 118.094C7.45515 118.529 7.9273 118.918 8.41159 119.258C10.8948 121.001 14.2603 121.993 17.2921 122.742C30.0602 125.901 46.2588 126.134 59.3795 124.89C66.0692 124.256 78.6845 122.634 82.9843 118L82.9857 142.221C81.2334 141.42 77.0774 138.84 74.9883 139.444C74.7838 139.504 74.6713 139.612 74.5467 139.758C74.4242 140.067 74.5092 140.326 74.5839 140.635C75.135 141.397 75.9544 141.787 76.6677 142.407C76.2085 142.455 75.6997 142.533 75.24 142.459C74.1633 142.287 65.0668 139.895 64.4401 139.538C64.9275 139.405 65.5199 139.3 65.9032 138.997L65.8685 138.845C65.2063 138.614 64.2908 138.729 63.6453 138.962C63.4098 139.047 63.2412 139.168 63.069 139.328C62.9729 139.568 62.9433 139.594 63.0319 139.847C64.1036 140.391 63.7181 141.018 64.4091 141.722C64.5522 141.872 64.5449 141.894 64.7636 141.922L64.8568 141.758C64.7412 141.173 64.4491 140.605 64.2098 140.052C66.7626 140.777 69.3038 141.459 71.8771 142.121C72.8496 142.371 73.8424 142.727 74.8407 142.877C75.4066 142.962 76.3188 143.04 76.8469 142.801C77.072 142.699 77.0763 142.631 77.1544 142.435C76.9407 141.557 75.5787 141.107 75.083 140.299L75.0255 140.203C75.0832 140.118 75.1613 140.04 75.231 139.961C77.4687 139.547 81.0232 141.886 82.9893 142.772Z" fill="#FAFAFA"/>
<path d="M82.2529 106.996C82.244 107.529 82.1565 107.933 81.9971 108.282C81.8368 108.633 81.597 108.946 81.2627 109.289C79.8575 110.731 77.5557 111.933 74.7334 112.923C71.9168 113.91 68.6086 114.678 65.2168 115.264C58.4334 116.436 51.3412 116.88 47.2324 116.928C42.5628 116.982 34.4715 116.739 26.707 115.645C22.8248 115.097 19.0305 114.338 15.7891 113.298C12.542 112.256 9.877 110.942 8.22656 109.302C8.05168 109.128 7.8292 108.91 7.63965 108.675C7.44497 108.434 7.31406 108.209 7.28418 108.027C7.19524 107.484 7.21048 106.863 7.2539 106.218C7.29653 105.584 7.36712 104.913 7.37793 104.319C7.40075 103.067 7.3705 101.796 7.35351 100.541L7.34375 99.291L7.34277 74.5322L7.34277 74.5293C7.3311 73.373 7.34195 72.2166 7.37109 71.0605C9.17506 72.6947 11.7009 73.9974 14.6152 75.0352C17.7619 76.1556 21.3797 76.9757 25.0693 77.5713C32.4486 78.7625 40.1402 79.0615 44.9775 79.0645C49.7919 79.0674 57.4192 78.7421 64.7236 77.54C68.3759 76.939 71.9545 76.1184 75.0625 75.0059C77.9299 73.9795 80.4131 72.6977 82.1855 71.1006L82.1904 94.4219L82.1855 101.406L82.1846 101.406C82.1805 101.879 82.1447 102.375 82.1201 102.889C82.0959 103.396 82.0835 103.915 82.1309 104.404C82.1462 104.563 82.1601 104.836 82.1699 105.075C82.1748 105.193 82.178 105.301 82.1807 105.38C82.182 105.419 82.1829 105.452 82.1836 105.474C82.1839 105.484 82.1844 105.493 82.1846 105.499L82.1846 105.507L82.1855 105.521L82.1855 105.522C82.1857 105.524 82.1863 105.527 82.1865 105.53C82.1871 105.537 82.1874 105.548 82.1885 105.562C82.1905 105.588 82.1937 105.627 82.1973 105.675C82.2043 105.771 82.2136 105.906 82.2227 106.058C82.2408 106.363 82.2574 106.73 82.2529 106.996Z" fill="white" stroke="white" stroke-width="0.5"/>
<path d="M82.2529 106.996C82.244 107.529 82.1565 107.933 81.9971 108.282C81.8368 108.633 81.597 108.946 81.2627 109.289C79.8575 110.731 77.5557 111.933 74.7334 112.923C71.9168 113.91 68.6086 114.678 65.2168 115.264C58.4334 116.436 51.3412 116.88 47.2324 116.928C42.5628 116.982 34.4715 116.739 26.707 115.645C22.8248 115.097 19.0305 114.338 15.7891 113.298C12.542 112.256 9.877 110.942 8.22656 109.302C8.05168 109.128 7.8292 108.91 7.63965 108.675C7.44497 108.434 7.31406 108.209 7.28418 108.027C7.19524 107.484 7.21048 106.863 7.2539 106.218C7.29653 105.584 7.36712 104.913 7.37793 104.319C7.40075 103.067 7.3705 101.796 7.35351 100.541L7.34375 99.291L7.34277 74.5322L7.34277 74.5293C7.3311 73.373 7.34195 72.2166 7.37109 71.0605C9.17506 72.6947 11.7009 73.9974 14.6152 75.0352C17.7619 76.1556 21.3797 76.9757 25.0693 77.5713C32.4486 78.7625 40.1402 79.0615 44.9775 79.0645C49.7919 79.0674 57.4192 78.7421 64.7236 77.54C68.3759 76.939 71.9545 76.1184 75.0625 75.0059C77.9299 73.9795 80.4131 72.6977 82.1855 71.1006L82.1904 94.4219L82.1855 101.406L82.1846 101.406C82.1805 101.879 82.1447 102.375 82.1201 102.889C82.0959 103.396 82.0835 103.915 82.1309 104.404C82.1462 104.563 82.1601 104.836 82.1699 105.075C82.1748 105.193 82.178 105.301 82.1807 105.38C82.182 105.419 82.1829 105.452 82.1836 105.474C82.1839 105.484 82.1844 105.493 82.1846 105.499L82.1846 105.507L82.1855 105.521L82.1855 105.522C82.1857 105.524 82.1863 105.527 82.1865 105.53C82.1871 105.537 82.1874 105.548 82.1885 105.562C82.1905 105.588 82.1937 105.627 82.1973 105.675C82.2043 105.771 82.2136 105.906 82.2227 106.058C82.2408 106.363 82.2574 106.73 82.2529 106.996Z" fill="url(#paint0_linear_556_1541)" stroke="white" stroke-width="0.5"/>
<path d="M82.7578 17.236L82.7492 65.4423C82.5197 65.1349 82.2665 64.8461 81.9919 64.5782C75.1716 57.8338 53.568 56.6602 44.2579 56.6889C34.5926 56.7188 16.9127 57.8519 8.87751 63.3846C8.17438 63.8688 7.61069 64.4315 7.01227 65.0335L6.92867 64.8396L6.91743 35.9717C6.91642 29.6631 6.76205 23.3132 6.94856 17.0088C7.37642 17.5742 7.81023 18.0824 8.35393 18.5427C15.2503 24.382 32.8311 25.9278 41.7159 26.139C46.1454 26.2381 50.577 26.1131 54.9938 25.7644C62.888 25.1397 77.5186 23.3729 82.7578 17.236Z" fill="url(#paint1_linear_556_1541)"/>
<path d="M43.8636 44.9267H46.0198L47.8272 47.3048L48.3028 47.939L50.998 51.522H48.8418L47.0662 49.1439L46.6222 48.5414L43.8636 44.9267ZM51.6638 41.8827C51.6638 43.5949 51.3547 45.0747 50.7364 46.3218C50.1181 47.569 49.2699 48.5309 48.1918 49.2073C47.1137 49.8837 45.8824 50.222 44.4978 50.222C43.1132 50.222 41.8819 49.8837 40.8038 49.2073C39.7257 48.5309 38.8775 47.569 38.2592 46.3218C37.6409 45.0747 37.3317 43.5949 37.3317 41.8827C37.3317 40.1705 37.6409 38.6907 38.2592 37.4436C38.8775 36.1964 39.7257 35.2346 40.8038 34.5581C41.8819 33.8817 43.1132 33.5434 44.4978 33.5434C45.8824 33.5434 47.1137 33.8817 48.1918 34.5581C49.2699 35.2346 50.1181 36.1964 50.7364 37.4436C51.3547 38.6907 51.6638 40.1705 51.6638 41.8827ZM49.7614 41.8827C49.7614 40.477 49.5262 39.2906 49.0558 38.3235C48.5908 37.3564 47.9593 36.6244 47.1613 36.1277C46.3686 35.6309 45.4808 35.3825 44.4978 35.3825C43.5148 35.3825 42.6244 35.6309 41.8264 36.1277C41.0337 36.6244 40.4022 37.3564 39.9318 38.3235C39.4668 39.2906 39.2342 40.477 39.2342 41.8827C39.2342 43.2884 39.4668 44.4748 39.9318 45.4419C40.4022 46.409 41.0337 47.141 41.8264 47.6377C42.6244 48.1345 43.5148 48.3829 44.4978 48.3829C45.4808 48.3829 46.3686 48.1345 47.1613 47.6377C47.9593 47.141 48.5908 46.409 49.0558 45.4419C49.5262 44.4748 49.7614 43.2884 49.7614 41.8827Z" fill="#505152"/>
<path d="M82.649 13.9288C82.6928 14.6389 82.7324 15.2501 82.4466 15.9151C81.4264 18.29 78.3241 19.7408 76.0643 20.6686C60.8559 26.9132 28.7037 26.9264 13.5633 20.5828C11.0911 19.5469 8.24544 18.0848 7.17648 15.4789C7.10467 14.8895 7.07209 14.292 7.29445 13.7292C8.23645 11.3444 11.2361 9.9034 13.4588 8.94634C28.3786 2.52252 60.6234 2.63847 75.7392 8.68522C78.3624 9.73453 81.4717 11.1898 82.649 13.9288Z" fill="url(#paint2_linear_556_1541)"/>
<path d="M81.9699 181.768C82.0129 182.404 82.0516 182.952 81.7716 183.547C80.7717 185.674 77.7089 186.914 75.5162 187.805C63.9737 192.494 30.7209 194.21 14.1562 187.868C11.7332 186.94 9.16217 185.331 8.11446 182.997C8.0441 182.469 7.89653 182.094 8.11446 181.589C9.03773 179.453 11.9777 178.163 14.1562 177.306C28.7792 171.552 60.3825 171.656 75.1976 177.072C77.7686 178.012 80.8161 179.315 81.9699 181.768Z" fill="url(#paint3_linear_556_1541)"/>
<path d="M82.2129 67.7544C82.2051 68.1804 82.1697 68.5846 82.0654 68.937C81.8728 69.5878 81.2833 70.2187 80.54 70.7847C79.8053 71.3442 78.9608 71.811 78.3164 72.146L78.3154 72.146C74.8393 73.9534 70.8029 74.9463 66.9453 75.7153C52.3027 78.634 30.4889 78.6687 16.1289 74.1265C14.7176 73.68 12.8744 73.0642 11.2051 72.2144C9.54686 71.3702 8.10337 70.3137 7.40137 69.0024C7.37091 68.3054 7.33894 67.6064 7.19434 66.896C7.77536 65.7385 8.7522 64.8364 9.86133 64.1245C14.2256 61.3238 21.333 59.6433 28.6807 58.7114C36.0175 57.7809 43.5526 57.6009 48.7412 57.7759C55.5023 58.0039 62.3279 58.6703 68.9297 60.1372C71.0272 60.6033 73.7609 61.2785 76.2734 62.3169C78.7678 63.3478 81.0034 64.7213 82.2031 66.5649C82.2047 66.9613 82.2204 67.3415 82.2129 67.7544Z" fill="white" stroke="white" stroke-width="0.5"/>
<path d="M82.2129 67.7544C82.2051 68.1804 82.1697 68.5846 82.0654 68.937C81.8728 69.5878 81.2833 70.2187 80.54 70.7847C79.8053 71.3442 78.9608 71.811 78.3164 72.146L78.3154 72.146C74.8393 73.9534 70.8029 74.9463 66.9453 75.7153C52.3027 78.634 30.4889 78.6687 16.1289 74.1265C14.7176 73.68 12.8744 73.0642 11.2051 72.2144C9.54686 71.3702 8.10337 70.3137 7.40137 69.0024C7.37091 68.3054 7.33894 67.6064 7.19434 66.896C7.77536 65.7385 8.7522 64.8364 9.86133 64.1245C14.2256 61.3238 21.333 59.6433 28.6807 58.7114C36.0175 57.7809 43.5526 57.6009 48.7412 57.7759C55.5023 58.0039 62.3279 58.6703 68.9297 60.1372C71.0272 60.6033 73.7609 61.2785 76.2734 62.3169C78.7678 63.3478 81.0034 64.7213 82.2031 66.5649C82.2047 66.9613 82.2204 67.3415 82.2129 67.7544Z" fill="url(#paint4_linear_556_1541)" stroke="white" stroke-width="0.5"/>
<path d="M72.25 71.1796C72.0163 71.4115 72.0178 71.4327 71.6923 71.4472C70.3874 70.7534 69.1508 69.882 67.9043 69.0868L61.2661 64.8485L56.064 61.5239C55.0958 60.9053 53.872 60.2892 53.0682 59.4715C53.0749 59.4629 53.081 59.4537 53.0885 59.4459C53.1974 59.3318 53.2906 59.2017 53.4521 59.1934C53.8312 59.1738 71.3101 70.3152 72.25 71.1796Z" fill="#4C4645"/>
<path d="M39.5703 75.9737C39.5091 76.224 39.5144 76.219 39.3019 76.3642C39.1247 76.3471 39.0074 76.3211 38.8492 76.235C37.8053 75.6669 36.7891 74.9144 35.7833 74.2729L29.1649 70.0529L23.7065 66.5715C22.6449 65.8944 21.425 65.2453 20.4877 64.4056C20.6074 64.2143 20.6638 64.1665 20.8716 64.0786C21.7022 64.3176 38.1126 74.828 39.5703 75.9737Z" fill="#4C4645"/>
<path d="M82.7852 133.236L82.7765 181.442C82.5471 181.135 82.2938 180.846 82.0192 180.578C75.199 173.834 53.5953 172.66 44.2853 172.689C34.6199 172.719 16.94 173.852 8.90485 179.385C8.20172 179.869 7.63803 180.431 7.03961 181.033L6.95602 180.84L6.94478 151.972C6.94376 145.663 6.78939 139.313 6.97591 133.009C7.40376 133.574 7.83758 134.082 8.38127 134.543C15.2777 140.382 32.8585 141.928 41.7433 142.139C46.1728 142.238 50.6044 142.113 55.0211 141.764C62.9154 141.14 77.5459 139.373 82.7852 133.236Z" fill="url(#paint5_linear_556_1541)"/>
<path d="M45.3536 156.646C45.1583 156.451 44.8417 156.451 44.6464 156.646L41.4645 159.828C41.2692 160.024 41.2692 160.34 41.4645 160.536C41.6597 160.731 41.9763 160.731 42.1716 160.536L45 157.707L47.8284 160.536C48.0237 160.731 48.3403 160.731 48.5355 160.536C48.7308 160.34 48.7308 160.024 48.5355 159.828L45.3536 156.646ZM45 168L45.5 168L45.5 157L45 157L44.5 157L44.5 168L45 168Z" fill="#505152"/>
<path d="M45.3536 135.646C45.1583 135.451 44.8417 135.451 44.6464 135.646L41.4645 138.828C41.2692 139.024 41.2692 139.34 41.4645 139.536C41.6597 139.731 41.9763 139.731 42.1716 139.536L45 136.707L47.8284 139.536C48.0237 139.731 48.3403 139.731 48.5355 139.536C48.7308 139.34 48.7308 139.024 48.5355 138.828L45.3536 135.646ZM45 147L45.5 147L45.5 136L45 136L44.5 136L44.5 147L45 147Z" fill="#505152"/>
<path d="M68.3536 151.646C68.1583 151.451 67.8417 151.451 67.6464 151.646L64.4645 154.828C64.2692 155.024 64.2692 155.34 64.4645 155.536C64.6597 155.731 64.9763 155.731 65.1716 155.536L68 152.707L70.8284 155.536C71.0237 155.731 71.3403 155.731 71.5355 155.536C71.7308 155.34 71.7308 155.024 71.5355 154.828L68.3536 151.646ZM68 163L68.5 163L68.5 152L68 152L67.5 152L67.5 163L68 163Z" fill="#505152"/>
<path d="M23.3536 125.646C23.1583 125.451 22.8417 125.451 22.6464 125.646L19.4645 128.828C19.2692 129.024 19.2692 129.34 19.4645 129.536C19.6597 129.731 19.9763 129.731 20.1716 129.536L23 126.707L25.8284 129.536C26.0237 129.731 26.3403 129.731 26.5355 129.536C26.7308 129.34 26.7308 129.024 26.5355 128.828L23.3536 125.646ZM23 137L23.5 137L23.5 126L23 126L22.5 126L22.5 137L23 137Z" fill="#505152"/>
<path d="M22.3536 151.646C22.1583 151.451 21.8417 151.451 21.6464 151.646L18.4645 154.828C18.2692 155.024 18.2692 155.34 18.4645 155.536C18.6597 155.731 18.9763 155.731 19.1716 155.536L22 152.707L24.8284 155.536C25.0237 155.731 25.3403 155.731 25.5355 155.536C25.7308 155.34 25.7308 155.024 25.5355 154.828L22.3536 151.646ZM22 163L22.5 163L22.5 152L22 152L21.5 152L21.5 163L22 163Z" fill="#505152"/>
<path d="M67.3536 124.646C67.1583 124.451 66.8417 124.451 66.6464 124.646L63.4645 127.828C63.2692 128.024 63.2692 128.34 63.4645 128.536C63.6597 128.731 63.9763 128.731 64.1716 128.536L67 125.707L69.8284 128.536C70.0237 128.731 70.3403 128.731 70.5355 128.536C70.7308 128.34 70.7308 128.024 70.5355 127.828L67.3536 124.646ZM67 136L67.5 136L67.5 125L67 125L66.5 125L66.5 136L67 136Z" fill="#505152"/>
</g>
<defs>
<filter id="filter0_dddd_556_1541" x="0.376391" y="0.532434" width="108.436" height="234.645" filterUnits="userSpaceOnUse" color-interpolation-filters="sRGB">
<feFlood flood-opacity="0" result="BackgroundImageFix"/>
<feColorMatrix in="SourceAlpha" type="matrix" values="0 0 0 0 0 0 0 0 0 0 0 0 0 0 0 0 0 0 127 0" result="hardAlpha"/>
<feOffset dx="1.39516" dy="1.39516"/>
<feGaussianBlur stdDeviation="2.09274"/>
<feColorMatrix type="matrix" values="0 0 0 0 0 0 0 0 0 0 0 0 0 0 0 0 0 0 0.1 0"/>
<feBlend mode="normal" in2="BackgroundImageFix" result="effect1_dropShadow_556_1541"/>
<feColorMatrix in="SourceAlpha" type="matrix" values="0 0 0 0 0 0 0 0 0 0 0 0 0 0 0 0 0 0 127 0" result="hardAlpha"/>
<feOffset dx="2.79032" dy="6.9758"/>
<feGaussianBlur stdDeviation="4.18548"/>
<feColorMatrix type="matrix" values="0 0 0 0 0 0 0 0 0 0 0 0 0 0 0 0 0 0 0.09 0"/>
<feBlend mode="normal" in2="effect1_dropShadow_556_1541" result="effect2_dropShadow_556_1541"/>
<feColorMatrix in="SourceAlpha" type="matrix" values="0 0 0 0 0 0 0 0 0 0 0 0 0 0 0 0 0 0 127 0" result="hardAlpha"/>
<feOffset dx="6.9758" dy="16.7419"/>
<feGaussianBlur stdDeviation="5.58064"/>
<feColorMatrix type="matrix" values="0 0 0 0 0 0 0 0 0 0 0 0 0 0 0 0 0 0 0.05 0"/>
<feBlend mode="normal" in2="effect2_dropShadow_556_1541" result="effect3_dropShadow_556_1541"/>
<feColorMatrix in="SourceAlpha" type="matrix" values="0 0 0 0 0 0 0 0 0 0 0 0 0 0 0 0 0 0 127 0" result="hardAlpha"/>
<feOffset dx="12.5564" dy="29.2984"/>
<feGaussianBlur stdDeviation="6.27822"/>
<feColorMatrix type="matrix" values="0 0 0 0 0 0 0 0 0 0 0 0 0 0 0 0 0 0 0.01 0"/>
<feBlend mode="normal" in2="effect3_dropShadow_556_1541" result="effect4_dropShadow_556_1541"/>
<feBlend mode="normal" in="SourceGraphic" in2="effect4_dropShadow_556_1541" result="shape"/>
</filter>
<linearGradient id="paint0_linear_556_1541" x1="81" y1="110" x2="80.5" y2="-6" gradientUnits="userSpaceOnUse">
<stop offset="0.0153352" stop-color="#58B1C1" stop-opacity="0.35"/>
<stop offset="0.434478" stop-color="#58B1C1"/>
</linearGradient>
<linearGradient id="paint1_linear_556_1541" x1="44.8071" y1="17.0088" x2="45.0039" y2="118" gradientUnits="userSpaceOnUse">
<stop offset="0.222896" stop-color="#FAFAFA"/>
<stop offset="0.700932" stop-color="#57B0C0"/>
</linearGradient>
<linearGradient id="paint2_linear_556_1541" x1="55.0039" y1="15" x2="-84.4961" y2="15" gradientUnits="userSpaceOnUse">
<stop stop-color="white"/>
<stop offset="0.721926" stop-color="#D0D0D0"/>
</linearGradient>
<linearGradient id="paint3_linear_556_1541" x1="54.8748" y1="182.728" x2="-81.85" y2="182.728" gradientUnits="userSpaceOnUse">
<stop stop-color="white"/>
<stop offset="0.633853" stop-color="#D0D0D0"/>
</linearGradient>
<linearGradient id="paint4_linear_556_1541" x1="134" y1="46.5" x2="-34.7385" y2="76.666" gradientUnits="userSpaceOnUse">
<stop offset="0.276024" stop-color="#58B1C1" stop-opacity="0.35"/>
<stop offset="1" stop-color="#58B1C1"/>
</linearGradient>
<linearGradient id="paint5_linear_556_1541" x1="44.8345" y1="133.009" x2="45.0313" y2="234" gradientUnits="userSpaceOnUse">
<stop offset="0.222896" stop-color="#FAFAFA"/>
<stop offset="0.700932" stop-color="#BEBEBE"/>
</linearGradient>
</defs>
</svg>
