<svg width="123" height="233" viewBox="0 0 100 195" fill="none" xmlns="http://www.w3.org/2000/svg">
<g filter="url(#filter0_dddd_520_1499)">
<ellipse cx="51.3475" cy="188.143" rx="11.5897" ry="2.41452" fill="#959595"/>
<path d="M23.8017 119.849L23.6369 119.835L23.4722 119.842C22.7488 120.057 22.0217 120.035 21.2875 119.895C20.5283 117.936 21.0261 117.156 22.9923 117.245C23.465 117.267 23.9342 117.356 24.4069 117.356C25.3954 117.51 26.1296 118.305 27.2398 118.302C29.1092 118.295 29.3743 118.151 29.4137 116.225C29.4423 114.878 28.9624 113.524 29.5569 112.185C29.7038 111.852 29.804 111.526 30.1299 111.325C31.6986 110.845 33.303 111.15 34.8896 111.085C36.7089 111.01 38.5354 111.085 40.3476 110.853C40.8561 111.472 40.7057 112.228 40.7021 112.919C40.6806 116.239 41.1176 119.57 40.4694 122.875C38.3098 122.789 36.1431 122.807 33.9799 122.796C32.9664 122.793 31.9564 122.832 30.9572 122.99C30.3771 122.789 30.1371 122.947 30.3448 123.588C30.3663 123.778 30.3771 123.96 30.3878 124.154C30.4129 124.361 30.4272 124.566 30.4344 124.773C30.4881 132.839 30.4845 140.9 30.4344 148.958C30.4236 150.652 31.1829 152.357 30.4164 154.044C30.241 154.248 30.8027 155.452 30.5771 155.305C29.3774 148.106 29.3814 139.672 29.1952 132.441C29.1164 129.411 29.1379 126.378 29.2024 123.348C29.231 122.055 28.8263 121.489 27.4726 121.572C26.4913 121.629 25.4527 121.769 24.5502 121.153C24.5323 120.948 24.5144 120.748 24.4965 120.544C25.5565 120.067 26.7097 120.726 27.8056 120.146C26.0185 121.117 25.0874 118.71 23.4865 119.097C24.3711 119.186 25.1232 119.337 24.4965 120.558C24.3926 120.426 24.2852 120.289 24.1813 120.157C24.0739 120.035 23.9449 119.935 23.8017 119.849Z" fill="#989899"/>
<path d="M40.2773 110.846C39.8296 111.527 39.1599 111.587 38.4185 111.58C35.5821 111.559 32.7457 111.573 29.9128 111.573C29.8806 111.491 29.8447 111.408 29.8125 111.33C29.8519 111.251 29.8877 111.172 29.9271 111.093C29.9916 111.032 30.0525 110.971 30.1169 110.911C31.3095 110.452 32.5523 110.778 33.7699 110.699C34.3394 110.663 34.9768 110.875 35.2669 110.126C35.2526 106.319 35.2275 102.516 35.2347 98.7088C35.2347 98.2074 35.0592 97.6165 35.6179 97.244C36.2411 97.9209 36.1694 98.7697 36.1766 99.5898C36.1945 102.358 36.1623 105.13 36.1945 107.899C36.2052 108.636 36.0656 109.482 36.9932 109.865C39.5968 110.148 39.98 109.747 39.8403 107.182C39.7078 104.751 39.7974 102.312 39.7974 99.8763C39.7974 98.3972 39.1957 97.6272 37.6414 97.7991C36.918 97.7812 36.1909 97.792 35.6107 97.2548C35.6573 97.0506 35.7898 96.9396 35.9975 96.9181C36.9287 96.4454 38.0568 97.1079 38.945 96.4024C39.6183 96.2054 40.3274 96.2413 41.0079 96.0873C41.76 95.9906 42.2076 95.5572 42.2792 94.8159C42.401 93.5767 42.4118 92.3304 42.5228 91.0877C42.6267 89.8879 41.4305 89.8772 40.682 89.4868C40.2128 89.3006 39.7257 89.1609 39.2781 88.9138C38.9593 88.6344 38.6764 88.3228 38.4042 88.0005C38.3756 87.714 38.5188 87.5314 38.7624 87.406C39.0023 87.3236 39.2422 87.3236 39.4822 87.3881C39.629 87.4383 39.7687 87.5063 39.9012 87.5851C39.9657 87.6209 40.0302 87.6639 40.0946 87.6961C40.4134 87.8859 40.7643 87.9361 41.1296 87.9361C41.4949 87.9396 41.8567 87.954 42.2112 88.0399C42.4189 88.0936 42.6159 88.1653 42.82 88.2297C42.9561 88.2548 43.0922 88.287 43.2247 88.3193C43.4289 88.3551 43.6294 88.4052 43.8228 88.4733C44.0162 88.5413 44.206 88.6094 44.4066 88.6523C44.5463 88.6667 44.6824 88.6917 44.8185 88.7132C45.0333 88.7419 45.241 88.792 45.4487 88.8529C45.8176 88.9603 46.1901 88.9926 46.5733 88.9782C46.8276 88.9639 47.0783 88.9603 47.3361 88.9603C47.8017 88.9639 48.2566 89.0033 48.7078 89.1107C50.4663 89.3579 52.2211 89.4259 53.9688 89.032C54.9072 88.8744 55.8562 88.9209 56.8017 88.9245C57.3318 88.9747 58.1196 88.9675 58.134 89.5298C58.1519 90.2819 57.3031 90.178 56.748 90.2532C56.3361 90.3069 55.935 90.3965 55.5339 90.5075C52.4682 90.7761 49.3954 90.5111 46.3298 90.6794C45.3807 90.5254 45.0727 90.9695 45.0942 91.8791C45.1228 93.1792 45.1121 94.4756 44.5284 95.7076C43.9661 96.8966 43.1209 97.373 41.9032 97.1151C42.9382 97.5341 42.9275 98.5405 42.9382 99.529C42.9741 103.017 42.9239 106.509 42.8988 109.997C42.2076 110.839 41.2084 110.735 40.2773 110.846Z" fill="#989797"/>
<path d="M21.3474 119.764C22.0601 119.789 22.7728 119.817 23.4855 119.842C21.6841 120.448 21.6805 120.448 21.6805 122.496C21.6805 124.985 21.6841 127.471 21.6769 129.96C21.6733 131.582 21.6626 131.575 20.0366 131.754C19.7466 131.786 19.4672 131.894 19.1807 131.965C19.0804 131.761 19.0267 131.543 19.0231 131.313C19.0446 122.091 19.0446 112.869 19.0195 103.647C19.0231 103.418 19.0768 103.2 19.1807 102.996C19.4672 103.071 19.7465 103.171 20.0402 103.214C21.6733 103.465 21.6733 103.458 21.6805 105.134C21.6948 108.11 21.7056 111.086 21.7163 114.062C21.4513 115.957 20.9105 117.83 21.3474 119.764Z" fill="#D0CFCF"/>
<path d="M65.0311 88.38C65.0096 90.579 64.9702 92.7815 64.9702 94.9805C64.9702 96.5277 64.9917 96.5312 66.5604 96.5706C66.8576 96.5778 67.1549 96.5706 67.4521 96.567C67.5918 96.7497 67.5775 96.918 67.402 97.072C67.1585 97.2475 66.8827 97.3478 66.5926 97.4122C65.7653 97.5698 65.8692 98.2288 65.8692 98.8054C65.8763 102.466 65.7796 106.129 65.9408 109.793C65.8907 110.008 65.7796 110.18 65.6041 110.316C65.0705 110.567 64.5692 110.545 64.1143 110.137C63.441 109.091 63.4052 107.906 63.3909 106.724C63.3622 104.36 63.4016 102 63.3694 99.6363C63.355 98.6048 63.1008 97.7525 61.8652 97.6415C60.8302 97.3514 60.404 96.739 60.755 95.6538C60.9018 95.2061 60.8803 94.7155 60.8946 94.2427C60.9842 91.2595 60.9842 91.2595 58.4844 90.1206C58.6957 89.1178 59.5373 89.3685 60.1963 89.2611C62.7426 89.3685 62.9324 89.5547 62.9611 92.0151C62.9754 93.197 62.9253 94.3788 63.0076 95.5607C63.0327 95.9296 63.133 96.277 63.5699 96.345C63.9925 96.4095 64.0212 96.08 64.0642 95.7791C64.2038 93.4548 63.8672 91.1198 64.2898 88.8098C64.451 88.5197 64.5978 88.201 65.0311 88.38Z" fill="#BCBCBC"/>
<path d="M21.3441 119.764C21.0003 119.95 20.9645 119.706 20.9645 119.47C20.9609 117.84 20.9824 116.207 20.9573 114.578C20.9466 113.955 21.2367 113.905 21.713 114.062C22.5224 114.051 23.3282 114.041 24.1376 114.03C24.177 114.094 24.22 114.159 24.2594 114.216C24.2414 114.266 24.2271 114.324 24.1985 114.377C24.1734 114.431 24.1376 114.478 24.1054 114.528C24.5387 114.775 24.7392 114.41 24.947 114.17C25.4018 113.643 25.9139 113.285 26.6517 113.385C25.9963 113.274 25.3051 113.564 24.6855 113.178C24.6318 113.113 24.5781 113.049 24.5244 112.984C26.0715 112.365 27.6222 112.508 29.173 112.973C29.5275 113.493 29.3413 114.069 29.3485 114.624C28.8614 115.28 28.1308 115.208 27.436 115.269C26.8738 115.319 26.2004 115.215 25.9712 115.942C25.8459 116.347 26.1181 116.641 26.4941 116.712C27.239 116.852 28.0341 117.024 28.5498 116.225C28.8292 115.788 28.7862 115.194 29.1981 114.807C29.8642 115.57 29.8427 116.644 29.4344 117.855C29.0906 118.872 28.4424 118.299 27.8873 118.399C26.6338 118.628 25.6453 117.883 24.528 117.629C24.0481 117.984 23.5681 117.805 23.0417 117.722C21.5411 117.486 21.3513 117.686 21.319 119.234C21.3155 119.416 21.337 119.592 21.3441 119.764Z" fill="#C1C0C0"/>
<path d="M18.046 131.671C17.5947 131.166 17.7416 130.547 17.7416 129.966C17.7344 121.643 17.7344 113.317 17.7452 104.993C17.7452 104.413 17.6019 103.794 18.0424 103.285C18.1283 103.364 18.2143 103.443 18.3003 103.522C18.6333 104.055 18.6333 104.653 18.6333 105.248C18.6369 113.463 18.6405 121.675 18.6333 129.891C18.6333 130.31 18.6154 130.726 18.4722 131.127C18.3826 131.349 18.2394 131.531 18.046 131.671Z" fill="#CDCDCD"/>
<path d="M29.1932 114.796C29.1825 114.191 29.1753 113.586 29.1646 112.981C29.1932 112.536 29.2326 112.089 29.2469 111.645C29.2613 111.208 29.3974 110.882 29.8737 110.796C30.0599 110.925 30.0706 111.068 29.9059 111.226C29.8164 111.304 29.7841 111.383 29.8164 111.462C29.8486 111.541 29.8773 111.58 29.9095 111.58C29.7662 112.909 29.5227 114.23 29.8844 115.577C30.0026 116.018 29.9381 116.523 29.8844 116.992C29.6946 118.639 29.358 118.775 27.7177 118.786C26.4535 118.797 25.4149 118.507 24.5195 117.647C24.541 117.3 24.5661 116.952 24.5876 116.605C25.1284 118.023 26.2601 118.148 27.4742 118.009C28.0078 117.948 28.5844 118.528 28.9783 118.105C29.4582 117.593 29.5728 116.841 29.537 116.111C29.5191 115.645 29.648 115.144 29.1932 114.796Z" fill="#A5A5A5"/>
<path d="M37.0383 87.6385C37.5719 87.5347 38.0411 87.7352 38.5066 87.9573C38.8433 88.1149 39.0868 88.3584 39.2265 88.7058C40.0896 91.3238 40.1218 93.9417 39.2157 96.5561C38.1986 97.1721 37.0741 96.8534 35.9961 96.9143C36.4939 96.4523 37.1135 96.6493 37.6829 96.6385C38.4314 96.6242 38.7538 96.2696 38.7538 95.5569C38.7502 93.5012 38.743 91.4419 38.7502 89.3862C38.7537 88.7774 38.5066 88.3942 37.93 88.1829C37.6006 88.0576 37.2496 87.9501 37.0383 87.6385Z" fill="#8B8A8A"/>
<path d="M29.9111 111.222C29.9004 111.079 29.8897 110.935 29.8789 110.792C30.9569 110.258 32.1065 110.627 33.2167 110.541C33.9223 110.488 34.66 110.656 35.2653 110.126C35.2868 110.806 35.0217 111.064 34.2911 110.978C33.4137 110.871 32.5184 110.921 31.6302 110.889C31.0285 110.864 30.4483 110.917 29.9111 111.222Z" fill="#989899"/>
<path d="M24.1289 114.033C24.1755 113.654 24.1361 113.245 24.5157 112.991L24.5945 113.07C24.8416 113.557 24.9276 113.983 24.2077 114.112L24.1289 114.033Z" fill="#C1C0C0"/>
<path d="M19.1704 102.995C19.1704 103.114 19.174 103.232 19.1776 103.35C19.1239 103.404 19.0702 103.457 19.0164 103.511C18.7156 103.644 18.4291 103.64 18.1677 103.418C18.1247 103.371 18.0781 103.328 18.0352 103.282C18.3467 102.924 18.7586 102.956 19.1704 102.995Z" fill="#CDCDCD"/>
<path d="M35.2578 86.9154C35.6697 86.9047 36.1102 86.8151 36.3358 87.3094C35.9204 87.3344 35.53 87.2843 35.2578 86.9154Z" fill="#8B8A8A"/>
<path d="M19.1744 131.607C19.1708 131.725 19.1672 131.844 19.1672 131.965C18.7553 132.001 18.3471 132.033 18.0391 131.672C18.0856 131.618 18.1358 131.568 18.1859 131.518C18.4474 131.31 18.7303 131.324 19.0204 131.45C19.0741 131.5 19.1242 131.553 19.1744 131.607Z" fill="#CDCDCD"/>
<path d="M36.3125 87.2951C36.6348 87.2592 36.9178 87.3022 37.0574 87.646C36.7423 87.6747 36.4808 87.5887 36.3125 87.2951Z" fill="#8B8A8A"/>
<path d="M23.8047 119.85C24.0124 119.85 24.1485 119.946 24.195 120.154C24.0661 120.054 23.9336 119.95 23.8047 119.85Z" fill="#CDCDCD"/>
<path d="M55.324 189.564C55.3348 180.473 55.3419 178.142 55.3634 188.367C55.3634 188.886 55.213 189.448 55.6499 189.892C55.7753 190.136 55.7072 190.297 55.4422 190.372C55.0482 190.401 54.819 190.182 54.6543 189.86C54.3714 189.18 54.4 188.456 54.4 187.744C54.4 181.247 54.3785 187.306 54.4036 180.813C54.5003 177.808 54.6836 193.082 54.723 190.074C54.7373 188.91 53.9666 189.349 52.749 189.378C51.8644 189.399 50.9798 189.396 50.0988 189.521C49.8839 189.55 49.6726 189.553 49.4577 189.539C47.7673 189.174 46.0518 189.406 44.3507 189.335C43.5986 189.302 42.8071 189.456 42.1374 188.944C42.4096 187.519 43.5771 188.196 44.3686 187.992C44.938 187.992 45.5075 188.002 46.0733 188.01C46.521 187.834 47.1549 188.486 47.4593 187.68C46.9687 183.372 48.3081 179.318 49.1712 175.206C49.3395 174.408 49.9269 173.666 50.5859 173.183C51.9432 172.187 52.4983 170.507 53.981 169.573C54.9372 168.971 54.4788 167.857 53.9237 167.016C52.9997 165.615 51.9826 164.222 50.5536 163.373C48.0001 161.855 46.3133 159.634 44.8449 157.167C42.1052 152.081 40.3861 146.806 40.7729 140.872C41.0809 136.144 40.8302 131.381 40.8409 126.636C40.8445 125.812 40.7514 124.967 41.174 124.197C41.4749 123.814 41.8759 123.774 42.3165 123.871C43.5341 124.379 43.6344 125.447 43.6344 126.55C43.6308 133.096 43.6881 139.643 43.595 146.19C43.5807 147.1 43.6738 147.952 43.9639 148.815C45.7653 154.133 48.899 158.506 53.2826 161.987C54.2352 162.743 54.9551 163.706 56.3089 164.065C59.8007 164.985 62.7267 164.065 65.402 161.869C67.3646 161.336 67.7155 159.269 68.9976 158.087C69.6459 157.489 69.9718 156.383 71.2002 156.712C71.4688 157.192 71.3614 157.64 71.0426 158.034C68.9404 160.623 67.361 163.61 64.1807 165.3C61.6236 166.661 60.979 169.433 62.168 172.051C62.8055 173.451 63.049 174.859 62.9308 176.363C62.9129 176.65 62.8664 176.929 62.7947 177.205C62.5011 178.576 62.6013 179.955 62.6658 181.338C62.7374 183.271 62.5226 185.209 62.8019 187.139C62.8879 187.727 62.7518 188.303 62.4975 188.844L62.4939 188.848C61.595 189.206 60.6602 188.948 59.7434 189.005C59.4461 189.023 58.9734 189.159 58.9483 188.633C58.9304 188.235 59.3101 188.078 59.6037 187.902C59.8616 187.791 60.1338 187.73 60.4095 187.684C60.6602 187.637 60.9145 187.598 61.1115 187.412C61.4876 186.183 61.4267 184.905 61.2368 183.701C60.7928 180.868 60.9897 178.018 60.7677 175.181C60.5814 172.828 59.3351 171.682 56.9858 172.13C53.3722 172.821 51.4382 175.349 50.3208 178.626C49.4291 181.248 49.2608 183.97 49.3324 186.72C49.3467 187.272 49.5007 187.641 50.0845 187.73C50.8974 188.056 51.7462 188.013 52.595 187.977C53.4151 187.995 54.246 187.902 55.0375 188.21C55.6141 188.55 55.675 189.012 55.324 189.564Z" fill="#959595"/>
<path d="M59.9751 188.128C59.7208 188.272 59.4665 188.419 59.2122 188.562C59.2158 188.655 59.2194 188.752 59.223 188.845C60.3081 188.845 61.3933 188.845 62.4784 188.845C62.1382 189.296 61.6404 189.185 61.1856 189.189C59.839 189.199 58.4888 189.185 57.1422 189.203C56.6336 189.21 56.0713 189.049 55.6631 189.529C55.552 189.54 55.4375 189.55 55.3264 189.561C55.2978 189.167 55.3837 188.734 54.9611 188.472C55.6058 187.093 56.9094 187.853 57.88 187.57C57.5254 186.864 57.5218 186.889 56.5119 186.803C55.0041 186.674 53.4534 187.108 51.985 186.438C50.4844 184.132 51.8919 182.169 52.7407 180.156C53.636 178.033 55.33 177.377 57.5039 177.703C58.3634 177.832 59.1979 178.133 59.4772 179.007C60.3762 181.811 61.1068 184.651 60.4585 187.634C60.4084 187.881 60.1613 187.989 59.9751 188.128Z" fill="#B4B5B5"/>
<path d="M62.4856 188.845C62.4821 186.219 62.4785 183.594 62.4749 180.969C62.3818 180.88 62.346 180.787 62.3711 180.69C62.3961 180.593 62.4248 180.543 62.4534 180.543C62.5358 180.532 62.6181 180.521 62.7005 180.511C62.765 180.564 62.8295 180.618 62.8939 180.668C62.8104 182.816 62.7616 184.963 63.0316 187.096C63.112 187.732 62.9251 188.378 62.4856 188.845Z" fill="#B4B5B5"/>
<path d="M63.523 176.661C63.7271 177.996 62.722 180.046 62.9333 181.382C62.833 181.4 62.9858 180.632 62.8891 180.668L62.7816 180.564C62.4092 180.152 62.4987 179.64 62.4844 179.153C62.4844 178.917 62.4915 178.677 62.5202 178.44C62.5452 178.29 62.5918 178.143 62.6455 178C62.7852 177.653 62.8354 177.277 62.9786 176.926C63.104 176.725 63.2544 176.578 63.523 176.661Z" fill="#B4B5B5"/>
<path d="M62.4778 176.324C62.553 174.827 62.442 173.391 61.629 172.041C61.2745 171.457 61.1527 170.705 61.0309 170.01C60.8125 168.764 61.1169 167.682 62.2271 166.923C62.4169 166.794 62.7034 166.594 62.6998 166.436C62.664 165.201 63.5916 164.792 64.4691 164.538C66.1451 164.047 66.9939 162.597 68.0075 161.465C69.0819 160.265 69.7874 158.715 70.9298 157.508C71.0946 157.336 71.0265 156.942 71.0659 156.652C70.5824 154.897 71.5888 153.407 72.0222 151.842C72.4412 150.334 72.7348 148.859 72.7277 147.29C72.6954 140.496 72.6919 133.706 72.742 126.912C72.7492 126.182 72.2979 125.064 73.6732 124.889C74.0743 125.548 73.9167 126.282 73.9203 126.98C73.9346 133.223 73.9776 139.468 73.906 145.711C73.8737 148.54 73.7842 151.38 73.2327 154.174L73.2362 154.156C72.8029 154.582 73.204 155.194 72.896 155.649C72.7885 156.913 72.3946 158.088 71.8037 159.202C71.4097 158.876 71.4563 158.514 71.6497 158.109C70.8654 159.943 70.1956 161.877 68.3799 163.027C66.8757 164.441 65.6509 166.11 64.0822 167.493C63.1797 168.288 62.9971 169.949 63.2836 171.343C63.4519 172.159 63.6919 172.954 63.6167 173.803C63.6024 174.075 63.5451 174.34 63.4806 174.605C63.1654 175.185 63.5236 176.167 62.4778 176.324Z" fill="#919191"/>
<path d="M68.2089 162.729C68.4095 162.288 68.7318 161.937 69.158 161.733C69.8635 161.389 70.2252 160.784 70.3076 160.082C70.4115 159.201 70.9881 158.65 71.468 157.894C71.9371 158.309 71.7008 158.804 71.8118 159.201C71.006 161.948 69.5949 164.409 68.1731 166.865C66.8444 169.161 65.5945 171.503 64.3124 173.828C64.0545 174.01 64.0975 174.34 63.9543 174.576L63.9758 174.562C63.7179 174.544 63.4206 175.514 63.1986 174.533C63.1986 174.293 63.1986 174.057 63.1986 173.817C63.3956 173.584 63.614 173.262 63.5102 173.022C62.2209 169.945 65.0645 168.176 65.8703 165.777C66.2499 164.652 67.5894 163.886 68.2089 162.729Z" fill="#848585"/>
<path d="M73.2323 154.17C74.1742 144.521 72.8527 133.595 73.8805 124.466C74.4607 133.208 73.9271 142.315 73.7981 151.151C73.791 151.552 73.7838 151.91 73.6943 152.3C73.1893 154.467 72.8634 155.28 72.8276 155.878C72.7273 155.91 73.3362 154.152 73.2323 154.17Z" fill="#A0A0A0"/>
<path d="M63.1908 174.533C63.4343 174.934 63.7101 174.537 63.968 174.562C64.0611 175.314 63.6528 175.959 63.5239 176.661C63.4128 176.786 63.2982 176.911 63.1872 177.037C62.8649 177.33 63.1442 177.814 62.8506 178.118L62.8542 178.125C61.9696 178.021 62.3456 177.484 62.4817 177.033C62.4817 176.797 62.4853 176.557 62.4853 176.32C63.155 175.901 62.5103 174.956 63.1908 174.533Z" fill="#898989"/>
<path d="M72.9004 155.649C72.8897 155.123 72.6748 154.55 73.2407 154.156C73.2586 154.682 73.2872 155.212 72.9004 155.649Z" fill="#A0A0A0"/>
<path d="M63.9512 174.576C63.9154 174.254 63.9655 173.971 64.3093 173.828C64.3093 174.136 64.227 174.401 63.9512 174.576Z" fill="#898989"/>
<path d="M34.8776 165.681C34.541 165.276 34.2043 164.871 33.8677 164.463C33.5776 163.306 32.8721 162.328 32.4351 161.236C31.5111 158.93 30.7483 156.573 30.2756 154.127C29.57 146.796 29.9891 139.444 29.8924 132.102C29.8566 129.434 29.9031 126.766 29.9139 124.097C32.5605 122.905 33.9608 123.718 33.9751 126.515C34.0038 132.152 34.0467 137.789 33.9572 143.426C33.9178 145.987 34.3261 148.504 34.3834 151.051C34.4156 152.455 35.3647 153.576 35.7622 154.865C35.8231 155.033 35.8983 155.205 35.9878 155.363C36.0881 155.495 36.1848 155.639 36.2744 155.778C36.3639 155.907 36.4427 156.047 36.5179 156.186C36.6253 156.383 36.7184 156.591 36.8223 156.795C36.9011 156.924 36.9691 157.057 37.0408 157.193C37.159 157.397 37.2736 157.601 37.3918 157.809C37.4813 157.959 37.5529 158.113 37.6209 158.271C38.3945 161.29 40.1136 163.872 42.1478 166.05C43.8382 167.862 44.1211 169.81 44.3468 171.987C44.5258 173.706 43.7702 175.379 44.2286 177.116C44.4112 177.807 44.5975 178.477 44.9234 179.114C45.1418 181.106 45.2135 183.093 44.8804 185.077C44.6834 185.475 44.3826 185.722 43.917 185.708C43.4837 185.389 43.3762 184.898 43.4228 184.433C43.7809 180.783 42.6134 177.256 42.6206 173.624C42.6241 170.884 41.4638 168.478 39.8486 166.264C38.4912 164.402 36.9118 162.662 36.192 160.391C35.9449 159.61 35.2787 159.32 34.5159 159.291C32.8004 159.223 31.9552 158.289 31.6974 156.648C31.5541 155.732 31.1279 154.872 31.067 154.095C31.4073 156.87 32.8542 159.41 34.0038 162.063C34.4944 163.199 35.4793 164.259 34.8776 165.681Z" fill="#626262"/>
<path d="M30.2706 122.664C33.082 122.044 35.9363 122.428 38.7656 122.295C39.4532 122.263 39.8722 122.589 40.2662 123.047C40.5491 123.23 40.6816 123.509 40.7712 123.817C40.1265 130.092 40.7461 136.395 40.3987 142.666C40.0799 148.411 42.6191 153.077 45.3302 157.754C46.6016 160.447 48.7612 162.356 50.9351 164.297C51.92 165.178 52.2674 166.629 53.1699 167.678C53.7465 168.352 53.3024 169.089 52.7795 169.755C50.3012 172.911 48.4031 176.291 48.0628 180.449C47.8981 182.437 47.3824 184.393 47.6116 186.423C47.6832 187.068 47.6366 187.741 47.0636 188.221C46.8523 188.264 46.684 188.203 46.5515 188.035C45.9534 185.986 46.2936 183.902 46.3259 181.832C46.3939 177.817 47.651 174.082 49.5777 170.658C50.7524 168.57 50.0613 167.159 48.8042 165.705C46.5837 163.137 44.4779 160.501 42.7051 157.597C40.2411 153.564 38.6259 149.302 38.7083 144.492C38.8265 137.885 38.5256 131.27 38.8695 124.662C38.9089 123.918 38.7011 123.527 37.9132 123.524C37.376 123.52 36.8424 123.524 36.3052 123.52C34.6076 123.663 32.9315 123.262 31.234 123.366C30.8006 123.391 30.2419 123.373 30.2706 122.664Z" fill="#8A8A8A"/>
<path d="M35.9955 155.932C34.8459 154.299 34.0007 152.573 33.8324 150.517C33.1627 142.344 33.6426 134.161 33.4922 125.985C33.4599 124.223 33.3525 124.115 31.5224 124.097C30.9888 124.09 30.4552 124.097 29.918 124.097C29.9216 123.979 29.9215 123.857 29.9251 123.739C30.0934 123.596 30.2833 123.496 30.4946 123.431C31.6872 123.367 32.8941 123.091 34.0473 123.653C34.8638 124.398 34.6955 125.394 34.6991 126.325C34.717 132.266 34.76 138.208 34.6776 144.149C34.6454 146.359 35.1002 148.519 35.0931 150.714C35.0895 151.333 35.4762 151.821 35.7019 152.365C36.1818 153.515 36.6867 154.682 35.9955 155.932Z" fill="#737374"/>
<path d="M30.2689 122.664C30.4193 122.851 30.602 123.048 30.8455 122.994C32.6863 122.582 34.5164 123.262 36.3501 123.026C38.5096 123.474 38.6601 123.624 38.6672 125.805C38.6816 132.527 38.6744 139.253 38.6708 145.975C38.6708 146.631 38.6959 147.29 38.3055 147.87C37.181 148.346 37.1165 147.444 37.052 146.796C36.941 145.671 36.9195 144.539 36.9231 143.404C36.9374 137.566 36.9159 131.725 36.9303 125.888C36.9303 125.282 37.2168 124.512 36.2677 124.28C34.4018 123.563 32.4607 123.467 30.4945 123.553C30.2797 123.567 30.0863 123.513 29.9108 123.384C29.9072 122.657 29.9072 122.657 30.2689 122.664Z" fill="#818181"/>
<path d="M24.5122 120.555C24.6089 119.939 24.4728 119.513 23.7387 119.445C23.1262 119.387 22.4601 119.624 21.6758 119.065C22.7394 118.524 23.7709 118.829 24.6698 118.531C24.7665 118.499 25.0065 118.689 25.0745 118.829C25.6189 119.928 26.4856 119.957 27.4848 119.599C27.7928 119.488 28.0685 119.609 28.3336 119.746C28.638 119.903 29.0606 120.014 28.9281 120.473C28.8385 120.784 28.4947 120.877 28.1939 120.87C26.9619 120.834 25.6941 121.135 24.5087 120.541C24.5122 120.541 24.5122 120.555 24.5122 120.555Z" fill="#7E7D7D"/>
<path d="M40.2928 123.717C40.2821 123.495 40.2714 123.27 40.257 123.047C40.2069 119.566 40.429 116.085 40.1389 112.604C40.0923 112.028 40.2212 111.433 40.2714 110.849C40.9483 110.029 41.8902 110.176 42.7855 110.151C43.2654 109.653 43.8957 109.696 44.5081 109.667C45.0238 109.682 45.536 109.725 45.9478 110.086C46.0839 110.266 46.0803 110.445 45.9407 110.624C44.6227 111.415 43.0863 110.627 41.7433 111.215C41.6001 111.329 41.4604 111.444 41.3315 111.576C41.0378 115.391 41.0163 119.197 41.3565 123.001C41.4497 123.176 41.4926 123.366 41.4855 123.567C41.421 123.764 41.2885 123.896 41.0915 123.957C40.7871 124.004 40.5221 123.925 40.2928 123.717Z" fill="#A3A3A3"/>
<path d="M29.9205 123.388C30.0352 123.385 30.1533 123.385 30.2679 123.385C30.3861 123.464 30.4255 123.542 30.3861 123.621C30.3467 123.7 30.3073 123.739 30.2679 123.739C30.1533 123.739 30.0387 123.739 29.9241 123.739C29.9134 123.625 29.9098 123.507 29.9205 123.388Z" fill="#757575"/>
<path d="M46.0185 110.147C45.535 110.143 45.0551 110.14 44.5716 110.136C43.4041 110.025 42.9922 109.323 42.9922 108.224C42.9922 105.14 42.9672 102.057 43.0066 98.9731C43.0173 98.2533 43.0925 97.4904 43.6655 96.9998C44.9799 95.8788 45.2234 94.4463 45.1554 92.8311C45.1124 91.8569 44.9298 90.7646 46.0221 90.12C49.2346 90.0985 52.4506 90.077 55.6631 90.0591L55.7025 90.1629C55.7849 90.3814 55.7276 90.5533 55.5306 90.6787C55.065 90.9437 54.5529 90.9437 54.0408 90.9616C52.8195 90.9723 51.6018 90.9688 50.3806 90.9759C48.042 90.9759 48.0313 90.9759 47.956 93.3611C47.9274 94.26 47.8736 95.1697 47.3508 95.9218C46.2728 97.4725 46.1367 99.1987 46.151 101.014C46.1761 103.973 46.2226 106.934 46.1761 109.896C46.1223 109.975 46.0686 110.061 46.0185 110.147Z" fill="#989898"/>
<path d="M35.6133 97.2474C36.3367 97.2546 37.0637 97.2617 37.7872 97.2689C39.0836 97.3727 39.3952 98.2287 39.3988 99.3461C39.4167 102.122 39.4418 104.897 39.3916 107.673C39.3522 109.732 39.0263 110.083 37.0709 110.498C35.6885 110.344 35.6598 110.344 35.6527 109.12C35.6276 105.159 35.6276 101.198 35.6204 97.2402C35.6204 97.2438 35.6133 97.2474 35.6133 97.2474Z" fill="#52514E"/>
<path d="M46.0202 90.1167C45.3755 91.2914 45.662 92.5699 45.6906 93.7983C45.7157 95.0733 45.5546 96.1549 44.3584 96.864C43.7388 97.2329 43.5239 97.8489 43.5204 98.5365C43.5132 101.928 43.5597 105.32 43.4845 108.711C43.463 109.614 44.1471 109.718 44.5697 110.137C43.9788 110.14 43.3878 110.144 42.7969 110.147C42.3564 109.685 41.4396 109.388 42.2991 108.496C42.4638 108.328 42.428 107.934 42.428 107.644C42.4352 104.682 42.428 101.724 42.4388 98.7621C42.4424 97.9814 42.3134 97.3224 41.4611 97.24C41.3465 97.0502 41.3966 96.9392 41.5506 96.9392C43.7317 96.9213 44.1865 96.0654 44.5661 93.6264C44.6735 92.9317 44.5697 92.2082 44.5876 91.4991C44.6198 90.2779 44.627 90.2779 46.0202 90.1167Z" fill="#8C8C8C"/>
<path d="M37.0664 110.502C38.653 110.137 38.9287 109.045 38.8822 107.583C38.7926 104.797 38.7998 102.004 38.8893 99.2173C38.9216 98.2396 38.5706 97.6809 37.7827 97.269C38.1372 97.2869 38.5097 97.2476 38.8464 97.3371C39.9817 97.6379 40.2682 97.9996 40.2789 99.2388C40.3004 101.739 40.2825 104.235 40.2897 106.735C40.2932 107.261 40.2467 107.784 40.4723 108.31C40.8806 109.267 40.6478 109.807 39.6844 110.112C38.8463 110.373 37.9797 110.624 37.0664 110.502Z" fill="#767676"/>
<path d="M40.6444 89.0459C40.981 89.1533 41.3248 89.2357 41.6472 89.3754C43.2265 90.0594 43.1728 90.0594 42.897 91.8286C42.7538 92.7562 42.829 93.7196 42.7896 94.6651C42.7323 96.0367 42.5282 96.248 40.9989 96.5489C40.5155 94.0634 39.3085 91.6137 40.6444 89.0459Z" fill="#767676"/>
<path d="M40.6481 89.0459C40.3544 90.6897 40.6337 92.2906 40.9525 93.9058C41.1208 94.7581 40.9954 95.6678 41.0062 96.5488C40.4117 96.4414 39.8172 96.9571 39.2227 96.556C39.2262 93.938 39.2298 91.32 39.2334 88.7056C39.7527 88.6197 40.2075 88.8095 40.6481 89.0459Z" fill="#52514E"/>
<path d="M48.5156 89.4185C50.3063 89.422 52.097 89.4256 53.8877 89.4292C52.5447 89.8948 49.83 89.8912 48.5156 89.4185Z" fill="#8B8A8A"/>
<path d="M39.9297 87.9717C40.3236 87.9824 40.7427 87.9072 41.0041 88.3227C40.6102 88.3155 40.1875 88.3907 39.9297 87.9717Z" fill="#878787"/>
<path d="M45.293 89.0566C45.6511 89.0638 46.0092 89.0674 46.3674 89.0745C46.4856 89.1426 46.5285 89.2142 46.4891 89.2858C46.4497 89.3575 46.4139 89.3969 46.3745 89.3969C45.977 89.3897 45.5616 89.4578 45.293 89.0566Z" fill="#8B8A8A"/>
<path d="M46.3705 89.3971C46.3705 89.2896 46.3669 89.1822 46.3633 89.0748C46.6605 89.0569 46.922 89.1142 47.0867 89.3935C46.8504 89.3935 46.6104 89.3935 46.3705 89.3971Z" fill="#8D8C8C"/>
<path d="M29.9158 111.577C29.6687 111.459 29.6687 111.34 29.9158 111.222C29.9194 111.34 29.9194 111.459 29.9158 111.577Z" fill="#989899"/>
<path d="M44.2213 88.7095C44.343 88.8169 44.4648 88.9279 44.5866 89.0354C44.4648 89.0354 44.3466 89.039 44.2248 89.039C44.1461 88.9673 44.121 88.8921 44.1461 88.8205C44.1711 88.7453 44.1962 88.7095 44.2213 88.7095Z" fill="#8D8C8C"/>
<path d="M44.225 88.7093C44.2286 88.8203 44.2286 88.9314 44.2286 89.0388C44.1068 88.9278 43.985 88.8132 43.8633 88.7021C43.985 88.7057 44.1032 88.7057 44.225 88.7093Z" fill="#8B8A8A"/>
<path d="M43.1556 88.2976C43.1556 88.423 43.1556 88.5519 43.1556 88.6773C43.0339 88.6773 42.9121 88.6808 42.7903 88.6808C42.7151 88.6128 42.6865 88.5376 42.7044 88.4624C42.7223 88.3836 42.7438 88.3478 42.7688 88.3478L42.8297 88.269C42.9479 88.2009 43.0554 88.2117 43.1556 88.2976Z" fill="#8D8C8C"/>
<path d="M42.7767 88.3475C42.7875 88.4585 42.7947 88.5695 42.7983 88.6806C42.6729 88.5695 42.5475 88.4621 42.4258 88.3511C42.5404 88.3368 42.6586 88.3368 42.7767 88.3475Z" fill="#8B8A8A"/>
<path d="M39.5586 87.624C39.6804 87.7386 39.8057 87.8532 39.9275 87.9678C39.8057 87.8568 39.6839 87.7386 39.5586 87.624Z" fill="#8B8A8A"/>
<path d="M19.1792 103.35C19.72 103.819 19.523 104.453 19.523 105.023C19.5338 113.328 19.5338 121.633 19.523 129.938C19.523 130.508 19.72 131.142 19.1792 131.607L19.1255 131.561C18.531 130.919 18.6456 130.121 18.6456 129.354C18.6384 121.44 18.6384 113.521 18.6456 105.606C18.6456 104.844 18.5346 104.041 19.1255 103.4L19.1792 103.35Z" fill="#CDCDCD"/>
<path d="M37.4219 86.9043C37.5436 87.0189 37.6618 87.1335 37.7836 87.2517C37.6618 87.1371 37.5401 87.0189 37.4219 86.9043Z" fill="#8B8A8A"/>
<path d="M61.763 97.269C63.808 97.4159 63.9011 97.5018 63.9083 99.4035C63.9154 101.055 63.9047 102.706 63.9118 104.357C63.919 106.294 63.8151 108.235 64.2628 110.144C64.0766 110.456 63.722 110.66 63.697 111.072C63.6719 111.426 63.6826 111.777 63.6934 112.132C63.7937 114.75 63.7328 117.364 63.7328 119.978C63.7328 120.63 63.7292 121.293 63.3317 121.866C63.1454 122.045 62.9484 122.063 62.7336 121.92C62.1892 121.182 62.3217 120.319 62.3468 119.502C62.5617 112.719 61.6842 105.957 61.9457 99.1779C61.9672 98.63 61.8347 98.1178 61.6914 97.6021C61.7129 97.4875 61.7379 97.3765 61.763 97.269Z" fill="#C9C9C9"/>
<path d="M55.6553 90.4537C55.6625 90.3534 55.6803 90.2567 55.7018 90.16C56.6294 90.1314 57.5606 90.1063 58.4881 90.0776C61.407 90.1851 61.4463 90.1851 61.389 93.0502C61.3676 94.2034 61.6792 95.3852 61.013 96.5205C60.7265 97.0112 61.6756 96.8357 61.7651 97.269L61.7615 97.2762C61.1312 97.8886 60.3218 97.7203 59.5661 97.774C57.5033 97.7131 55.4333 97.8922 53.3704 97.663C52.8511 97.2834 51.7444 97.6666 51.8376 96.4919C53.2164 95.6896 54.7349 96.2412 56.1746 96.0585C57.0055 95.9511 58.173 96.4131 58.5383 95.3673C58.9609 94.1497 58.8821 92.7959 58.5168 91.5281C58.3879 91.0804 57.865 91.084 57.4603 91.0124C56.8336 90.8978 56.1316 91.0374 55.6553 90.4537Z" fill="#C9C9C9"/>
<path d="M65.7053 110.148C65.408 109.238 65.3292 108.311 65.3364 107.354C65.365 104.335 65.3364 101.313 65.3543 98.29C65.3615 97.0651 65.3901 97.0651 66.7904 96.9326C67.0948 100.983 66.9051 105.041 66.8513 109.095C66.8442 109.693 66.726 110.502 65.7053 110.148Z" fill="#B4B4B4"/>
<path d="M65.7017 110.148C66.5863 110.026 66.4108 109.338 66.4108 108.772C66.4216 105.513 66.418 102.254 66.418 98.9916C66.418 98.2825 66.3536 97.5626 66.7869 96.9323C67.0269 96.9216 67.2704 96.9072 67.5104 96.8965C67.6321 97.0147 67.7539 97.1364 67.8792 97.2546C67.7037 101.008 67.6429 104.761 67.5999 108.514C67.5891 109.639 67.5712 110.885 65.8414 110.656C65.6337 110.534 65.5871 110.362 65.7017 110.148Z" fill="#A8A8A8"/>
<path d="M61.7422 89.3899C62.1039 88.9638 62.6089 89.0569 63.0709 89.0533C63.6189 89.0497 64.1346 88.9781 64.6002 88.6665C64.6002 91.1735 64.5966 93.684 64.5966 96.191C64.396 96.9789 64.0164 97.1723 63.3897 96.5563C62.8704 96.0477 62.8345 95.3995 62.8381 94.7333C62.8417 93.5443 62.6877 92.3302 62.8954 91.1699C63.0888 90.0811 62.6626 89.6335 61.7422 89.3899Z" fill="#A8A8A9"/>
<path d="M61.7483 89.3901C63.5318 89.5477 63.4494 89.537 63.2775 91.2095C63.1378 92.5489 63.2059 93.917 63.2345 95.2707C63.2417 95.6038 63.4423 95.9405 63.5891 96.2592C63.9723 97.0972 64.2767 96.4275 64.6027 96.1947C64.5919 96.5923 64.7172 97.1366 64.1478 97.176C63.4673 97.2226 62.8657 96.9038 62.5863 96.2413C62.4574 95.9333 62.486 95.5465 62.4825 95.1955C62.4717 93.8955 62.4896 92.5955 62.4753 91.2954C62.4574 89.8342 62.4467 89.8306 61.0177 89.7626C60.7813 89.7519 60.545 89.7483 60.3086 89.7411C60.7061 89.2863 61.2505 89.4295 61.7483 89.3901Z" fill="#B1B1B1"/>
<path d="M65.6971 110.147C65.6971 110.265 65.6971 110.384 65.6971 110.502C64.8769 111.15 64.0496 111.118 63.2188 110.527C63.4444 110.072 63.8777 110.165 64.2645 110.14C64.7373 110.144 65.2172 110.144 65.6971 110.147Z" fill="#B4B4B4"/>
<path d="M63.1868 121.938C63.1868 118.485 63.1832 115.033 63.1832 111.58C65.9946 111.337 68.8168 111.326 71.6317 111.347C72.391 111.355 73.0141 111.272 73.5979 110.828C73.8665 111.018 73.9345 111.301 73.9345 111.609C73.9345 112.146 73.9202 112.68 73.9309 113.217C74.11 124.036 74.3715 134.859 74.2318 145.682C74.2246 146.377 74.1744 147.605 73.7017 148.246C73.691 141.098 73.9345 133.462 73.9095 126.314C73.9059 125.687 73.6086 125.422 73.0392 124.885C72.8207 124.72 73.2469 124.054 73.1717 123.8C73.0857 123.463 72.9747 123.141 72.6524 122.944C70.2887 122.639 67.9178 122.89 65.5541 122.804C64.7913 122.776 64.007 122.915 63.2979 122.489C63.1152 122.335 63.0758 122.152 63.1868 121.938Z" fill="#A9A8A8"/>
<path d="M73.6018 110.832C73.5982 111.505 73.3869 112.081 72.5954 111.917C69.9631 111.365 67.3416 112.221 64.7128 111.952C64.1756 111.899 63.6671 111.827 63.1836 111.584C63.1943 111.233 63.2051 110.882 63.2194 110.531C64.0467 110.524 64.874 110.513 65.6977 110.506C66.8008 110.588 67.1697 110.011 67.1374 108.987C67.1016 107.741 67.1195 106.491 67.1303 105.245C67.141 104.242 67.0443 103.235 67.406 102.251C67.5421 101.882 67.5959 101.348 67.4275 101.029C66.8187 99.8797 67.6531 98.7122 67.3022 97.5697C67.2449 97.3835 67.646 97.3083 67.8752 97.2617C68.5091 98.1571 68.1796 99.167 68.2118 100.134C67.7857 103.296 68.1044 106.477 68.0399 109.646C68.022 110.47 68.6237 110.678 69.3686 110.703C70.7761 110.753 72.1943 110.509 73.5911 110.842L73.6018 110.832Z" fill="#989797"/>
<path d="M73.5925 110.839C72.117 110.846 70.6379 110.85 69.1624 110.864C68.2921 110.871 67.848 110.463 67.8516 109.578C67.8552 106.684 67.8516 103.791 67.8552 100.897C67.8552 100.589 67.9626 100.324 68.2133 100.127C68.2312 103.014 68.2384 105.904 68.267 108.79C68.2814 110.384 68.396 110.438 69.9754 110.531C71.1787 110.602 72.4357 110.183 73.5925 110.839Z" fill="#A9A8A8"/>
<path d="M29.1913 114.796C29.1877 114.853 29.1842 114.914 29.1842 114.971C29.1448 117.21 28.296 117.833 26.1078 117.26C25.4775 117.095 25.2769 116.676 25.2697 116.089C25.2626 115.433 25.4488 114.878 26.1937 114.832C27.1929 114.778 28.1921 114.803 29.1913 114.796Z" fill="#E6E6E5"/>
<path d="M24.2134 114.108C24.5751 113.847 24.507 113.424 24.6001 113.066C25.6602 113.052 26.7239 113.034 27.784 113.038C27.938 113.038 28.0884 113.156 28.2316 113.217C28.2245 113.808 27.7768 113.75 27.4796 113.711C26.1366 113.521 25.1803 113.958 24.79 115.315C24.2778 115.075 23.8552 114.875 23.4219 114.671C23.6869 114.481 23.9483 114.295 24.2134 114.108Z" fill="#A5A5A5"/>
<path d="M23.1637 117.282C22.2075 117.304 21.6631 116.956 21.7419 116.355C21.8422 115.585 22.4403 115.538 23.0527 115.52C23.7117 115.502 24.2095 115.628 24.1844 116.455C24.1629 117.185 23.7081 117.3 23.1637 117.282Z" fill="#E5E5E5"/>
<path d="M19.1203 103.4C19.1203 112.787 19.1239 122.174 19.1239 131.561C18.8123 131.546 18.5007 131.532 18.1927 131.518C18.1676 130.569 18.1211 129.623 18.1211 128.674C18.1318 120.254 18.1533 111.838 18.1677 103.418C18.4864 103.415 18.8015 103.408 19.1203 103.4Z" fill="#838384"/>
<path d="M65.6985 162.017C64.8354 162.715 64.1585 163.621 63.0662 164.073C61.7446 164.621 60.2727 164.549 58.9798 165.194C58.6718 165.348 58.2886 165.111 57.9663 164.943C57.4327 164.656 56.8776 164.467 56.258 164.517C55.6921 164.563 55.1406 164.384 54.761 164.026C53.0956 162.457 51.1044 161.204 49.747 159.349C48.8302 158.092 47.5696 157.168 46.728 155.843C46.2445 155.083 45.7681 154.367 45.4995 153.504C44.9337 151.692 43.7196 150.159 43.2326 148.3C43.0821 147.724 42.8314 147.237 43.075 146.599C43.2361 146.177 43.1502 145.657 43.1502 145.185C43.1538 138.985 43.143 132.789 43.1645 126.59C43.1681 125.67 43.1001 124.81 42.4375 124.105C42.5163 124.04 42.5915 123.972 42.6703 123.908C43.2003 123.707 43.6695 123.772 44.0455 124.226C44.4681 125 44.3607 125.845 44.3643 126.672C44.375 131.966 44.3643 137.259 44.3714 142.552C44.375 145.775 45.2023 148.698 46.3519 151.785C48.1139 156.523 51.7777 159.245 55.2122 162.21C57.3467 164.051 60.2691 163.561 62.8119 162.332C63.6858 161.91 64.4665 161.369 65.48 161.813C65.5516 161.877 65.6233 161.945 65.6985 162.017Z" fill="#9B9B9B"/>
<path d="M49.9534 188.128C48.7358 187.992 48.7537 187.996 48.8468 186.9C48.8969 186.309 48.9113 185.707 48.8754 185.116C48.6677 181.696 49.6777 178.559 51.1174 175.536C51.5579 174.612 52.3852 173.924 53.1767 173.337C54.645 172.245 56.271 171.274 58.1978 171.536C60.8587 171.897 61.1237 173.248 61.2777 175.49C61.4496 177.957 61.2956 180.428 61.6001 182.896C61.8149 184.629 62.1337 186.406 61.3995 188.121C60.8515 187.458 60.7298 186.671 60.7262 185.847C60.7369 185.668 60.7763 185.489 60.8301 185.317C60.694 181.957 60.4218 178.623 59.3939 175.393C59.0394 174.275 58.3088 173.946 57.195 174.204C54.6558 174.791 53.2268 176.611 51.9912 178.709C50.5802 181.102 50.351 183.73 50.3116 186.413C50.0788 186.961 50.2256 187.587 49.9534 188.128Z" fill="#9E9E9E"/>
<path d="M40.3004 123.718C40.5296 123.732 40.7624 123.746 40.9917 123.761C41.1134 123.875 41.3426 123.872 41.3605 124.101C41.3605 130.952 41.3176 137.803 41.3856 144.654C41.4071 147.007 41.6972 149.271 42.922 151.477C43.9284 153.289 44.4871 155.406 45.2965 157.365C45.497 157.605 45.5257 157.841 45.2965 158.081C44.5909 157.762 44.2758 157.121 43.9535 156.48C42.8361 154.267 41.9407 151.939 40.544 149.869C40.4186 149.683 40.2933 149.425 40.3148 149.214C40.4724 147.598 39.8922 146.058 39.9065 144.447C39.9567 138.863 39.9244 133.276 39.928 127.693C39.928 126.633 39.774 125.548 40.3828 124.57C40.5691 124.28 40.3685 123.997 40.3004 123.718Z" fill="#8E8E8E"/>
<path d="M44.5882 188.49C43.7573 188.655 42.8405 188.211 42.074 188.838C40.3621 189.117 39.9574 188.454 40.4839 186.263C41.236 184.515 40.8492 182.706 40.7489 180.916C40.688 180.737 40.6451 180.55 40.6129 180.364C40.5914 177.478 40.0721 174.716 38.7147 172.12C38.4819 171.676 37.6797 170.838 39.0729 170.515C39.739 170.361 39.1015 169.853 39.0335 169.531C38.8651 168.761 39.0979 168.227 39.8393 167.991C40.6308 167.736 41.193 168.173 41.3076 168.879C41.6156 170.813 42.536 172.575 42.6184 174.587C42.7652 178.18 43.9149 181.679 43.6857 185.314C43.3204 186.564 44.3554 187.412 44.5882 188.49Z" fill="#626262"/>
<path d="M45.2969 158.081C45.2969 157.841 45.2969 157.604 45.2969 157.364C45.8591 157.64 46.3068 158.07 46.4572 158.661C46.9336 160.534 48.538 161.329 49.924 162.303C51.1739 163.184 52.3737 164.122 53.312 165.315C53.663 165.763 53.9458 166.264 54.3541 166.697C55.0704 167.457 55.0346 168.438 54.9164 169.401C54.8591 169.867 54.5368 170.121 54.0963 170.236C53.688 170.34 53.115 170.454 53.0326 170.809C52.6996 172.227 51.4067 172.789 50.5937 173.767C49.924 174.569 49.5802 175.515 49.2758 176.546C48.5989 178.831 48.4664 181.202 47.9184 183.508C47.571 184.977 47.8182 186.588 47.8002 188.135C47.5603 188.336 47.3239 188.34 47.0876 188.128C47.4457 186.857 47.6642 185.593 47.1735 184.296C46.8333 183.394 47.3526 182.545 47.4743 181.682C47.768 179.526 47.8862 177.312 48.9105 175.325C49.8524 173.495 50.848 171.69 51.8257 169.878C51.8794 169.777 51.969 169.663 52.0657 169.63C52.7103 169.426 53.1365 168.986 53.029 168.327C52.9359 167.754 52.6315 167.192 51.9546 167.03C51.4282 166.905 51.3959 166.493 51.3744 166.06C51.3351 165.215 50.8265 164.609 50.2033 164.169C49.6231 163.757 49.1576 163.159 48.6239 162.822C46.8153 161.665 46.2065 159.789 45.2969 158.081Z" fill="#908F8F"/>
<path d="M49.9558 188.128C49.7731 187.652 49.304 187.176 49.9558 186.696C50.647 185.894 50.4357 184.905 50.5467 183.974C50.8941 181.098 51.4707 178.333 54.1531 176.582C55.6824 175.583 57.3442 175.511 58.9164 176.184C60.3525 176.8 60.442 178.28 60.528 179.691C60.6068 180.984 60.8288 182.269 61.0652 183.544C61.1941 184.246 61.3768 184.93 61.0473 185.621C60.7106 186.065 60.8539 186.51 61.0688 186.939C61.3338 187.469 61.1476 187.835 60.6891 188.125C60.4492 188.125 60.2128 188.128 59.9729 188.128C59.9944 188.075 60.0087 188.01 60.0445 187.964C60.6426 187.219 59.382 186.492 60.0803 185.654C60.5853 185.045 60.4277 184.149 60.2343 183.408C60.0266 182.62 59.9192 181.793 59.4034 181.084C59.1957 180.797 59.2817 180.282 59.2638 179.87C59.2459 179.447 59.2351 179.039 58.902 178.717C57.7847 177.635 56.3987 178.348 55.1488 178.176C54.5006 178.09 54.2033 178.759 53.8523 179.25C52.8352 180.665 52.2264 182.23 51.879 183.924C51.7035 184.773 51.6749 185.568 52.1082 186.338C52.0688 186.406 52.0258 186.47 51.9864 186.538C51.9542 186.95 50.4106 186.961 51.6748 187.716C52.0401 187.86 52.5272 187.87 52.4771 188.458C51.614 188.497 50.7473 188.594 49.9558 188.128Z" fill="#AEAEAE"/>
<path d="M73.5735 123.739C73.5771 123.979 73.5807 124.215 73.5807 124.455C73.5771 124.577 73.5771 124.702 73.5735 124.824C72.9897 125.354 73.2333 126.053 73.2297 126.676C73.2118 132.864 73.1438 139.053 73.2512 145.238C73.3013 148.243 73.0291 151.136 71.9153 153.944C71.5679 154.822 71.3495 155.749 71.0737 156.652C69.5337 157.694 68.5847 159.248 67.607 160.756C67.1306 161.494 66.6829 162.11 65.7052 162.017V162.013C65.6157 160.849 66.5468 160.24 67.1342 159.47C68.1835 158.099 69.3869 156.838 69.7737 155.076C71.217 153.865 70.8588 152.01 71.4104 150.477C72.1839 149.489 72.3737 148.364 72.3737 147.129C72.3558 140.335 72.3522 133.545 72.3737 126.751C72.3773 125.752 72.2233 124.702 72.9718 123.85C73.1402 123.671 73.3443 123.632 73.5735 123.739Z" fill="#9B9B9B"/>
<path d="M52.4631 188.457C52.1838 188.085 51.7719 188.135 51.3816 188.121C50.8479 187.168 51.3171 186.735 52.2124 186.524C53.6879 186.513 55.1671 186.445 56.6319 186.549C57.5344 186.613 58.7556 186.549 58.5085 188.106C57.3302 188.296 56.0767 187.788 54.9486 188.472C54.1249 188.472 53.294 188.465 52.4631 188.457Z" fill="#CFCECE"/>
<path d="M44.5899 188.49C44.4467 188.307 44.3284 188.088 44.1529 187.942C43.0391 187.035 43.0356 187.039 43.5119 185.621C43.6301 185.449 43.7483 185.449 43.8701 185.621C44.1064 185.503 44.3464 185.381 44.5827 185.263C44.7081 185.374 44.7869 185.51 44.8298 185.667C44.9015 186.172 44.5254 186.692 44.88 187.186C44.9623 187.29 45.0412 187.397 45.1271 187.494C45.2704 187.616 45.4351 187.709 45.6178 187.762C45.8112 187.798 46.001 187.834 46.1872 187.895C46.3161 187.949 46.4164 188.035 46.4916 188.149C46.5453 188.293 46.4988 188.404 46.3698 188.482C45.7789 188.482 45.1844 188.486 44.5899 188.49Z" fill="#737374"/>
<path d="M62.4763 177.037C62.4871 177.438 62.4226 177.868 62.8488 178.129C62.8416 178.362 62.8344 178.595 62.8237 178.828C62.3975 179.369 62.8989 180.081 62.4799 180.626C62.4835 180.74 62.4799 180.855 62.4691 180.969C61.9033 179.659 61.8961 178.348 62.4763 177.037Z" fill="#919191"/>
<path d="M60.6835 188.124C60.9055 187.713 61.0166 187.322 60.7945 186.842C60.6011 186.423 60.5904 185.954 61.0416 185.621C60.9915 186.477 61.5537 187.247 61.3926 188.117C61.1562 188.121 60.9198 188.124 60.6835 188.124Z" fill="#A6A5A5"/>
<path d="M46.3711 188.479C46.3711 188.361 46.3711 188.247 46.3711 188.128C46.4893 188.003 46.6111 187.996 46.7364 188.121C46.8546 188.125 46.9764 188.121 47.0945 188.118C47.3309 188.121 47.5709 188.121 47.8072 188.125C47.9827 188.461 47.7284 188.476 47.5207 188.483C47.1375 188.497 46.7543 188.483 46.3711 188.479Z" fill="#7D7D7D"/>
<path d="M41.365 124.097C41.2432 123.982 41.1179 123.871 40.9961 123.757C41.1322 123.742 41.2647 123.728 41.4008 123.714C41.7124 123.456 42.0455 123.416 42.4036 123.62C42.554 123.767 42.5683 123.925 42.443 124.093C42.0777 124.097 41.7195 124.097 41.365 124.097Z" fill="#9B9B9B"/>
<path d="M53.2891 185.829C53.4645 184.93 53.529 184.11 53.5398 183.283C53.5649 181.578 54.3133 180.668 55.8354 180.371C56.8418 180.174 58.1669 181.102 58.6826 182.373C59.0551 183.294 58.9118 184.25 58.8223 185.188C58.7793 185.647 58.4176 185.933 57.9556 185.94C56.4299 185.962 54.8899 186.119 53.2891 185.829Z" fill="#BCBCBC"/>
<path d="M58.5164 188.11C58.3266 186.85 57.3489 186.735 56.3783 186.706C54.9529 186.667 53.524 186.696 52.095 186.699C51.9733 186.62 51.9303 186.538 51.9733 186.459C52.0127 186.38 52.0556 186.337 52.095 186.337C53.5705 186.337 55.0461 186.355 56.518 186.327C57.3131 186.312 58.0902 186.456 58.6919 186.91C59.0859 187.204 59.6553 187.877 58.5164 188.11Z" fill="#BCBCBC"/>
<path d="M62.4838 180.625C62.559 180.02 62.2438 179.34 62.8276 178.828C62.8133 179.408 62.799 179.988 62.7846 180.565C62.6844 180.597 62.5841 180.618 62.4838 180.625Z" fill="#959595"/>
<path d="M62.8444 178.122C62.8373 177.724 62.7692 177.305 63.181 177.04C63.181 177.434 63.2312 177.846 62.8444 178.122Z" fill="#919191"/>
<path d="M68.1989 162.729C68.2168 163.217 68.1667 163.675 67.7799 164.037C66.2364 165.48 65.1154 167.152 64.8539 169.316C64.8074 169.706 64.5603 170.107 64.0839 170.204C62.8627 170.447 63.0812 171.124 63.5718 171.883C64.0696 172.653 64.0696 173.323 63.1886 173.821C63.185 173.466 63.3032 173.047 63.1564 172.768C62.2825 171.092 62.9916 169.452 63.1922 167.801C63.2352 167.435 63.2745 167.002 63.6291 166.891C65.3231 166.361 66.0752 164.853 67.1245 163.646C67.4361 163.288 67.7477 162.923 68.1989 162.729Z" fill="#898989"/>
<path d="M43.8681 185.621C43.7499 185.621 43.6281 185.621 43.5099 185.621C43.7069 183.712 43.3989 181.779 43.0265 179.981C42.5645 177.739 42.0738 175.533 42.0846 173.241C42.0882 172.463 41.4363 172.005 41.3289 171.274C41.2071 170.461 41.0245 169.656 40.9206 168.832C40.8562 168.298 40.4335 168.044 39.8498 168.323C39.3484 168.567 39.069 168.896 39.3985 169.441C39.6421 169.842 39.9859 170.186 40.2079 170.598C40.344 170.852 40.344 171.221 40.0969 171.428C39.814 171.665 39.5561 171.432 39.3269 171.239C39.1514 171.088 38.9652 170.948 38.6106 170.669C38.6966 171.618 38.9795 172.299 39.3162 172.954C40.5517 175.368 41.225 177.903 40.9743 180.64C40.3977 179.361 40.738 177.85 39.9465 176.629C39.6098 174.251 38.428 172.206 37.3571 170.118C36.58 168.606 35.4948 167.27 34.8717 165.677C34.7499 164.595 34.2879 163.607 33.7865 162.693C32.2967 159.964 31.4694 157.024 30.7531 154.034C30.617 153.461 30.4988 152.895 30.7639 152.311C31.19 152.565 31.3512 152.984 31.3046 153.385C31.1471 154.75 31.8239 155.928 32.0961 157.196C32.311 158.206 33.1097 158.829 34.1733 158.761C35.7491 158.657 36.5657 159.169 36.8952 160.817C37.1065 161.87 37.7905 162.844 38.5462 163.732C39.4952 164.846 40.4335 166.006 41.028 167.374C41.2035 167.775 41.5151 168.04 41.7837 168.356C41.9735 168.581 42.2994 168.828 42.2959 169.058C42.2708 170.569 43.1804 171.894 43.1375 173.398C43.0766 175.479 43.381 177.506 43.732 179.565C44.0794 181.539 43.8502 183.601 43.8681 185.621Z" fill="#626262"/>
<path d="M44.5888 185.625C44.5888 185.507 44.5888 185.385 44.5888 185.267C44.5888 183.121 44.5888 180.976 44.5888 178.831C43.9728 177.803 44.0552 176.621 44.1555 175.554C44.3811 173.115 44.1555 170.719 43.8475 168.323C43.6505 166.798 42.5403 165.68 41.6127 164.581C40.3127 163.041 39.4746 161.168 37.9597 159.796C37.3831 159.273 37.709 158.278 37.0751 157.726C36.871 157.529 36.9354 157.2 36.717 157.01C36.5128 156.813 36.5773 156.483 36.3588 156.293C36.2407 156.175 36.1332 156.043 36.0007 155.935C35.6497 154.539 35.8969 152.952 34.7114 151.81C34.604 151.706 34.5717 151.469 34.5896 151.301C34.7866 149.507 34.2029 147.773 34.2064 145.99C34.2208 139.325 34.2136 132.66 34.2136 125.995C34.2136 125.225 34.296 124.441 33.8555 123.742C34.7687 123.298 35.1913 123.739 35.3525 124.595C35.4742 125.243 35.442 125.898 35.442 126.554C35.4456 133.161 35.4778 139.769 35.4241 146.377C35.4026 148.848 36.015 151.083 37.3509 153.131C38.2355 154.488 38.59 156.079 39.335 157.504C40.4953 159.724 41.8133 161.798 43.5073 163.66C45.8065 166.189 46.5407 169.308 45.982 172.578C45.3445 176.303 45.5057 180.031 45.4197 183.763C45.3982 184.454 45.6919 185.374 44.5888 185.625Z" fill="#757575"/>
<path d="M37.0664 157.723C37.4711 157.912 37.7326 158.21 37.7719 158.672C37.8006 159.033 37.8185 159.528 38.1623 159.606C39.7059 159.965 39.7847 161.505 40.5583 162.475C41.3318 163.442 42.1125 164.413 42.8969 165.365C44.5049 167.314 44.3867 169.645 44.5479 171.883C44.7127 174.186 44.5837 176.514 44.5837 178.828C44.3545 178.774 44.0071 178.745 44.0035 178.502C43.9785 177.223 43.298 176.052 43.7098 174.67C44.111 173.32 43.9856 171.84 43.7313 170.433C43.6382 169.906 43.4914 169.394 43.5129 168.857C43.5308 168.359 43.3589 168.012 42.9793 167.629C40.1894 164.821 37.9689 161.662 37.0664 157.723Z" fill="#737374"/>
<path d="M36.3555 156.29C36.6456 156.444 36.7064 156.709 36.7136 157.006C36.4235 156.852 36.3591 156.587 36.3555 156.29Z" fill="#737374"/>
<path d="M36.707 157.006C36.9971 157.16 37.058 157.425 37.0652 157.723C36.7787 157.569 36.7142 157.3 36.707 157.006Z" fill="#737374"/>
<path d="M35.9961 155.932C36.1143 156.05 36.236 156.172 36.3542 156.29C36.2325 156.172 36.1143 156.054 35.9961 155.932Z" fill="#737374"/>
<path d="M46.7336 188.121C46.6119 188.124 46.4901 188.124 46.3683 188.128C45.4587 187.594 45.3369 186.688 45.4014 185.796C45.6556 182.312 45.8311 178.816 46.3397 175.36C46.551 173.913 46.9807 172.499 47.2457 171.045C47.7901 168.036 47.013 165.536 44.9823 163.398C43.36 161.694 42.153 159.745 41.0822 157.686C39.7177 155.527 39.1017 153.088 38.4642 150.659C38.3819 150.516 38.3138 150.366 38.2565 150.208C38.0846 149.581 38.0774 148.944 38.1061 148.299C38.1168 148.221 38.1276 148.142 38.1383 148.063C38.1383 140.657 38.1383 133.25 38.1383 125.844C38.1383 123.814 38.1348 123.814 36.3477 123.026C36.824 123.026 37.3003 123.018 37.7766 123.026C39.596 123.054 39.6174 123.104 39.2808 124.838C39.1805 125.357 39.2163 125.901 39.2163 126.435C39.2127 132.087 39.2736 137.738 39.1841 143.386C39.1483 145.535 39.6031 147.63 39.5816 149.764C39.5816 149.94 39.5888 150.14 39.6747 150.283C41.1825 152.887 41.7233 155.992 43.8542 158.284C44.3663 158.836 44.728 159.588 45.0038 160.236C45.7523 161.98 47.7722 162.7 48.2665 164.577C49.7133 164.881 49.5378 166.586 50.6158 167.273C51.2999 167.71 51.1817 168.606 50.7805 169.222C49.8422 170.669 49.6023 172.409 48.6855 173.86C47.5108 175.715 47.2959 177.813 47.038 179.951C46.7157 182.681 46.7623 185.399 46.7336 188.121Z" fill="#848484"/>
<path d="M44.5849 185.625C45.1329 185.16 44.9287 184.522 44.9359 183.949C44.9574 181.507 44.9574 179.064 44.9395 176.618C44.9287 175.372 45.294 174.193 45.5268 172.99C45.6092 172.568 45.6916 172.174 45.5232 171.78C45.3549 171.386 45.1866 170.942 45.3334 170.566C45.9781 168.915 45.1472 167.675 44.5204 166.218C43.9438 164.889 42.9088 164.065 42.2033 162.952C41.308 161.533 39.8826 160.466 39.4635 158.711C39.2916 157.995 38.8082 157.325 38.3569 156.713C38.0238 156.262 37.766 155.843 37.7803 155.27C37.7946 154.707 37.5403 154.213 37.2073 153.794C35.3951 151.516 34.883 148.898 34.9081 146.051C34.9725 139.139 34.9295 132.227 34.926 125.311C34.926 124.549 35.105 123.653 33.8551 123.739C32.6625 123.739 31.4699 123.739 30.2773 123.739C30.2773 123.621 30.2773 123.503 30.2773 123.385C32.308 123.485 34.3637 123.098 36.3621 123.743C37.2682 124.187 37.0712 125.021 37.0748 125.773C37.0819 132.263 37.1428 138.752 37.0569 145.242C36.996 149.751 38.6972 153.722 40.6096 157.612C41.6016 159.628 42.8981 161.505 44.4094 163.217C45.8133 164.807 46.5368 166.816 47.228 168.75C47.7401 170.175 47.296 171.833 46.9056 173.291C46.3326 175.429 46.0963 177.574 46.0246 179.759C45.9458 182.133 45.7775 184.497 45.4445 186.85C45.3943 187.215 45.2475 187.534 44.9502 187.767C44.0298 187.187 43.9438 186.467 44.5849 185.625Z" fill="#7A7979"/>
<path d="M44.9436 187.77C44.9543 187.297 44.9722 186.832 45.1012 186.359C45.5202 184.808 45.796 183.232 45.6599 181.614C45.4557 179.228 45.8318 176.868 46.0932 174.522C46.24 173.204 46.6627 171.904 46.831 170.547C46.9599 169.523 46.899 168.688 46.3582 167.908C45.4844 166.643 45.3769 165 44.2667 163.857C42.6085 162.152 41.5449 160.021 40.1732 158.105C39.4999 157.167 39.3674 156.014 38.8768 154.997C38.1856 153.568 37.6376 152.056 37.1434 150.545C36.642 149.016 36.7244 147.401 36.7208 145.814C36.7064 139.207 36.7136 132.599 36.7136 125.988C36.7136 125.218 36.796 124.433 36.3555 123.731C37.6627 124.004 37.6483 124.004 37.523 125.067C37.4585 125.594 37.4335 126.127 37.4335 126.661C37.4263 132.477 37.4442 138.297 37.4156 144.113C37.412 145.051 37.6806 145.979 37.4621 146.932C37.3439 147.451 37.6662 147.83 38.1462 148.053C38.5902 148.715 38.0387 149.542 38.5043 150.198C39.1167 151.097 39.1203 152.185 39.3602 153.185C39.7327 154.739 40.209 156.197 41.3694 157.35C42.0928 158.227 42.519 159.28 43.0419 160.272C43.751 161.608 44.9329 162.543 45.8748 163.667C46.9456 164.946 47.5078 166.317 47.7944 167.893C47.9627 168.821 48.2707 169.756 47.737 170.626C47.3216 171.306 47.6798 172.001 47.5795 172.692C47.3861 174.025 46.7701 175.206 46.634 176.592C46.3403 179.637 46.2365 182.699 45.8246 185.732C45.7172 186.524 46.0001 187.362 46.3726 188.114C46.1362 188.114 45.8962 188.114 45.6599 188.11C45.4736 187.902 45.137 187.974 44.9436 187.77Z" fill="#7D7D7D"/>
<path d="M41.3422 123.399C40.8552 123.331 40.6367 123.048 40.6367 122.561C40.6439 118.854 40.6403 115.151 40.6475 111.444C40.6475 111.193 40.7907 111.007 41.002 110.875C41.3924 111.308 41.8973 111.415 42.456 111.401C45.6614 111.322 48.8738 111.591 52.0792 111.208C55.2308 110.832 58.3717 111.104 61.5054 111.465C61.9244 111.516 62.3255 111.627 62.5941 111.999C62.6979 115.409 62.6621 118.818 62.6156 122.224C61.9315 123.012 60.9932 122.811 60.1265 122.829C54.6184 122.951 49.1138 122.679 43.6092 122.646C45.1421 122.682 46.6785 122.621 48.2113 122.686C48.7485 122.707 49.608 122.41 49.5292 123.506C46.7859 124.272 44.0641 123.875 41.3422 123.399Z" fill="#EDEDED"/>
<path d="M62.4791 111.935C59.6248 112.057 56.8027 111.255 53.9483 111.595C50.2273 112.039 46.4955 111.906 42.7637 111.931C42.4664 111.935 42.1692 111.917 41.8719 111.928C41.1234 111.946 40.9945 111.469 41.0088 110.871C41.1127 110.832 41.2166 110.818 41.3276 110.835C44.096 110.724 46.8536 110.406 49.6292 110.345C52 110.295 52.0466 110.166 51.9642 107.824C51.8675 105.095 51.8818 102.362 51.9571 99.6365C52.0072 97.7277 52.3582 97.4555 54.3351 97.4519C55.9395 97.4483 57.5404 97.4483 59.1413 97.4519C59.3454 97.4412 59.5424 97.4841 59.7215 97.5808C60.359 97.9927 60.4378 98.6588 60.4413 99.3142C60.4592 102.351 60.6455 105.399 60.3375 108.422C60.2014 109.747 60.3733 110.517 61.8774 110.477C62.1138 110.47 62.3251 110.628 62.5113 110.782C62.694 111.176 62.7227 111.559 62.4791 111.935Z" fill="#E9E9E9"/>
<path d="M59.6175 97.6269C57.7194 97.6305 55.8212 97.6377 53.9195 97.6305C53.1137 97.6269 52.4727 97.831 52.4727 98.7801C52.4727 102.1 52.4727 105.42 52.5407 108.74C52.5515 109.288 52.5228 109.9 53.0135 110.377C49.0167 111.179 45.1595 110.799 41.3203 110.842C42.8496 110.248 44.4504 110.688 46.0119 110.509C46.7497 109.861 47.6593 110.061 48.5153 109.997C49.8762 110.165 50.0839 109.281 50.109 108.242C50.177 105.395 50.0803 102.548 50.1555 99.7005C50.2128 97.4657 50.9112 96.9357 53.171 97.2724C55.3163 97.2759 57.4615 97.2759 59.6068 97.2795C59.6999 97.3547 59.7321 97.4335 59.7035 97.5123C59.6784 97.5875 59.6462 97.6269 59.6175 97.6269Z" fill="#DCDDDC"/>
<path d="M48.519 110.502C47.6845 110.502 46.8501 110.502 46.0156 110.506C46.0156 110.387 46.0156 110.266 46.0156 110.147C46.8107 109.61 47.1223 108.966 47.0327 107.913C46.7784 105.012 46.671 102.061 47.022 99.1885C47.3264 96.6923 48.2038 94.2677 48.1107 91.6891C48.0821 90.9048 48.6479 90.543 49.4501 90.6827C50.0375 91.0301 49.9193 91.5745 49.8369 92.0974C49.5683 93.7519 49.6865 95.3779 50.1664 96.9788C50.1342 97.1793 50.0411 97.3548 49.8978 97.4981C49.1278 97.849 49.0598 98.5116 49.0168 99.2637C48.8771 101.695 49.5325 104.084 49.375 106.52C49.3033 107.64 49.3105 108.765 49.0956 109.875C49.0311 110.201 48.7625 110.341 48.519 110.502Z" fill="#B2B2B2"/>
<path d="M41.3438 123.399C44.0907 123.388 46.8412 123.377 49.5881 123.37C50.2363 122.801 50.9275 122.869 51.6366 123.241C51.8085 123.41 51.8264 123.592 51.6903 123.793C51.1746 124.244 50.5443 124.219 49.9212 124.237C48.922 124.283 47.9192 124.219 46.92 124.23C46.5332 124.23 46.1428 124.226 45.7524 124.223C45.2761 124.215 44.7962 124.223 44.3235 124.14C44.1408 124.09 43.9618 124.029 43.7863 123.961C43.3458 123.818 42.8408 124.079 42.4361 123.732C42.0887 123.728 41.7413 123.721 41.3939 123.714C41.376 123.61 41.3581 123.506 41.3438 123.399Z" fill="#C7C6C6"/>
<path d="M49.5925 90.8368C48.8619 90.7867 48.493 91.0732 48.5109 91.8575C48.5395 93.1002 48.5216 94.3466 48.5145 95.5929C48.5109 96.062 48.6219 96.6064 48.2315 96.943C47.3362 97.7166 47.4365 98.7194 47.4401 99.7294C47.4508 102.161 47.4365 104.589 47.4472 107.021C47.4508 107.547 47.4043 108.07 47.5905 108.6C48.0561 109.915 47.9522 110.047 46.5483 110.155C46.3728 110.169 46.1937 110.155 46.0147 110.155C45.7317 109.249 45.6494 108.321 45.653 107.376C45.6637 104.715 45.7031 102.05 45.635 99.3891C45.6064 98.261 45.8535 97.2403 46.5017 96.3879C47.2681 95.378 47.5618 94.3072 47.4508 93.0788C47.4186 92.7278 47.4401 92.3696 47.4472 92.0151C47.4795 90.5252 47.483 90.5181 48.9156 90.4858C49.3883 90.4751 49.861 90.4966 50.3338 90.5073C50.3768 90.6685 50.3338 90.8082 50.2192 90.9263C49.9936 91.0338 49.7787 91.0374 49.5925 90.8368Z" fill="#A3A3A3"/>
<path d="M55.6586 90.4536C56.4858 90.4608 57.3167 90.4858 58.144 90.4679C58.8495 90.4536 59.2721 90.6828 59.265 91.4707C59.2471 92.8316 59.2471 94.1926 59.265 95.5535C59.2757 96.345 58.8424 96.5598 58.1404 96.5563C56.0095 96.5455 53.8786 96.5563 51.7441 96.5598C51.651 96.5169 51.5614 96.4703 51.4683 96.4273C50.6947 94.5507 51.2821 92.7063 51.6008 90.8583C52.0199 90.536 52.5105 90.6971 52.9689 90.6649C53.8428 91.2952 53.5061 92.255 53.6171 93.0895C53.6924 93.6697 53.5992 94.2678 53.7568 94.8444C53.8965 95.3601 54.2475 95.6323 54.7703 95.686C55.1858 95.729 55.7911 95.7648 55.8734 95.3637C56.1313 94.1209 56.0024 92.8173 56.3712 91.5746C56.4393 91.349 56.0597 91.2952 55.8269 91.2809C55.3004 91.2523 54.7596 91.2881 54.294 90.955C54.2009 90.8583 54.1687 90.758 54.1937 90.6577C54.2188 90.5539 54.2475 90.5038 54.2761 90.5038C54.7345 90.4858 55.1966 90.4679 55.6586 90.4536Z" fill="#E3E3E3"/>
<path d="M54.2725 90.5005C54.2546 90.6043 54.2367 90.7118 54.2259 90.8192C53.8786 91.1344 53.5276 91.1272 53.173 90.8336C52.6967 90.8371 52.224 90.8407 51.7477 90.8407C51.5758 91.009 51.3752 91.1165 51.1352 91.1451C50.8953 91.1595 50.6661 91.1129 50.4548 90.9947C50.4011 90.9374 50.3509 90.8765 50.3008 90.8192C50.3079 90.7118 50.3187 90.6043 50.3402 90.5005C51.651 90.5005 52.9617 90.5005 54.2725 90.5005Z" fill="#B8B8B9"/>
<path d="M44.2227 87.252C45.8056 87.431 47.3814 87.7283 48.9894 87.6531C49.1864 87.6423 49.3906 87.8572 49.5911 87.9682C48.1693 88.1151 46.7582 88.4589 45.3149 87.9897C44.8458 87.8357 44.4375 87.7211 44.2227 87.252Z" fill="#DFDFDE"/>
<path d="M51.7455 123.735C51.7419 123.62 51.7419 123.506 51.7383 123.388C52.3507 122.757 53.1529 122.865 53.9157 122.858C56.172 122.836 58.4283 122.854 60.6809 122.847C61.3328 122.843 62.0025 122.904 62.4752 122.306C62.4752 118.846 62.4788 115.39 62.4788 111.931C62.4788 111.573 62.4752 111.218 62.4752 110.86C61.1358 110.724 60.7777 109.958 60.8314 108.675C60.9531 105.825 60.8744 102.967 60.8708 100.112C60.8708 99.0773 60.8206 98.053 59.6137 97.6197C59.6137 97.5015 59.6137 97.3869 59.6065 97.2687C60.3228 97.2687 61.0391 97.2687 61.7554 97.2651C62.2818 97.7128 62.5146 98.2393 62.4896 98.9699C62.2424 106.165 63.0769 113.342 62.8334 120.54C62.8154 121.017 62.8441 121.493 62.8477 121.969C63.059 122.281 63.1449 122.664 63.3741 122.969C63.4852 123.087 63.5926 123.201 63.7179 123.302C64.0152 123.502 64.334 123.671 64.5954 123.925C65.1899 124.623 65.1505 125.476 65.1541 126.303C65.1684 132.427 65.1684 138.551 65.1541 144.672C65.1541 145.327 65.1147 145.979 64.9428 146.616C64.3554 148.805 63.0518 149.456 60.9245 148.636C56.6985 147.01 56.4514 146.631 56.5839 142.473C56.7486 137.305 56.4693 132.137 56.5767 126.973C56.5982 126.002 56.4979 124.999 57.2214 124.233C56.258 124.684 55.2695 124.122 54.2882 124.226C53.9874 124.226 53.683 124.219 53.3821 124.208C52.8915 124.197 52.4008 124.168 51.9532 123.932C51.8851 123.875 51.8171 123.803 51.7455 123.735Z" fill="#D0D0D0"/>
<path d="M63.1957 123.381C62.662 123.015 62.9092 122.457 62.8554 121.977C62.9665 121.962 63.0775 121.948 63.1885 121.941C63.1957 122.066 63.1993 122.195 63.2064 122.321C63.321 122.439 63.3998 122.578 63.4464 122.736C63.4643 122.987 63.3998 123.212 63.1957 123.381Z" fill="#AEAEAE"/>
<path d="M48.5195 110.502C48.6377 110.384 48.7595 110.266 48.8777 110.148C49.5331 106.656 49.0961 103.146 49.0746 99.64C49.0675 98.7554 48.9959 97.8135 49.9521 97.2691C50.2995 96.9396 50.8152 96.8501 51.1124 96.4526C51.3416 96.3487 51.5529 96.3702 51.7428 96.5492L51.7392 96.56C52.0472 97.133 52.8637 96.6925 53.1717 97.2691C52.8172 97.287 52.4483 97.2512 52.1117 97.3371C50.9799 97.6272 50.6863 97.9925 50.6755 99.2209C50.654 101.885 50.6684 104.55 50.6684 107.211C50.6684 107.626 50.6719 108.038 50.6684 108.454C50.6504 110.441 50.6325 110.459 48.5195 110.502Z" fill="#C2C2C2"/>
<path d="M63.1914 123.381C63.1986 123.148 63.2022 122.912 63.2093 122.679C66.6618 122.378 70.1106 122.382 73.563 122.675C73.563 123.03 73.563 123.384 73.5666 123.735C73.4484 123.735 73.3303 123.739 73.2157 123.739C72.4242 124.24 71.5754 123.732 70.7588 123.882C68.234 123.735 65.6661 124.265 63.1914 123.381Z" fill="#959595"/>
<path d="M73.5679 122.675C70.1155 122.675 66.6666 122.675 63.2142 122.675C63.2106 122.554 63.2106 122.435 63.207 122.314C66.1079 122.31 69.0124 122.296 71.9133 122.314C72.4756 122.321 73.1131 122.109 73.5679 122.675Z" fill="#A0A0A0"/>
<path d="M69.9965 155.219C70.0717 157.056 68.6392 158.099 67.7403 159.409C67.1207 160.319 66.3829 161.146 65.6989 162.009C64.5994 161.959 63.55 162.031 62.823 163.037C62.7227 163.173 62.558 163.363 62.4219 163.363C60.8282 163.334 59.3097 163.943 57.6623 163.743C55.8107 163.514 54.6575 162.554 53.3861 161.29C52.1506 160.061 50.7395 158.962 49.4538 157.748C48.1036 156.473 46.911 155.122 46.5672 153.181C46.4025 152.257 46.0372 151.355 45.26 150.707C44.8338 150.352 44.6476 149.89 44.5402 149.328C44.2143 147.587 43.8633 145.854 43.8633 144.07C43.8669 137.413 43.8633 130.758 43.8633 124.101C43.9457 124.05 44.028 123.997 44.1104 123.947C44.3038 123.929 44.4972 123.929 44.6906 123.95C45.4856 124.19 45.5358 124.774 45.5143 125.497C45.3281 131.5 45.4427 137.506 45.4427 143.508C45.4427 145.789 46.1016 147.917 46.9397 150.051C47.9818 152.698 49.5254 154.89 51.4092 156.992C53.2321 159.026 55.3988 160.53 57.8986 161.153C59.9687 161.669 62.2214 161.594 64.3272 160.287C66.014 159.237 67.2783 158.009 68.1879 156.294C68.4852 155.731 69.0045 155.266 69.71 155.144C69.8103 155.169 69.9034 155.194 69.9965 155.219Z" fill="#A0A0A0"/>
<path d="M42.4375 123.731C42.9138 123.735 43.3901 123.735 43.8665 123.739C43.9846 123.817 44.024 123.896 43.9846 123.979C43.9452 124.057 43.9059 124.097 43.8665 124.097C43.3901 124.097 42.9138 124.097 42.4375 124.093C42.4375 123.975 42.4375 123.853 42.4375 123.731Z" fill="#A0A0A0"/>
<path d="M61.0482 185.621C60.8978 184.271 60.819 182.906 60.5683 181.578C60.4465 180.933 60.3033 180.299 60.3355 179.647C60.3892 178.623 59.8628 177.824 59.365 177.019C59.1107 176.607 58.6917 176.399 58.1795 176.317C54.8166 175.769 52.4243 177.935 51.7402 180.557C51.3499 182.047 50.7983 183.508 51.0311 185.087C51.1636 185.972 50.6837 186.405 49.9531 186.692C50.0319 184.693 49.7096 182.674 50.5691 180.729C51.4824 178.662 52.4279 176.66 54.172 175.12C55.3001 174.125 56.6682 173.785 58.0506 173.505C58.8242 173.348 59.5297 174.1 59.8878 175.135C60.6292 177.259 60.7223 179.49 61.0267 181.685C61.1091 182.269 61.1914 182.845 61.3025 183.429C61.4385 184.156 61.6749 184.958 61.0482 185.621Z" fill="#A6A5A5"/>
<path d="M40.9791 186.334C40.9756 184.429 40.972 182.527 40.9648 180.622C41.0078 180.661 41.0866 180.69 41.0938 180.737C41.4626 182.61 41.6632 184.483 40.9791 186.334Z" fill="#6C6C6C"/>
<path d="M52.1007 186.337C52.1007 186.459 52.1007 186.577 52.1007 186.699C51.4489 186.968 51.345 187.509 51.3916 188.125C50.9582 188.114 50.5428 187.981 50.4461 187.526C50.3422 187.039 50.7505 186.821 51.1302 186.66C51.4417 186.527 51.7748 186.445 52.1007 186.337Z" fill="#B4B5B5"/>
<path d="M71.0575 123.392C71.8167 123.255 72.4936 123.624 73.2134 123.739C72.8732 124.702 72.8481 125.702 72.8481 126.711C72.8589 133.709 72.8338 140.707 72.8732 147.705C72.8804 149.052 72.5115 150.123 71.4263 150.929C71.3619 150.846 71.2939 150.76 71.2258 150.678C71.0969 150.374 71.079 150.058 71.1255 149.736C72.1068 142.921 71.4263 136.062 71.5947 129.226C71.6341 127.632 71.8096 126.017 71.4263 124.43C71.2903 124.28 71.1649 124.122 71.0467 123.957C70.9393 123.768 70.9429 123.578 71.0575 123.392Z" fill="#A0A0A0"/>
<path d="M71.4248 150.928C71.4248 151.107 71.4248 151.286 71.4248 151.465C71.4248 151.881 71.4319 152.3 71.4212 152.715C71.4069 153.177 71.4427 153.657 71.3245 154.098C71.26 154.338 70.8052 153.202 70.6369 154.187C70.5688 154.581 70.3683 154.979 69.9922 155.222C69.7881 155.047 69.7022 154.818 69.6914 154.556C69.6914 154.384 69.7165 154.22 69.7523 154.051C69.7738 153.969 69.7953 153.886 69.8167 153.804C70.3038 152.816 69.8776 151.319 71.4248 150.928Z" fill="#A0A0A0"/>
<path d="M44.9453 187.77C45.239 187.777 45.5076 187.842 45.6616 188.128C45.3643 188.121 45.0993 188.06 44.9453 187.77Z" fill="#7A7979"/>
<path d="M41.369 157.364C40.3089 156.67 39.6177 155.835 39.4566 154.446C39.2918 153.024 38.6973 151.656 38.5039 150.212C38.7761 150.345 39.0769 150.517 39.1056 150.81C39.3455 153.174 40.2839 155.294 41.369 157.364Z" fill="#818181"/>
<path d="M38.5019 150.209C37.8537 149.582 38.2548 148.78 38.1438 148.063C38.792 148.69 38.3909 149.492 38.5019 150.209Z" fill="#818181"/>
<path d="M62.4747 122.309C62.5535 123.194 62.0736 123.405 61.2893 123.391C59.2873 123.359 57.2817 123.38 55.2761 123.38C54.0979 123.38 52.9196 123.384 51.7377 123.387C51.0215 123.38 50.3052 123.373 49.5925 123.366C49.1162 122.836 48.4823 123.036 47.9093 123.029C46.1222 123.008 44.3314 123.036 42.5443 123.011C42.111 123.004 41.5953 123.212 41.2479 122.721C41.4771 122.607 41.1333 122.736 41.2658 122.535C41.298 122.489 41.3518 122.431 41.3983 122.428C48.4214 122.155 55.448 122.381 62.4747 122.309Z" fill="#E9E8E8"/>
<path d="M59.6171 97.6265C61.3899 97.6909 61.4186 97.6909 61.4007 99.3599C61.3613 102.78 61.5797 106.207 61.2789 109.617C61.1858 110.673 62.2459 110.305 62.4786 110.867C62.3605 110.867 62.2423 110.87 62.1241 110.863C61.3075 110.817 60.2618 111.168 59.7568 110.484C59.3235 109.9 59.9108 108.983 59.9251 108.224C59.986 104.968 59.9574 101.709 59.9323 98.4502C59.9287 98.1744 59.7246 97.9022 59.6171 97.6265Z" fill="#DCDDDC"/>
<path d="M49.953 97.2689C49.5555 97.9063 49.5913 98.6155 49.5913 99.3282C49.5985 101.688 49.6056 104.052 49.5877 106.412C49.577 107.694 49.3442 108.944 48.8786 110.147C48.7569 109.822 48.5993 109.531 48.6566 109.141C49.0004 106.806 49.004 104.482 48.5957 102.132C48.3844 100.929 48.5277 99.6612 48.5312 98.4221C48.5348 97.4802 49.1401 97.2366 49.953 97.2689Z" fill="#B8B8B9"/>
<path d="M51.0321 96.5528C51.4118 97.8958 50.3159 97.0327 49.9541 97.2726C48.8045 95.1847 49.2092 93.0108 49.5996 90.8405C49.836 90.8369 50.0687 90.8298 50.3015 90.8262L50.3159 90.8441C50.631 91.9973 50.3445 93.1648 50.4126 94.3252C50.4555 95.0307 50.4197 95.7362 50.9318 96.3093C50.9641 96.3845 50.9963 96.4668 51.0321 96.5528Z" fill="#B8B8B9"/>
<path d="M46.7344 123.746C47.8052 123.746 48.8796 123.746 49.9504 123.746C50.4805 124.33 50.4769 125.057 50.4626 125.769C50.3551 131.714 50.7025 137.663 50.2692 143.605C50.1617 145.091 50.4196 146.566 51.2147 147.899C52.812 150.57 54.7029 152.991 57.2958 154.764C58.9289 155.881 60.7017 156.064 62.5604 155.262C63.488 154.861 64.4263 154.478 65.379 154.137C65.7156 154.016 66.1382 153.922 66.2958 153.618C67.646 150.986 69.9775 148.88 69.8879 145.492C69.7196 139.131 69.8342 132.764 69.845 126.396C69.8485 125.515 69.7088 124.602 70.2138 123.785C70.486 123.531 70.7761 123.527 71.0733 123.742C71.6428 124.376 71.6034 125.157 71.6034 125.931C71.6034 132.334 71.6285 138.741 71.5891 145.145C71.5783 146.982 71.2524 148.79 70.7653 150.563C70.1744 151.652 69.5298 152.716 68.946 153.815C68.1438 155.319 66.9798 156.476 65.2536 156.97C64.2759 157.25 63.4164 157.798 62.6213 158.439C61.2926 159.509 59.7849 159.449 58.4383 158.693C54.7172 156.605 51.5513 153.908 49.3201 150.173C48.1597 148.228 47.4865 146.197 47.4077 143.948C47.2214 138.601 47.336 133.251 47.336 127.904C47.336 126.468 47.2393 125.085 46.7344 123.746Z" fill="#B4B4B4"/>
<path d="M70.35 123.742C70.35 131.123 70.3536 138.508 70.35 145.889C70.35 146.423 70.3142 146.956 70.2426 147.486C70.0707 148.74 69.6552 149.821 68.6525 150.731C67.8681 151.44 67.5279 152.536 67.1591 153.542C67.0086 153.958 66.8582 154.352 66.3962 154.438C64.7524 154.746 63.327 155.612 61.787 156.178C60.9669 156.479 59.9927 156.447 59.144 156.171C57.2243 155.544 55.4301 154.66 54.3342 152.844C54.019 152.321 53.6645 151.827 53.1881 151.494C51.6482 150.416 50.9462 148.704 50.1941 147.16C49.6748 146.093 49.4528 144.636 49.7178 143.357C49.9004 142.465 49.9542 141.599 49.9542 140.71C49.9613 135.055 49.9542 129.397 49.9542 123.742C50.5522 123.738 51.1503 123.735 51.752 123.731V123.735C52.2749 124.322 52.2749 125.046 52.2641 125.762C52.1674 132.248 52.4575 138.737 52.103 145.223C51.9884 147.336 53.2992 148.973 54.8499 150.165C55.9637 151.021 57.2064 151.755 58.3775 152.572C60.6553 154.158 62.6358 153.919 64.473 151.909C64.756 151.598 65.0532 151.29 65.4364 151.121C68.2514 149.889 68.7599 147.425 68.7778 144.765C68.8244 138.572 68.785 132.38 68.7993 126.188C68.8029 125.368 68.6489 124.508 69.1575 123.756C69.5478 123.488 69.9453 123.495 70.35 123.742Z" fill="#BCBCBC"/>
<path d="M46.7337 123.746C47.5395 124.154 47.8474 124.731 47.8367 125.702C47.7722 130.884 47.7794 136.066 47.8259 141.248C47.8403 142.709 47.894 144.174 48.0731 145.643C48.3739 148.089 49.6919 149.969 51.0779 151.806C51.8908 152.884 52.7038 153.994 53.7388 154.915C54.4945 155.588 55.1678 156.326 56.2207 156.559C57.1984 156.773 57.6676 157.719 58.4662 158.22C59.5263 158.883 61.3993 158.922 62.2947 158.066C63.0969 157.296 64.0639 156.741 65.0631 156.494C67.1725 155.978 68.161 154.471 68.9596 152.705C69.2819 151.989 69.5935 151.287 70.3528 150.925C70.4136 151 70.471 151.072 70.5318 151.147C70.65 152.2 70.12 153.135 69.9946 154.145C69.615 154.532 69.2748 154.958 68.9489 155.391C68.8665 155.534 68.7698 155.663 68.666 155.789C68.5585 155.918 68.4439 156.043 68.3257 156.165C68.2648 156.229 68.2075 156.29 68.1466 156.354C68.0249 156.491 67.9067 156.627 67.7885 156.766C67.7276 156.842 67.6667 156.913 67.6094 156.985C63.9349 161.171 59.9955 161.078 55.8661 159.298C55.5904 159.18 55.2752 159.091 55.0926 158.865C52.7933 156.054 49.2155 154.489 47.74 150.8C46.7802 148.4 45.9171 146.054 45.8992 143.476C45.8598 137.946 45.8885 132.417 45.8849 126.883C45.8849 126.113 45.9386 125.336 45.7667 124.573C45.627 124.308 45.5303 124.036 45.6557 123.735C46.0174 123.746 46.3755 123.746 46.7337 123.746Z" fill="#AEAEAE"/>
<path d="M45.6574 123.746C45.7756 123.864 45.8973 123.982 46.0155 124.097C46.3486 124.652 46.1767 125.261 46.1803 125.841C46.1946 131.199 46.3951 136.567 46.1337 141.914C45.8472 147.759 48.1679 152.304 52 156.454C54.8257 159.513 58.1206 160.784 62.1782 160.229C64.721 159.878 66.4365 158.295 67.8475 156.293C67.9693 156.179 68.0911 156.057 68.2057 155.935C68.3274 155.821 68.4492 155.699 68.5638 155.577C68.9972 155.162 69.1368 154.356 69.9964 154.503C69.9964 154.743 69.9964 154.979 69.9964 155.219C69.0043 155.835 68.3024 156.691 67.8297 157.754C67.3569 158.818 66.7266 159.717 65.4803 160.011C65.1508 160.089 64.7138 160.283 64.5849 160.551C63.9832 161.791 62.9124 161.705 61.8309 161.658C61.7127 161.655 61.5802 161.626 61.4763 161.662C59.0661 162.528 56.9888 161.45 54.9081 160.498C53.8766 160.025 52.9455 159.319 52.2006 158.496C50.8934 157.052 49.6542 155.552 48.1822 154.27C48.0533 154.155 47.9065 153.994 47.885 153.836C47.5555 151.433 45.8329 149.546 45.4246 147.179C45.1811 145.778 44.9089 144.396 44.9232 142.949C44.9769 137.706 44.9411 132.459 44.9483 127.216C44.9483 126.564 44.8516 125.905 45.0844 125.268C45.3816 124.455 44.9268 124.186 44.2248 124.1C44.1317 124.022 44.1031 123.943 44.1317 123.86C44.164 123.782 44.1926 123.742 44.2248 123.742C44.7048 123.742 45.1811 123.742 45.6574 123.746Z" fill="#A6A6A6"/>
<path d="M44.2253 123.739C44.2253 123.857 44.2253 123.979 44.2253 124.097C44.1071 124.097 43.9854 124.097 43.8672 124.097C43.8672 123.979 43.8672 123.857 43.8672 123.739C43.9854 123.739 44.1071 123.739 44.2253 123.739Z" fill="#A3A3A3"/>
<path d="M53.1742 90.8327C53.5251 90.8291 53.8761 90.8219 54.2271 90.8184C54.8216 90.8219 55.4161 90.8112 56.0106 90.8363C56.8666 90.8685 57.3321 91.463 56.8809 92.1936C56.3186 93.1104 56.3544 93.9377 56.6051 94.8975C56.8271 95.7463 56.5299 96.0615 55.6381 96.1868C53.7723 96.4518 53.2207 96.0078 53.1813 94.1705C53.1563 93.0603 53.1742 91.9465 53.1742 90.8327Z" fill="#EAEAEA"/>
<path d="M51.7445 96.549C51.5081 96.549 51.2682 96.549 51.0318 96.549C50.0541 95.3206 50.0577 92.323 51.039 90.8403C51.2754 90.8403 51.5153 90.8403 51.7517 90.8439C51.6514 92.2979 51.963 93.7771 51.4365 95.2096C51.261 95.6823 51.5368 96.1264 51.7445 96.549Z" fill="#D3D3D3"/>
<path d="M51.0334 90.8407C50.8937 92.7424 50.2813 94.6477 51.0262 96.5494C50.4962 96.5207 50.0091 96.2772 50.0127 95.7471C50.0235 94.1069 49.6116 92.4344 50.3135 90.8335C50.5535 90.8371 50.7934 90.8407 51.0334 90.8407Z" fill="#C2C2C2"/>
<path d="M49.5938 86.9043C51.6208 86.9043 53.6514 86.9043 55.6785 86.9079C55.4779 87.1478 55.2129 87.2732 54.9121 87.2445C53.1393 87.069 51.3236 87.6671 49.5938 86.9043Z" fill="#DFDFDE"/>
<path d="M53.8906 123.743C55.4485 123.549 56.9241 124.187 58.5536 124.126C58.2026 124.703 57.4756 124.255 57.2356 124.799C57.0351 125.254 57.1139 125.734 57.1139 126.203C57.1067 130.067 56.9742 133.939 57.1604 137.792C57.2714 140.095 57.121 142.373 57.0601 144.658C57.0243 146.076 57.6833 146.853 58.7864 147.201C59.8679 147.541 60.8492 148.064 61.8699 148.508C62.7044 148.87 63.2237 148.655 63.7358 148.053C64.47 147.186 64.6311 146.155 64.6276 145.063C64.6204 139.354 64.624 133.649 64.624 127.94C64.624 127.109 64.5703 126.271 64.6419 125.444C64.7064 124.71 64.427 124.19 63.9113 123.739C64.2229 123.471 64.5882 123.585 64.9391 123.599C65.3868 123.764 65.856 123.732 66.3215 123.753C66.737 123.775 67.1309 123.843 67.3709 124.241C67.704 124.914 67.6252 125.637 67.6252 126.346C67.6323 132.359 67.4962 138.376 67.6825 144.386C67.7828 147.552 66.0351 149.375 63.6606 150.524C61.7374 151.455 59.5205 150.65 57.7263 149.6C53.973 147.405 53.3964 145.747 54.4959 141.474C54.6319 140.951 54.8254 140.414 54.6893 139.895C53.5361 135.55 54.2953 131.128 54.1019 126.744C54.0554 125.741 54.0912 124.735 53.8906 123.743Z" fill="#CACACA"/>
<path d="M67.133 124.097C66.7749 124.097 66.4168 124.097 66.0622 124.097C65.9369 123.879 65.9834 123.714 66.2055 123.596C67.2298 123.621 68.2683 123.388 69.2783 123.743C69.2783 130.716 69.2532 137.685 69.3034 144.658C69.3141 145.926 69.0957 147.172 68.8127 148.347C68.4618 149.826 67.2405 150.854 65.8509 151.502C65.2242 151.792 64.7944 152.05 64.5223 152.763C64.1641 153.697 63.3869 154.213 62.2696 154.159C60.461 154.073 58.7813 153.851 57.3488 152.494C56.6182 151.803 55.8661 150.908 54.6663 150.872C54.5052 150.868 54.2652 150.768 54.2043 150.642C53.2159 148.648 50.6838 147.294 51.6687 144.468C51.837 143.985 51.7403 143.405 51.7403 142.871C51.7439 136.496 51.7439 130.118 51.7439 123.743C52.2202 123.743 52.6966 123.743 53.1729 123.746C54.1506 124.352 54.0646 125.337 54.061 126.282C54.036 132.489 54.1255 138.699 54.061 144.902C53.8784 147.208 54.8955 148.855 56.9047 149.908C58.1009 150.535 59.383 150.972 60.5792 151.624C62.0225 152.415 63.0073 151.355 63.9958 150.506C64.1283 150.403 64.2751 150.32 64.4327 150.256C65.6611 149.815 66.9611 149.453 67.2297 147.874C67.2906 147.695 67.3515 147.516 67.4052 147.333C67.8959 146.295 68.0642 145.217 68.0571 144.067C68.0248 138.208 68.0535 132.352 68.0284 126.493C68.0248 125.82 68.2791 125.05 67.5915 124.513C67.4375 124.373 67.2835 124.237 67.133 124.097Z" fill="#C1C1C1"/>
<path d="M64.6251 150.567C64.5069 150.567 64.3851 150.567 64.2669 150.567C62.0716 152.196 59.7938 151.426 57.7238 150.492C55.6537 149.557 54.0278 147.963 53.53 145.556C53.53 139.031 53.53 132.51 53.53 125.984C53.53 125.218 53.6124 124.437 53.1719 123.739C53.4118 123.739 53.6482 123.739 53.8881 123.739C54.1926 124.14 54.7047 124.215 54.676 125.053C54.5364 129.1 54.6116 133.154 54.6008 137.208C54.6008 137.763 54.7692 138.225 55.027 138.72C55.5177 139.658 55.5356 140.707 55.0485 141.631C54.2355 143.175 54.6653 144.769 54.7119 146.341C54.7262 146.785 54.9697 147.39 55.4389 147.501C56.4488 147.741 57.0433 148.522 57.7453 149.127C58.7445 149.987 60.023 149.682 61.0939 150.155C62.5443 150.796 63.7441 150.427 64.7218 149.217C64.797 149.124 64.8758 149.02 64.9761 148.97C67.0067 147.931 67.1643 146.115 67.15 144.117C67.0962 137.445 67.1285 130.769 67.1285 124.097C67.2466 124.097 67.3684 124.097 67.4866 124.097C68.0668 124.727 68.0202 125.512 68.0202 126.278C68.0238 132.438 68.0166 138.598 68.0238 144.758C68.0238 145.893 67.7695 146.978 67.4866 148.063C66.953 149.378 65.6207 149.782 64.6251 150.567Z" fill="#C7C6C6"/>
<path d="M69.2726 123.743C68.1982 123.743 67.1237 123.743 66.0529 123.743C65.6948 123.986 65.3402 123.975 64.9821 123.746C64.624 123.743 64.2658 123.743 63.9077 123.739C63.6176 123.721 63.3418 123.678 63.1914 123.381C65.813 123.384 68.4345 123.388 71.0561 123.392C71.0632 123.506 71.0632 123.624 71.0668 123.739C70.8269 123.739 70.5869 123.743 70.347 123.743C69.9888 123.743 69.6307 123.743 69.2726 123.743Z" fill="#AEAEAE"/>
<path d="M70.3497 150.925C70.2781 149.789 70.6147 148.686 70.7974 147.598C71.0373 146.172 71.0552 144.768 71.0588 143.354C71.0731 136.818 71.066 130.278 71.066 123.742C72.0329 123.814 72.1475 124.476 72.144 125.257C72.1296 126.858 72.1404 128.459 72.1404 130.056C72.1404 135.213 72.1655 140.37 72.1225 145.524C72.1082 147.107 71.8861 148.683 71.4205 150.212C71.0946 150.491 71.023 151.161 70.3497 150.925Z" fill="#AEAEAE"/>
<path d="M70.3522 150.925C70.7103 150.685 71.0649 150.449 71.423 150.209C71.423 150.449 71.423 150.685 71.423 150.925C70.4453 151.774 70.7031 153.174 69.994 154.145C69.8114 153.038 70.4489 152.025 70.3522 150.925Z" fill="#AAA9A9"/>
<path d="M69.995 154.503C69.5187 154.861 69.0424 155.219 68.5625 155.577C68.6664 154.725 69.1427 154.248 69.995 154.145C69.995 154.263 69.995 154.384 69.995 154.503Z" fill="#AAA9A9"/>
<path d="M67.8437 156.29C67.0737 158.922 64.8819 159.871 62.572 160.538C60.6703 161.089 58.7041 161.329 56.9349 160.004C54.0805 160.119 52.6659 157.977 51.1223 156.172C48.9341 153.615 47.1112 150.818 46.2302 147.498C46.0404 146.785 46.0153 146.09 46.0153 145.381C46.0117 138.287 46.0117 131.192 46.0117 124.097C46.5991 124.624 46.3555 125.322 46.3591 125.949C46.377 131.6 46.4021 137.252 46.3591 142.899C46.334 146.226 47.2795 149.21 49.0093 152.035C50.1124 153.84 51.4447 155.305 53.3607 156.211C53.7511 156.398 54.077 156.63 54.2525 157.039C55.2051 159.238 57.3145 159.402 59.252 159.861C59.363 159.886 59.492 159.846 59.6066 159.868C62.683 160.434 64.9894 159.058 67.0093 156.949C67.2564 156.698 67.5644 156.509 67.8437 156.29Z" fill="#AAA9A9"/>
<path d="M68.5613 155.577C68.4431 155.695 68.3213 155.817 68.2031 155.935C68.3213 155.814 68.4431 155.695 68.5613 155.577Z" fill="#AAA9A9"/>
<path d="M68.2019 155.932C68.0837 156.05 67.9619 156.172 67.8438 156.29C67.9619 156.172 68.0837 156.054 68.2019 155.932Z" fill="#AAA9A9"/>
<path d="M64.9844 123.746C65.3425 123.746 65.6971 123.746 66.0552 123.742C66.0552 123.86 66.0588 123.979 66.0588 124.093C65.6648 124.086 65.2458 124.161 64.9844 123.746Z" fill="#C6C5C5"/>
<path d="M67.4805 148.064C67.4805 140.073 67.4805 132.087 67.4805 124.097C68.0714 124.09 68.562 124.197 68.5477 124.949C68.5405 125.365 68.5549 125.784 68.5549 126.199C68.5549 132.148 68.5262 138.097 68.5764 144.045C68.5907 145.524 68.3006 146.849 67.4805 148.064Z" fill="#C6C5C5"/>
<path d="M53.5274 145.56C54.2186 147.165 55.3432 148.393 56.6934 149.492C58.7885 151.197 61.1414 151.104 63.5732 150.724C63.806 150.689 64.0352 150.621 64.2644 150.567C63.5374 151.62 62.7638 152.59 61.2704 152.35C60.9803 152.304 60.6221 152.325 60.4216 152.161C59.0284 151.011 57.0945 150.882 55.7336 149.779C54.4479 148.737 53.5167 147.354 53.5274 145.56Z" fill="#C6C5C5"/>
<path d="M64.6289 150.567C65.3595 149.475 66.5736 148.941 67.4904 148.063C67.5764 148.937 67.1323 149.5 66.3874 149.854C65.8179 150.13 65.295 150.531 64.6289 150.567Z" fill="#C6C5C5"/>
<path d="M16.326 68.2778C16.6125 68.4318 16.7056 68.6861 16.7128 68.9905C16.3797 68.8616 16.3117 68.593 16.326 68.2778Z" fill="#929191"/>
<path d="M13.0944 55.0591C13.6817 55.5641 13.363 56.2481 13.449 56.8498C12.8509 56.3484 13.1768 55.6608 13.0944 55.0591Z" fill="#DFDFDE"/>
<path d="M14.5002 46.8216C14.5073 48.7161 14.5217 50.6107 14.5145 52.5052C14.5109 53.021 14.6649 53.5868 14.1599 53.9915C14.1456 53.8805 14.1384 53.7659 14.1456 53.6549C13.7266 52.8526 14.2602 51.9251 13.8197 51.1264C13.8161 48.9955 13.8018 46.8646 13.8089 44.7337C13.8089 44.2144 13.6979 43.6521 14.1492 43.2295C14.6685 44.3863 14.0274 45.6577 14.5002 46.8216Z" fill="#B4B4B4"/>
<path d="M13.8174 51.1226C14.4549 51.8961 14.0538 52.8058 14.1433 53.651C13.667 53.2571 13.8532 52.7019 13.7852 52.2077C13.7959 51.846 13.8067 51.4843 13.8174 51.1226Z" fill="#C2C2C1"/>
<path d="M14.5103 41.0771C14.4422 41.6967 14.7717 42.3879 14.1593 42.9036C14.2166 42.2805 13.9731 41.6036 14.5103 41.0771Z" fill="#B4B4B4"/>
<path d="M14.5273 43.9851C14.7816 43.2688 14.71 42.4415 15.2687 41.8291C15.2723 42.5669 15.2508 43.301 14.9034 43.9815C14.7781 43.9815 14.6527 43.9815 14.5273 43.9851Z" fill="#B4B4B4"/>
<circle cx="51.8261" cy="49.0664" r="44.2507" fill="#E9E9E9" stroke="#58B1C1" stroke-width="2.54441"/>
<path d="M35.6328 86.188C35.7546 86.3062 35.8728 86.4208 35.9945 86.539C35.8728 86.4208 35.7546 86.3026 35.6328 86.188Z" fill="#8B8A8A"/>
<path d="M30.2695 83.3232C30.3913 83.4414 30.5095 83.556 30.6313 83.6742C30.5095 83.5596 30.3877 83.4414 30.2695 83.3232Z" fill="#8B8A8A"/>
<path d="M41.3622 86.5391C42.3291 86.7289 43.3462 86.7217 44.2272 87.2518C43.3928 87.2518 42.5583 87.2482 41.7275 87.2553C41.1079 87.2589 41.2547 86.8936 41.3622 86.5391Z" fill="#DFDFDE"/>
<path d="M29.5508 81.1704C30.3208 81.242 30.7935 81.8043 31.3415 82.2448C30.4784 82.3308 29.9232 81.9046 29.5508 81.1704Z" fill="#DFDFDE"/>
<path d="M39.5703 86.181C40.0645 86.2312 40.6268 86.0199 41.0029 86.5392C40.5087 86.489 39.9464 86.7075 39.5703 86.181Z" fill="#DFDFDE"/>
<path d="M29.1914 80.8164C29.3096 80.9346 29.4314 81.0564 29.5495 81.1745C29.4314 81.0528 29.3096 80.9346 29.1914 80.8164Z" fill="#DFDFDE"/>
<path d="M28.8398 80.458C28.958 80.5762 29.0798 80.698 29.198 80.8161C29.0798 80.6944 28.958 80.5762 28.8398 80.458Z" fill="#DFDFDE"/>
<path d="M19.5232 23.937C19.4086 24.0588 19.2904 24.177 19.1758 24.2987C19.2904 24.177 19.405 24.0588 19.5232 23.937Z" fill="#959494"/>
<path d="M26.6875 79.0259C27.4754 79.3948 28.206 79.846 28.8327 80.4584C27.7583 80.5193 26.8594 80.3152 26.6875 79.0259Z" fill="#DFDFDE"/>
<path d="M47.0859 9.98786C47.2399 9.70135 47.5085 9.63688 47.8022 9.6333C47.6482 9.91981 47.3832 9.98427 47.0859 9.98786Z" fill="#DFDFDE"/>
<path d="M17.0312 67.2212C17.1494 67.3394 17.2712 67.4611 17.3894 67.5793C17.2712 67.4576 17.1494 67.3394 17.0312 67.2212Z" fill="#DFDFDE"/>
<path d="M82.3387 34.2514C82.4139 34.4555 82.3065 34.6023 82.1632 34.7026C81.3897 35.2506 80.5552 35.6839 79.6635 35.9991C79.4235 36.085 79.1728 36.0277 79.1155 35.7484C79.0868 35.6087 79.1621 35.3723 79.2731 35.29C80.0789 34.6883 80.9814 34.2621 81.9448 33.9792C82.1131 33.929 82.2635 34.0759 82.3387 34.2514Z" fill="#7E7C7C"/>
<path d="M27.1206 25.8418C27.93 26.4578 28.7895 27.0738 29.4378 27.9297C29.556 28.0837 29.5201 28.27 29.384 28.4061C29.2444 28.5457 29.0653 28.5601 28.9042 28.4562C28.059 27.9082 27.2961 27.26 26.6694 26.4685C26.5476 26.3145 26.6157 26.1176 26.741 25.9886C26.8126 25.9134 26.9452 25.9063 27.1206 25.8418Z" fill="#827E7D"/>
<path d="M22.1939 43.4198C20.7828 43.9606 19.7514 43.3446 18.6842 43.1763C18.5445 43.1548 18.4334 42.9256 18.5087 42.7429C18.5445 42.6498 18.6555 42.5102 18.7271 42.5137C19.8409 42.5675 21.0299 42.3383 22.1939 43.4198Z" fill="#777372"/>
<path d="M60.126 18.9156C60.323 18.2423 60.5378 17.4401 60.7957 16.6522C60.8781 16.3979 61.1467 16.3263 61.3866 16.4373C61.6302 16.5484 61.6839 16.7883 61.6123 17.039C61.4045 17.7839 61.2075 18.5324 60.964 19.263C60.8816 19.5137 60.7849 19.8934 60.3838 19.7787C60.0257 19.6713 60.0472 19.3454 60.126 18.9156Z" fill="#7A7A7A"/>
<path d="M70.0812 20.6671C69.6371 21.5553 69.236 22.5295 68.4373 23.2601C68.3084 23.3782 68.1114 23.4033 67.9717 23.2636C67.8965 23.192 67.8213 23.038 67.85 22.9592C68.2081 21.96 68.7274 21.0539 69.458 20.2804C69.5762 20.155 69.7768 20.1264 69.9164 20.2768C69.9881 20.3556 70.006 20.4845 70.0812 20.6671Z" fill="#7F7D7C"/>
<path d="M42.5827 16.2295C43.5282 17.064 43.6643 18.167 43.8935 19.2307C43.9329 19.4097 43.8076 19.596 43.6249 19.596C43.4745 19.596 43.2381 19.5064 43.1916 19.3954C42.7582 18.3855 42.3213 17.3719 42.5827 16.2295Z" fill="#737271"/>
<path d="M82.303 44.1681C81.9986 44.1287 81.73 44.1072 81.7228 43.8028C81.7157 43.5342 81.9484 43.3945 82.1669 43.3444C82.9655 43.1689 83.7678 43.0149 84.5736 42.8824C84.8064 42.843 85.0249 42.9397 85.0678 43.2405C85.1001 43.459 84.964 43.5951 84.81 43.6309C83.954 43.8279 83.0945 43.9998 82.303 44.1681Z" fill="#6A6665"/>
<path d="M74.8749 28.4707C74.6421 28.3847 74.506 28.374 74.4415 28.3024C74.3234 28.1591 74.3198 27.9657 74.4415 27.8225C75.1077 27.0632 75.8275 26.3648 76.6656 25.7954C76.7945 25.7095 77.0166 25.6557 77.1312 25.8635C77.1813 25.9566 77.2314 26.1177 77.1884 26.1858C76.5832 27.1527 75.6914 27.8189 74.8749 28.4707Z" fill="#716E6D"/>
<path d="M36.0387 22.705C35.9599 23.0202 35.7486 23.0739 35.5087 22.9521C35.3582 22.8769 35.1971 22.7408 35.1362 22.594C34.7817 21.7524 33.7789 21.2367 33.915 20.1587C33.9329 20.0226 34.0761 19.9581 34.2015 20.0333C35.1613 20.6171 35.5122 21.6521 36.0495 22.5474C36.0674 22.5868 36.0423 22.6585 36.0387 22.705Z" fill="#737070"/>
<path d="M82.1914 62.2037C81.4751 62.107 80.8519 61.7668 80.2216 61.4516C80.107 61.3943 80.0175 61.1579 80.0282 61.0111C80.0569 60.7067 80.3255 60.6637 80.5511 60.7425C81.2172 60.9789 81.869 61.251 82.5244 61.5089C82.6999 61.7274 83.0401 61.6378 83.2013 61.8778L83.2121 61.8885C83.1118 62.766 82.6068 62.3326 82.1914 62.2037Z" fill="#666464"/>
<path d="M51.9994 18.3534C51.4945 17.4115 51.6413 16.4195 51.6736 15.4346C51.6771 15.2842 51.7452 15.1015 51.978 15.0908C52.2179 15.08 52.3218 15.2698 52.3325 15.4167C52.3898 16.4015 52.5832 17.3972 51.9994 18.3534Z" fill="#5D5B5B"/>
<path d="M82.0312 52.3622C83.1271 51.8823 84.1801 52.0542 85.5446 52.4338C84.1586 53.2181 83.0842 52.6881 82.0312 52.3622Z" fill="#4C4847"/>
<path d="M23.1327 60.4348C22.2732 61.0257 21.3886 61.545 20.1602 61.4412C20.6615 60.3847 21.5569 60.2808 22.3985 60.0874C22.6062 60.2808 22.9751 60.134 23.1327 60.4348Z" fill="#6A6867"/>
<path d="M18.0423 52.1796C18.0065 51.9683 18.1068 51.8465 18.3002 51.7856C18.687 51.6316 19.1203 51.7391 19.5035 51.56C19.9619 51.5027 20.4168 51.4203 20.8752 51.3952C21.1545 51.3773 21.5019 51.4024 21.5234 51.7856C21.5449 52.1581 21.2118 52.219 20.9289 52.2584C20.7606 52.2834 20.5851 52.2476 20.4132 52.2404C19.9082 52.4983 19.2994 52.2082 18.8052 52.5413C18.6906 52.5449 18.5724 52.5484 18.4578 52.5484C18.3253 52.4195 18.1104 52.3837 18.0423 52.1796Z" fill="#817875"/>
<path d="M22.405 33.9287C22.8957 34.1149 23.3899 34.294 23.8734 34.4946C24.2423 34.6486 24.7723 34.7954 24.5216 35.3254C24.3211 35.748 23.8877 35.4508 23.6048 35.3147C23.0282 35.0389 22.4015 34.8527 21.918 34.3979C21.9681 34.1293 22.14 33.9789 22.405 33.9287Z" fill="#6D6867"/>
<path d="M22.4067 33.929C22.242 34.0866 22.0808 34.2441 21.9161 34.4017C21.6367 34.3408 21.2536 34.2513 21.4398 33.9003C21.7084 33.3989 22.088 33.6604 22.4067 33.929Z" fill="#6D6867"/>
<path d="M23.1365 60.4342C22.8679 60.3662 22.5599 60.3841 22.4023 60.0869C22.5993 59.9973 22.7927 59.872 23.0004 59.8326C23.1294 59.8075 23.3729 59.8648 23.4087 59.9543C23.5054 60.1764 23.3801 60.3554 23.1365 60.4342Z" fill="#6A6867"/>
<path d="M82.1875 62.2038C82.5385 62.1358 82.9718 62.3292 83.2082 61.8887C83.5878 62.2074 83.5054 62.4581 83.0613 62.562C82.7175 62.6408 82.406 62.4975 82.1875 62.2038Z" fill="#878685"/>
<path d="M18.8125 52.5379C19.2709 52.0186 19.8654 52.2478 20.4169 52.2371C19.9156 52.5129 19.3748 52.5881 18.8125 52.5379Z" fill="#807E7E"/>
<path d="M19.508 51.5598C19.1642 51.9322 18.7273 51.8176 18.3047 51.7854C18.6664 51.4881 19.0854 51.506 19.508 51.5598Z" fill="#807E7E"/>
<path d="M18.0446 52.1797C18.1843 52.3015 18.3239 52.4268 18.4636 52.5486C18.2058 52.5593 17.8799 52.6488 18.0446 52.1797Z" fill="#807E7E"/>
<path d="M83.2003 61.8742C82.9066 61.8706 82.6703 61.7703 82.5234 61.5053C82.835 61.4695 83.075 61.5626 83.2003 61.8742Z" fill="#878685"/>
<g filter="url(#filter1_dd_520_1499)">
<circle cx="51.8262" cy="49.0664" r="40.3874" stroke="#58B1C1" stroke-width="2.54441"/>
</g>
<g filter="url(#filter2_d_520_1499)">
<mask id="path-185-inside-1_520_1499" fill="white">
<path d="M29.4907 57.7425C29.4907 57.7425 55.0908 45.8123 55.7594 45.3679C56.4279 44.9235 58.4336 43.0201 60.4392 42.3516C61.7763 45.0258 62.6985 46.8485 63.1134 48.3685C60.3656 49.2288 58.5912 49.1171 57.765 49.3792C56.9389 49.6413 32.3601 58.0703 32.3601 58.0703L29.4907 58.8058L27.0117 59.4074L29.4907 57.7425Z"/>
</mask>
<path d="M29.4907 57.7425C29.4907 57.7425 55.0908 45.8123 55.7594 45.3679C56.4279 44.9235 58.4336 43.0201 60.4392 42.3516C61.7763 45.0258 62.6985 46.8485 63.1134 48.3685C60.3656 49.2288 58.5912 49.1171 57.765 49.3792C56.9389 49.6413 32.3601 58.0703 32.3601 58.0703L29.4907 58.8058L27.0117 59.4074L29.4907 57.7425Z" fill="#9E3547"/>
<path d="M62.9407 48.4157C63.0559 48.3842 63.171 48.3528 63.2862 48.3214C62.8869 46.9848 62.2625 45.7579 61.6522 44.5332C61.2771 43.7902 60.8952 43.0537 60.5146 42.3139L60.4807 42.248L60.4126 42.2716C58.6196 42.9164 57.2018 44.2071 55.7419 45.3416C53.1368 46.6755 50.4774 47.9061 47.8187 49.1659C41.7148 52.0369 35.581 54.9024 29.4907 57.7425C28.6644 58.2975 27.838 58.8524 27.0117 59.4074C27.4905 59.2912 27.9693 59.175 28.4481 59.0588C28.7956 58.9745 29.1431 58.8901 29.4907 58.8058C30.4472 58.5606 31.4036 58.3155 32.3601 58.0703C34.7266 57.2588 37.1297 56.4351 39.5163 55.6171C43.2674 54.3317 47.007 53.0505 50.7562 51.7678C53.0742 50.9761 55.4615 50.1756 57.783 49.4358C58.2044 49.3192 58.6591 49.2986 59.1076 49.2533C60.4701 49.14 61.8402 48.9198 63.1669 48.5394C63.1313 48.4255 63.0956 48.3116 63.0599 48.1976C61.7795 48.6432 60.4431 48.9236 59.0893 49.0882C58.6422 49.151 58.1908 49.1849 57.7471 49.3225C55.4461 50.1389 53.0749 50.9758 50.7562 51.7678C47.007 53.0505 43.2674 54.3317 39.5163 55.6171C37.1297 56.4351 34.7266 57.2588 32.3601 58.0703C31.4036 58.3155 30.4472 58.5606 29.4907 58.8058C29.1431 58.8901 28.7956 58.9745 28.4481 59.0588C27.9693 59.175 27.4905 59.2912 27.0117 59.4074C27.838 58.8524 28.6644 58.2975 29.4907 57.7425C35.581 54.9024 41.7148 52.0369 47.8187 49.1659C50.4799 47.9047 53.1373 46.6992 55.7768 45.3941C57.2616 44.2723 58.7025 43.018 60.4659 42.4315L60.3639 42.3892C60.7271 43.1379 61.0901 43.8837 61.4438 44.6348C62.0188 45.8709 62.6013 47.1162 62.9407 48.4157ZM63.2862 48.3214L62.9407 48.4157L63.0599 48.1976L63.1669 48.5394L63.3358 48.4917L63.2862 48.3214Z" fill="black" mask="url(#path-185-inside-1_520_1499)"/>
</g>
<circle cx="54.4259" cy="48.3683" r="4.67985" fill="#4C4645"/>
<g filter="url(#filter3_dddd_520_1499)">
<circle cx="54.2138" cy="48.4609" r="5.08881" fill="#4C4645"/>
<circle cx="54.2138" cy="48.4609" r="4.60591" stroke="#727272" stroke-width="0.965809"/>
</g>
</g>
<defs>
<filter id="filter0_dddd_520_1499" x="0.724047" y="0.753137" width="121.736" height="231.659" filterUnits="userSpaceOnUse" color-interpolation-filters="sRGB">
<feFlood flood-opacity="0" result="BackgroundImageFix"/>
<feColorMatrix in="SourceAlpha" type="matrix" values="0 0 0 0 0 0 0 0 0 0 0 0 0 0 0 0 0 0 127 0" result="hardAlpha"/>
<feOffset dx="1.39516" dy="1.39516"/>
<feGaussianBlur stdDeviation="2.09274"/>
<feColorMatrix type="matrix" values="0 0 0 0 0 0 0 0 0 0 0 0 0 0 0 0 0 0 0.1 0"/>
<feBlend mode="normal" in2="BackgroundImageFix" result="effect1_dropShadow_520_1499"/>
<feColorMatrix in="SourceAlpha" type="matrix" values="0 0 0 0 0 0 0 0 0 0 0 0 0 0 0 0 0 0 127 0" result="hardAlpha"/>
<feOffset dx="2.79032" dy="6.9758"/>
<feGaussianBlur stdDeviation="4.18548"/>
<feColorMatrix type="matrix" values="0 0 0 0 0 0 0 0 0 0 0 0 0 0 0 0 0 0 0.09 0"/>
<feBlend mode="normal" in2="effect1_dropShadow_520_1499" result="effect2_dropShadow_520_1499"/>
<feColorMatrix in="SourceAlpha" type="matrix" values="0 0 0 0 0 0 0 0 0 0 0 0 0 0 0 0 0 0 127 0" result="hardAlpha"/>
<feOffset dx="6.9758" dy="16.7419"/>
<feGaussianBlur stdDeviation="5.58064"/>
<feColorMatrix type="matrix" values="0 0 0 0 0 0 0 0 0 0 0 0 0 0 0 0 0 0 0.05 0"/>
<feBlend mode="normal" in2="effect2_dropShadow_520_1499" result="effect3_dropShadow_520_1499"/>
<feColorMatrix in="SourceAlpha" type="matrix" values="0 0 0 0 0 0 0 0 0 0 0 0 0 0 0 0 0 0 127 0" result="hardAlpha"/>
<feOffset dx="12.5564" dy="29.2984"/>
<feGaussianBlur stdDeviation="6.27822"/>
<feColorMatrix type="matrix" values="0 0 0 0 0 0 0 0 0 0 0 0 0 0 0 0 0 0 0.01 0"/>
<feBlend mode="normal" in2="effect3_dropShadow_520_1499" result="effect4_dropShadow_520_1499"/>
<feBlend mode="normal" in="SourceGraphic" in2="effect4_dropShadow_520_1499" result="shape"/>
</filter>
<filter id="filter1_dd_520_1499" x="8.89577" y="4.86233" width="87.133" height="87.1359" filterUnits="userSpaceOnUse" color-interpolation-filters="sRGB">
<feFlood flood-opacity="0" result="BackgroundImageFix"/>
<feColorMatrix in="SourceAlpha" type="matrix" values="0 0 0 0 0 0 0 0 0 0 0 0 0 0 0 0 0 0 127 0" result="hardAlpha"/>
<feOffset/>
<feGaussianBlur stdDeviation="0.636102"/>
<feColorMatrix type="matrix" values="0 0 0 0 0 0 0 0 0 0 0 0 0 0 0 0 0 0 0.23 0"/>
<feBlend mode="normal" in2="BackgroundImageFix" result="effect1_dropShadow_520_1499"/>
<feColorMatrix in="SourceAlpha" type="matrix" values="0 0 0 0 0 0 0 0 0 0 0 0 0 0 0 0 0 0 127 0" result="hardAlpha"/>
<feOffset dx="1.2722" dy="-1.2722"/>
<feGaussianBlur stdDeviation="0.636102"/>
<feColorMatrix type="matrix" values="0 0 0 0 0 0 0 0 0 0 0 0 0 0 0 0 0 0 0.2 0"/>
<feBlend mode="normal" in2="effect1_dropShadow_520_1499" result="effect2_dropShadow_520_1499"/>
<feBlend mode="normal" in="SourceGraphic" in2="effect2_dropShadow_520_1499" result="shape"/>
</filter>
<filter id="filter2_d_520_1499" x="26.0459" y="42.3516" width="38.0332" height="18.9873" filterUnits="userSpaceOnUse" color-interpolation-filters="sRGB">
<feFlood flood-opacity="0" result="BackgroundImageFix"/>
<feColorMatrix in="SourceAlpha" type="matrix" values="0 0 0 0 0 0 0 0 0 0 0 0 0 0 0 0 0 0 127 0" result="hardAlpha"/>
<feOffset dy="0.965809"/>
<feGaussianBlur stdDeviation="0.482904"/>
<feColorMatrix type="matrix" values="0 0 0 0 0 0 0 0 0 0 0 0 0 0 0 0 0 0 0.17 0"/>
<feBlend mode="normal" in2="BackgroundImageFix" result="effect1_dropShadow_520_1499"/>
<feBlend mode="normal" in="SourceGraphic" in2="effect1_dropShadow_520_1499" result="shape"/>
</filter>
<filter id="filter3_dddd_520_1499" x="48.1592" y="42.4063" width="12.1074" height="13.0752" filterUnits="userSpaceOnUse" color-interpolation-filters="sRGB">
<feFlood flood-opacity="0" result="BackgroundImageFix"/>
<feColorMatrix in="SourceAlpha" type="matrix" values="0 0 0 0 0 0 0 0 0 0 0 0 0 0 0 0 0 0 127 0" result="hardAlpha"/>
<feOffset/>
<feGaussianBlur stdDeviation="0.482904"/>
<feColorMatrix type="matrix" values="0 0 0 0 0 0 0 0 0 0 0 0 0 0 0 0 0 0 0.43 0"/>
<feBlend mode="normal" in2="BackgroundImageFix" result="effect1_dropShadow_520_1499"/>
<feColorMatrix in="SourceAlpha" type="matrix" values="0 0 0 0 0 0 0 0 0 0 0 0 0 0 0 0 0 0 127 0" result="hardAlpha"/>
<feOffset/>
<feGaussianBlur stdDeviation="0.482904"/>
<feColorMatrix type="matrix" values="0 0 0 0 0 0 0 0 0 0 0 0 0 0 0 0 0 0 0.25 0"/>
<feBlend mode="normal" in2="effect1_dropShadow_520_1499" result="effect2_dropShadow_520_1499"/>
<feColorMatrix in="SourceAlpha" type="matrix" values="0 0 0 0 0 0 0 0 0 0 0 0 0 0 0 0 0 0 127 0" result="hardAlpha"/>
<feOffset dy="0.965809"/>
<feGaussianBlur stdDeviation="0.482904"/>
<feColorMatrix type="matrix" values="0 0 0 0 0 0 0 0 0 0 0 0 0 0 0 0 0 0 0.07 0"/>
<feBlend mode="normal" in2="effect2_dropShadow_520_1499" result="effect3_dropShadow_520_1499"/>
<feColorMatrix in="SourceAlpha" type="matrix" values="0 0 0 0 0 0 0 0 0 0 0 0 0 0 0 0 0 0 127 0" result="hardAlpha"/>
<feOffset dy="0.965809"/>
<feGaussianBlur stdDeviation="0.482904"/>
<feColorMatrix type="matrix" values="0 0 0 0 0 0 0 0 0 0 0 0 0 0 0 0 0 0 0.01 0"/>
<feBlend mode="normal" in2="effect3_dropShadow_520_1499" result="effect4_dropShadow_520_1499"/>
<feBlend mode="normal" in="SourceGraphic" in2="effect4_dropShadow_520_1499" result="shape"/>
</filter>
</defs>
</svg>
