<svg width="92" height="188" viewBox="0 0 92 188" fill="none" xmlns="http://www.w3.org/2000/svg">
<g clip-path="url(#clip0_588_1124)">
<g filter="url(#filter0_dddd_588_1124)">
<path d="M43.7383 127.248L47.0963 127.377L47.289 127.886C47.7459 128.041 48.0338 128.015 48.5275 127.995C48.8479 127.981 48.7007 127.984 49.086 128.001L49.5169 128.229C50.056 128.314 50.803 128.328 51.2923 128.446L52.8035 128.328L53.2863 128.457C54.0961 130.145 53.2322 134.035 53.4942 136.067C53.9121 133.499 53.6696 130.792 53.6739 128.211C54.4122 128.156 55.1418 128.076 55.8758 127.997L56.9908 127.874C56.5123 134.829 56.7591 141.872 56.7202 148.838L56.4907 183.656L56.4279 197.382C56.4127 199.847 56.6617 202.473 56.2287 204.916C55.0574 205.328 54.0008 205.596 52.6888 205.781L51.1407 205.816L49.138 205.796C48.4928 205.787 47.8455 205.716 47.2046 205.663C46.2195 205.422 45.3058 205.166 44.3835 204.841L43.8985 129.535C43.7318 128.783 43.7599 128.007 43.7383 127.248Z" fill="#D5D4D3"/>
<path d="M55.7641 128.319L56.9908 128.195C56.4644 135.126 56.736 142.143 56.6931 149.082L56.4406 183.773L56.3715 197.449C56.3549 199.904 56.6288 202.521 56.1524 204.955C54.8637 205.366 53.7013 205.633 52.2578 205.817C53.0748 204.3 52.6866 191.669 52.7199 189.133C53.0487 171.542 53.1892 153.95 53.1439 136.359C53.6037 133.801 53.3369 131.103 53.3416 128.531C54.1539 128.477 54.9566 128.397 55.7641 128.319Z" fill="url(#paint0_linear_588_1124)"/>
<path d="M43.7383 127.248L47.0388 127.377L47.2282 127.887C47.6772 128.042 47.9602 128.017 48.4454 127.996C48.7604 127.982 48.6156 127.985 48.9944 128.003L49.4179 128.23L49.3285 128.39C48.6008 128.344 47.8687 128.243 47.1452 128.166C46.8452 137.666 47.126 147.203 47.2154 156.705L47.258 186.045C47.2665 188.221 47.6261 205.127 47.1452 205.816C46.177 205.575 45.2789 205.319 44.3724 204.994L43.8958 129.54C43.7319 128.786 43.7596 128.008 43.7383 127.248Z" fill="url(#paint1_linear_588_1124)"/>
<path d="M43.7383 127.248L47.0388 127.462L47.2282 128.304C47.6772 128.56 47.9602 128.518 48.4454 128.484C48.7604 128.461 48.6156 128.466 48.9944 128.495L49.4179 128.871L49.3285 129.135C48.6008 129.058 47.8687 128.891 47.1452 128.765C46.0812 128.68 45.0428 128.545 43.9873 128.369C43.9596 129.254 43.9638 130.154 43.8958 131.034C43.7319 129.79 43.7596 128.504 43.7383 127.248Z" fill="#95928F"/>
<path d="M52.5822 128.195L52.9413 128.325C53.5435 130.015 52.901 133.913 53.0959 135.948C53.1265 153.635 53.0314 171.322 52.8092 189.007C52.7867 191.557 53.0491 204.256 52.4969 205.782L51.3456 205.817C51.2571 203.12 51.373 200.416 51.3827 197.717L51.402 181.811L51.4583 128.314L52.5822 128.195Z" fill="#D5D4D3"/>
<path d="M49.0723 128.195C49.7525 128.281 50.6951 128.295 51.3125 128.413L51.2169 181.842L51.1841 197.728C51.1677 200.423 50.971 203.123 51.1213 205.817L48.5942 205.797C48.2499 205.348 48.7444 195.448 48.7636 194.261L49.0668 161.131L48.9575 128.354L49.0723 128.195Z" fill="url(#paint2_linear_588_1124)"/>
<path d="M42.7535 80.8956C43.7308 80.8158 45.4304 80.8632 46.2973 81.3389L48.326 81.2114L49.2711 81.4531L50.0878 81.5531L51.2677 81.4553C51.8577 81.4888 52.4456 81.5305 53.0356 81.5808C54.1613 81.5423 55.1947 81.2941 56.2884 81.0181L57.986 80.8717C58.0964 83.687 58.0061 86.5584 57.9138 89.375L59.0455 89.9369C60.0308 90.6384 60.6629 91.6687 61.4334 92.611C61.9552 96.304 61.6401 104.591 61.4936 108.529C60.5886 109.894 59.7298 110.748 58.3351 111.502C57.9579 111.711 57.9699 111.72 57.8094 112.147C57.4924 111.972 57.2014 111.982 56.8523 111.952C56.3245 112.586 55.863 113.306 55.0081 113.33C54.7954 113.335 54.5867 113.322 54.376 113.302C53.6195 112.871 52.5139 113.071 51.7253 113.33C51.4764 113.411 51.3801 113.594 51.2035 113.794C50.5995 114.089 50.144 114.287 49.4798 114.333L49.0283 114.942C48.318 114.894 47.7782 114.868 47.1381 114.496L46.9976 114.19C45.6612 114.335 44.5033 113.659 43.2251 113.333L43.0284 113.665C42.8258 113.076 42.892 112.215 42.8639 111.578C41.5535 111.141 40.3676 110.59 39.1396 109.929C38.975 106.618 39.0713 103.248 39.1034 99.9318C39.0593 97.5728 38.6419 94.1961 39.9262 92.171L40.4599 90.9016C41.0599 89.9736 41.9529 89.6289 42.8719 89.1821C42.4204 87.2044 42.5529 85.1511 42.585 83.1314L42.7535 80.8956Z" fill="#D5D4D3"/>
<path d="M42.9953 80.8955C43.9482 80.8159 45.6055 80.8632 46.4507 81.3374L48.4289 81.2103L49.3505 81.4513L50.1469 81.551L51.2974 81.4534C51.8726 81.4868 52.446 81.5284 53.0212 81.5785C54.1189 81.5402 55.1266 81.2927 56.1929 81.0176L57.8483 80.8716C57.9559 83.6782 57.8678 86.5407 57.7778 89.3486L58.8814 89.9087C57.995 90.842 57.7289 91.2987 57.6311 92.6481C57.1595 93.443 56.3103 93.1481 55.9855 94.1168L54.0328 93.3309L53.8234 91.9572C53.3499 92.2029 52.6964 92.1301 52.1759 92.1368L51.2406 91.6883C51.3228 90.9285 51.3522 90.1522 51.407 89.3885L50.6184 89.5939C49.8827 89.7155 48.9925 89.7441 48.3507 90.1798C48.0846 90.3801 47.8008 90.2665 47.4858 90.2355L47.2099 91.6088L47.2902 91.7237L46.2883 91.7116C45.3139 91.2046 44.8248 90.2993 43.6605 90.2245L43.2712 89.3777L43.1107 89.1563C42.6705 87.1848 42.7996 85.1378 42.8309 83.1244L42.9953 80.8955Z" fill="#6A6967"/>
<path d="M42.9885 80.8942C43.9102 80.8179 45.5132 80.8632 46.3308 81.3179C46.8285 81.4862 47.3225 81.581 47.6745 82.0336L46.9742 82.6763C46.8967 83.142 46.8153 83.6049 46.7169 84.0662C46.4803 84.2095 46.2835 84.3203 46.0261 84.4141L46.3762 84.3794L47.0783 84.4208L47.6177 84.3679C48.0965 84.2579 48.1968 84.2731 48.6643 84.4303C49.0958 85.0252 49.4989 85.4865 49.3967 86.287C49.3172 86.9162 49.0277 87.5741 48.7343 88.1163C49.2718 88.5359 49.9134 88.6968 50.3619 89.2347C49.6503 89.3514 48.7892 89.3788 48.1685 89.7965C47.9111 89.9887 47.6366 89.8797 47.3319 89.85L47.0651 91.1667L47.1427 91.2769L46.1737 91.2653C45.2312 90.7792 44.7581 89.9111 43.632 89.8394L43.2554 89.0275L43.1002 88.8152C42.6744 86.9247 42.7993 84.962 42.8295 83.0314L42.9885 80.8942Z" fill="url(#paint3_linear_588_1124)"/>
<path d="M42.9444 80.8959C43.8448 80.8153 45.4107 80.8632 46.2094 81.3431C46.6957 81.5206 47.1782 81.6207 47.5221 82.0984L46.838 82.7767C45.5919 82.7668 43.878 83.9208 43.0109 83.6678L42.7891 83.1515L42.9444 80.8959Z" fill="#585755"/>
<path d="M47.7392 84.7209C48.187 84.6119 48.2808 84.6269 48.718 84.7827C49.1215 85.3724 49.4985 85.8298 49.403 86.6234C49.3286 87.2471 49.0578 87.8993 48.7835 88.4368L47.8826 88.2163C46.8383 87.3065 46.81 86.1396 46.5781 84.7322L47.2348 84.7733L47.7392 84.7209Z" fill="#B4B2AC"/>
<path d="M46.7138 84.7051L47.3799 84.6504L48.0413 84.7867C48.4737 85.2037 48.4713 85.1733 48.4713 85.748C48.2867 86.0034 48.1418 86.2534 47.8379 86.3995C47.3705 86.6241 47.2794 86.5524 46.8073 86.413C46.4357 85.7452 46.6016 85.4344 46.7138 84.7051Z" fill="#BFBDBB"/>
<path d="M46.0243 84.6861L46.3745 84.6504C46.6226 86.1089 46.6529 87.3182 47.7699 88.2611L48.7337 88.4897C49.2714 88.9207 49.9132 89.0861 50.3619 89.6387C49.65 89.7585 48.7886 89.7867 48.1676 90.2159C47.9101 90.4132 47.6355 90.3013 47.3307 90.2708C46.4522 88.6956 45.4411 86.9008 45.6589 84.9586L46.0243 84.6861Z" fill="#9E9C9A"/>
<path d="M42.7891 89.0937C43.0564 88.5919 43.0472 88.6298 43.6463 88.4375C44.7708 88.5893 45.5634 88.9893 46.2432 89.8247C46.7248 90.4151 46.5174 90.8838 47.4276 91.1704L47.5221 91.2773L46.3423 91.266C45.1948 90.7941 44.6187 89.9515 43.2476 89.8818L42.7891 89.0937Z" fill="#585755"/>
<path d="M48.1799 80.8643L49.2051 81.1133L50.091 81.2164L51.3708 81.1155C52.0107 81.15 52.6485 81.1931 53.2884 81.2449C53.5518 82.4507 54.1917 82.2699 54.7794 83.1406C54.9339 83.3681 54.9513 83.8577 55.095 84.1419L54.2918 84.1441C53.8173 83.9449 53.2753 83.5871 52.7551 83.8245C52.0608 84.1414 51.7517 84.5796 50.9442 84.6507L50.7527 84.6056C50.1018 84.5509 49.4554 84.3958 48.8133 84.2726L48.6631 84.3508C48.1255 84.1813 48.0101 84.165 47.4594 84.2835L46.8391 84.3405L46.0316 84.2959L45.6289 84.3333C45.9249 84.2322 46.1513 84.1127 46.4234 83.9583C46.5366 83.4609 46.6301 82.962 46.7194 82.4599L47.5248 81.7671C47.1199 81.2791 46.5518 81.1769 45.9793 80.9956L48.1799 80.8643Z" fill="#86847F"/>
<path d="M51.5777 81.8115C52.183 81.8393 52.7862 81.8738 53.3915 81.9154C53.6406 82.8841 54.2459 82.7388 54.8017 83.4383C54.9479 83.6211 54.9643 84.0143 55.1002 84.2426L54.3406 84.2444C53.8918 84.0844 53.3791 83.797 52.8871 83.9877C52.2303 84.2423 51.938 84.5943 51.1742 84.6513L50.9931 84.6152C51.1722 84.4738 51.3698 84.3267 51.5242 84.1638C51.9174 83.7469 51.8413 83.3058 51.8227 82.7993L51.8309 82.3295C51.4295 81.9574 50.9292 81.9786 50.3672 81.8925L51.5777 81.8115Z" fill="#86847F"/>
<path d="M47.3196 81.8115C47.5428 81.8677 47.9776 81.8721 48.0863 82.1407C48.3911 82.8965 48.0475 83.6846 48.4687 84.5654L48.3348 84.6513C47.8554 84.4651 47.7525 84.4471 47.2614 84.5774L46.7082 84.64L45.988 84.591L45.6289 84.6321C45.8929 84.521 46.0948 84.3897 46.3374 84.22C46.4383 83.6733 46.5218 83.1249 46.6014 82.573L47.3196 81.8115Z" fill="#95928F"/>
<path d="M48.9072 81.8115L49.7828 81.8802C50.3702 81.9517 50.893 81.934 51.3125 82.2428L51.3039 82.6326C50.9747 82.7221 50.751 82.7538 50.3981 82.7577C49.7226 82.765 48.9739 82.6852 48.4727 82.3556C48.4985 82.0423 48.5845 82.0385 48.9072 81.8115Z" fill="#615F5B"/>
<path d="M50.6964 84.5925C51.4836 84.5227 51.7849 84.0924 52.4618 83.7812C52.9689 83.5481 53.4973 83.8994 53.9599 84.0951C53.9684 85.2266 54.2294 86.5331 54.1296 87.6269C53.3318 88.0753 52.4279 87.9952 51.5558 88.3603C51.5091 88.3795 51.4603 88.3817 51.4115 88.3924L51.2311 89.1753L50.376 89.3837C49.8731 88.8144 49.1538 88.644 48.5512 88.1999C48.8801 87.6258 49.2047 86.9295 49.2938 86.2634C49.4084 85.4161 48.9564 84.9277 48.4727 84.298L48.6191 84.2212C49.245 84.3422 49.8752 84.4945 50.5097 84.5482L50.6964 84.5925Z" fill="#9E9C9A"/>
<path d="M50.5445 84.5537C51.3666 84.487 51.6813 84.0755 52.3882 83.7779C52.9178 83.5549 53.4696 83.8909 53.9527 84.078C53.9615 85.1602 54.2341 86.4097 54.1299 87.4559C53.5072 87.5447 52.8823 87.4426 52.2619 87.3752C51.6569 86.8277 51.2713 86.1914 50.8392 85.5218C50.5666 85.4473 50.5378 85.3292 50.3672 85.1217L50.5445 84.5537Z" fill="#A8A6A1"/>
<path d="M51.3125 85.4792C51.5434 84.9295 51.5417 84.8902 51.9713 84.6504C52.3754 84.7031 52.6947 84.8109 52.9578 85.2661C53.2278 85.7353 53.2159 86.0719 53.1972 86.639C52.9103 87.1565 52.8407 87.2312 52.4026 87.4902C51.9391 86.8962 51.6436 86.2057 51.3125 85.4792Z" fill="#B4B2AC"/>
<path d="M48.4727 88.0552C49.0583 87.6024 49.6419 87.3672 50.3497 87.5577C50.7816 87.6739 51.026 87.8713 51.3125 88.2714L51.1334 89.1504L50.2844 89.3844C49.7851 88.7451 49.071 88.5539 48.4727 88.0552Z" fill="#86847F"/>
<path d="M54.1908 91.7426C55.2674 90.7896 55.3754 88.8636 56.7743 88.4375C57.3034 88.5758 57.492 88.795 57.8527 89.2676L58.8854 89.8373C58.056 90.7865 57.8069 91.251 57.7154 92.6234C57.2741 93.4319 56.4795 93.132 56.1755 94.1171L54.3482 93.3179L54.1523 91.9208L54.1908 91.7426Z" fill="#4C4A49"/>
<path d="M54.2417 84.6525L55.0301 84.6504C55.4937 84.7682 55.6134 84.7359 55.8591 85.1737C56.1475 85.6859 56.0577 86.1648 55.8826 86.701C55.7138 87.217 55.4745 87.6681 55.2138 88.1408C55.0707 88.3971 54.9767 88.6292 54.8869 88.906L54.2011 89.1857C54.2588 90.0996 54.2545 90.9586 54.1776 91.8721L54.1327 92.0431C53.6157 92.2828 52.9021 92.2117 52.3338 92.2183L51.3125 91.7807C51.4022 91.0392 51.4343 90.2817 51.4941 89.5365L51.6757 88.7839C51.7249 88.7735 51.774 88.7714 51.821 88.753C52.6991 88.402 53.6093 88.479 54.4126 88.0479C54.513 86.9963 54.2503 85.7403 54.2417 84.6525Z" fill="#95928F"/>
<path d="M52.2578 92.2189C52.8285 91.2397 53.5689 90.3794 54.112 89.3838C54.1693 90.2382 54.1651 91.0413 54.0887 91.8953L54.0442 92.0551C53.5307 92.2793 52.8221 92.2128 52.2578 92.2189Z" fill="#7A7978"/>
<path d="M42.7991 89.3838L42.9605 89.6014L43.3523 90.4338C44.5238 90.5074 45.0161 91.3974 45.9965 91.8957C45.7012 92.344 45.6303 92.4764 45.1578 92.722C45.5339 93.0385 45.8705 93.3934 46.3549 93.4806L46.3254 93.567C46.9022 93.6516 47.0716 93.5987 47.4968 94.0543C47.615 94.9014 47.298 95.5863 47.3413 96.4021L47.0145 96.6191C46.9003 97.6934 46.9219 98.758 46.9337 99.8372L46.7624 99.9035C46.6935 100.545 46.7152 101.79 46.3824 102.294C44.7758 102.013 41.6001 101.085 40.1982 102.203C40.025 102.341 39.8615 102.488 39.6962 102.636L39.4816 102.504C39.326 101.647 39.2 100.785 39.1016 99.9184C39.0582 97.6067 38.6487 94.2975 39.9088 92.3129L40.4325 91.0689C41.0212 90.1595 41.8974 89.8216 42.7991 89.3838Z" fill="url(#paint4_linear_588_1124)"/>
<path d="M43.8297 90.3301C45.0462 90.3909 45.5573 91.1273 46.5755 91.5397C46.2688 91.9106 46.1952 92.0201 45.7045 92.2233C44.7825 92.0178 43.8788 91.782 42.969 91.5345C42.8524 91.3225 42.8279 91.1605 42.7891 90.9303C43.1325 90.7255 43.4781 90.5253 43.8297 90.3301Z" fill="#313333"/>
<path d="M46.1078 93.1699C46.7888 93.2584 46.9887 93.2031 47.4908 93.6795C47.6302 94.5653 47.256 95.2816 47.3071 96.1346L46.9213 96.3616C46.7865 97.485 46.8121 98.5982 46.826 99.7268L46.6238 99.7962C46.647 98.8666 46.7121 97.874 46.4959 96.9628C46.2681 95.9976 45.6289 94.8607 45.6289 93.8924C45.6289 93.4858 45.8218 93.445 46.1078 93.1699Z" fill="#95928F"/>
<path d="M43.2041 89.3838L43.3611 89.5957L43.7422 90.4064C43.4128 90.6362 43.0892 90.8718 42.7675 91.1128C42.8039 91.3837 42.8268 91.5745 42.936 91.824L42.5607 92.2236C41.8751 91.911 41.4309 91.5917 40.9023 91.0248C41.4749 90.1392 42.3271 89.8102 43.2041 89.3838Z" fill="#7A7978"/>
<path d="M40.3907 91.2773C40.8446 91.8335 41.2262 92.1467 41.8151 92.4534L41.8463 92.8918C41.5371 93.1557 41.2871 93.2113 40.9022 93.1451C40.44 93.0657 40.2508 92.8802 39.9531 92.4658L40.3907 91.2773Z" fill="#313333"/>
<path d="M47.1434 99.8638L47.324 99.7969C47.3365 103.842 47.4112 107.901 47.3365 111.944L46.9627 112.621L47.1413 112.901L47.5234 112.931C47.1558 113.378 47.2036 113.382 47.2326 113.976C45.8496 114.12 44.6514 113.451 43.3286 113.129L43.1251 113.458C42.9153 112.875 42.9839 112.024 42.9548 111.394C41.5987 110.962 40.3715 110.417 39.1006 109.764C38.9303 106.49 39.03 103.158 39.0632 99.8788C39.167 100.753 39.2999 101.623 39.464 102.487L39.6903 102.621C39.8648 102.471 40.0371 102.323 40.2199 102.184C41.6984 101.055 45.048 101.992 46.7426 102.276C47.0935 101.767 47.0707 100.511 47.1434 99.8638Z" fill="#86847F"/>
<path d="M59.0301 90.3301C60.0211 91.0075 60.6568 92.0025 61.4319 92.9125C61.9566 96.4788 61.6397 104.482 61.4924 108.285C60.5821 109.603 59.7183 110.427 58.3156 111.155C58.8666 106.176 58.5598 100.85 58.5376 95.8281C57.7808 95.2294 56.8927 94.8381 56.043 94.4064C56.378 93.4681 57.254 93.7538 57.7404 92.9837C57.8413 91.6765 58.1158 91.2342 59.0301 90.3301Z" fill="#95928F"/>
<path d="M59.1912 90.3301C60.2357 91.0215 60.9058 92.0371 61.7226 92.9659C61.695 94.9244 61.7162 96.8975 61.5482 98.8495C60.9908 97.5229 60.7079 95.4932 59.4763 94.7421C59.2657 95.2091 59.1253 95.6638 58.6722 95.9417C57.8745 95.3307 56.9385 94.9312 56.043 94.4907C56.3961 93.5329 57.3193 93.8245 57.832 93.0385C57.9383 91.7044 58.2276 91.2528 59.1912 90.3301Z" fill="#615F5B"/>
<path d="M57.8504 92.8591C58.42 92.5203 58.8734 92.1652 59.5418 92.2317C59.8406 92.5989 59.8406 92.6981 59.8234 93.1958C59.8126 93.5732 59.6966 93.8858 59.5848 94.2374C59.4967 94.5143 59.5225 94.3902 59.5117 94.7081C59.299 95.2149 59.1571 95.7085 58.6994 96.0101C57.8934 95.3469 56.9478 94.9134 56.043 94.4352C56.3997 93.3957 57.3325 93.7122 57.8504 92.8591Z" fill="#4C4A49"/>
<path d="M50.7573 89.5808L51.5405 89.3838C51.4861 90.1165 51.4569 90.8612 51.3753 91.5901L52.3042 92.0203C52.8211 92.0139 53.4702 92.0838 53.9404 91.8481L54.1484 93.1659C51.6104 93.3483 49.912 94.6627 47.784 96.01C47.7413 95.2139 48.0542 94.5455 47.9376 93.7188C47.5178 93.2743 47.3507 93.3259 46.7813 93.2433L46.8104 93.1591C46.3324 93.074 46.0001 92.7276 45.6289 92.4187C46.0953 92.179 46.1653 92.0499 46.4568 91.6124L47.4517 91.624L47.3721 91.5138L47.6461 90.1963C47.9589 90.2261 48.2407 90.3351 48.505 90.1429C49.1424 89.7249 50.0266 89.6975 50.7573 89.5808Z" fill="#585755"/>
<path d="M50.5798 89.5528L51.3125 89.3838C51.2616 90.0125 51.2343 90.6515 51.1579 91.277C50.7107 91.1205 50.4634 91.0612 49.9907 91.1019C49.6435 90.6362 48.9726 90.3338 48.4727 90.0352C49.069 89.6765 49.8962 89.653 50.5798 89.5528Z" fill="#6A6967"/>
<path d="M47.8097 90.3943C48.1322 90.43 48.4226 90.561 48.6949 90.3301C49.2457 90.7482 49.9847 91.1715 50.3672 91.8235C49.526 92.1488 48.8972 92.2363 48.022 92.2218L47.6095 92.1093L47.5273 91.9769L47.8097 90.3943Z" fill="#A8A6A1"/>
<path d="M46.3339 91.2773L47.1812 91.2916L47.5221 91.4062C47.4096 91.9817 47.3798 92.826 46.9793 93.0659C46.8933 93.1176 46.7294 93.1484 46.6351 93.1706C46.228 93.0664 45.945 92.6424 45.6289 92.2643C46.0261 91.971 46.0857 91.8128 46.3339 91.2773Z" fill="#4C4A49"/>
<path d="M46.9499 112.276C50.0524 112.579 53.975 112.916 56.9908 112.103C56.4476 112.705 55.9725 113.389 55.0925 113.412C54.8736 113.416 54.6587 113.403 54.4418 113.385C53.6631 112.976 52.525 113.166 51.7132 113.412C51.4571 113.488 51.3579 113.661 51.1761 113.852C50.5544 114.133 50.0855 114.321 49.4018 114.364L48.937 114.942C48.2058 114.897 47.6502 114.872 46.9912 114.519L46.8466 114.228C46.8177 113.657 46.7702 113.653 47.1358 113.224L46.7558 113.195L46.5781 112.926L46.9499 112.276Z" fill="#7A7978"/>
<path d="M46.5995 114.155C46.5676 113.527 46.5152 113.522 46.9185 113.049C47.7 113.133 48.5043 113.11 49.14 113.618L49.4179 114.305L48.9053 114.942C48.0987 114.892 47.4859 114.865 46.759 114.476L46.5995 114.155Z" fill="#D5D4D3"/>
<path d="M56.954 112.103C57.3118 112.132 57.6099 112.122 57.9348 112.297C57.6757 116.431 58.2083 123.442 56.734 127.055L56.4955 128.379L55.4366 128.576C54.7395 128.702 54.0466 128.83 53.3454 128.917C53.3413 133.033 53.5716 137.352 53.1748 141.447C52.926 138.207 53.7464 132.001 52.9774 129.309L52.5188 129.103L51.0836 129.292C50.6189 129.103 49.9096 129.081 49.3976 128.945L48.9884 128.582C48.6224 128.554 48.7622 128.55 48.4579 128.572C47.9891 128.604 47.7156 128.645 47.2818 128.398L47.0988 127.587L43.9097 127.381C42.4889 123.422 42.9083 118.021 42.7891 113.811L42.9906 113.479C44.3003 113.804 45.4867 114.479 46.8561 114.334L47.0001 114.64C47.656 115.01 48.2091 115.036 48.937 115.084L49.3996 114.477C50.0802 114.431 50.547 114.234 51.1659 113.939C51.3468 113.739 51.4455 113.557 51.7005 113.477C52.5086 113.219 53.6415 113.019 54.4167 113.449C54.6326 113.468 54.8464 113.481 55.0644 113.477C55.9403 113.453 56.4132 112.735 56.954 112.103Z" fill="#6A6967"/>
<path d="M56.9247 112.103C57.2937 112.131 57.6011 112.121 57.9362 112.289C57.669 116.245 58.2182 122.955 56.6978 126.414L56.4518 127.68L55.3597 127.869C54.6409 127.989 53.9262 128.112 53.2031 128.195C53.2052 127.771 53.2689 127.377 53.3304 126.96C53.5212 123.997 52.8553 115.496 54.3079 113.391C54.5306 113.41 54.7511 113.422 54.9759 113.418C55.8792 113.395 56.367 112.708 56.9247 112.103Z" fill="#615F5B"/>
<path d="M53.3148 127.361L54.3759 127.248C54.8413 127.503 54.8748 127.591 55.0963 127.975C54.4653 128.056 53.8379 128.139 53.2031 128.195C53.205 127.909 53.2608 127.643 53.3148 127.361Z" fill="#95928F"/>
<path d="M54.1523 126.793C54.9725 126.453 56.1023 126.426 56.9922 126.302L56.6686 127.949L55.2319 128.195C54.9 127.455 54.8498 127.285 54.1523 126.793Z" fill="#86847F"/>
<path d="M42.7891 113.383L43.0001 113.049C44.372 113.376 45.6146 114.055 47.0489 113.909L47.1997 114.217C47.1846 117.572 47.8566 124.331 47.3031 127.248L43.9628 127.041C42.4746 123.056 42.914 117.62 42.7891 113.383Z" fill="#615F5B"/>
<path d="M51.3166 113.793C51.4743 113.593 51.5604 113.41 51.7827 113.329C52.4873 113.07 53.4751 112.869 54.151 113.301C52.9229 115.512 53.4859 124.441 53.3245 127.553C53.2725 127.991 53.2187 128.405 53.217 128.85C53.2134 132.989 53.4142 137.33 53.0682 141.447C52.8512 138.189 53.5665 131.951 52.896 129.245L52.4962 129.038L51.2449 129.227C50.8397 129.038 50.2212 129.016 49.7748 128.878L49.418 128.514C49.522 128.407 49.6708 128.098 49.7497 127.958C50.2481 128.072 50.7751 128.155 51.2467 128.383C51.6841 126.249 51.7935 115.828 51.3166 113.793Z" fill="#BFBDBB"/>
<path d="M49.724 127.248C50.1838 127.417 50.67 127.541 51.105 127.882L51.2522 128.556C51.5648 128.621 51.7368 128.5 52.0262 128.276C52.2694 128.598 52.2065 128.387 52.2578 128.858L51.1033 129.141C50.7296 128.858 50.159 128.826 49.7471 128.621L49.418 128.078C49.5139 127.918 49.6512 127.456 49.724 127.248Z" fill="#A8A6A1"/>
<path d="M47.5275 113.996C48.0517 114.373 48.4938 114.4 49.0755 114.448C49.3548 118.134 48.6778 124.454 49.4206 127.618C49.3483 127.76 49.2119 128.073 49.1165 128.181C48.824 128.152 48.9358 128.148 48.6926 128.17C48.3179 128.203 48.0994 128.245 47.7527 127.994L47.6064 127.168C48.0287 124.22 47.516 117.388 47.5275 113.996Z" fill="#BFBDBB"/>
<path d="M43.2582 1.68627C45.279 1.54967 47.3466 1.29817 49.3576 1.61575L49.6347 2.86047C49.9397 3.93932 50.3089 4.26159 51.2796 4.82472C53.0086 4.87649 54.8963 4.77823 56.5994 5.03694C56.8894 5.0098 57.0171 4.90686 57.2278 4.7261C57.2725 3.82141 57.3298 2.93867 57.4761 2.04298C60.8678 2.0195 64.1604 2.78861 67.4741 3.40634C68.475 3.5929 69.6108 3.65505 70.5596 4.01668C70.6292 4.49639 70.519 4.94173 70.6549 5.40915L71.4478 6.24677L73.4744 6.20812C74.0409 7.14717 74.8011 7.54428 75.5556 8.2876C75.7819 8.51058 75.6379 8.85066 75.773 8.98437C75.926 9.13596 76.065 9.19371 76.2734 9.24628C77.2001 9.47997 77.707 9.58025 78.3068 10.3969C79.3415 11.8756 79.159 13.1958 79.3269 14.8911C79.5544 15.7309 79.9987 16.3832 80.5016 17.0826C80.9029 17.6486 81.3931 18.2198 81.494 18.9228C81.8557 21.4413 81.4254 26.4338 81.3692 29.2452C81.2304 36.1745 81.3775 43.2131 80.8198 50.1169C80.3023 50.6814 79.7423 51.2353 79.2606 51.8289C78.4278 53.1705 78.5998 54.9697 78.567 56.4975C78.6519 56.8584 78.6505 57.0258 78.452 57.359C78.0673 58.0042 77.4656 58.611 76.8921 59.091C76.1639 59.6493 74.936 60.7996 74.0727 61.0256C72.4712 63.1323 70.3047 64.8858 68.3082 66.6222C67.4403 67.377 66.5253 68.0372 65.8356 68.9743C65.7786 71.2575 65.849 73.5692 65.6618 75.8441L65.604 78.4071C63.4168 79.2545 60.9663 80.065 58.6759 80.5688L58.3086 80.5899C57.8399 80.5545 57.4951 80.4468 57.0817 80.6961L56.8599 81.3505L56.6668 81.4607C56.6095 81.7459 56.5817 82.0688 56.371 82.2854L56.3256 82.2651C55.6007 81.939 54.7734 81.53 54.0057 81.338C53.5896 81.234 53.3679 81.2113 53.0046 81.4243L52.8616 81.9913L52.3064 81.4393C51.7753 81.2643 51.137 81.4657 50.6215 81.6394C50.6391 82.4657 50.5948 83.3464 50.6917 84.1642C50.6836 84.6034 50.6406 85.0718 50.6887 85.5075C50.5468 85.3162 50.3167 85.2471 50.1041 85.155C50.0486 85.6813 50.0435 86.2691 49.774 86.7356L49.5327 86.8635C48.494 86.66 47.3238 86.729 46.2639 86.7009L46.1962 86.65L45.7052 86.853C45.3822 86.7002 45.1536 86.5902 44.9478 86.2894L45.0238 86.1454C45.3912 86.2153 45.7441 86.2678 46.118 86.2847C45.7348 85.7269 44.9234 85.8452 44.6618 85.217C44.3637 85.0387 44.0626 84.866 43.7583 84.6987L43.8207 84.6011L44.9919 84.4416C44.4438 84.4004 43.9354 84.5574 43.4249 84.5268C43.1967 84.2132 43.07 83.8273 42.9275 83.4689L43.0215 82.5078C43.0322 82.1736 43.0658 81.8101 43.0248 81.4786C43.0193 81.435 42.9713 81.1444 42.9409 81.1219C42.6416 80.901 41.3177 80.9471 40.7676 80.6341C39.1051 79.6883 37.4838 78.1868 35.9412 77.0196C35.7278 75.5164 35.4244 70.5199 35.8318 69.1999C34.4715 67.7777 32.7742 66.5419 31.2987 65.2297C28.7898 62.9989 26.3796 60.6188 23.7334 58.5502C23.5646 58.4074 23.3828 58.2777 23.2067 58.1438C23.0923 58.1942 22.9777 58.241 22.8589 58.2806C21.324 58.7928 19.2491 58.5693 17.8166 57.8445C16.3678 57.4155 15.0679 56.205 14.078 55.1099C13.0019 54.5429 12.0317 52.6872 11.6591 51.5737C10.7809 49.0866 10.5009 45.6329 11.2886 43.1123C12.0938 40.5352 13.8221 39.2481 16.1249 38.0428C16.4847 37.9361 16.9352 37.843 17.259 37.6561C17.6005 37.459 17.5989 37.2335 17.6848 36.8785C17.4221 33.2275 16.9586 29.414 17.2041 25.7588C18.3999 25.1626 19.7752 24.9748 20.9461 24.3017C20.9753 23.2506 21.0111 22.1997 21.0533 21.149C21.0638 20.2875 20.9714 19.4196 20.9068 18.5607C20.4511 16.8876 20.5323 14.899 20.6812 13.1842C20.7587 11.3527 22.0357 10.6359 22.3113 8.95307C23.3392 8.67989 24.3476 8.40811 25.3383 8.01527C26.6146 6.52055 26.8171 5.49808 28.629 4.44216C29.2602 4.44788 30.0987 4.35212 30.7017 4.50504C31.0153 4.58458 31.0407 4.70349 31.1983 4.96464C31.679 5.11574 32.0454 5.0967 32.5362 5.04767C34.7976 4.44886 33.8177 3.28982 35.0539 2.51205C37.7632 2.08533 40.5239 1.88401 43.2582 1.68627Z" fill="#34AEC2"/>
<path d="M43.2606 1.68581C45.2814 1.54921 47.349 1.29771 49.36 1.61529L49.6371 2.86001C49.9421 3.93886 50.3112 4.26113 51.282 4.82426C53.011 4.87603 54.8987 4.77777 56.6017 5.03648C56.8918 5.00934 57.0195 4.9064 57.2301 4.72564C57.4055 5.76713 57.3658 6.86633 57.3864 7.92103C57.3709 8.36696 57.3965 8.86243 57.3026 9.29781L57.3477 9.99509L57.3074 10.2122C57.2364 10.5849 57.1553 10.6961 57.3491 11.0328C57.882 11.3099 58.3849 11.4865 58.5293 12.1288C58.5445 12.1962 58.529 12.2436 58.5129 12.3086L58.6078 12.3507C58.6967 12.4197 58.8579 12.5007 58.8724 12.6122C58.9096 12.8991 58.8611 13.1348 58.7994 13.4145C59.3933 14.0164 60.5959 14.002 61.4114 14.0062C62.3932 14.0018 63.3747 13.9774 64.3553 13.9331C64.4801 14.2143 64.5145 14.246 64.4137 14.5531C63.7681 14.9531 62.6503 14.4352 62.1407 15.0131C62.0676 15.3385 62.0386 15.4062 62.1806 15.7238C62.6164 16.023 63.0973 16.2174 63.6341 16.2033C63.7867 16.4056 63.7789 16.5281 63.8054 16.774L64.8694 17.0621L64.932 17.208C64.1883 18.1985 64.202 19.3267 64.3739 20.5114C64.3817 20.5648 64.3943 20.6173 64.4054 20.6701L64.4374 21.2667L64.1912 21.8801C63.9732 22.158 63.6687 22.4594 63.6806 22.8312C64.1053 23.0583 64.5981 22.9036 65.0688 23.0982C62.0744 24.0438 58.8569 23.6388 55.757 23.9116C54.2477 23.9667 52.7377 23.8964 51.2293 23.8443C49.8307 23.8309 48.3936 23.8232 47.0063 23.6366L46.8276 23.6625C43.6719 23.8548 40.5462 23.4792 37.3911 23.4027C35.8093 22.9545 34.2179 22.8032 32.6086 22.5221L32.4192 22.5123C29.3036 22.2876 25.8302 20.5827 22.9966 19.3128C22.4006 19.0458 21.7396 18.3696 21.1045 18.3606L20.9092 18.5602C20.4535 16.8871 20.5347 14.8985 20.6836 13.1838C20.7611 11.3522 22.0381 10.6355 22.3137 8.95261C23.3416 8.67943 24.35 8.40765 25.3407 8.01481C26.617 6.52009 26.8195 5.49762 28.6314 4.4417C29.2626 4.44742 30.1011 4.35166 30.7041 4.50458C31.0176 4.58412 31.043 4.70303 31.2007 4.96418C31.6814 5.11528 32.0478 5.09624 32.5386 5.04721C34.8 4.4484 33.8201 3.28935 35.0563 2.51159C37.7655 2.08487 40.5263 1.88355 43.2606 1.68581Z" fill="#3DBACE"/>
<path d="M43.2608 1.68587C45.2816 1.54927 47.3492 1.29778 49.3602 1.61535L49.6374 2.86007L49.6595 4.18102C49.7721 4.7135 49.8478 5.31194 50.0186 5.82525C50.5049 6.44317 50.1678 7.17383 50.8736 7.61324L50.4128 7.85793C50.2083 8.03821 49.9378 8.22564 49.8023 8.46356C49.3124 9.41509 48.6921 11.2714 47.887 11.9163L47.6834 11.0821C47.6673 11.0575 47.6527 11.0319 47.6351 11.0086C47.4903 10.8183 47.1387 10.743 46.9159 10.7109C46.3165 10.6248 45.3709 10.6397 44.8915 11.002C44.1275 11.2154 38.5886 11.1585 37.6799 11.0531L38.0785 11.2405L38.0503 11.4311C37.5709 11.6566 37.1234 11.7068 36.5982 11.6881L35.2418 11.6045L34.9657 11.6468C34.0985 11.125 33.3284 10.9569 32.3277 10.8565C31.8829 10.8217 31.3697 10.8381 30.9868 10.5868C30.7772 10.2489 30.9256 9.78277 30.9913 9.41124C30.4895 9.62374 30.0101 9.83851 29.5399 10.1165L29.4335 9.38737L29.4961 8.45291C29.507 8.27211 29.5923 8.07727 29.6479 7.90496L29.6372 7.31098L29.7791 6.68268C30.6861 6.3679 31.6627 6.25023 32.5346 5.94299C32.5163 5.64846 32.5357 5.34288 32.5389 5.04727C34.8002 4.44847 33.8204 3.28942 35.0566 2.51166C37.7658 2.08493 40.5266 1.88362 43.2608 1.68587Z" fill="url(#paint5_linear_588_1124)"/>
<path d="M49.6526 4.18166C49.7652 4.71414 49.8409 5.31258 50.0116 5.82589C50.498 6.44381 50.1609 7.17447 50.8666 7.61388L50.4059 7.85857C50.2013 8.03885 49.9308 8.22628 49.7953 8.4642C49.3054 9.41573 48.6852 11.272 47.88 11.9169L47.6764 11.0827L47.8108 10.6918C47.9071 10.6463 48.0048 10.5989 48.0933 10.5393C48.3165 10.3888 48.4732 10.3018 48.5274 10.0346C48.2318 9.79259 47.82 9.78247 47.4539 9.73549L46.7009 9.72626C45.2715 9.64074 40.1779 8.3107 39.2335 7.41455L39.2639 7.23831C40.1869 7.22923 42.6891 5.9068 43.4714 5.33491L43.4649 5.22159C42.2699 5.11361 41.0418 5.63746 39.8351 5.69027C40.762 4.40536 46.9127 5.68695 48.6414 5.20063C49.2219 5.03732 49.3826 4.67817 49.6526 4.18166Z" fill="#23AAC0"/>
<path d="M50.0241 5.82515C50.5105 6.44306 50.1734 7.17373 50.8791 7.61314L50.4184 7.85783C50.2138 8.03811 49.9433 8.22554 49.8079 8.46346C49.3179 9.41498 48.6977 11.2713 47.8925 11.9162L47.689 11.082L47.8233 10.6911C47.9196 10.6455 48.0173 10.5982 48.1058 10.5385C48.329 10.388 48.4857 10.3011 48.5399 10.0338C48.2443 9.79184 47.8325 9.78173 47.4664 9.73475C47.7971 9.58896 48.14 9.4639 48.4765 9.33111C48.9854 8.59727 49.5229 7.92965 50.1232 7.26841C50.0631 6.78726 50.0423 6.30914 50.0241 5.82515Z" fill="#3DBACE"/>
<path d="M31.5998 8.21118L31.753 7.58904C32.0046 7.39946 32.071 7.40899 32.373 7.4047C32.6604 7.56667 32.9183 7.71531 33.1541 7.94877C33.6636 8.19679 34.0901 8.25431 34.5794 8.58866L34.5919 8.93568C34.1423 9.10635 33.4332 9.23232 33.166 9.60269L33.1991 9.83827C33.8088 10.1046 36.12 10.8259 36.693 10.8653C37.5495 10.9243 38.3569 10.4661 39.1728 10.3559C40.0352 10.2394 40.9766 10.2972 41.8497 10.2652C43.2004 10.2158 45.4193 10.0097 46.7068 9.72579L47.4598 9.73503C47.8259 9.78201 48.2378 9.79213 48.5333 10.0341C48.4791 10.3013 48.3224 10.3883 48.0992 10.5388C48.0107 10.5985 47.913 10.6458 47.8167 10.6913L47.6824 11.0822C47.6663 11.0577 47.6517 11.0321 47.634 11.0088C47.4893 10.8185 47.1376 10.7432 46.9149 10.7111C46.3155 10.625 45.3698 10.6398 44.8905 11.0021C44.1265 11.2156 38.5876 11.1586 37.6789 11.0533L38.0775 11.2407L38.0493 11.4313C37.5699 11.6568 37.1224 11.707 36.5971 11.6883L35.2407 11.6047L34.9647 11.647C34.0975 11.1252 33.3273 10.9571 32.3267 10.8566C31.8818 10.8218 31.3687 10.8383 30.9858 10.587C30.7761 10.2491 30.9246 9.78295 30.9902 9.41142L31.0934 9.24067C31.1511 8.8517 31.499 8.61208 31.5998 8.21118Z" fill="#58B1C1"/>
<path d="M35.242 11.604L35.3006 11.3476C35.8839 10.8215 36.9301 11.0183 37.6802 11.0526L38.0787 11.24L38.0505 11.4306C37.5711 11.6561 37.1236 11.7063 36.5984 11.6876L35.242 11.604Z" fill="#23AAC0"/>
<path d="M31.6001 8.21078L31.7533 7.58865C32.0049 7.39906 32.0713 7.4086 32.3733 7.4043C32.6607 7.56627 32.9186 7.71492 33.1544 7.94837C32.7906 8.02544 32.4961 8.1104 32.1722 8.29557L32.1689 8.46072L32.6582 8.65071C32.3287 8.66437 32.0706 8.66443 31.7567 8.55366L31.6001 8.21078Z" fill="#3DBACE"/>
<path d="M31.0898 9.24004C31.1475 8.85107 31.4954 8.61146 31.5962 8.21055L31.7527 8.55343C32.0667 8.6642 32.3248 8.66414 32.6543 8.65048C32.6025 8.97638 32.6096 9.00941 32.3351 9.2241C31.9116 9.28138 31.514 9.26587 31.0898 9.24004Z" fill="#23AAC0"/>
<path d="M32.5389 5.04732C34.8002 4.44852 33.8204 3.28947 35.0566 2.51171C35.959 3.03587 36.8294 3.32516 37.6471 4.01587C37.7887 4.45647 37.5181 4.99292 37.3141 5.38609C37.053 5.88883 36.7006 6.25505 36.1466 6.41902C35.2105 6.69588 33.5006 6.13888 32.5346 5.94304C32.5163 5.64851 32.5357 5.34293 32.5389 5.04732Z" fill="#3DBACE"/>
<path d="M35.0577 2.51056C37.7669 2.08384 40.5277 1.88253 43.2619 1.68478C43.1724 2.1756 42.8488 2.71747 42.4327 3.00055C41.4918 3.64058 40.0362 3.08499 38.9876 3.33823C38.539 3.44649 38.0493 3.78385 37.6482 4.01473C36.8305 3.32402 35.9602 3.03473 35.0577 2.51056Z" fill="#3DBACE"/>
<path d="M29.7831 6.68338C30.0969 6.8038 30.1052 6.80101 30.2575 7.09904C30.2205 7.35659 30.1832 7.59044 29.9534 7.75461C29.8626 7.8195 29.7548 7.86376 29.6519 7.90565L29.6412 7.31167L29.7831 6.68338Z" fill="#3DBACE"/>
<path d="M28.6343 4.44208C29.2655 4.44779 30.104 4.35204 30.707 4.50496C31.0206 4.58449 31.046 4.70341 31.2036 4.96455C31.6843 5.11565 32.0507 5.09662 32.5415 5.04758C32.5384 5.34319 32.519 5.64877 32.5373 5.9433C31.6654 6.25054 30.6888 6.36821 29.7818 6.68299L29.6398 7.31129L29.6506 7.90527C29.595 8.07758 29.5096 8.27242 29.4988 8.45322L29.4362 9.38768L29.5425 10.1168C29.5062 10.6823 29.5373 11.3222 29.2199 11.8116C28.9671 11.982 28.7106 12.1345 28.4438 12.2818C27.452 12.4243 26.3982 13.6753 25.4401 13.454C25.1743 13.3927 24.9428 13.2128 24.6923 13.1102C24.4898 13.0274 24.3577 12.933 24.1619 13.0476C24.2972 13.2652 24.459 13.401 24.3881 13.6628C24.3498 13.8042 24.2622 13.9286 24.1838 14.0507C24.1038 15.0395 25.1096 19.038 25.7421 19.7939C26.7421 20.9889 29.481 21.6759 30.9895 22.0574C31.4306 22.1689 31.8744 22.105 32.2581 22.3826C32.2771 22.3964 32.2964 22.4097 32.3153 22.4236C32.3735 22.4662 32.3618 22.4587 32.4221 22.5127C29.3065 22.288 25.8331 20.5831 22.9995 19.3132C22.4035 19.0462 21.7425 18.37 21.1074 18.361L20.9121 18.5606C20.4564 16.8875 20.5376 14.8989 20.6865 13.1842C20.764 11.3526 22.041 10.6359 22.3166 8.95299C23.3445 8.67981 24.3529 8.40803 25.3436 8.01518C26.6199 6.52046 26.8224 5.498 28.6343 4.44208Z" fill="#23AAC0"/>
<path d="M28.6279 4.44308C29.2591 4.4488 30.0976 4.35304 30.7006 4.50596C31.0141 4.5855 31.0395 4.70441 31.1972 4.96555C31.6778 5.11666 32.0442 5.09762 32.5351 5.04859C32.5319 5.3442 32.5126 5.64977 32.5308 5.9443C31.659 6.25154 30.6823 6.36921 29.7753 6.684L29.6334 7.31229L29.6442 7.90627C29.5886 8.07858 29.5032 8.27343 29.4924 8.45423L28.8669 8.4856C28.4323 8.30161 27.7395 7.9204 27.2651 8.10356C26.6149 8.35461 26.3894 9.0013 25.9731 9.49752C26.0079 8.85159 26.1628 8.43353 26.4255 7.85119L25.3372 8.01619C26.6135 6.52147 26.816 5.499 28.6279 4.44308Z" fill="#23AAC0"/>
<path d="M29.5286 7.32217L29.4106 7.09596C29.3917 6.61181 29.7887 5.98707 30.0892 5.62577C30.4388 5.20534 30.6675 5.00925 31.2007 4.96413C31.6813 5.11523 32.0477 5.0962 32.5386 5.04717C32.5354 5.34277 32.5161 5.64835 32.5343 5.94288C31.6625 6.25012 30.6858 6.36779 29.7788 6.68258L29.6369 7.31087L29.6477 7.90485C29.5921 8.07716 29.5067 8.27201 29.4959 8.45281L28.8704 8.48418C28.4358 8.30019 27.743 7.91898 27.2686 8.10214C26.6184 8.35319 26.3929 8.99988 25.9766 9.4961C26.0114 8.85017 26.1663 8.4321 26.429 7.84977C27.3864 7.83379 28.4611 7.92242 29.3887 7.6629L29.5286 7.32217Z" fill="#23AAC0"/>
<path d="M25.3436 8.01416L26.4318 7.84916C26.1692 8.4315 26.0143 8.84956 25.9794 9.49549C25.9787 9.89782 26.016 10.0741 25.7147 10.3756C24.6208 11.47 22.8861 11.6739 21.535 12.3125L21.9103 12.0134C21.148 12.2865 21.1575 12.5854 20.6864 13.1831C20.764 11.3516 22.0409 10.6348 22.3165 8.95196C23.3444 8.67878 24.3528 8.407 25.3436 8.01416Z" fill="#3DBACE"/>
<path d="M29.4318 9.38684L29.5382 10.116C29.5019 10.6814 29.5329 11.3214 29.2155 11.8108C28.9627 11.9812 28.7062 12.1337 28.4395 12.281C28.4395 12.1459 28.4133 12.1114 28.3468 11.9913C27.818 11.9767 27.3075 12.0271 26.783 12.0834L26.9236 12.3301L26.775 12.3889L26.608 12.2124C27.3376 11.4849 28.4337 12.1189 29.1744 11.6339C29.0664 11.4425 28.9482 11.2393 28.8791 11.0303C28.7652 10.6851 28.9568 10.3293 29.1095 10.0288L29.4318 9.38684Z" fill="#23AAC0"/>
<path d="M28.8677 8.48411L29.4931 8.45274L29.4305 9.38719L29.1081 10.0291C29.0166 9.89883 28.9274 9.76517 28.8549 9.62314C28.6573 9.2363 28.7413 8.8771 28.8677 8.48411Z" fill="#3DBACE"/>
<path d="M49.6357 2.85994C49.9406 3.93879 50.3098 4.26105 51.2805 4.82418C53.0095 4.87596 54.8972 4.77769 56.6003 5.03641C56.8903 5.00926 57.018 4.90633 57.2287 4.72557C57.4041 5.76706 57.3643 6.86625 57.3849 7.92096C57.3694 8.36689 57.395 8.86235 57.3011 9.29773L57.3462 9.99502L57.3059 10.2121C57.235 10.5848 57.1538 10.696 57.3476 11.0327C57.8805 11.3098 58.3834 11.4864 58.5278 12.1287C58.543 12.1961 58.5275 12.2436 58.5114 12.3086C57.6908 12.3209 56.7717 12.2308 55.962 12.3479C54.3104 12.5868 54.0029 12.9853 52.0936 12.8865L52.026 13.7644C52.0055 13.7895 51.9848 13.8144 51.9647 13.8397C51.2856 14.6958 51.0199 15.5767 49.9756 16.2478C50.0005 16.1157 49.9677 15.9938 49.9465 15.8624C49.2086 15.2082 48.1924 14.3523 47.1884 14.2173L47.1557 14.1133C46.9632 13.8132 47.0331 13.3044 47.0365 12.9539C47.0954 12.7634 47.493 12.4698 47.6498 12.2937L47.8853 11.9161C48.6904 11.2712 49.3107 9.41495 49.8006 8.46343C49.9361 8.22551 50.2066 8.03808 50.4111 7.8578L50.8719 7.6131C50.1661 7.17369 50.5032 6.44303 50.0169 5.82511C49.8461 5.3118 49.7704 4.71336 49.6578 4.18089L49.6357 2.85994Z" fill="#23AAC0"/>
<path d="M50.408 7.85742C50.8526 8.47581 51.4144 8.68161 52.0869 8.96919C52.1865 9.50457 52.2448 10.2831 52.5355 10.7373C52.347 11.2167 52.1589 11.6918 51.9363 12.1567C51.5171 12.2994 51.2567 12.0446 50.8688 12.303L50.7855 12.6277C51.0191 12.8892 51.2165 12.8531 51.5633 12.8749C51.7384 12.886 51.9151 12.8855 52.0905 12.8861L52.0229 13.764C52.0024 13.7891 51.9817 13.814 51.9616 13.8393C51.2824 14.6955 51.0168 15.5763 49.9724 16.2474C49.9973 16.1153 49.9646 15.9934 49.9434 15.862C49.2055 15.2078 48.1892 14.3519 47.1852 14.217L47.1525 14.1129C46.96 13.8129 47.0299 13.304 47.0333 12.9535C47.0922 12.763 47.4899 12.4695 47.6467 12.2933L47.8821 11.9158C48.6872 11.2709 49.3075 9.41458 49.7974 8.46305C49.9329 8.22513 50.2034 8.0377 50.408 7.85742Z" fill="#3DBACE"/>
<path d="M49.8044 8.4627C50.1385 8.90048 49.9552 9.38768 50.2524 9.8094C50.5385 10.2154 51.9038 10.8452 51.9387 11.1763C51.6088 11.3769 51.2767 11.4686 50.9056 11.5671C50.4755 11.4552 49.6832 11.1363 49.2693 11.2859L49.0954 11.5174C49.4287 11.9795 50.0373 11.8525 50.3477 12.3461C50.2448 12.705 50.1214 13.0384 49.9705 13.3798L50.3909 13.8776C50.3413 14.0385 50.3424 14.087 50.1862 14.1713C49.4066 14.5918 48.2998 13.8291 47.4109 14.0899C47.3247 14.1153 47.2482 14.1126 47.1595 14.1126C46.967 13.8125 47.0369 13.3037 47.0403 12.9531C47.0992 12.7627 47.4969 12.4691 47.6537 12.293L47.8891 11.9154C48.6942 11.2705 49.3145 9.41423 49.8044 8.4627Z" fill="#3DBACE"/>
<path d="M50.871 7.61223C51.8177 7.72837 53.1238 7.56767 53.982 7.92486L54.0648 8.13269C53.518 9.23333 53.1238 9.19781 52.5378 10.7368C52.2471 10.2826 52.1887 9.50408 52.0891 8.96869C51.4167 8.68111 50.8549 8.47531 50.4102 7.85693L50.871 7.61223Z" fill="#3DBACE"/>
<path d="M56.6047 5.03659C56.8948 5.00944 57.0225 4.9065 57.2331 4.72575C57.4085 5.76723 57.3688 6.86643 57.3894 7.92113C57.3739 8.36707 57.3995 8.86253 57.3056 9.29791C57.1354 8.84984 57.3178 8.26986 57.1415 7.76154C56.2846 6.98683 54.3727 6.84502 53.2662 6.54097C54.047 6.53861 55.1442 6.65253 55.8764 6.38846C56.4561 6.17949 56.6072 5.71791 56.8592 5.19506L56.6047 5.03659Z" fill="#23AAC0"/>
<path d="M44.8906 11.0013C45.37 10.6391 46.3156 10.6242 46.915 10.7103C47.1378 10.7424 47.4895 10.8177 47.6342 11.008C47.6519 11.0313 47.6665 11.0569 47.6825 11.0815L47.8861 11.9157L47.6506 12.2932C47.4939 12.4694 47.0962 12.7629 47.0373 12.9534C47.0339 13.3039 46.964 13.8128 47.1565 14.1128L47.1892 14.2169C48.1932 14.3518 49.2094 15.2077 49.9474 15.8619C49.9686 15.9933 50.0013 16.1152 49.9764 16.2473C49.6554 16.7477 49.5033 17.289 49.3289 17.8518L43.5093 17.8197C43.1874 17.8024 42.7626 17.7179 42.4923 17.541C42.237 17.3739 42.2513 17.2761 42.1978 16.9956C41.2633 16.8401 40.7603 15.9768 40.1877 15.2887C39.7126 15.1148 39.2141 15.0019 38.7246 14.875C38.7402 14.1885 38.5453 13.1375 38.8794 12.5577C39.2901 12.3271 39.6201 12.4059 40.0794 12.4234C38.9385 12.0863 37.7664 11.8969 36.5973 11.6875C37.1225 11.7062 37.5701 11.656 38.0494 11.4305L38.0776 11.2399L37.6791 11.0525C38.5878 11.1578 44.1266 11.2148 44.8906 11.0013Z" fill="#23AAC0"/>
<path d="M40.0814 12.4238C41.0392 12.5121 42.0119 12.6183 42.9731 12.644C42.9388 13.2665 42.8706 13.9073 42.8787 14.5297C43.6746 14.6897 46.5636 14.9457 46.9478 15.3769C45.9361 15.695 44.8361 15.3978 43.8131 15.5401C43.726 15.8149 43.6306 16.0871 43.5508 16.3639C43.4398 16.749 42.6753 17.1137 42.8013 17.3919C43.0324 17.5206 43.3158 17.6427 43.5114 17.8201C43.1895 17.8027 42.7647 17.7183 42.4944 17.5413C42.239 17.3743 42.2533 17.2765 42.1998 16.996C41.2654 16.8405 40.7624 15.9772 40.1898 15.2891C39.7147 15.1152 39.2161 15.0023 38.7267 14.8754C38.7423 14.1889 38.5473 13.1379 38.8815 12.5581C39.2922 12.3275 39.6222 12.4063 40.0814 12.4238Z" fill="#3DBACE"/>
<path d="M42.201 16.9961C42.4012 16.9757 42.5461 16.8875 42.7196 16.7927C42.8284 16.3328 42.3332 16.2749 42.3333 15.7759C42.7495 15.5022 43.3314 15.555 43.8142 15.5402C43.7271 15.8151 43.6318 16.0873 43.5519 16.364C43.441 16.7492 42.6764 17.1139 42.8025 17.3921C43.0336 17.5207 43.3169 17.6429 43.5125 17.8202C43.1906 17.8029 42.7658 17.7184 42.4955 17.5415C42.2402 17.3744 42.2545 17.2766 42.201 16.9961Z" fill="#3DBACE"/>
<path d="M44.891 11.0013C45.3704 10.639 46.316 10.6241 46.9154 10.7102C47.1382 10.7423 47.4898 10.8176 47.6346 11.0079C47.6522 11.0312 47.6668 11.0568 47.6829 11.0814L47.8865 11.9156L47.651 12.2931C46.8159 11.8846 46.0306 12.1509 45.2537 11.7918C44.9935 11.4869 44.9573 11.3942 44.891 11.0013Z" fill="#23AAC0"/>
<path d="M47.0386 12.9542C47.0353 13.3048 46.9653 13.8136 47.1578 14.1136L47.1906 14.2177C46.5031 14.1612 45.8268 14.0184 45.1499 13.8901C45.7716 13.5415 46.5171 13.4661 47.0386 12.9542Z" fill="#3DBACE"/>
<path d="M55.7513 23.9107L56.0421 23.6823C56.0534 23.3592 56.0374 23.0556 56.0003 22.7344L56.1574 22.6146L56.1945 23.325C56.3886 23.5248 56.427 23.5853 56.7122 23.6342C56.9755 23.415 57.0672 22.8423 57.1653 22.5146L57.3373 22.4254L57.6495 22.7125C57.7809 22.4505 57.4612 22.3331 57.4459 22.0189C58.1607 21.4709 59.9735 21.8966 60.876 21.7923C61.5428 21.7153 61.9941 21.4516 62.7034 21.4488C63.541 20.4289 62.2748 17.9937 63.179 16.9464C63.336 16.7647 63.5697 16.7983 63.7997 16.7731L64.8637 17.0611L64.9264 17.2071C64.1826 18.1976 64.1963 19.3258 64.3682 20.5104C64.376 20.5639 64.3886 20.6164 64.3997 20.6692L64.4317 21.2658L64.1856 21.8792C63.9675 22.1571 63.663 22.4585 63.6749 22.8303C64.0997 23.0574 64.5924 22.9027 65.0631 23.0973C62.0687 24.0429 58.8512 23.6379 55.7513 23.9107Z" fill="#3DBACE"/>
<path d="M45.7461 19.0781C46.3771 19.3883 47.487 19.5568 48.1767 19.3506C48.2244 19.3363 48.2787 19.3074 48.3218 19.2866C48.4003 19.739 48.4077 19.764 48.7523 20.0661C49.0623 20.1366 49.3022 20.2059 49.6119 20.0943L49.6358 20.182C49.6103 20.9453 49.6292 21.7416 49.5388 22.4986C49.3298 22.889 49.3087 22.9931 48.9048 23.1727C48.775 22.5116 48.8503 21.767 48.8649 21.0932C48.4744 21.5468 48.0343 22.1701 47.4489 22.3477C47.1193 22.2861 47.0771 22.2437 46.8551 22.013C46.5903 21.6393 46.3858 21.2142 46.1678 20.8117C46.087 20.202 46.0289 19.634 45.7461 19.0781Z" fill="#3DBACE"/>
<path d="M46.1719 20.8123C46.2415 20.5356 46.2292 20.3021 46.4896 20.1472C46.9043 19.9005 47.7002 19.8944 48.1557 20.0305C48.4027 20.1044 48.5387 20.2139 48.6958 20.4158C48.6887 20.7558 48.6318 20.876 48.3886 21.1203C47.9568 21.554 47.4309 21.8191 46.8592 22.0137C46.5944 21.6399 46.3899 21.2149 46.1719 20.8123Z" fill="#23AAC0"/>
<path d="M49.6103 20.0942C49.6752 19.7776 49.7175 19.4822 49.9155 19.2176C50.3598 19.1117 50.9178 19.4567 51.3652 19.6052C51.5986 20.2847 51.3715 21.8536 51.0677 22.5025C50.9293 22.7983 50.7794 23.0283 50.4601 23.1389C50.3038 23.1931 50.0954 23.1637 49.9324 23.1507C49.8176 23.1195 49.7058 23.052 49.5985 22.9997L49.5372 22.4985C49.6277 21.7415 49.6087 20.9453 49.6343 20.182L49.6103 20.0942Z" fill="#58B1C1"/>
<path d="M49.6385 20.1821L49.9778 19.9864C50.1527 20.0348 50.2409 20.0189 50.3318 20.1857C50.6684 20.8032 50.3584 22.1988 50.1377 22.8386C50.089 22.98 50.0486 23.0516 49.9366 23.1509C49.8218 23.1196 49.7101 23.0521 49.6027 22.9998L49.5414 22.4986C49.6319 21.7417 49.6129 20.9454 49.6385 20.1821Z" fill="#23AAC0"/>
<path d="M58.5101 12.3084L58.6051 12.3505C58.6939 12.4195 58.8551 12.5005 58.8696 12.612C58.9068 12.8989 58.8583 13.1346 58.7966 13.4143C58.2122 13.5736 57.6306 13.7428 57.0521 13.9222C56.9868 14.1139 56.9888 14.2493 57.0054 14.45L56.865 14.4825C56.707 13.9865 57.2152 13.5057 56.6348 13.1906C55.632 12.6462 53.819 13.0437 52.743 13.1861L52.7056 13.2469C52.4911 13.5916 52.4152 13.6564 52.0247 13.7643L52.0924 12.8863C54.0016 12.9852 54.3091 12.5867 55.9607 12.3478C56.7704 12.2307 57.6895 12.3207 58.5101 12.3084Z" fill="#3DBACE"/>
<path d="M51.3659 19.6055L51.5749 19.6187C51.8285 20.228 51.6757 22.6172 51.4151 23.2494C51.1449 23.5256 50.9682 23.712 50.555 23.7123C50.1321 23.7126 49.7043 23.6752 49.2825 23.6449C49.2603 23.6097 49.2503 23.5904 49.218 23.5581C48.7912 23.13 47.9317 23.1989 47.3503 23.1734C47.8578 23.0678 48.3905 23.1385 48.9039 23.1729C49.3078 22.9933 49.3289 22.8892 49.5379 22.4988L49.5992 23C49.7065 23.0523 49.8182 23.1198 49.9331 23.151C50.0961 23.164 50.3045 23.1934 50.4608 23.1392C50.7801 23.0285 50.93 22.7986 51.0684 22.5028C51.3722 21.8538 51.5992 20.285 51.3659 19.6055Z" fill="#23AAC0"/>
<path d="M32.3281 10.8564C33.3288 10.9569 34.0989 11.125 34.9661 11.6468C34.6583 11.7872 34.3408 11.9052 34.0159 12.0001C33.4712 12.1631 33.0635 12.2665 32.5376 11.9824C32.2587 11.5913 32.3263 11.3233 32.3281 10.8564Z" fill="#3DBACE"/>
<path d="M32.6045 22.5225C33.1191 22.5403 33.6472 22.5764 34.1608 22.5344C34.9776 22.4677 36.1857 22.0109 36.8261 22.7172C37.0234 22.9345 37.206 23.1719 37.387 23.4031C35.8053 22.9549 34.2138 22.8036 32.6045 22.5225Z" fill="#23AAC0"/>
<path d="M45.743 19.0776L45.626 18.959C45.972 18.6411 46.7072 18.633 47.1579 18.6493C47.524 18.6626 47.9246 18.6804 48.25 18.8618L48.3187 19.286C48.2756 19.3068 48.2213 19.3358 48.1736 19.3501C47.484 19.5563 46.3741 19.3878 45.743 19.0776Z" fill="#58B1C1"/>
<path d="M47.3565 23.172C47.9379 23.1975 48.7975 23.1286 49.2243 23.5567C49.2565 23.589 49.2665 23.6083 49.2887 23.6435C48.5294 23.6273 47.7699 23.6246 47.0104 23.6353L46.8317 23.6611C46.572 23.6161 46.3273 23.5617 46.0753 23.4834C46.279 23.2422 47.0246 23.2251 47.3565 23.172Z" fill="#23AAC0"/>
<path d="M56.6008 17.1168C56.7235 17.2099 56.8002 17.3362 56.8482 17.4824C57.0493 18.0936 57.0724 21.4173 56.8149 21.9284L56.516 21.7684C56.2387 21.3978 56.2765 20.3233 56.263 19.837C56.2442 19.1551 56.1411 17.6034 56.6008 17.1168Z" fill="#23AAC0"/>
<path d="M35.8297 69.1982L36.1481 69.3062C36.155 69.3376 36.1609 69.3692 36.1687 69.4003C36.2986 69.9203 37.0461 70.7245 37.4075 71.1546C37.9777 71.3922 38.6006 71.1604 39.1504 70.9319C40.3235 70.4441 41.7554 69.4133 42.9727 69.1979C44.9586 68.8465 46.9582 69.8979 49.3639 69.0682C49.5793 68.2849 49.8575 66.2172 50.517 65.7767L50.6488 65.7975C50.5339 66.5253 50.1442 67.1627 50.0582 67.9082L50.1809 68.0123C51.1555 67.7494 51.9511 68.3204 52.4104 68.1442C52.5842 67.0687 52.0329 65.7769 53.0878 64.991C53.3738 64.778 53.6984 64.6552 54.0467 64.5876C55.4542 64.3149 56.9763 64.3156 58.4072 64.1153C59.7943 63.9211 62.2636 63.211 63.4805 63.2599L63.6311 63.3404C62.1692 63.6375 60.7063 63.9622 59.2368 64.2172C57.6436 64.4936 54.0805 64.4977 52.9072 65.4517C52.7952 66.6076 52.9509 67.7594 52.8564 68.9137C54.9229 70.1292 57.3574 72.0485 59.9053 71.3815C60.0479 71.3437 60.189 71.3009 60.3286 71.2533C61.6914 71.1281 62.2409 71.553 63.3394 71.5871C63.8142 71.6019 64.0443 71.2483 64.3716 70.9446C64.7787 70.8796 65.0567 70.7549 65.4247 70.9686C65.7689 71.6301 65.4165 72.6612 65.6009 73.4449C65.5899 74.2393 65.5495 75.0539 65.6597 75.8424L65.6019 78.4055C63.4147 79.2528 60.9642 80.0634 58.6738 80.5671L58.3065 80.5882C57.8378 80.5528 57.493 80.4451 57.0796 80.6944L56.8578 81.3489L56.6646 81.459C56.6074 81.7442 56.5796 82.0671 56.3689 82.2838L56.3235 82.2635C55.5986 81.9373 54.7712 81.5283 54.0036 81.3363C53.5875 81.2323 53.3658 81.2096 53.0024 81.4226L52.8595 81.9896L52.3043 81.4376C51.7732 81.2626 51.1349 81.464 50.6194 81.6378C50.637 82.464 50.5927 83.3448 50.6896 84.1626C50.6815 84.6017 50.6384 85.0701 50.6866 85.5058C50.5447 85.3146 50.3146 85.2455 50.102 85.1534C50.0465 85.6796 50.0414 86.2674 49.7719 86.7339L49.5306 86.8619C48.4919 86.6583 47.3217 86.7273 46.2618 86.6992L46.1941 86.6483L45.7031 86.8514C45.3801 86.6985 45.1515 86.5886 44.9457 86.2877L45.0217 86.1437C45.3891 86.2136 45.742 86.2661 46.1159 86.2831C45.7327 85.7253 44.9213 85.8435 44.6597 85.2153C44.3616 85.037 44.0605 84.8643 43.7562 84.697L43.8186 84.5994L44.9898 84.44C44.4417 84.3988 43.9333 84.5558 43.4228 84.5251C43.1946 84.2116 43.0679 83.8257 42.9254 83.4672L43.0194 82.5062C43.0301 82.1719 43.0637 81.8084 43.0227 81.4769C43.0172 81.4334 42.9692 81.1427 42.9388 81.1202C42.6395 80.8993 41.3156 80.9454 40.7655 80.6324C39.103 79.6866 37.4817 78.1851 35.9391 77.0179C35.7257 75.5147 35.4223 70.5182 35.8297 69.1982Z" fill="#3DBACE"/>
<path d="M50.3722 81.1659L50.5408 81.2045L50.6223 81.6396C50.64 82.4659 50.5957 83.3466 50.6926 84.1644C50.6844 84.6036 50.6414 85.072 50.6896 85.5076C50.5477 85.3164 50.3175 85.2473 50.1049 85.1552C50.0494 85.6815 50.0443 86.2693 49.7748 86.7358L49.5335 86.8637C48.4948 86.6602 47.3246 86.7291 46.2647 86.701L46.1971 86.6502L45.7061 86.8532C45.3831 86.7004 45.1544 86.5904 44.9486 86.2896L45.0246 86.1456C45.3921 86.2155 45.7449 86.268 46.1189 86.2849C45.7357 85.7271 44.9242 85.8454 44.6626 85.2172C44.3646 85.0389 44.0635 84.8661 43.7592 84.6989L43.8215 84.6013L44.9927 84.4418C45.4381 84.4126 45.9006 84.4372 46.3478 84.4363C46.3827 83.3789 46.4231 82.3299 46.5321 81.2768C46.6099 81.3044 46.6874 81.3304 46.7669 81.3525C47.8242 81.648 49.3988 81.7156 50.3722 81.1659Z" fill="url(#paint6_linear_588_1124)"/>
<path d="M45.621 85.6503C45.9918 85.5686 46.0657 85.3015 46.471 85.2398C47.6482 85.0611 48.8933 85.3599 50.1035 85.1544C50.048 85.6806 50.0429 86.2684 49.7734 86.7349L49.5321 86.8629C48.4934 86.6593 47.3232 86.7283 46.2633 86.7002L46.1957 86.6494L45.7047 86.8524C45.3817 86.6995 45.153 86.5896 44.9472 86.2888L45.0232 86.1447C45.3907 86.2146 45.7435 86.2672 46.1175 86.2841C45.7343 85.7263 44.9228 85.8446 44.6612 85.2163C44.9688 85.3575 45.3007 85.5493 45.621 85.6503Z" fill="url(#paint7_linear_588_1124)"/>
<path d="M44.6602 85.2158C44.9678 85.357 45.2996 85.5488 45.62 85.6497C45.9001 85.7579 46.3028 85.9709 46.5971 85.9978C47.0173 86.0411 47.6451 86.027 47.9219 86.3885C47.971 86.4526 48.0098 86.5204 48.0478 86.5912C47.5144 86.5857 46.6852 86.4776 46.1946 86.6488L45.7036 86.8519C45.3806 86.699 45.152 86.5891 44.9462 86.2883L45.0222 86.1442C45.3896 86.2141 45.7425 86.2667 46.1164 86.2836C45.7332 85.7258 44.9218 85.8441 44.6602 85.2158Z" fill="#918C8B"/>
<path d="M46.5957 85.998C47.6137 85.5708 48.905 86.055 49.8796 86.4226C49.2559 86.5703 48.6882 86.6309 48.0465 86.5914C48.0084 86.5206 47.9697 86.4529 47.9205 86.3887C47.6437 86.0272 47.0159 86.0413 46.5957 85.998Z" fill="#ADA7A6"/>
<path d="M50.3749 81.1651L50.5435 81.2037L50.625 81.6388C50.6427 82.4651 50.5984 83.3458 50.6953 84.1636C50.6871 84.6028 50.6441 85.0712 50.6923 85.5068C50.5503 85.3156 50.3202 85.2465 50.1076 85.1544L50.0047 84.7744L50.106 83.9943C50.1611 83.1378 50.0327 81.9381 50.3749 81.1651Z" fill="#D5D2D1"/>
<path d="M50.1036 83.9947L50.0022 84.7748C49.6007 84.6679 49.1878 84.5843 48.8601 84.3138C48.7705 84.2398 48.7933 84.1702 48.7841 84.0597C49.1446 83.8067 49.6889 83.9476 50.1036 83.9947Z" fill="#B3B0B1"/>
<path d="M43.0258 82.5075C43.1014 82.1093 43.1581 81.7093 43.2141 81.308C43.2713 81.222 43.3394 81.1422 43.4321 81.0931C44.0014 80.7921 45.5625 80.6257 46.1597 80.847C46.4125 80.9407 46.4271 81.0536 46.5355 81.2764C46.4265 82.3294 46.3861 83.3784 46.3512 84.4358C45.904 84.4367 45.4415 84.4121 44.9961 84.4413C44.448 84.4001 43.9396 84.5571 43.4292 84.5265C43.201 84.2129 43.0743 83.827 42.9317 83.4686L43.0258 82.5075Z" fill="url(#paint8_linear_588_1124)"/>
<path d="M54.3192 70.9985C54.6913 71.1337 54.8446 71.2705 55.0485 71.5927C55.0729 71.968 55.0749 72.0561 54.893 72.3864C54.6269 72.5332 54.4732 72.6147 54.1604 72.581C53.7794 72.4823 53.2602 72.3911 53.0332 72.0337C52.9342 71.878 52.9874 71.8084 53.0268 71.6375C53.3494 71.2541 53.8592 71.1467 54.3192 70.9985Z" fill="#3DBACE"/>
<path d="M43.3297 69.8556C43.6026 70.0601 43.6896 70.301 43.7385 70.6275C43.8117 71.1157 43.9496 72.3504 43.6627 72.7345C43.4414 72.5397 43.1778 72.2973 43.0414 72.0337C42.716 71.4047 43.1284 70.471 43.3297 69.8556Z" fill="#23AAC0"/>
<path d="M58.0133 78.5807C58.212 78.7006 58.4293 78.9506 58.4857 79.1779C58.5509 79.4402 58.515 79.4967 58.3795 79.7276L57.9923 79.8223C57.6858 79.6716 57.3667 79.5547 57.1903 79.2453C57.3611 78.869 57.6635 78.7798 58.0133 78.5807Z" fill="#3DBACE"/>
<path d="M54.5594 79.6976C54.7382 79.7358 54.8637 79.8142 55.0178 79.91C55.1978 80.3402 55.0385 80.789 54.937 81.2227C54.7731 81.1659 54.6496 81.0564 54.5146 80.9511C54.3324 80.5426 54.4718 80.1154 54.5594 79.6976Z" fill="#23AAC0"/>
<path d="M11.6596 51.5721C10.7813 49.085 10.5013 45.6313 11.289 43.1107C12.0942 40.5336 13.8225 39.2465 16.1253 38.0412C16.508 38.2478 17.0726 38.4969 17.3003 38.8774C17.3465 39.3654 17.6295 39.6968 17.9942 40.0079C18.4277 40.3776 18.8848 40.4439 19.4354 40.3975C19.7684 40.2349 19.9388 39.9283 20.1404 39.6312C20.2805 39.8275 20.4173 39.9282 20.3628 40.1842C20.2944 40.5051 19.8614 40.9044 19.7148 41.2328C20.0849 41.4854 20.5065 41.8486 20.9402 41.9681C21.3451 42.1802 21.4895 42.3595 21.6665 42.7787C22.0703 43.0607 22.5492 42.9727 22.7017 43.409L22.5483 44.1207C23.2974 44.3815 23.4929 45.013 23.8218 45.6953C23.8864 45.8292 23.9317 45.9529 23.9617 46.0992L23.9081 46.3525C23.5338 46.1886 23.367 46.0067 23.1347 45.6744C23.162 45.9926 23.3137 46.8095 23.147 47.0596L22.782 47.0645C22.7611 47.0902 21.8576 49.5424 21.8106 49.7525C21.7626 49.9674 21.7772 50.2041 21.8007 50.4213C21.8293 50.6858 21.9027 50.8612 22.0602 51.0721L22.3262 51.181L22.3589 51.2716C20.4425 51.6434 20.4922 56.7622 15.2156 55.5673C14.8513 55.3439 14.5224 55.1058 14.0784 55.1083C13.0023 54.5413 12.0321 52.6856 11.6596 51.5721Z" fill="#B5AC91"/>
<path d="M11.6596 51.5721C10.7813 49.085 10.5013 45.6313 11.289 43.1107C12.0942 40.5336 13.8225 39.2465 16.1253 38.0412C16.508 38.2478 17.0726 38.4969 17.3003 38.8774C17.3465 39.3654 17.6295 39.6968 17.9942 40.0079C18.4277 40.3776 18.8848 40.4439 19.4354 40.3975C19.7684 40.2349 19.9388 39.9283 20.1404 39.6312C20.2805 39.8275 20.4173 39.9282 20.3628 40.1842C20.2944 40.5051 19.8614 40.9044 19.7148 41.2328C20.0849 41.4854 20.5065 41.8486 20.9402 41.9681C21.3451 42.1802 21.4895 42.3595 21.6665 42.7787C22.0703 43.0607 22.5492 42.9727 22.7017 43.409L22.5483 44.1207C23.2974 44.3815 23.4929 45.013 23.8218 45.6953C23.8864 45.8292 23.9317 45.9528 23.9617 46.0992L23.9081 46.3525C23.5338 46.1886 23.367 46.0067 23.1347 45.6744L22.3678 45.5615C21.8825 45.3994 21.7999 45.0233 21.2239 44.9026L21.141 44.8633C20.5748 44.7744 18.8699 44.6381 18.4177 44.9353C18.3366 44.9885 18.2875 45.1355 18.2423 45.2224L18.2151 45.0828C17.7157 44.7897 17.296 44.7707 16.7381 44.9159C16.2969 45.0308 15.7791 45.3334 15.3297 45.3171L14.8252 45.7421C14.4936 46.0287 14.4062 46.5941 14.3778 47.0301C14.3632 47.2543 14.3453 47.4704 14.3939 47.6912L14.316 47.633C13.6304 47.1309 12.4706 47.0728 11.6481 47.1951L11.6013 47.0134L11.4626 47.2429C11.5261 48.2023 12.3901 50.8942 11.9651 51.5604L11.6596 51.5721Z" fill="#B09F8B"/>
<path d="M11.6596 51.5721C10.7813 49.085 10.5013 45.6313 11.289 43.1107C12.0942 40.5336 13.8225 39.2465 16.1253 38.0412C16.508 38.2478 17.0726 38.4969 17.3003 38.8774C17.3465 39.3654 17.6295 39.6968 17.9942 40.0079C18.4277 40.3776 18.8848 40.4439 19.4354 40.3975C19.7684 40.2349 19.9388 39.9283 20.1404 39.6312C20.2805 39.8275 20.4173 39.9282 20.3628 40.1842C20.2944 40.5051 19.8614 40.9044 19.7148 41.2328C17.5776 40.8619 15.7839 40.988 13.9697 42.2642C12.8732 43.0356 11.7314 44.0747 11.5003 45.4643C11.4023 46.0538 11.4059 46.65 11.4626 47.2429C11.5261 48.2023 12.3901 50.8942 11.9651 51.5604L11.6596 51.5721Z" fill="#23AAC0"/>
<path d="M15.3301 45.3177C15.4145 44.7312 14.9543 44.4138 15.0471 43.9724C15.4884 43.8331 15.6163 44.2226 16.0557 44.2521C16.3755 44.2734 16.7942 44.1298 17.1142 44.0743C17.4578 44.0147 17.6965 44.0085 17.9891 44.2171C18.1374 44.522 18.2399 44.7388 18.2155 45.0834C17.7161 44.7903 17.2964 44.7713 16.7385 44.9165C16.2973 45.0313 15.7795 45.334 15.3301 45.3177Z" fill="#9D9B98"/>
<path d="M20.939 41.969C21.3439 42.1811 21.4883 42.3605 21.6653 42.7796C22.0691 43.0617 22.5479 42.9736 22.7005 43.4099L22.5471 44.1216C22.2353 43.8851 21.8721 43.5288 21.4691 43.5032C21.1969 43.7179 21.2091 43.7901 21.1439 44.1156L20.6932 44.1009L20.577 43.9481C20.7818 43.6506 21.1551 43.1761 21.2316 42.8255C21.3124 42.455 21.1253 42.2674 20.939 41.969Z" fill="#918C8B"/>
<path d="M18.4709 42.2565C19.1671 42.7754 19.7937 42.4379 20.4028 42.8535L20.4016 43.135C20.169 43.3032 19.8915 43.5157 19.6009 43.5624C19.1946 43.6278 18.9321 43.5079 18.6132 43.2917C18.4002 42.8529 18.4193 42.7481 18.4709 42.2565Z" fill="#9D9B98"/>
<path d="M15.331 45.3173C15.7804 45.3335 16.2982 45.0309 16.7394 44.9161C17.2972 44.7709 17.717 44.7898 18.2164 45.0829L18.2436 45.2225C18.4403 45.4151 18.6141 45.572 18.856 45.7082L19.1498 46.1509C19.3084 46.3319 19.4931 46.5127 19.629 46.7104C19.7269 47.8825 20.1823 47.7525 20.2087 48.365L20.3137 48.6757C20.2799 49.384 20.2868 50.0884 20.2983 50.7973L19.4724 51.1252C19.3986 51.4649 19.3398 51.7812 19.1588 52.083C18.165 52.243 17.139 52.3176 16.1366 52.1855C15.4965 51.2768 14.6659 50.5069 13.8853 49.7202C14.0905 49.0833 14.3971 48.3627 14.3952 47.6913C14.3466 47.4705 14.3645 47.2545 14.3791 47.0302C14.4075 46.5942 14.4948 46.0289 14.8265 45.7422L15.331 45.3173Z" fill="#5A4E3B"/>
<path d="M15.3264 45.318C15.7757 45.3343 16.2936 45.0316 16.7348 44.9168C17.2926 44.7716 17.7123 44.7906 18.2117 45.0837L18.239 45.2233C18.4357 45.4159 18.6095 45.5727 18.8514 45.709L19.1452 46.1516C19.3038 46.3326 19.4885 46.5135 19.6243 46.7111C19.7223 47.8832 20.1777 47.7532 20.2041 48.3658C19.375 48.4119 18.7799 48.533 17.9481 48.3464C18.1124 47.9972 17.9972 47.6594 17.9191 47.3008L18.1231 47.0951C18.3161 46.5869 18.132 45.8772 18.065 45.3466C16.9725 45.5011 15.914 45.523 14.8218 45.7429L15.3264 45.318Z" fill="#85817D"/>
<path d="M17.9556 48.3461C18.7874 48.5327 19.3824 48.4117 20.2115 48.3655L20.3165 48.6762C20.2827 49.3844 20.2896 50.0889 20.3011 50.7978L19.4752 51.1257C19.6696 50.8689 19.8348 50.6552 19.92 50.339C19.2171 49.8041 18.687 48.6869 17.9556 48.3461Z" fill="#6B6460"/>
<path d="M21.2259 44.9036C21.8019 45.0243 21.8845 45.4005 22.3698 45.5626L23.1367 45.6754C23.1639 45.9936 23.3157 46.8105 23.149 47.0606L22.7839 47.0655C22.7631 47.0912 21.8596 49.5434 21.8126 49.7536C21.7646 49.9684 21.7791 50.2052 21.8027 50.4223C21.8312 50.6869 21.9047 50.8623 22.0622 51.0731C21.8065 51.012 21.7716 51.0214 21.6144 50.8161C21.5291 50.3239 21.4053 49.5672 21.5946 49.0881C21.6951 48.8339 22.0677 48.7735 22.3163 48.6671C22.4253 48.31 22.1859 47.9412 22.0347 47.6232C21.8186 47.714 21.5703 47.83 21.3371 47.8596C21.0028 47.9021 20.7073 47.6213 20.4692 47.4245C20.365 47.2137 20.3666 46.8985 20.3374 46.6631C20.3092 46.3615 20.3414 46.0669 20.3679 45.7663C20.5866 45.4766 20.6617 45.49 21.0015 45.4173L21.2259 44.9036Z" fill="#CBBB9B"/>
<path d="M20.4748 47.4246C20.7739 47.207 20.9995 47.0259 21.3791 47.0023C21.7572 47.1689 21.8117 47.2779 22.0403 47.6234C21.8242 47.7141 21.5759 47.8301 21.3427 47.8598C21.0084 47.9023 20.7129 47.6215 20.4748 47.4246Z" fill="#B09F8B"/>
<path d="M20.2999 50.7974L20.2122 51.5555C20.2368 52.2069 20.2108 52.5545 19.7513 53.0428C19.5523 53.2544 19.3288 53.4474 19.1104 53.6384C18.2227 53.0829 17.3113 52.9577 16.3049 52.7776L16.1382 52.1856C17.1406 52.3177 18.1666 52.2431 19.1604 52.0831C19.3414 51.7813 19.4002 51.465 19.474 51.1253L20.2999 50.7974Z" fill="#9D9B98"/>
<path d="M20.2991 50.7977L20.2114 51.5558C20.1078 51.8164 20.0058 52.0778 19.9054 52.3396C19.6138 52.3857 19.3992 52.2251 19.1596 52.0833C19.3406 51.7816 19.3994 51.4653 19.4732 51.1256L20.2991 50.7977Z" fill="#85817D"/>
<path d="M16.3086 52.7793C17.315 52.9594 18.2265 53.0847 19.1142 53.6402C19.0823 53.6625 19.0498 53.6841 19.0169 53.7048C18.5966 53.9683 18.0256 54.2783 17.5147 54.1466C16.8858 53.9846 16.6019 53.2966 16.3086 52.7793Z" fill="#B09F8B"/>
<path d="M18.8579 45.7094L19.3587 45.6742C19.6611 46.0185 19.8609 46.3761 20.2479 46.6344C20.2609 47.3133 20.3387 47.9998 20.3155 48.6769L20.2106 48.3662C20.1841 47.7537 19.7288 47.8837 19.6308 46.7115C19.4949 46.5139 19.3102 46.3331 19.1516 46.1521L18.8579 45.7094Z" fill="#B09F8B"/>
<path d="M57.4797 2.04278C60.8714 2.0193 64.164 2.78842 67.4777 3.40614C68.4786 3.5927 69.6144 3.65485 70.5632 4.01648C70.6328 4.49619 70.5226 4.94153 70.6584 5.40895C70.6076 6.08086 70.8262 7.2238 70.4787 7.78692L70.4823 8.46007L69.8917 8.24917C69.5121 8.57066 69.496 9.15616 69.2224 9.59051L69.0595 9.70655C69.3395 9.96964 70.1309 9.99816 70.5094 9.98452C70.7808 9.97481 71.0505 9.91794 71.3151 9.86C71.4213 10.2192 71.3812 10.6016 71.2011 10.9465C71.158 11.0291 71.0946 11.1016 71.0296 11.1673C70.8032 10.8332 70.9717 10.6433 70.6013 10.3255C69.8465 10.3042 68.2528 10.0984 67.5807 10.3687C68.2605 10.4984 68.8862 10.5752 69.579 10.5637C69.091 10.6852 68.7356 10.8206 68.3084 11.0947L68.2374 12.7842L68.2023 12.8648L68.1748 13.3631L67.1066 13.3435C66.1985 13.3329 65.3171 13.3008 64.4141 13.1878C64.3749 13.4283 64.3017 13.6929 64.3565 13.9333C63.3759 13.9777 62.3944 14.0021 61.4126 14.0065C60.5971 14.0022 59.3945 14.0167 58.8006 13.4147C58.8623 13.135 58.9108 12.8994 58.8736 12.6125C58.8591 12.5009 58.6979 12.42 58.609 12.3509L58.5141 12.3089C58.5302 12.2439 58.5457 12.1965 58.5305 12.1291C58.3861 11.4868 57.8832 11.3101 57.3503 11.0331C57.1565 10.6964 57.2376 10.5851 57.3086 10.2124L57.3489 9.99535L57.3038 9.29807C57.3977 8.86269 57.3721 8.36722 57.3876 7.92129C57.367 6.86659 57.4067 5.76739 57.2313 4.7259C57.2761 3.82121 57.3334 2.93847 57.4797 2.04278Z" fill="#23AAC0"/>
<path d="M57.3494 9.99517C58.5207 10.2134 59.5176 10.6376 60.6461 10.9136C61.1764 10.9421 61.7899 11.0926 62.2993 11.0818L63.9472 11.1186L64.0344 11.1375C64.7974 11.3102 65.9965 12.1874 66.7468 11.7042C66.8951 11.6086 67.025 11.4665 67.1434 11.3367C67.5163 11.2126 67.9223 11.1633 68.309 11.0945L68.238 12.784L68.2029 12.8646L68.1754 13.363L67.1072 13.3433C66.1991 13.3327 65.3177 13.3006 64.4147 13.1876C64.3754 13.4282 64.3023 13.6927 64.3571 13.9331C63.3764 13.9775 62.3949 14.0019 61.4132 14.0063C60.5977 14.0021 59.3951 14.0165 58.8011 13.4145C58.8628 13.1349 58.9113 12.8992 58.8742 12.6123C58.8596 12.5007 58.6984 12.4198 58.6096 12.3507L58.5147 12.3087C58.5308 12.2437 58.5462 12.1963 58.531 12.1289C58.3867 11.4866 57.8838 11.3099 57.3508 11.0329C57.1571 10.6962 57.2382 10.585 57.3092 10.2123L57.3494 9.99517Z" fill="#58B1C1"/>
<path d="M67.1401 11.3358C67.5131 11.2117 67.919 11.1624 68.3057 11.0936L68.2347 12.7831L68.1996 12.8637L68.1721 13.362L67.1039 13.3424C66.1958 13.3318 65.3144 13.2997 64.4114 13.1867C63.6629 12.2894 62.6772 13.048 61.8094 12.6863C61.5618 12.583 61.5308 12.4749 61.44 12.2382C61.4828 12.1429 61.5347 12.0316 61.6163 11.9627C61.8937 11.7289 62.1 11.7288 62.434 11.7737L62.2961 11.0809L63.9439 11.1177L64.0312 11.1366C64.7942 11.3093 65.9932 12.1865 66.7435 11.7033C66.8918 11.6077 67.0217 11.4656 67.1401 11.3358Z" fill="url(#paint9_linear_588_1124)"/>
<path d="M67.1088 13.3438C66.4905 13.2032 65.9434 13.1876 65.3403 12.9417L65.3018 12.7947C66.2744 12.6547 67.2316 12.779 68.2045 12.8651L68.177 13.3634L67.1088 13.3438Z" fill="#3DBACE"/>
<path d="M62.2965 11.082L63.9443 11.1188L64.119 11.3823C63.9465 11.6687 63.7761 11.7365 63.4467 11.8085C63.1343 11.8768 62.7266 11.9294 62.4345 11.7748L62.2965 11.082Z" fill="#23AAC0"/>
<path d="M58.6036 12.3498C59.277 12.3386 60.0865 12.2447 60.7214 12.4784L60.8622 12.7166C60.829 12.8235 60.8179 12.9704 60.7175 13.0244C60.1096 13.3515 59.3443 12.9567 58.7952 13.4136C58.8569 13.1339 58.9054 12.8983 58.8682 12.6114C58.8537 12.4998 58.6925 12.4189 58.6036 12.3498Z" fill="#3DBACE"/>
<path d="M57.3462 9.99515C58.5174 10.2134 59.5143 10.6376 60.6428 10.9136C59.9011 10.9329 58.9567 11.0807 58.2371 10.9179C57.8045 10.8201 57.5422 10.5717 57.306 10.2123L57.3462 9.99515Z" fill="#23AAC0"/>
<path d="M59.8847 9.81033C60.2963 9.35379 60.515 9.19312 61.1277 9.15872C64.0657 8.99316 65.7087 11.198 67.1433 11.3365C67.0249 11.4663 66.895 11.6085 66.7467 11.704C65.9964 12.1872 64.7974 11.31 64.0344 11.1373L63.9471 11.1184L62.2993 11.0816C61.7898 11.0924 61.1763 10.9419 60.646 10.9135C59.5175 10.6375 58.5206 10.2133 57.3494 9.99499L57.3043 9.29771C57.5438 9.64109 57.6975 9.8435 58.1034 9.97555C58.5904 9.94638 59.0198 9.49104 59.4603 9.5761C59.6135 9.71341 59.6674 9.81412 59.8847 9.81033Z" fill="#3DBACE"/>
<path d="M57.3823 7.9212L59.5885 8.09565C59.5772 8.54066 59.4585 9.36917 59.7705 9.72425C59.8097 9.76882 59.826 9.77434 59.8789 9.8106C59.6616 9.81439 59.6077 9.71368 59.4545 9.57637C59.014 9.49131 58.5846 9.94665 58.0976 9.97582C57.6917 9.84377 57.538 9.64135 57.2985 9.29797C57.3924 8.8626 57.3668 8.36713 57.3823 7.9212Z" fill="#23AAC0"/>
<path d="M66.0213 6.10421C66.873 6.1733 68.5426 6.07934 69.229 6.50983L69.1594 6.70885L68.5596 6.89406L68.4697 6.90169C67.7766 6.95603 65.8759 7.04067 65.333 6.57347C65.4671 6.31037 65.7659 6.21866 66.0213 6.10421Z" fill="#3DBACE"/>
<path d="M71.3108 9.8599L71.6169 10.0009C71.6922 10.4011 71.7205 10.9109 72.0401 11.1928C72.4106 11.3516 72.7821 11.2763 73.1688 11.2293C74.119 11.631 75.3674 12.8931 75.8249 13.8237C75.75 14.2866 75.0942 14.6497 74.7282 14.9502C74.6863 15.8085 74.4096 20.2239 74.7697 20.7304C71.6105 21.8943 68.2667 22.1676 65.0657 23.0983C64.595 22.9037 64.1022 23.0584 63.6775 22.8313C63.6656 22.4596 63.9701 22.1582 64.1881 21.8803L64.4343 21.2669L64.4023 20.6703C64.3912 20.6174 64.3786 20.5649 64.3708 20.5115C64.1989 19.3268 64.1851 18.1987 64.9289 17.2082L64.8662 17.0622L63.8023 16.7741C63.7758 16.5283 63.7836 16.4058 63.631 16.2035C63.0942 16.2176 62.6133 16.0232 62.1775 15.7239C62.0355 15.4064 62.0645 15.3387 62.1375 15.0133C62.6472 14.4353 63.765 14.9533 64.4106 14.5532C64.5114 14.2461 64.477 14.2144 64.3522 13.9332C64.2974 13.6928 64.3706 13.4282 64.4098 13.1877C65.3128 13.3007 66.1942 13.3328 67.1023 13.3434L68.1705 13.363L68.198 12.8647L68.2331 12.7841L68.3041 11.0946C68.7313 10.8205 69.0867 10.6851 69.5747 10.5636C68.8819 10.5751 68.2562 10.4983 67.5764 10.3686C68.2485 10.0983 69.8422 10.3042 70.597 10.3254C70.9673 10.6432 70.7989 10.8331 71.0253 11.1672C71.0903 11.1015 71.1537 11.029 71.1968 10.9464C71.3769 10.6015 71.417 10.2191 71.3108 9.8599Z" fill="#3DBACE"/>
<path d="M69.579 10.5638C68.8862 10.5752 68.2605 10.4984 67.5807 10.3687C68.2528 10.0985 69.8465 10.3043 70.6013 10.3255C70.9716 10.6433 70.8032 10.8332 71.0296 11.1674C71.3092 11.5818 72.2417 12.494 72.2797 12.915L72.1603 13.2526L72.3185 13.4748C72.718 13.537 73.0756 13.5014 73.3394 13.8218C73.203 14.1379 72.8894 14.2305 72.577 14.3529C71.5482 14.756 69.4808 15.4561 68.3837 15.132C68.1117 14.7017 68.2278 13.8762 68.1748 13.3632L68.2023 12.8648L68.2374 12.7842L68.3084 11.0947C68.7356 10.8207 69.091 10.6853 69.579 10.5638Z" fill="#23AAC0"/>
<path d="M69.5706 10.5636C69.9462 10.6446 70.047 10.6634 70.3225 10.9311C70.5009 11.7176 70.0775 12.2505 70.907 12.7816C71.5017 13.1623 72.3916 13.7964 73.076 13.867C72.5263 13.9994 71.9554 14.2836 71.4388 13.9659C71.1683 13.7996 70.8668 13.5278 70.5648 13.4362C69.8756 13.227 68.5792 13.6513 68.2291 12.7841L68.3 11.0945C68.7273 10.8205 69.0826 10.6851 69.5706 10.5636Z" fill="#3DBACE"/>
<path d="M64.405 20.6708C64.4779 19.9063 64.3168 18.1372 64.898 17.6225C64.9882 17.5425 65.1932 17.5146 65.3145 17.5241C65.5323 17.541 65.8485 17.6211 66.0225 17.7565C66.1801 18.4098 66.4693 19.6706 66.1102 20.2799C65.9758 20.5078 65.7885 20.7031 65.5214 20.761C65.2148 20.8274 64.7106 20.7206 64.405 20.6708Z" fill="#58B1C1"/>
<path d="M64.4367 21.267C65.0052 21.0516 65.3471 21.0473 65.9056 21.2972C66.335 21.4892 66.7381 21.7503 67.1367 21.9989C66.1319 22.0792 65.0882 22.5354 64.1258 22.5119C64.0538 22.2645 64.1264 22.1236 64.1906 21.8804L64.4367 21.267Z" fill="#58B1C1"/>
<path d="M74.7751 20.7298C75.6686 20.3979 77.7574 19.1077 78.2885 19.0251C78.3796 19.3939 78.1147 19.9259 78.0151 20.3042C74.3317 23.7871 59.4472 25.7977 54.5353 25.5768C54.4917 25.5748 54.4482 25.5698 54.4047 25.5657C53.0698 25.7535 49.8339 25.4745 48.8521 25.9064C47.1268 25.7849 45.4067 25.7724 43.6801 25.6169C41.1463 25.0011 37.4653 24.9771 34.6621 24.506C33.6116 24.1383 32.3132 24.0175 31.2094 23.8105C29.761 23.4022 28.2767 23.0202 26.8707 22.4792C25.6236 21.9993 24.395 21.3351 23.1136 20.9653C22.742 20.8581 22.5804 20.8321 22.2036 20.9298L22.0804 21.1835C22.1973 22.0828 23.1954 22.6704 23.6727 23.3804C22.7587 23.9416 22.4519 24.1691 21.3405 23.9824C21.0589 23.5597 21.2456 22.3158 21.2047 21.7288C21.2063 21.4955 21.1637 21.3554 21.058 21.1481C21.0685 20.2866 20.9761 19.4186 20.9115 18.5598L21.1068 18.3601C21.7419 18.3692 22.4029 19.0454 22.9989 19.3124C25.8325 20.5823 29.3059 22.2872 32.4215 22.5118L32.6109 22.5216C34.2202 22.8028 35.8116 22.954 37.3934 23.4023C40.5485 23.4787 43.6742 23.8544 46.8299 23.662L47.0086 23.6361C48.3959 23.8228 49.8329 23.8305 51.2315 23.8439C52.74 23.8959 54.25 23.9663 55.7593 23.9111C58.8592 23.6384 62.0766 24.0434 65.0711 23.0977C68.2721 22.167 71.6159 21.8937 74.7751 20.7298Z" fill="#198192"/>
<path d="M46.9756 46.8595C47.1251 44.2591 47.0205 27.7215 47.5734 26.8258C47.8648 26.6158 48.1257 26.537 48.4641 26.6333C48.7418 26.7123 48.9159 26.8351 49.0509 27.1351C49.5523 28.2493 49.6161 30.5993 49.6645 31.8764C49.7289 33.5707 49.6221 35.293 49.6131 36.9916C49.5857 42.1317 49.4654 47.2632 49.6278 52.4015C49.6729 53.8265 50.1686 55.1676 50.1676 56.6025C50.1657 59.2015 49.9972 61.8401 49.844 64.4357C49.768 65.7241 49.5639 67.137 49.664 68.4218C49.7117 69.0347 49.8735 69.5153 50.1122 70.0543C49.0876 70.0533 48.0631 70.0452 47.0386 70.0298C46.722 69.6792 47.0779 67.1584 47.1236 66.5515C47.5488 60.9148 47.344 55.2926 46.925 49.6731C46.9613 48.7375 46.9598 47.796 46.9756 46.8595Z" fill="url(#paint10_linear_588_1124)"/>
<path d="M80.507 17.0823C80.9083 17.6483 81.3985 18.2195 81.4994 18.9225C81.8611 21.441 81.4308 26.4335 81.3746 29.2449C81.2358 36.1742 81.3829 43.2128 80.8252 50.1166C80.3077 50.6811 79.7477 51.235 79.266 51.8286C78.5714 51.0323 78.9288 48.4678 78.9534 47.3995C79.3019 40.6126 79.357 33.7828 79.5642 26.9863C79.6395 24.5179 79.6523 22.0426 79.8244 19.5786C80.2777 18.7881 79.8618 17.8406 80.507 17.0823Z" fill="#3DBACE"/>
<path d="M20.1392 39.6327C20.2668 39.6523 20.4077 39.6457 20.5061 39.7307C20.7549 39.9457 21.0228 40.105 21.3076 40.2674L21.2813 40.4392L20.923 40.4407C21.5859 41.4545 23.5648 41.7591 24.1383 42.9575C24.4656 42.936 24.9137 42.7827 25.1879 43.0029C25.3555 43.1373 25.5029 43.327 25.6434 43.4896C25.5616 43.9182 25.5722 44.2605 25.168 44.5248C25.1475 44.5382 25.1264 44.5506 25.1055 44.5636C25.1 45.7506 25.7756 46.2299 26.1502 47.25C26.1649 47.3481 26.1799 47.6369 26.2484 47.6897C26.5081 47.8891 26.7824 48.119 26.8209 48.4656C26.8664 48.876 26.7763 49.3603 26.728 49.771C26.6903 49.2385 26.7039 48.6479 26.4593 48.1637C25.9087 48.7944 26.55 50.8319 26.3232 51.6464C26.0943 52.4682 25.06 54.0118 24.5553 54.7859L24.6382 54.9698L24.8368 55.0076C25.0854 55.3259 25.3189 55.5185 25.2831 55.9544C25.2789 56.0059 25.2667 56.0631 25.2577 56.1128C24.7792 56.2084 23.9196 56.3578 23.4891 56.0726C23.3899 55.5799 23.6803 55.2281 23.9452 54.8302C24.4501 54.0715 25.5045 52.8641 25.5701 51.938C25.4552 51.6754 25.3437 51.5589 25.1243 51.3864L24.9216 51.497C24.1951 54.0396 23.7891 54.4168 21.4335 55.7263C19.7858 56.6423 19.3532 56.8597 17.4539 56.6036C17.1335 56.5604 16.6974 56.5743 16.3993 56.4738C16.1972 56.4058 16.0004 56.2898 15.8162 56.1833L15.7693 56.3318C16.2366 56.7798 17.6807 57.3308 17.8158 57.8444C16.367 57.4154 15.0671 56.2049 14.0772 55.1098C14.5212 55.1073 14.8501 55.3454 15.2144 55.5688C20.491 56.7637 20.4413 51.6449 22.3577 51.2731L22.325 51.1825L22.059 51.0736C21.9015 50.8627 21.8281 50.6873 21.7995 50.4228C21.776 50.2056 21.7614 49.9689 21.8094 49.754C21.8564 49.5439 22.7599 47.0917 22.7808 47.066L23.1458 47.0611C23.3125 46.811 23.1608 45.9941 23.1336 45.6759C23.3658 46.0082 23.5326 46.1901 23.9069 46.354L23.9605 46.1007C23.9305 45.9544 23.8852 45.8307 23.8207 45.6968C23.4917 45.0145 23.2962 44.383 22.5471 44.1222L22.7005 43.4105C22.548 42.9742 22.0692 43.0622 21.6653 42.7802C21.4883 42.361 21.3439 42.1817 20.939 41.9696C20.5053 41.8501 20.0837 41.4869 19.7136 41.2343C19.8602 40.9059 20.2932 40.5066 20.3616 40.1857C20.4161 39.9297 20.2793 39.829 20.1392 39.6327Z" fill="#23AAC0"/>
<path d="M23.1348 45.6759C23.3671 46.0082 23.5339 46.1901 23.9082 46.354L23.9618 46.1007C24.8733 47.2279 25.0456 48.8106 24.9028 50.2254C24.79 51.3418 24.3362 52.6664 23.7559 53.6224L23.3764 53.9789C21.8879 55.3116 20.1344 56.5425 18.0415 56.4377C17.1988 56.3955 15.9045 56.0699 15.2157 55.5688C20.4923 56.7637 20.4426 51.6449 22.359 51.2731L22.3262 51.1825L22.0603 51.0736C21.9028 50.8627 21.8294 50.6874 21.8008 50.4228C21.7773 50.2056 21.7627 49.9689 21.8107 49.754C21.8577 49.5439 22.7612 47.0917 22.782 47.066L23.1471 47.0611C23.3138 46.811 23.1621 45.9941 23.1348 45.6759Z" fill="#9D9B98"/>
<path d="M22.0617 51.0733C21.9043 50.8625 21.8308 50.6871 21.8022 50.4225C21.7787 50.2054 21.7641 49.9686 21.8121 49.7537C21.8592 49.5436 22.7626 47.0914 22.7835 47.0657L23.1485 47.0608C23.2802 47.6035 23.3979 48.1521 23.5941 48.676C23.2637 49.5716 23.0447 50.2995 23.0317 51.2653C22.9395 51.5569 22.8121 51.7509 22.6275 51.9921L22.3604 51.2728L22.3277 51.1822L22.0617 51.0733Z" fill="#C1BDBC"/>
<path d="M23.1328 45.6758C23.3651 46.0081 23.5319 46.19 23.9062 46.3539C24.3484 47.5492 24.847 48.9198 24.4346 50.197L24.3019 50.2498C24.1152 49.96 24.1257 49.6442 24.1089 49.3107C24.1029 49.3367 24.0975 49.3629 24.0913 49.3888C23.9544 49.9606 23.3029 50.3832 23.0282 51.2655C23.0412 50.2997 23.2602 49.5718 23.5906 48.6762C23.3944 48.1523 23.2767 47.6037 23.1451 47.061C23.3117 46.8109 23.16 45.994 23.1328 45.6758Z" fill="#ADA7A6"/>
<path d="M23.0367 53.1163L23.4076 52.5369L23.5846 52.5335C23.6652 52.8947 23.7185 53.2537 23.7647 53.6209L23.3853 53.9773C23.11 53.6924 23.1165 53.4985 23.0367 53.1163Z" fill="#ADA7A6"/>
<path d="M24.1418 42.9571C24.4691 42.9355 24.9172 42.7823 25.1915 43.0025C25.359 43.1369 25.5064 43.3266 25.6469 43.4891C25.5651 43.9177 25.5758 44.2601 25.1716 44.5243C25.1511 44.5377 25.1299 44.5502 25.109 44.5632C24.7724 44.0655 24.3308 43.5265 24.1418 42.9571Z" fill="#3DBACE"/>
<path d="M24.8369 55.0079C25.0855 55.3261 25.3191 55.5188 25.2832 55.9547C25.279 56.0062 25.2669 56.0633 25.2578 56.1131C24.9713 56.089 24.6729 56.0744 24.3902 56.0227C24.0939 55.9686 23.9166 55.9388 23.7402 55.6927C23.9762 55.3381 24.4613 55.1813 24.8369 55.0079Z" fill="#3DBACE"/>
<path d="M47.054 43.6627C46.9742 43.1533 47.0135 42.6224 46.9521 42.1074C46.7989 40.8234 46.5425 39.5471 46.4591 38.255C46.3229 36.1444 46.4355 34.0095 46.3789 31.8943C46.3338 30.2167 46.0883 28.3818 46.3246 26.7208C46.5043 26.4197 46.7349 26.2569 47.0752 26.1659C47.9691 25.927 49.1906 26.2756 49.9743 26.7286C50.205 27.0883 50.457 27.4452 50.6663 27.8171C51.6316 29 51.0491 33.7425 51.084 35.4149C51.1137 36.8486 51.231 38.3668 51.4194 39.7888C51.3621 41.9408 51.5166 45.7374 51.0673 47.6882C50.9846 49.2232 50.6415 50.6914 50.4527 52.2102C50.317 53.3019 50.313 54.4354 50.3013 55.535C50.2963 56.0186 50.2349 56.6677 50.3346 57.1283C50.4247 57.5454 50.9321 57.9778 51.0459 58.455C51.397 59.9283 51.2446 61.7739 51.253 63.2961C49.9558 63.3619 48.4959 63.4933 47.2265 63.1858C48.251 63.2036 49.2753 63.2153 50.2998 63.2209C50.0586 62.7657 49.8945 62.36 49.8439 61.8433C49.7378 60.7603 49.9351 59.5707 50.005 58.4855C50.1459 56.2993 50.302 54.0769 50.2916 51.887C50.2859 50.678 49.7839 49.5457 49.7321 48.3448C49.5453 44.0146 49.6414 39.6915 49.6445 35.3607C49.6455 33.9295 49.7441 32.4789 49.6717 31.051C49.6173 29.9747 49.5424 27.9944 49.0358 27.0532C48.8994 26.7998 48.7247 26.6955 48.4467 26.6276C48.1079 26.5449 47.8475 26.61 47.5571 26.7856C47.0084 27.5377 47.1912 41.4723 47.054 43.6627Z" fill="#23AAC0"/>
<path d="M49.9727 26.7295C50.2033 27.0891 50.4554 27.4461 50.6646 27.818C51.63 29.0009 51.0474 33.7434 51.0823 35.4158C51.112 36.8495 51.2293 38.3677 51.4178 39.7897C51.3605 41.9417 51.5149 45.7383 51.0657 47.689C50.8639 46.069 50.9847 44.4713 50.9565 42.8463C50.9269 41.1439 50.6662 39.4386 50.6291 37.722C50.6045 36.5858 50.5574 35.4389 50.6086 34.3034C50.6679 32.9845 50.8479 31.6643 50.7289 30.3443C50.6199 29.136 50.2548 27.9082 49.9727 26.7295Z" fill="#58B1C1"/>
<path d="M78.9124 38.2515L78.9593 38.1096C78.8116 37.7869 78.833 37.3807 78.8404 37.0312C78.8793 35.147 79.1328 33.2517 79.1931 31.3581C79.3179 27.443 79.2596 23.445 79.6822 19.553L79.8216 19.5784C79.6494 22.0423 79.6366 24.5176 79.5613 26.9861C79.3541 33.7825 79.299 40.6123 78.9505 47.3993C78.926 48.4676 78.5685 51.032 79.2632 51.8283C78.4304 53.1699 78.6023 54.9692 78.5696 56.497C78.4141 56.4437 78.2095 56.3896 78.0812 56.285C77.8238 56.0752 77.8957 55.9282 77.9153 55.6324C78.1039 52.7854 78.0755 50.1263 77.9006 47.2853C77.8939 46.1171 77.8096 38.7004 78.1617 38.2177C78.4375 38.9077 78.2141 40.1084 78.2633 40.8782C78.3187 40.7363 78.3683 40.5885 78.4351 40.4517C78.7508 39.8043 78.7666 38.9596 78.9124 38.2515Z" fill="#23AAC0"/>
<path d="M48.8204 26.0256C49.4136 26.1808 50.1931 26.291 50.5186 26.8785C50.6665 27.1454 50.6849 27.5184 50.6686 27.8169C50.4594 27.4451 50.2073 27.0881 49.9767 26.7284C49.193 26.2754 47.9714 25.9268 47.0775 26.1658C46.7373 26.2568 46.5067 26.4196 46.327 26.7206C46.0907 28.3816 46.3362 30.2165 46.3812 31.8941C46.4379 34.0094 46.3252 36.1442 46.4615 38.2549C46.5448 39.547 46.8013 40.8232 46.9545 42.1072C47.0159 42.6223 46.9765 43.1531 47.0563 43.6625C47.045 44.4515 47.0509 45.2448 47.0191 46.033C46.5929 44.6751 47.0563 43.4553 46.7738 42.1755C46.6895 41.7931 46.5781 41.4898 46.2437 41.2816C46.116 41.4307 46.0227 41.8624 45.9553 42.0615C45.5528 41.3992 45.2859 27.4895 45.435 26.0613C46.2394 25.7584 47.9183 26.0044 48.8204 26.0256Z" fill="#23AAC0"/>
<path d="M70.6629 5.40852L71.4559 6.24614L73.4825 6.20749C74.049 7.14654 74.8092 7.54366 75.5637 8.28698C75.79 8.50996 75.646 8.85003 75.7811 8.98375C75.9341 9.13533 76.0731 9.19309 76.2815 9.24565C77.2082 9.47934 77.7151 9.57963 78.3149 10.3962L77.8611 10.9181C77.8239 11.1909 77.8167 11.4825 77.6567 11.7138L77.9432 10.2886C77.8941 10.2366 77.8982 10.2391 77.8368 10.1842C77.0767 9.50543 75.3442 9.38475 74.3739 9.07566C73.9928 8.95427 73.6428 8.70257 73.2647 8.60151C73.0219 8.53654 72.728 8.54968 72.4801 8.57148C72.0738 8.6646 71.5029 8.69866 71.1316 8.86189L70.6567 8.75741L70.4868 8.45964L70.4832 7.78649C70.8307 7.22338 70.6121 6.08044 70.6629 5.40852Z" fill="#23AAC0"/>
<path d="M65.0962 69.871C64.7472 69.9078 64.4147 69.9433 64.0643 69.9098L64.0788 69.7847C64.4789 69.6575 64.9469 69.7689 65.344 69.6403C65.8476 69.4775 65.4081 68.8981 65.5908 68.5517C65.9077 67.9506 66.6639 67.7618 67.0452 67.2298C67.3806 66.762 67.3338 66.0565 67.7161 65.628C68.4858 64.7656 71.1613 63.7875 71.4857 63.0367C71.6373 62.6858 71.8703 62.3775 72.0844 62.0603L71.9855 61.8747C71.2773 61.6849 70.7282 62.2723 70.1369 62.1102C71.1779 61.7132 72.9688 61.1232 74.0691 61.0245C72.4676 63.1312 70.3011 64.8847 68.3046 66.6211C67.4367 67.3759 66.5217 68.0361 65.832 68.9732C65.775 71.2564 65.8454 73.5681 65.6582 75.843C65.548 75.0545 65.5884 74.2399 65.5995 73.4454C65.415 72.6618 65.7675 71.6306 65.4232 70.9692C65.0552 70.7555 64.7772 70.8802 64.3701 70.9451C64.6774 70.4341 65.141 70.1313 65.6125 69.7853L65.0962 69.871Z" fill="#B3B0B1"/>
<path d="M65.6205 69.7852C65.8767 70.8415 65.6536 72.3509 65.6075 73.4454C65.423 72.6617 65.7755 71.6305 65.4313 70.9691C65.0632 70.7554 64.7852 70.8801 64.3782 70.945C64.6855 70.434 65.1491 70.1312 65.6205 69.7852Z" fill="#23AAC0"/>
<path d="M77.8925 47.2846C78.0673 50.1256 78.0957 52.7848 77.9072 55.6318C77.8876 55.9275 77.8157 56.0745 78.0731 56.2844C78.2013 56.3889 78.4059 56.4431 78.5614 56.4963C78.6462 56.8571 78.6449 57.0246 78.4464 57.3577C78.0617 58.003 77.46 58.6098 76.8865 59.0898C77.0244 56.0503 76.9 52.8642 77.4277 49.8753L77.4532 49.9241C77.6804 49.0678 77.7553 48.1606 77.8925 47.2846Z" fill="#B3B0B1"/>
<path d="M48.8473 25.9061C49.5239 25.947 51.8033 26.152 52.2245 26.6376C52.2341 26.6486 52.2425 26.6607 52.2514 26.6723C52.1178 27.4963 51.7153 28.2974 51.6458 29.1201C51.3509 32.6143 51.9536 36.3029 51.4181 39.7881C51.2297 38.3661 51.1124 36.8479 51.0827 35.4142C51.0478 33.7418 51.6304 28.9993 50.665 27.8164C50.6812 27.5179 50.6629 27.1449 50.5149 26.8779C50.1895 26.2905 49.4099 26.1803 48.8167 26.025L48.8473 25.9061Z" fill="#3DBACE"/>
<path d="M21.1964 21.7296C21.2374 22.3165 21.0507 23.5604 21.3322 23.9831C22.4436 24.1698 22.7504 23.9423 23.6644 23.3811C23.1871 22.6711 22.189 22.0835 22.0721 21.1843L22.1953 20.9305C22.5721 20.8328 22.7337 20.8588 23.1053 20.966C24.3867 21.3358 25.6153 22.0001 26.8625 22.48C28.2684 23.021 29.7528 23.4029 31.2012 23.8113C28.9587 24.0538 24.4295 21.458 23.7727 21.5673C23.4697 21.7925 23.3002 21.9451 23.1711 22.3048C23.5031 22.4766 23.774 22.6578 24.059 22.8996C24.3655 23.8885 23.4962 23.6121 23.2991 24.3076C23.2145 24.6062 23.2808 24.9574 23.1841 25.2788C23.0758 25.0436 23.0274 24.8006 22.9714 24.5494C22.2083 24.1114 21.9927 24.7728 21.3092 24.7419C21.2581 24.7395 21.2692 24.7458 21.2368 24.7063C20.8477 24.2305 21.1526 22.3595 21.1964 21.7296Z" fill="#3DBACE"/>
<path d="M69.2161 9.59057C69.4897 9.15622 69.5058 8.57072 69.8854 8.24923L70.476 8.46013L70.6459 8.75789L71.1208 8.86238C71.4921 8.69915 72.0629 8.66508 72.4693 8.57197C73.2826 9.41152 74.0881 10.2586 74.8855 11.1135L74.7847 11.2613C73.794 11.0716 73.3492 9.39434 72.4773 9.19616C72.3044 9.73078 72.0083 10.1995 71.9371 10.7597C72.341 11.017 72.8188 10.9363 73.1668 11.2295C72.7801 11.2765 72.4086 11.3517 72.0381 11.193C71.7185 10.9111 71.6902 10.4013 71.6149 10.001L71.3088 9.86006C71.0441 9.918 70.7745 9.97487 70.5031 9.98458C70.1246 9.99822 69.3332 9.9697 69.0532 9.70661L69.2161 9.59057Z" fill="#58B1C1"/>
<path d="M69.2214 9.58976C70.6612 10.1646 71.1553 8.93151 72.3223 8.88915L72.4826 9.19536C72.3097 9.72998 72.0136 10.1987 71.9424 10.7589C72.3463 11.0162 72.8241 10.9355 73.1721 11.2287C72.7854 11.2757 72.4139 11.3509 72.0434 11.1922C71.7238 10.9103 71.6955 10.4005 71.6202 10.0002L71.3141 9.85925C71.0495 9.91719 70.7798 9.97406 70.5084 9.98378C70.1299 9.99742 69.3385 9.9689 69.0585 9.7058L69.2214 9.58976Z" fill="#3DBACE"/>
<path d="M78.3089 10.3969C79.3436 11.8757 79.1611 13.1959 79.329 14.8912C79.3101 14.9232 79.2912 14.9554 79.2744 14.9885C79.2649 15.0073 79.2559 15.0263 79.2461 15.0449C78.882 15.7368 78.9397 16.8241 78.7773 17.6149C78.3647 15.7343 78.0034 12.859 77.855 10.9187L78.3089 10.3969Z" fill="#23AAC0"/>
<path d="M26.1594 47.2498L26.297 47.0997L26.3657 47.5005C26.3841 47.4912 26.4023 47.4814 26.4208 47.4724C26.9078 47.235 27.7208 47.0858 28.2309 47.2705C28.2895 47.2917 28.3459 47.3163 28.403 47.3415C28.4641 47.5269 28.4847 47.695 28.4973 47.8893L28.9736 48.117C28.5307 48.1121 28.297 47.9407 27.9051 48.18C27.3638 49.0855 27.8064 50.4351 27.2498 51.2553L27.0447 51.2455C26.7586 50.8404 26.871 50.2506 26.7372 49.7708C26.7855 49.3601 26.8756 48.8758 26.8301 48.4655C26.7916 48.1189 26.5173 47.8889 26.2576 47.6895C26.1891 47.6368 26.1741 47.3479 26.1594 47.2498Z" fill="#23AAC0"/>
<path d="M25.6458 43.4898C25.8398 44.6047 27.453 45.244 27.117 46.5299L26.9614 46.6078C26.527 46.0424 26.6716 45.3717 26.1247 44.7394L26.0271 44.739C26.3529 45.6063 26.389 46.1787 26.2903 47.1L26.1527 47.2502C25.778 46.2301 25.1025 45.7508 25.1079 44.5638C25.1288 44.5508 25.15 44.5384 25.1705 44.525C25.5747 44.2607 25.564 43.9184 25.6458 43.4898Z" fill="#3DBACE"/>
<path d="M34.6562 24.5059C37.4594 24.977 41.1404 25.001 43.6742 25.6167C41.8176 25.6197 36.1321 25.6119 34.6781 24.8611L34.6562 24.5059Z" fill="#23AAC0"/>
<path d="M65.1031 69.8718L65.6194 69.7861C65.1479 70.1321 64.6844 70.4349 64.377 70.9459C64.0497 71.2497 63.8196 71.6033 63.3448 71.5885C62.2464 71.5543 61.6968 71.1294 60.334 71.2547C61.7989 70.1674 63.5834 70.938 65.1031 69.8718Z" fill="#3DBACE"/>
<path d="M23.2089 58.1435C23.7868 57.448 24.7091 56.7763 25.6003 56.5859L25.9142 56.6662C25.987 56.8352 26.0868 56.9455 26.0082 57.1242C25.6616 57.9109 24.285 57.9095 23.7356 58.5499C23.5669 58.4071 23.385 58.2774 23.2089 58.1435Z" fill="#3DBACE"/>
<path d="M17.6877 36.8778C17.7794 37.4883 17.8298 38.1905 17.6527 38.7884L17.3027 38.8783C17.075 38.4979 16.5104 38.2487 16.1277 38.0421C16.4875 37.9354 16.938 37.8423 17.2618 37.6554C17.6033 37.4583 17.6017 37.2328 17.6877 36.8778Z" fill="#3DBACE"/>
<path d="M41.391 30.8942L41.7162 31.0511C42.921 33.2329 42.5562 45.9826 41.9088 48.6942L41.7117 48.6936C41.1946 47.7482 41.8269 38.6725 41.7542 36.7951C41.6642 34.4769 40.9863 33.3809 41.391 30.8942Z" fill="#58B1C1"/>
<path d="M33.2341 33.4842L33.455 33.2437C33.8643 33.3081 34.3394 33.335 34.6285 33.6603C34.7712 35.4337 34.6165 37.5991 34.3865 39.3662C34.4157 37.9135 34.4893 36.6605 34.2769 35.2186C34.2424 35.2701 34.1664 35.3547 34.1485 35.4103C34.0658 35.6661 33.5475 43.24 33.6226 43.5922C33.7773 44.3174 34.4874 45.6057 34.0441 46.3176C34.0341 46.3335 34.0224 46.3482 34.0116 46.3635L33.9063 46.3015C33.9105 46.2861 33.9149 46.2706 33.9188 46.2551C34.1693 45.2466 33.2701 44.5228 33.1672 43.5831C33.1391 43.326 33.0187 43.0966 32.8156 42.9305C32.566 42.7264 32.3973 42.6854 32.0864 42.7206C32.0347 43.2314 32.4407 43.6034 32.5679 44.0991C32.7441 44.7862 33.5324 45.2101 33.6328 45.9415L33.5454 46.0907C32.8537 45.3088 31.8557 43.5608 31.6921 42.5442L31.8286 42.3865C32.1544 42.4501 32.4752 42.5264 32.8091 42.5104C33.1064 42.1268 33.0046 40.7576 33.0356 40.225C33.0821 37.9801 33.0865 35.725 33.2341 33.4842Z" fill="#23AAC0"/>
<path d="M33.231 33.4846C33.4309 33.5651 33.7974 33.6395 33.8712 33.8539C34.0663 34.4202 33.5488 42.4523 33.3307 42.7771C33.3196 42.7935 33.3039 42.8064 33.2905 42.8211C33.0576 41.9794 33.0936 41.0924 33.0325 40.2253C33.0789 37.9804 33.0834 35.7254 33.231 33.4846Z" fill="url(#paint11_linear_588_1124)"/>
<path d="M39.6827 29.2575C39.9427 29.4132 40.2889 29.6834 40.5954 29.6701C40.6153 30.2279 40.7126 30.8652 40.3922 31.3491C39.9436 32.0268 39.4596 32.3487 38.6723 32.52C38.2156 32.6192 37.6603 32.5282 37.1953 32.4867C37.5492 32.6334 37.7976 32.7014 37.9634 33.0774C38.0601 33.2966 38.0572 33.4721 38.2567 33.6161C37.9877 33.6317 37.6926 33.6203 37.4413 33.7238L36.5141 33.7502C36.5207 33.3318 36.462 32.8089 36.7209 32.4591C37.0871 32.2086 37.6576 32.3178 38.0832 32.341C38.4172 32.0453 39.3065 30.9 39.6559 30.8208C39.9018 30.765 40.1085 31.0169 40.423 30.8961L40.4553 30.1016C40.0943 29.8977 39.2719 30.3673 38.8364 30.4465C38.4744 30.5121 38.1726 30.4397 37.8865 30.2313L37.9604 30.0115C38.5204 29.4477 38.9205 29.3433 39.6827 29.2575Z" fill="#23AAC0"/>
<path d="M36.5123 33.7505C36.5294 33.5531 36.5406 33.3407 36.5884 33.1484C36.6853 32.7588 36.8728 32.6833 37.1935 32.4871C37.5474 32.6337 37.7958 32.7018 37.9616 33.0777C38.0583 33.2969 38.0554 33.4724 38.2549 33.6164C37.9859 33.632 37.6908 33.6206 37.4395 33.7241L36.5123 33.7505Z" fill="#23AAC0"/>
<path d="M25.533 27.4607C25.8501 27.4817 25.864 27.4701 26.0849 27.6945C26.0961 27.7854 26.1035 27.8765 26.1007 27.9682C26.0795 28.6554 25.6748 29.9271 25.1478 30.3775C24.9871 30.5149 24.6512 30.4283 24.4425 30.4145C24.4765 29.5327 24.1883 29.225 23.8827 28.4573C24.1345 28.033 25.076 27.7057 25.533 27.4607Z" fill="#23AAC0"/>
<path d="M37.4413 33.7248C37.6927 33.6214 37.9878 33.6327 38.2568 33.6171C38.5508 34.0921 38.9032 35.0721 38.774 35.6301C38.7447 35.7567 38.677 35.8653 38.5962 35.9654C38.2567 36.0883 38.1546 36.1539 37.7937 36.0783C37.3546 35.5922 37.6741 34.4014 37.4413 33.7248Z" fill="#3DBACE"/>
<path d="M43.0345 27.6492C43.1079 27.6939 43.1748 27.7426 43.2333 27.8064C43.7489 28.369 43.5558 30.3635 43.5192 31.1129C43.3784 31.0679 42.939 30.9372 42.8679 30.8139C42.3921 29.9877 42.8155 28.5167 43.0345 27.6492Z" fill="#58B1C1"/>
<path d="M39.6787 29.2578C39.9658 28.5681 40.1428 27.7939 40.5502 27.1659C40.5881 27.9991 40.6459 28.8371 40.5914 29.6705C40.2848 29.6837 39.9386 29.4135 39.6787 29.2578Z" fill="#23AAC0"/>
<path d="M56.0758 83.4178L56.5723 83.5769C56.5241 83.8853 56.4394 84.2013 56.5598 84.501L56.4833 84.703L55.9355 84.7462L55.6243 84.7446L54.9686 84.6933C54.9797 84.4735 55.0547 84.2425 55.105 84.0278C55.3749 83.9524 55.6438 83.883 55.9175 83.8225L56.0758 83.4178Z" fill="#85817D"/>
<path d="M56.3234 82.2645L56.3688 82.2848C56.5795 82.0682 56.6073 81.7453 56.6646 81.46L56.8577 81.3499C56.7176 82.0948 56.6157 82.82 56.5658 83.5765L56.0693 83.4174L55.8184 83.0744C55.872 82.6779 56.0632 82.5502 56.3234 82.2645Z" fill="#85817D"/>
<path d="M50.6237 81.639C51.1392 81.4653 51.7775 81.2639 52.3086 81.4389L52.8638 81.9909C52.8967 82.4396 52.8949 82.9272 53.0059 83.3633C52.9841 83.5835 52.9846 83.8411 52.8958 84.0447C52.884 84.656 52.9893 85.4955 52.6187 86.0077C52.4939 86.0299 52.3303 86.0414 52.2156 86.0906C52.0625 86.1437 51.9018 86.1714 51.7398 86.1729C51.3245 86.1774 50.9992 85.9657 50.7105 85.6911L50.6909 85.507C50.6427 85.0714 50.6858 84.603 50.6939 84.1638C50.597 83.346 50.6413 82.4653 50.6237 81.639Z" fill="#6B6460"/>
<path d="M50.7867 83.9182C50.7834 83.1284 50.644 82.3009 51.2432 81.6945C51.3397 81.5969 51.4726 81.5908 51.6039 81.5578C51.9386 81.7108 52.1563 81.9443 52.2824 82.2948C52.4129 82.6579 52.3358 83.4089 52.1619 83.7556C52.0939 83.8909 52.0504 83.9173 51.9272 84.0055L50.7867 83.9182Z" fill="#5A4E3B"/>
<path d="M52.8564 81.9904L52.9994 81.4234C53.3627 81.2104 53.5844 81.2331 54.0005 81.3371C54.7682 81.5291 55.5955 81.938 56.3204 82.2642C56.0602 82.5499 55.869 82.6776 55.8154 83.0741L56.0663 83.4171L55.9081 83.8218C55.6344 83.8823 55.3654 83.9517 55.0955 84.0271C55.1842 83.5053 55.1844 83.066 55.0754 82.5456C54.7962 82.1832 54.5156 81.7654 54.0279 81.6927C53.7684 81.6539 53.5851 81.6944 53.3785 81.8536C53.1862 82.0016 53.0628 82.1999 53.033 82.4434C52.9959 82.7459 52.9986 83.0584 52.9986 83.3628C52.8875 82.9267 52.8894 82.4391 52.8564 81.9904Z" fill="#9D9B98"/>
<path d="M54.3867 82.3429L55.0897 82.5463C55.1988 83.0668 55.1985 83.506 55.1098 84.0278C55.0596 84.2425 54.9845 84.4735 54.9734 84.6933L54.4776 84.8636C54.3329 84.6064 54.3007 84.3027 54.1417 84.0295L53.8201 83.9453L53.7604 83.5397L54.1837 83.3275C54.4074 82.9799 54.3714 82.7433 54.3867 82.3429Z" fill="#C1BDBC"/>
<path d="M55.9305 84.7459L56.4783 84.7027C56.5718 85.1456 56.6129 85.685 57.0316 85.9459C57.0588 85.9628 57.0872 85.9772 57.1149 85.993C56.7657 86.3293 56.2877 87.2038 55.8041 87.2434C55.784 87.245 55.7637 87.2418 55.7435 87.2411L55.5511 86.7464C55.6251 86.566 55.7168 86.4252 55.8197 86.2618C56.1632 85.7156 56.0687 85.3382 55.9305 84.7459Z" fill="#ADA7A6"/>
<path d="M54.9655 84.6927C55.0948 85.2526 55.1315 85.62 54.8293 86.1133C54.5715 86.2096 54.3315 86.2368 54.0598 86.2641C53.8541 86.2727 53.7514 86.1836 53.5878 86.0688C53.5005 85.7664 53.485 85.7377 53.6285 85.4381C53.7892 85.4398 53.9282 85.4352 54.0834 85.3885C54.2837 85.3284 54.37 85.0443 54.4697 84.863L54.9655 84.6927Z" fill="#EFECEB"/>
<path d="M53.8104 83.9446L54.132 84.0287C54.2911 84.3019 54.3232 84.6056 54.4679 84.8628C54.3683 85.0441 54.2819 85.3282 54.0817 85.3884C53.9264 85.435 53.7875 85.4396 53.6268 85.438C53.6516 85.2594 53.7102 85.0094 53.6583 84.836C53.5938 84.62 53.2845 84.5421 53.0956 84.4502L53.0492 84.1051C53.3402 84.1056 53.542 84.0457 53.8104 83.9446Z" fill="#D5D2D1"/>
<path d="M54.9671 84.6927L55.6229 84.7441C55.7183 85.1264 55.7398 85.4418 55.715 85.8348C55.559 86.0788 55.4421 86.2591 55.1338 86.3086C54.81 86.3606 54.3932 86.2922 54.0614 86.2641C54.3331 86.2368 54.5731 86.2096 54.8309 86.1133C55.1331 85.62 55.0964 85.2526 54.9671 84.6927Z" fill="#D5D2D1"/>
<path d="M53.7503 83.5394C53.6657 83.1752 53.6478 82.9342 53.7428 82.571C54.002 82.3194 54.0345 82.3397 54.3766 82.3426C54.3612 82.743 54.3973 82.9796 54.1735 83.3272L53.7503 83.5394Z" fill="#D5D2D1"/>
<path d="M49.9421 87.3805C50.1891 87.416 50.3391 87.4713 50.5449 87.6127C50.6221 88.0455 50.4502 88.3219 50.2969 88.7232C50.1885 88.7399 50.1097 88.6833 50.0105 88.6406C49.8713 88.1964 49.8976 87.8338 49.9421 87.3805Z" fill="#D5D2D1"/>
</g>
</g>
<defs>
<filter id="filter0_dddd_588_1124" x="5.54154" y="-1.17942" width="99.875" height="246.617" filterUnits="userSpaceOnUse" color-interpolation-filters="sRGB">
<feFlood flood-opacity="0" result="BackgroundImageFix"/>
<feColorMatrix in="SourceAlpha" type="matrix" values="0 0 0 0 0 0 0 0 0 0 0 0 0 0 0 0 0 0 127 0" result="hardAlpha"/>
<feOffset dx="1.32067" dy="1.32067"/>
<feGaussianBlur stdDeviation="1.981"/>
<feColorMatrix type="matrix" values="0 0 0 0 0 0 0 0 0 0 0 0 0 0 0 0 0 0 0.1 0"/>
<feBlend mode="normal" in2="BackgroundImageFix" result="effect1_dropShadow_588_1124"/>
<feColorMatrix in="SourceAlpha" type="matrix" values="0 0 0 0 0 0 0 0 0 0 0 0 0 0 0 0 0 0 127 0" result="hardAlpha"/>
<feOffset dx="2.64134" dy="6.60335"/>
<feGaussianBlur stdDeviation="3.96201"/>
<feColorMatrix type="matrix" values="0 0 0 0 0 0 0 0 0 0 0 0 0 0 0 0 0 0 0.09 0"/>
<feBlend mode="normal" in2="effect1_dropShadow_588_1124" result="effect2_dropShadow_588_1124"/>
<feColorMatrix in="SourceAlpha" type="matrix" values="0 0 0 0 0 0 0 0 0 0 0 0 0 0 0 0 0 0 127 0" result="hardAlpha"/>
<feOffset dx="6.60335" dy="15.848"/>
<feGaussianBlur stdDeviation="5.28268"/>
<feColorMatrix type="matrix" values="0 0 0 0 0 0 0 0 0 0 0 0 0 0 0 0 0 0 0.05 0"/>
<feBlend mode="normal" in2="effect2_dropShadow_588_1124" result="effect3_dropShadow_588_1124"/>
<feColorMatrix in="SourceAlpha" type="matrix" values="0 0 0 0 0 0 0 0 0 0 0 0 0 0 0 0 0 0 127 0" result="hardAlpha"/>
<feOffset dx="11.886" dy="27.7341"/>
<feGaussianBlur stdDeviation="5.94301"/>
<feColorMatrix type="matrix" values="0 0 0 0 0 0 0 0 0 0 0 0 0 0 0 0 0 0 0.01 0"/>
<feBlend mode="normal" in2="effect3_dropShadow_588_1124" result="effect4_dropShadow_588_1124"/>
<feBlend mode="normal" in="SourceGraphic" in2="effect4_dropShadow_588_1124" result="shape"/>
</filter>
<linearGradient id="paint0_linear_588_1124" x1="72.7597" y1="164.156" x2="40.7157" y2="178.879" gradientUnits="userSpaceOnUse">
<stop stop-color="#6D6A62"/>
<stop offset="1" stop-color="#908F8D"/>
</linearGradient>
<linearGradient id="paint1_linear_588_1124" x1="22.7753" y1="160.389" x2="60.0605" y2="185.221" gradientUnits="userSpaceOnUse">
<stop stop-color="#6D6969"/>
<stop offset="1" stop-color="#8C8C7E"/>
</linearGradient>
<linearGradient id="paint2_linear_588_1124" x1="41.9391" y1="166.599" x2="57.3496" y2="169.673" gradientUnits="userSpaceOnUse">
<stop stop-color="#7A7F7F"/>
<stop offset="1" stop-color="#9A9187"/>
</linearGradient>
<linearGradient id="paint3_linear_588_1124" x1="42.8125" y1="86.2097" x2="46.4167" y2="85.3847" gradientUnits="userSpaceOnUse">
<stop stop-color="#615F60"/>
<stop offset="1" stop-color="#767574"/>
</linearGradient>
<linearGradient id="paint4_linear_588_1124" x1="40.1392" y1="93.3736" x2="45.4285" y2="102.688" gradientUnits="userSpaceOnUse">
<stop stop-color="#484844"/>
<stop offset="1" stop-color="#898478"/>
</linearGradient>
<linearGradient id="paint5_linear_588_1124" x1="38.9496" y1="2.28056" x2="39.7363" y2="10.3074" gradientUnits="userSpaceOnUse">
<stop stop-color="#3DBACE"/>
<stop offset="1" stop-color="#3DBACE"/>
</linearGradient>
<linearGradient id="paint6_linear_588_1124" x1="48.1694" y1="81.1486" x2="46.4803" y2="85.7425" gradientUnits="userSpaceOnUse">
<stop stop-color="#898884"/>
<stop offset="1" stop-color="#A39E9F"/>
</linearGradient>
<linearGradient id="paint7_linear_588_1124" x1="46.4064" y1="86.0266" x2="49.6666" y2="85.6128" gradientUnits="userSpaceOnUse">
<stop stop-color="#ACA9AA"/>
<stop offset="1" stop-color="#CCC7C8"/>
</linearGradient>
<linearGradient id="paint8_linear_588_1124" x1="44.4394" y1="80.9668" x2="44.9074" y2="84.3293" gradientUnits="userSpaceOnUse">
<stop stop-color="#73737B"/>
<stop offset="1" stop-color="#81807B"/>
</linearGradient>
<linearGradient id="paint9_linear_588_1124" x1="67.9106" y1="11.1288" x2="62.2002" y2="13.2768" gradientUnits="userSpaceOnUse">
<stop stop-color="#737894"/>
<stop offset="1" stop-color="#8D90B0"/>
</linearGradient>
<linearGradient id="paint10_linear_588_1124" x1="39.6672" y1="55.4336" x2="58.3382" y2="45.2033" gradientUnits="userSpaceOnUse">
<stop stop-color="#CBCED7"/>
<stop offset="1" stop-color="#DBD3EA"/>
</linearGradient>
<linearGradient id="paint11_linear_588_1124" x1="35.5133" y1="36.1679" x2="31.1815" y2="39.8676" gradientUnits="userSpaceOnUse">
<stop stop-color="#94A0C7"/>
<stop offset="1" stop-color="#AFBED5"/>
</linearGradient>
<clipPath id="clip0_588_1124">
<rect width="90.8803" height="189.839" fill="white" transform="translate(0.722656 0.40332)"/>
</clipPath>
</defs>
</svg>
