<svg width="175" height="230" viewBox="0 0 155 190" fill="none" xmlns="http://www.w3.org/2000/svg">
<g filter="url(#filter0_dddd_468_1519)">
<path d="M46.5799 38.2551C46.8129 40.0583 47.1671 41.8596 47.5179 43.6433C47.2337 43.2998 46.9695 42.9162 46.5427 42.7495C45.9467 42.5165 45.6976 42.2567 45.5447 41.6316C45.2901 40.5901 45.5704 38.9531 45.5663 37.837C45.5592 35.8302 45.7291 19.2761 45.618 18.9266C45.5681 18.7696 45.3754 18.4484 45.2776 18.3046C44.9406 17.8084 44.6405 17.5104 44.5661 16.891C44.2772 14.4866 44.2894 5.75084 45.8807 3.95755C46.38 3.39455 47.4181 3.27389 48.1334 3.22344C50.5735 3.05155 53.1214 3.18964 55.5721 3.19016L70.2205 3.2016L109.837 3.20576C109.907 4.3185 109.842 5.42734 109.793 6.53956C110.479 6.54918 111.312 6.4566 111.941 6.7606L112.209 6.81963C113.48 7.06121 114.778 7.26483 116.026 7.61381C115.927 10.8368 115.81 14.0523 115.979 17.2748C114.703 17.4129 113.465 17.5445 112.178 17.4805L110.563 17.5174L109.728 17.5749C110.173 21.2878 109.886 25.3376 109.894 29.0892C109.905 33.5113 110.173 38.1259 109.793 42.5243C109.385 42.9531 109.153 42.9443 108.558 42.9724C108.212 42.9887 107.858 42.9695 107.512 42.9568C106.672 49.4231 101.425 56.0904 96.3849 59.944C96.221 60.0689 96.065 60.1646 95.8778 60.2506C95.4565 63.0407 95.3629 79.3997 95.9688 81.8215C97.5161 83.6933 99.2974 81.0411 99.1102 86.6925L85.9986 86.7252C80.2776 86.7307 74.2783 86.3507 68.5929 86.822C65.8611 86.2985 56.6073 87.605 54.9685 86.1154C54.6994 85.8707 54.7784 85.6567 54.7667 85.316C55.7104 83.4569 57.5711 82.993 58.9228 81.6684C59.3974 81.2034 59.2109 80.222 59.2008 79.6093L59.1267 78.7241C59.6338 72.7373 59.1129 66.4629 59.2281 60.4366C58.7584 60.2168 58.3582 59.9571 57.9578 59.6297C55.077 57.2734 49.6347 51.9208 49.2441 48.0968L49.7632 47.6997C49.06 45.9951 48.167 44.1434 47.7621 42.3477C47.4337 40.8917 47.3918 39.3775 46.9162 37.9519L46.5799 38.2551Z" fill="#E3E3E2"/>
<path d="M77.2617 17.7866C87.6378 17.7866 96.0967 25.881 96.0967 35.9233C96.0967 45.9657 87.6378 54.0601 77.2617 54.0601C66.8858 54.0599 58.4277 45.9656 58.4277 35.9233C58.4278 25.8811 66.8858 17.7868 77.2617 17.7866Z" fill="#B9B9B8" stroke="#6B6A6A" stroke-width="1.39516"/>
<path d="M95.7867 59.9248L95.8829 60.2504C95.4616 63.0404 95.368 79.3995 95.9739 81.8213C97.5212 83.6931 99.3025 81.0409 99.1153 86.6922L86.0037 86.725C80.2827 86.7304 74.2834 86.3505 68.598 86.8217C65.8662 86.2982 56.6124 87.6047 54.9736 86.1152C54.7045 85.8705 54.7835 85.6564 54.7718 85.3158C55.7155 83.4567 57.5762 82.9928 58.9279 81.6681C59.4025 81.2031 59.216 80.2217 59.2059 79.609L59.1318 78.7239C59.6389 72.7371 59.118 66.4626 59.2332 60.4363C63.7159 63.0365 67.4473 65.0438 72.6399 65.896C81.0186 67.2706 88.9812 64.8009 95.7867 59.9248Z" fill="#58B1C1"/>
<path d="M59.1328 78.7238C64.0651 78.6895 92.3759 78.0987 95.2624 79.136C94.0636 80.1203 62.6265 79.8818 59.2069 79.609L59.1328 78.7238Z" fill="white"/>
<path d="M76.2716 67.2866C76.9711 66.9631 77.7955 67.0568 78.4066 67.5295C79.0177 68.002 79.3142 68.7754 79.1763 69.5355C79.0385 70.2954 78.4898 70.9161 77.7539 71.1457C76.7111 71.47 75.5955 70.9299 75.2054 69.9108C74.8127 68.8919 75.2782 67.7438 76.2716 67.2866Z" fill="white"/>
<path d="M46.5799 38.2551C46.8129 40.0583 47.1671 41.8596 47.5179 43.6433C47.2337 43.2998 46.9695 42.9162 46.5427 42.7495C45.9467 42.5165 45.6976 42.2567 45.5447 41.6316C45.2901 40.5901 45.5704 38.9531 45.5663 37.837C45.5592 35.8302 45.7291 19.2761 45.618 18.9266C45.5681 18.7696 45.3754 18.4484 45.2776 18.3046C44.9406 17.8084 44.6405 17.5104 44.5661 16.891C44.2772 14.4866 44.2894 5.75084 45.8807 3.95755C46.38 3.39455 47.4181 3.27389 48.1334 3.22344C50.5735 3.05155 53.1214 3.18964 55.5721 3.19016L70.2205 3.2016L109.837 3.20576C109.907 4.3185 109.842 5.42734 109.793 6.53956C110.479 6.54918 111.312 6.45661 111.941 6.7606L112.209 6.81963C113.48 7.06122 114.778 7.26483 116.026 7.61381C115.927 10.8368 115.81 14.0523 115.979 17.2748C114.703 17.4129 113.465 17.5445 112.178 17.4805L110.563 17.5174L109.728 17.5749C110.173 21.2879 109.886 25.3376 109.894 29.0893C109.905 33.5113 110.173 38.1259 109.793 42.5243C109.385 42.9531 109.153 42.9443 108.558 42.9724C108.212 42.9888 107.858 42.9695 107.512 42.9568C107.231 41.9842 108.103 38.2406 108.214 36.9926C108.615 32.5255 107.614 27.9146 105.931 23.7957C102.647 16.1418 96.6137 9.78572 88.8279 6.65684C81.1851 3.58699 72.6348 3.68633 65.0667 6.93249C57.453 10.219 51.4641 16.406 48.4273 24.1226C47.3338 26.9054 45.3822 35.2219 46.3599 37.8866C46.4398 38.1043 46.4548 38.1017 46.5799 38.2551Z" fill="#58B1C1"/>
<path d="M112.219 6.81982C113.49 7.06141 114.788 7.26502 116.036 7.61401C115.937 10.837 115.82 14.0525 115.989 17.275C114.713 17.4131 113.475 17.5447 112.188 17.4807C112.461 14.0002 112.224 10.3211 112.219 6.81982Z" fill="#B9B9B8"/>
<path d="M109.795 6.53977C110.481 6.54939 111.313 6.45681 111.943 6.76081L112.21 6.81984C112.216 10.3211 112.452 14.0002 112.179 17.4807L110.564 17.5176L109.73 17.5751C109.22 15.47 109.147 8.47348 109.795 6.53977Z" fill="#585656"/>
<path d="M109.795 6.53977C110.481 6.54939 111.313 6.45681 111.943 6.76081L111.045 6.76705C110.112 7.82622 110.648 15.6669 110.564 17.5176L109.73 17.5751C109.22 15.47 109.147 8.47348 109.795 6.53977Z" fill="#B9B9B8"/>
<path d="M100.928 17.7394C100.868 17.8546 100.858 17.885 100.762 17.9965C99.6226 19.2955 96.0522 22.2665 94.2891 22.2428L94.3047 21.8174C95.7895 19.9029 98.4134 18.2748 100.356 16.7998L100.928 17.7394Z" fill="white"/>
<path d="M56.9007 14.0474C58.34 14.7219 62.1861 18.6421 62.8126 20.0682C62.8599 20.1759 62.8877 20.3218 62.914 20.4313C62.3016 20.5228 62.0694 20.328 61.5815 19.9751C59.9677 18.8083 57.3066 16.2658 56.457 14.5347L56.9007 14.0474Z" fill="white"/>
<path d="M89.0033 8.24463L89.9785 8.7434C88.9773 11.0331 88.0385 13.4495 86.6343 15.5275C86.3534 15.9399 86.3144 16.1641 85.8203 16.2606L85.8359 16.4556L86.0231 16.3048L85.8749 15.9095L86.1844 16.0515L85.9347 15.6484C86.7097 13.0633 87.8331 10.6703 89.0033 8.24463Z" fill="white"/>
<path d="M49.3555 45.1749C51.1407 44.6241 55.8865 42.3846 57.4143 42.7323L57.4819 43.1221C56.3299 44.5687 51.7827 45.6019 49.9107 46.2634L49.3555 45.1749Z" fill="white"/>
<path d="M50.4399 23.2085C51.6801 23.5143 57.141 25.7382 57.7891 26.6929C57.8242 26.7444 57.8429 26.8055 57.87 26.8616C55.7982 27.2928 52.3962 25.247 50.547 24.3332C50.4373 24.0778 50.339 23.8649 50.2891 23.59L50.4399 23.2085Z" fill="white"/>
<path d="M105.831 27.9054C104.302 28.5716 99.1971 30.2619 97.7227 29.7117C98.4482 28.4068 104.102 27.1983 105.579 26.7578L105.831 27.9054Z" fill="white"/>
<path d="M66.2851 8.10938C66.4326 8.21417 66.5654 8.31117 66.6952 8.43833C68.0152 9.73077 69.2757 13.885 69.3266 15.7503L69.0889 15.9378C67.8727 14.4769 65.9809 10.1544 65.8984 8.2576L66.2851 8.10938Z" fill="white"/>
<rect x="63.5837" y="28.5295" width="27.743" height="15.743" rx="2.51129" fill="#696969"/>
<rect x="63.5837" y="28.5295" width="27.743" height="15.743" rx="2.51129" stroke="white" stroke-width="0.558064"/>
<g filter="url(#filter1_d_468_1519)">
<path d="M68.829 34.8491C68.8484 34.8375 68.8774 34.8317 68.9162 34.8317H69.6196C69.639 34.8317 69.6545 34.8394 69.6661 34.8549C69.6816 34.8665 69.6894 34.882 69.6894 34.9014V38.8311C69.6894 38.8505 69.6816 38.8679 69.6661 38.8834C69.6545 38.8951 69.639 38.9009 69.6196 38.9009H68.9395C68.9201 38.9009 68.9026 38.8951 68.8871 38.8834C68.8755 38.8679 68.8697 38.8505 68.8697 38.8311V35.6455C68.8697 35.6378 68.8658 35.63 68.8581 35.6223C68.8503 35.6145 68.8426 35.6126 68.8348 35.6164L68.2593 35.7734L68.2361 35.7792C68.2012 35.7792 68.1837 35.7579 68.1837 35.7153L68.1663 35.2153C68.1663 35.1766 68.1837 35.1494 68.2186 35.1339L68.829 34.8491ZM71.8142 38.9648C71.5119 38.9648 71.2445 38.9028 71.0119 38.7788C70.7833 38.6548 70.605 38.4823 70.4771 38.2614C70.3492 38.0367 70.2853 37.7789 70.2853 37.4883V36.2443C70.2853 35.9575 70.3492 35.7036 70.4771 35.4827C70.605 35.2618 70.7833 35.0913 71.0119 34.9712C71.2445 34.8472 71.5119 34.7852 71.8142 34.7852C72.1203 34.7852 72.3877 34.8472 72.6164 34.9712C72.8489 35.0913 73.0291 35.2618 73.157 35.4827C73.2849 35.7036 73.3488 35.9575 73.3488 36.2443V37.4883C73.3488 37.7789 73.2849 38.0367 73.157 38.2614C73.0291 38.4862 72.8489 38.6606 72.6164 38.7846C72.3877 38.9048 72.1203 38.9648 71.8142 38.9648ZM71.8142 38.2614C72.0273 38.2614 72.1998 38.1936 72.3315 38.058C72.4633 37.9223 72.5292 37.7421 72.5292 37.5173V36.2384C72.5292 36.0137 72.4633 35.8335 72.3315 35.6978C72.2036 35.5583 72.0312 35.4885 71.8142 35.4885C71.601 35.4885 71.4286 35.5583 71.2968 35.6978C71.1689 35.8335 71.105 36.0137 71.105 36.2384V37.5173C71.105 37.7421 71.1689 37.9223 71.2968 38.058C71.4286 38.1936 71.601 38.2614 71.8142 38.2614ZM74.3613 38.9241C74.2295 38.9241 74.1191 38.8815 74.0299 38.7962C73.9447 38.7071 73.902 38.5967 73.902 38.4649C73.902 38.3293 73.9447 38.2188 74.0299 38.1335C74.1152 38.0483 74.2256 38.0057 74.3613 38.0057C74.4969 38.0057 74.6074 38.0483 74.6926 38.1335C74.7779 38.2188 74.8205 38.3293 74.8205 38.4649C74.8205 38.5967 74.776 38.7071 74.6868 38.7962C74.6016 38.8815 74.493 38.9241 74.3613 38.9241ZM75.8932 38.9009C75.8351 38.9009 75.8157 38.8738 75.8351 38.8195L77.0966 35.5699C77.1043 35.5467 77.0966 35.5351 77.0733 35.5351H75.9862C75.9669 35.5351 75.9572 35.5447 75.9572 35.5641V35.8315C75.9572 35.8509 75.9494 35.8683 75.9339 35.8838C75.9223 35.8955 75.9068 35.9013 75.8874 35.9013H75.3584C75.339 35.9013 75.3216 35.8955 75.3061 35.8838C75.2945 35.8683 75.2887 35.8509 75.2887 35.8315L75.2945 34.9014C75.2945 34.882 75.3003 34.8665 75.3119 34.8549C75.3274 34.8394 75.3449 34.8317 75.3642 34.8317H77.9046C77.924 34.8317 77.9395 34.8394 77.9511 34.8549C77.9666 34.8665 77.9743 34.882 77.9743 34.9014V35.4885C77.9743 35.5118 77.9685 35.5409 77.9569 35.5757L76.7013 38.8486C76.6896 38.8834 76.6625 38.9009 76.6199 38.9009H75.8932ZM80.9105 37.0465C80.9687 37.2364 80.9977 37.4205 80.9977 37.5987C80.9977 37.7964 80.9667 37.9746 80.9047 38.1335C80.8156 38.3816 80.6586 38.5792 80.4339 38.7265C80.2091 38.8699 79.9456 38.9416 79.6433 38.9416C79.3487 38.9416 79.0891 38.8718 78.8643 38.7323C78.6434 38.5889 78.4864 38.3951 78.3934 38.151C78.3547 38.0502 78.3256 37.9436 78.3062 37.8313V37.8196C78.3062 37.777 78.3295 37.7557 78.376 37.7557H79.0794C79.1181 37.7557 79.1433 37.777 79.155 37.8196C79.1588 37.8429 79.1647 37.8623 79.1724 37.8778C79.1802 37.8933 79.186 37.9068 79.1898 37.9185C79.2286 38.0192 79.2867 38.0967 79.3642 38.151C79.4417 38.2052 79.5328 38.2324 79.6375 38.2324C79.746 38.2324 79.8409 38.2033 79.9223 38.1452C80.0037 38.087 80.0638 38.0057 80.1025 37.901C80.1413 37.8235 80.1606 37.7227 80.1606 37.5987C80.1606 37.4863 80.1432 37.3856 80.1083 37.2964C80.0812 37.1957 80.0269 37.1182 79.9456 37.0639C79.8642 37.0097 79.7692 36.9825 79.6607 36.9825C79.5522 36.9825 79.4514 37.0077 79.3584 37.0581C79.2654 37.1085 79.2034 37.1744 79.1724 37.2558C79.1608 37.2945 79.1356 37.3139 79.0968 37.3139H78.3818C78.3624 37.3139 78.345 37.3081 78.3295 37.2964C78.3179 37.2809 78.3121 37.2635 78.3121 37.2441V34.9014C78.3121 34.882 78.3179 34.8665 78.3295 34.8549C78.345 34.8394 78.3624 34.8317 78.3818 34.8317H80.7827C80.802 34.8317 80.8175 34.8394 80.8292 34.8549C80.8447 34.8665 80.8524 34.882 80.8524 34.9014V35.4653C80.8524 35.4847 80.8447 35.5021 80.8292 35.5176C80.8175 35.5292 80.802 35.5351 80.7827 35.5351H79.1608C79.1414 35.5351 79.1317 35.5447 79.1317 35.5641L79.1259 36.4245C79.1259 36.4516 79.1375 36.4574 79.1608 36.4419C79.3352 36.3295 79.5367 36.2733 79.7653 36.2733C80.0366 36.2733 80.273 36.3431 80.4746 36.4826C80.68 36.6182 80.8253 36.8062 80.9105 37.0465ZM82.4746 36.6163C82.3041 36.6163 82.1472 36.5756 82.0038 36.4942C81.8643 36.4128 81.7519 36.3024 81.6666 36.1629C81.5852 36.0195 81.5445 35.8645 81.5445 35.6978C81.5445 35.5312 81.5852 35.3781 81.6666 35.2386C81.7519 35.0991 81.8643 34.9886 82.0038 34.9072C82.1472 34.822 82.3041 34.7793 82.4746 34.7793C82.6413 34.7793 82.7944 34.822 82.9339 34.9072C83.0734 34.9886 83.1839 35.0991 83.2652 35.2386C83.3505 35.3781 83.3931 35.5312 83.3931 35.6978C83.3931 35.8645 83.3524 36.0195 83.271 36.1629C83.1897 36.3024 83.0773 36.4128 82.9339 36.4942C82.7944 36.5756 82.6413 36.6163 82.4746 36.6163ZM82.2479 38.9009C82.2208 38.9009 82.2034 38.8931 82.1956 38.8776C82.1879 38.8621 82.1898 38.8427 82.2014 38.8195L84.393 34.8782C84.4124 34.8472 84.4414 34.8317 84.4802 34.8317H84.9104C84.9375 34.8317 84.9549 34.8394 84.9627 34.8549C84.9704 34.8704 84.9685 34.8898 84.9569 34.913L82.7711 38.8544C82.7517 38.8854 82.7227 38.9009 82.6839 38.9009H82.2479ZM82.4746 36.1396C82.5948 36.1396 82.6955 36.097 82.7769 36.0117C82.8622 35.9265 82.9048 35.8218 82.9048 35.6978C82.9048 35.5777 82.8622 35.475 82.7769 35.3897C82.6955 35.3045 82.5948 35.2618 82.4746 35.2618C82.3506 35.2618 82.246 35.3045 82.1607 35.3897C82.0755 35.475 82.0328 35.5777 82.0328 35.6978C82.0328 35.8218 82.0755 35.9265 82.1607 36.0117C82.246 36.097 82.3506 36.1396 82.4746 36.1396ZM84.7418 38.9532C84.5751 38.9532 84.4201 38.9125 84.2767 38.8311C84.1372 38.7459 84.0248 38.6335 83.9396 38.494C83.8582 38.3506 83.8175 38.1955 83.8175 38.0289C83.8175 37.8623 83.8582 37.7092 83.9396 37.5697C84.0248 37.4301 84.1372 37.3197 84.2767 37.2383C84.4201 37.1569 84.5751 37.1162 84.7418 37.1162C84.9084 37.1162 85.0615 37.1569 85.201 37.2383C85.3444 37.3197 85.4568 37.4301 85.5382 37.5697C85.6234 37.7092 85.6661 37.8623 85.6661 38.0289C85.6661 38.1955 85.6234 38.3506 85.5382 38.494C85.4568 38.6335 85.3444 38.7459 85.201 38.8311C85.0615 38.9125 84.9084 38.9532 84.7418 38.9532ZM84.7418 38.4707C84.8619 38.4707 84.9646 38.4281 85.0499 38.3428C85.1351 38.2576 85.1778 38.1529 85.1778 38.0289C85.1778 37.9088 85.1351 37.8061 85.0499 37.7208C84.9646 37.6355 84.8619 37.5929 84.7418 37.5929C84.6216 37.5929 84.5189 37.6355 84.4337 37.7208C84.3484 37.8022 84.3058 37.9049 84.3058 38.0289C84.3058 38.1529 84.3465 38.2576 84.4279 38.3428C84.5131 38.4281 84.6178 38.4707 84.7418 38.4707Z" fill="white"/>
</g>
<path d="M70.3939 46.4276C71.7642 46.3507 73.1465 46.4079 74.5187 46.4283C74.5794 47.8005 74.6076 49.1157 74.4732 50.4861C73.1 50.5682 71.7135 50.5067 70.3383 50.4835C70.2745 49.1089 70.2425 47.7996 70.3939 46.4276Z" fill="#696969"/>
<path d="M75.1522 46.4245C76.537 46.3497 77.9304 46.4061 79.3195 46.4325C79.4408 47.8132 79.4365 49.1136 79.2653 50.4906C77.8784 50.5636 76.4806 50.5127 75.0916 50.4951C75.0395 49.1229 74.994 47.793 75.1522 46.4245Z" fill="#696969"/>
<path d="M79.9843 46.4245C81.369 46.3497 82.7624 46.4061 84.1515 46.4325C84.2729 47.8132 84.2685 49.1136 84.0973 50.4906C82.7104 50.5636 81.3127 50.5127 79.9236 50.4951C79.8716 49.1229 79.8261 47.793 79.9843 46.4245Z" fill="#696969"/>
<path d="M61.0299 49.6211C61.2202 49.6388 61.4587 49.7589 61.6397 49.8263L61.6558 50.3133C60.4219 52.258 57.9104 54.0453 56.1917 55.5733C55.8758 55.4391 55.7392 55.2964 55.4844 55.0693C55.6386 53.7647 59.9039 50.6423 61.0299 49.6211Z" fill="white"/>
<path d="M90.8008 51.4912C91.0062 51.5105 91.1961 51.5411 91.3859 51.6275C92.8578 52.3028 96.3034 56.6339 96.7793 58.0795C96.1786 58.1016 95.8873 58.1344 95.3906 57.7222C94.0462 56.6024 90.9308 53.2034 90.8008 51.4912Z" fill="white"/>
<path d="M95.7617 45.2816C97.5794 45.0891 101.16 47.2535 102.661 48.3111C103.373 48.8122 103.339 48.9633 103.47 49.7887C103.254 49.7783 103.09 49.7736 102.887 49.6992C101.397 49.1565 96.3676 46.7737 95.7617 45.2816Z" fill="white"/>
<path d="M47.6992 34.203C49.7973 33.8538 52.5015 33.9607 54.6258 34.2306C55.6481 34.3604 55.9307 34.5406 56.5523 35.3535C54.1273 35.5581 50.4836 35.6247 48.128 34.9845L47.6992 34.203Z" fill="white"/>
<path d="M67.9159 54.3413L68.3263 54.7132C68.4524 56.707 65.918 60.5073 64.9706 62.3697L64.3114 61.8356C64.2105 59.9773 66.8713 55.9401 67.9159 54.3413Z" fill="white"/>
<path d="M76.8293 6.06836L77.6042 6.35545C78.4936 8.10062 78.0333 12.8428 77.6848 14.7518C77.5054 14.7565 77.2792 14.6639 77.1023 14.6161C76.1948 12.7916 76.7903 8.20802 76.8293 6.06836Z" fill="white"/>
<path d="M83.5234 55.5366L84.2568 55.6846C85.7052 57.0035 86.566 61.6625 87.0887 63.6171L86.2123 63.3822C84.7171 61.4483 84.1475 57.9116 83.5234 55.5366Z" fill="white"/>
<path d="M75.5701 56.5659C75.968 56.6861 76.0954 56.8293 76.3685 57.1248C76.7247 59.5013 76.1786 62.423 75.9654 64.8117C75.6715 64.7153 75.3881 64.5743 75.102 64.4495C74.3713 62.4539 75.2113 58.6593 75.5701 56.5659Z" fill="white"/>
<path d="M98.2852 37.2943C100.301 37.2183 104.18 37.2381 106.032 38.0656C106.523 38.2853 106.549 38.7157 106.739 39.1973C104.391 38.8579 101.315 39.0751 99.1199 38.2369C98.5114 38.0055 98.5348 37.8692 98.2852 37.2943Z" fill="white"/>
<path d="M69.5603 117.909C74.7839 117.369 80.7286 117.841 86.0257 117.86L86.291 120.479C88.647 120.861 93.9077 120.095 95.416 122.026C96.6798 123.648 95.6657 131.155 95.8945 133.791L96.9009 134.139L99.7796 134.415C102.193 134.454 104.723 134.348 107.113 134.695C108.231 134.909 109.362 135.095 110.47 135.356C114.529 135.452 118.589 135.336 122.646 135.459C122.7 143.739 122.695 152.018 122.635 160.298L109.472 160.274C105.376 162.045 100.255 161.23 95.8607 161.263C95.9439 163.769 96.4484 166.579 94.7581 168.657C93.9624 169.144 92.7479 169.126 91.8196 169.177C87.9111 169.392 62.9258 169.583 60.5185 168.957C57.9342 168.285 59.9524 162.709 58.5744 160.669C56.5492 159.562 36.427 160.525 32.1105 160.179L31.2815 160.271C29.9869 160.325 28.9057 160.361 27.7118 159.804C27.2396 156.845 27.6026 153.561 27.5807 150.56C27.5443 145.554 27.0248 140.068 27.6993 135.111C28.9127 135.027 30.1263 135.272 31.3226 135.455C34.1693 134.866 37.662 135.254 40.5935 135.254C46.2721 135.255 51.9783 135.153 57.6531 135.336C58.3594 135.224 59.1187 134.901 59.8063 134.681L60.0159 134.609C60.1651 134.177 60.1675 133.757 60.1867 133.306C59.9969 133.073 59.8203 132.833 59.6377 132.595C58.6992 131.369 59.1514 124.353 59.1608 122.488C62.8727 119.435 66.6046 122.173 69.4563 119.992L69.5603 117.909Z" fill="#B9B9B8"/>
<path d="M57.6531 135.336C58.3593 135.223 59.1187 134.9 59.8063 134.681C58.9096 135.911 58.1412 137 57.7742 138.507C57.3943 140.067 57.2417 153.807 57.534 155.666C57.8322 157.561 58.6841 159.011 60.2488 160.157C61.0748 160.762 61.9451 161.108 62.9611 161.234C66.355 161.653 70.1075 161.3 73.5461 161.293L95.8607 161.263C95.9439 163.769 96.4484 166.579 94.7581 168.657C93.9623 169.143 92.7479 169.126 91.8195 169.177C87.911 169.392 62.9258 169.583 60.5185 168.957C57.9342 168.285 59.9524 162.709 58.5744 160.669C56.5492 159.562 36.427 160.524 32.1105 160.179L31.2815 160.271C29.9869 160.324 28.9057 160.361 27.7118 159.804C27.2396 156.844 27.6026 153.561 27.5807 150.56C27.5443 145.553 27.0248 140.068 27.6993 135.111C28.9127 135.027 30.1263 135.271 31.3226 135.455C34.1693 134.866 37.662 135.254 40.5935 135.254C46.2721 135.255 51.9783 135.153 57.6531 135.336Z" fill="#979796"/>
<path d="M27.6993 135.111C28.9127 135.027 30.1263 135.272 31.3226 135.455L31.2815 160.271C29.9869 160.324 28.9057 160.361 27.7118 159.804C27.2396 156.845 27.6026 153.561 27.5807 150.56C27.5443 145.554 27.0248 140.068 27.6993 135.111Z" fill="#6B6A6A"/>
<path d="M31.3223 135.454C34.1691 134.866 37.6618 135.254 40.5933 135.254C46.2719 135.255 51.9781 135.153 57.6528 135.336C54.4777 135.842 50.9208 135.56 47.7022 135.552C42.5093 135.538 37.2995 135.598 32.109 135.493C32.1191 143.693 32.4078 151.991 32.1103 160.179L31.2812 160.271L31.3223 135.454Z" fill="#979796"/>
<path d="M69.5556 117.909C74.7792 117.369 80.7239 117.841 86.021 117.86L86.2863 120.479C88.6423 120.861 93.903 120.095 95.4113 122.026C96.6751 123.648 95.661 131.155 95.8898 133.791C89.4042 133.789 82.9213 133.934 76.4357 133.883C72.1995 133.849 67.7517 133.472 63.5457 133.817C62.3235 133.917 61.1689 134.218 60.0111 134.609C60.1604 134.177 60.1627 133.757 60.182 133.306C59.9922 133.073 59.8156 132.833 59.633 132.595C58.6945 131.369 59.1467 124.353 59.1561 122.488C62.868 119.435 66.5999 122.173 69.4516 119.992L69.5556 117.909Z" fill="#979796"/>
<path d="M69.5689 117.909C74.7924 117.369 80.7371 117.841 86.0342 117.86L86.2995 120.479C83.1061 120.898 73.8329 120.964 70.5524 120.608C69.9054 120.538 69.8768 120.497 69.4648 119.992L69.5689 117.909Z" fill="#6B6A6A"/>
<path d="M110.471 135.356C114.531 135.452 118.59 135.335 122.647 135.459C122.701 143.738 122.696 152.018 122.636 160.298L109.473 160.274C110.484 159.333 111.316 158.312 111.712 156.967C112.671 153.708 112.614 141.961 111.873 138.47C111.644 137.387 110.994 136.325 110.471 135.356Z" fill="#979796"/>
<path d="M60.0097 134.609C61.1675 134.219 62.3221 133.918 63.5443 133.817C67.7503 133.472 72.1981 133.85 76.4343 133.883C82.9198 133.934 89.4028 133.789 95.8884 133.792L96.8948 134.14C96.6711 134.519 96.6321 134.77 96.1614 134.869C94.5049 135.216 92.1099 134.92 90.3858 134.92C85.0002 134.917 66.9272 134.155 63.0827 135.286C61.8763 135.641 60.4417 136.622 59.7013 137.645C59.3167 138.176 59.1334 138.788 59.0988 139.436C59.2546 139.55 59.428 139.709 59.6069 139.778C59.8719 144.32 60.0487 150.889 59.5721 155.403C59.8519 156.378 60.373 157.39 61.0897 158.113C62.3161 159.35 64.6271 159.229 66.2722 159.243L90.2662 159.255C95.0692 159.272 100.14 159.614 104.912 159.177C106.132 159.066 107.754 158.962 108.641 158.066C109.484 157.217 109.897 155.972 110.071 154.815C110.409 152.56 110.038 150.068 110.035 147.782C110.032 145.887 110.207 143.991 110.188 142.097C110.162 139.711 109.913 138.327 108.191 136.633L108.394 136.165C107.713 135.774 107.468 135.357 107.107 134.696C108.225 134.909 109.356 135.095 110.464 135.357C110.987 136.326 111.637 137.388 111.866 138.471C112.607 141.962 112.664 153.708 111.704 156.967C111.309 158.313 110.477 159.333 109.465 160.274C105.37 162.045 100.249 161.23 95.8546 161.264L73.54 161.293C70.1014 161.3 66.3489 161.654 62.955 161.234C61.939 161.109 61.0686 160.762 60.2427 160.157C58.678 159.011 57.8261 157.562 57.5278 155.666C57.2355 153.807 57.3882 140.068 57.7681 138.508C58.135 137.001 58.9035 135.912 59.8001 134.682L60.0097 134.609Z" fill="white"/>
<path d="M108.395 136.165C110.033 137.499 110.613 138.657 110.811 140.772C111.024 143.07 111.014 153.453 110.616 155.36C110.395 156.447 109.908 157.463 109.201 158.317C108.083 159.659 105.862 159.761 104.203 159.896C101.244 160.136 98.1672 159.958 95.1975 159.921C91.0368 159.877 86.876 159.864 82.7153 159.881L69.8042 159.891C67.7106 159.896 65.4648 160.081 63.393 159.842C62.4132 159.729 61.5657 159.164 60.8277 158.539C59.5937 157.494 59.0656 156.111 58.9545 154.523C58.8461 152.973 58.7332 150.446 59.2601 149.006C59.289 151.055 59.1072 153.413 59.5729 155.402C59.8527 156.377 60.3739 157.39 61.0906 158.112C62.3169 159.35 64.628 159.229 66.273 159.243L90.267 159.255C95.0701 159.272 100.141 159.614 104.913 159.177C106.132 159.065 107.755 158.961 108.642 158.066C109.484 157.217 109.898 155.972 110.072 154.815C110.41 152.56 110.038 150.067 110.036 147.781C110.033 145.886 110.207 143.99 110.189 142.097C110.163 139.71 109.914 138.327 108.192 136.633L108.395 136.165Z" fill="#585656"/>
<path d="M96.9054 134.139L99.7841 134.414C102.197 134.454 104.728 134.348 107.117 134.695C107.479 135.356 107.723 135.773 108.405 136.164L108.202 136.633C105.211 135.056 98.1588 135.869 94.6065 135.818C87.1458 136.237 79.477 135.878 72.0007 135.855C69.2845 135.847 66.2583 135.55 63.5876 135.958C62.569 136.114 61.5788 136.503 60.8702 137.277C60.2086 138 59.8978 138.857 59.6175 139.777C59.4386 139.708 59.2651 139.549 59.1094 139.436C59.144 138.787 59.3273 138.175 59.7119 137.644C60.4523 136.621 61.8869 135.64 63.0933 135.285C66.9378 134.154 85.0108 134.916 90.3964 134.919C92.1205 134.92 94.5155 135.215 96.172 134.868C96.6427 134.769 96.6817 134.519 96.9054 134.139Z" fill="#6B6A6A"/>
<path d="M140.885 108.268C142.427 108.077 144.624 107.589 145.937 108.641C148.239 110.487 148.886 123.116 149.084 126.485C149.604 135.252 149.555 144.023 149.435 152.8C149.37 157.657 149.412 162.533 149.151 167.384C148.975 170.702 148.559 173.996 148.332 177.309C148.332 180.277 147.29 183.389 146.959 185.41C146.852 186.065 146.759 186.858 146.182 187.184C146.114 187.221 146.052 187.263 145.987 187.303C145.045 187.516 143.87 187.486 142.9 187.456C142.174 187.433 141.028 187.497 140.531 186.978C140.323 186.536 140.128 186.09 139.928 185.644C139.306 184.261 139.332 182.695 139.145 181.209C138.877 179.082 138.419 176.952 138.281 174.813C138.12 172.287 138.492 167.285 137.834 165.005C137.686 164.486 137.325 164.074 136.971 163.677C135.803 162.155 129.411 161.862 127.276 160.651C127.047 160.522 127.006 160.056 126.933 159.801C126.403 160.113 125.893 160.223 125.292 160.296C124.598 160.38 124.015 160.406 123.454 159.969C122.892 151.929 123.342 143.588 123.352 135.516C124.192 135.149 125.721 135.314 126.668 135.213C129.229 134.938 135.595 133.917 137.21 131.948C137.876 131.137 137.72 130.088 137.639 129.123C138.196 125.267 138.198 121.487 139.132 117.673L139.264 114.604C139.199 112.274 139.381 110.188 140.885 108.268Z" fill="#B9B9B8"/>
<path d="M137.639 129.123C138.367 131.415 139.964 133.184 140.687 135.556C142.835 142.607 142.809 155.201 139.392 161.85C139.059 162.497 138.75 163.065 138.188 163.542C137.785 163.589 137.377 163.648 136.971 163.678C135.803 162.155 129.411 161.863 127.276 160.652C127.047 160.522 127.006 160.057 126.933 159.802C126.403 160.113 125.893 160.224 125.292 160.296C124.598 160.38 124.015 160.407 123.454 159.969C122.892 151.93 123.342 143.589 123.352 135.516C124.192 135.149 125.721 135.315 126.668 135.213C129.229 134.938 135.595 133.917 137.21 131.948C137.876 131.138 137.72 130.089 137.639 129.123Z" fill="#B5B5B5"/>
<path d="M123.352 135.517C124.606 135.565 125.838 135.558 127.092 135.499C127.128 140.804 127.125 146.11 127.084 151.415C127.084 154.077 127.464 157.198 126.933 159.802C126.403 160.114 125.893 160.224 125.292 160.297C124.598 160.381 124.015 160.407 123.454 159.97C122.892 151.93 123.342 143.589 123.352 135.517Z" fill="#6B6A6A"/>
<path d="M140.882 108.268C145.511 113.239 144.747 153.066 144.456 161.195C144.279 166.168 143.782 183.33 141.025 186.773L140.529 186.978C140.321 186.536 140.126 186.09 139.925 185.644C139.304 184.262 139.33 182.695 139.143 181.209C138.875 179.082 138.417 176.953 138.279 174.813C138.118 172.287 138.49 167.285 137.832 165.005C137.684 164.486 137.322 164.074 136.969 163.677C137.374 163.648 137.783 163.589 138.186 163.541C138.747 163.065 139.057 162.497 139.39 161.85C142.807 155.201 142.833 142.606 140.685 135.555C139.962 133.184 138.365 131.415 137.637 129.123C138.194 125.267 138.196 121.488 139.13 117.673L139.262 114.604C139.197 112.274 139.379 110.189 140.882 108.268Z" fill="#6B6A6A"/>
<path d="M139.258 114.604C139.897 115.01 140.28 115.148 140.48 115.925C140.672 116.671 140.482 117.301 140.189 117.982L139.77 118.316C139.302 118.117 139.32 118.143 139.125 117.673L139.258 114.604Z" fill="#585656"/>
<path d="M140.756 176.823L141.439 177.181C141.874 177.748 142.105 178.252 142.136 178.975C142.178 179.914 141.926 180.572 141.302 181.257C141.177 181.167 141.052 181.076 140.932 180.979C140.298 180.471 139.918 179.825 139.858 179.001C139.796 178.128 140.17 177.438 140.756 176.823Z" fill="#585656"/>
<path d="M14.1058 187.508C13.0045 187.474 11.872 187.473 10.7772 187.35C9.95833 187.259 9.19145 186.872 8.72466 186.174C7.38438 184.171 6.72516 161.209 6.72516 161.209C6.72516 161.209 7.25384 159.615 8.21887 159.052L8.34474 158.981L6.24849 154.881C6.24849 154.881 6.10911 149.692 6.10391 147.441C6.08883 141.057 6.05139 113.367 9.36178 109.141C10.2501 108.007 12.9572 108.026 14.299 107.902C16.2442 109.921 16.3061 113.1 16.6251 115.748C17.7452 120.985 17.6721 126.649 18.136 131.984C20.608 133.909 25.6813 133.166 27.6964 135.111C27.0218 140.068 27.5414 145.554 27.5778 150.56C27.5996 153.561 27.2366 156.845 27.7089 159.804C27.5713 160.301 27.6139 160.592 27.1443 160.85C24.6205 162.233 20.8761 162.451 18.0746 163.234C17.8497 167.226 17.164 184.726 14.5128 187.201C14.3867 187.319 14.2499 187.415 14.1058 187.508Z" fill="#6B6A6A"/>
<path d="M18.0821 163.234C17.4439 163.375 16.9179 163.528 16.2659 163.368C14.3374 161.308 13.6418 156.764 13.1456 154.053C12.1281 148.494 12.3488 136.389 15.5531 131.737C16.2298 131.466 17.4015 131.849 18.1435 131.984C20.6155 133.909 25.6887 133.166 27.7038 135.111C27.0293 140.068 27.5488 145.554 27.5852 150.56C27.6071 153.561 27.2441 156.845 27.7163 159.804C27.5787 160.301 27.6214 160.592 27.1517 160.85C24.628 162.233 20.8836 162.451 18.0821 163.234Z" fill="#B9B9B8"/>
<path d="M18.4382 160.652C17.9115 160.771 17.4773 160.902 16.9392 160.766C15.3475 159.015 14.7733 155.153 14.3638 152.849C13.5239 148.124 13.7061 137.836 16.3509 133.882C16.9093 133.651 17.8765 133.977 18.4888 134.092C20.5291 135.728 24.7164 135.097 26.3796 136.75C25.8229 140.963 26.2517 145.625 26.2818 149.88C26.2998 152.431 26.0002 155.222 26.3899 157.737C26.2764 158.159 26.3116 158.406 25.924 158.626C23.8409 159.802 20.7504 159.987 18.4382 160.652Z" fill="#CFCFCF"/>
<path d="M135.156 135.013C135.682 134.893 136.116 134.763 136.655 134.899C138.246 136.65 138.82 140.512 139.23 142.815C140.07 147.541 139.888 157.829 137.243 161.783C136.684 162.013 135.717 161.687 135.105 161.573C133.065 159.936 128.877 160.568 127.214 158.915C127.771 154.702 127.342 150.039 127.312 145.785C127.294 143.234 127.594 140.443 127.204 137.928C127.317 137.505 127.282 137.258 127.67 137.039C129.753 135.863 132.843 135.678 135.156 135.013Z" fill="#CFCFCF"/>
<path d="M14.1058 187.508C13.0045 187.474 11.872 187.473 10.7772 187.35C9.95833 187.259 9.19145 186.872 8.72466 186.174C7.38438 184.171 6.72516 161.209 6.72516 161.209C6.72516 161.209 6.66617 160.173 6.5029 159.533C6.36568 158.995 6.24849 158.45 6.24849 157.895V154.881C6.24849 154.881 6.10911 149.692 6.10391 147.441C6.08883 141.057 6.05139 113.367 9.36178 109.141C10.2501 108.007 12.9572 108.026 14.299 107.902C13.1938 108.504 12.9902 108.992 12.6438 110.187C9.57267 120.781 8.36008 177.243 13.3012 186.41C13.5155 186.808 13.7984 187.178 14.1058 187.508Z" fill="#B9B9B8"/>
<path d="M14.1983 118.098C14.1676 117.384 14.0626 116.537 14.1918 115.837C14.2992 115.256 14.4516 115.114 14.9142 114.783C15.7178 114.911 16.0082 115.245 16.625 115.748C16.1466 116.663 16.1343 117.706 15.4249 118.489C14.7454 118.579 14.7356 118.476 14.1983 118.098Z" fill="#585656"/>
<path d="M13.1164 176.952C13.2352 176.978 13.3876 177.005 13.5062 177.049C13.9165 177.202 14.3082 177.593 14.4736 177.992C14.8993 179.021 14.3854 180.087 14.0122 181.053C13.8344 181.033 13.6053 181.023 13.4378 180.944C13.2173 180.84 12.9294 180.605 12.8277 180.383C12.2926 179.214 12.6925 178.085 13.1164 176.952Z" fill="#585656"/>
<path d="M68.5938 86.8213C74.2792 86.3501 80.2784 86.73 85.9995 86.7246C85.8044 97.0705 85.781 107.515 86.0229 117.859C80.7257 117.84 74.781 117.368 69.5575 117.909C69.5154 111.002 69.5161 104.095 69.5598 97.1886C69.5658 94.372 69.9439 90.9345 69.4462 88.1897C69.3419 87.6157 68.9836 87.2301 68.5938 86.8213Z" fill="#979796"/>
<path d="M70.043 86.251C70.382 85.735 70.7397 86.151 71.0809 86.145C71.0693 97.4734 71.0679 108.909 71.0823 120.236C70.7664 120.215 70.4119 119.698 70.1004 120.29C70.0979 112.728 70.098 105.165 70.1006 97.6027C70.1009 94.5186 70.1235 90.7547 70.0938 87.7493C70.0876 87.1208 70.0662 86.6986 70.043 86.251Z" fill="#6B6A6A"/>
<path d="M73.1602 86.2274C72.8211 85.7584 72.4634 86.1366 72.1222 86.1311C72.1339 96.4296 72.1352 106.826 72.1208 117.123C72.4367 117.104 72.7912 116.634 73.1027 117.172C73.1052 110.297 73.1052 103.422 73.1025 96.5472C73.1022 93.7435 73.0796 90.3217 73.1093 87.5895C73.1155 87.0182 73.1369 86.6343 73.1602 86.2274Z" fill="#B9B9B8"/>
<path d="M42.4376 7.81344L43.9716 7.51465C44.4865 9.14358 44.4893 15.5938 43.8839 17.184L43.1282 17.5046C42.5962 17.2703 41.9879 17.1535 41.4764 16.88C41.3693 16.8225 40.9922 16.5713 40.9493 16.4548C40.8242 16.1139 41.3742 14.6553 41.4101 14.1596C41.5256 12.558 41.2663 10.5673 40.735 9.0562L40.6523 8.8271C41.2039 8.1307 41.6101 8.09767 42.4376 7.81344Z" fill="#585656"/>
<path d="M43.1282 17.5042C42.5962 17.2698 41.9879 17.1531 41.4764 16.8795C41.3693 16.822 40.9922 16.5708 40.9493 16.4543C40.8242 16.1134 41.3742 14.6548 41.4101 14.1592C41.5256 12.5575 41.2663 10.5669 40.735 9.05575L40.6523 8.82665C41.2039 8.13024 41.6101 8.09722 42.4376 7.81299C42.3814 10.5591 41.8733 14.3287 42.5546 16.9276L43.1282 17.5042Z" fill="#B9B9B8"/>
<path d="M77.2646 5.22949C94.6158 5.22958 108.655 18.9859 108.655 35.9229C108.655 52.86 94.6159 66.6171 77.2646 66.6172C59.9133 66.6172 45.873 52.86 45.873 35.9229C45.8733 18.9859 59.9134 5.22949 77.2646 5.22949Z" stroke="#6B6A6A" stroke-width="1.39516"/>
</g>
<defs>
<filter id="filter0_dddd_468_1519" x="0.520922" y="0.346887" width="174.104" height="229.016" filterUnits="userSpaceOnUse" color-interpolation-filters="sRGB">
<feFlood flood-opacity="0" result="BackgroundImageFix"/>
<feColorMatrix in="SourceAlpha" type="matrix" values="0 0 0 0 0 0 0 0 0 0 0 0 0 0 0 0 0 0 127 0" result="hardAlpha"/>
<feOffset dx="1.39516" dy="1.39516"/>
<feGaussianBlur stdDeviation="2.09274"/>
<feColorMatrix type="matrix" values="0 0 0 0 0 0 0 0 0 0 0 0 0 0 0 0 0 0 0.1 0"/>
<feBlend mode="normal" in2="BackgroundImageFix" result="effect1_dropShadow_468_1519"/>
<feColorMatrix in="SourceAlpha" type="matrix" values="0 0 0 0 0 0 0 0 0 0 0 0 0 0 0 0 0 0 127 0" result="hardAlpha"/>
<feOffset dx="2.79032" dy="6.9758"/>
<feGaussianBlur stdDeviation="4.18548"/>
<feColorMatrix type="matrix" values="0 0 0 0 0 0 0 0 0 0 0 0 0 0 0 0 0 0 0.09 0"/>
<feBlend mode="normal" in2="effect1_dropShadow_468_1519" result="effect2_dropShadow_468_1519"/>
<feColorMatrix in="SourceAlpha" type="matrix" values="0 0 0 0 0 0 0 0 0 0 0 0 0 0 0 0 0 0 127 0" result="hardAlpha"/>
<feOffset dx="6.9758" dy="16.7419"/>
<feGaussianBlur stdDeviation="5.58064"/>
<feColorMatrix type="matrix" values="0 0 0 0 0 0 0 0 0 0 0 0 0 0 0 0 0 0 0.05 0"/>
<feBlend mode="normal" in2="effect2_dropShadow_468_1519" result="effect3_dropShadow_468_1519"/>
<feColorMatrix in="SourceAlpha" type="matrix" values="0 0 0 0 0 0 0 0 0 0 0 0 0 0 0 0 0 0 127 0" result="hardAlpha"/>
<feOffset dx="12.5564" dy="29.2984"/>
<feGaussianBlur stdDeviation="6.27822"/>
<feColorMatrix type="matrix" values="0 0 0 0 0 0 0 0 0 0 0 0 0 0 0 0 0 0 0.01 0"/>
<feBlend mode="normal" in2="effect3_dropShadow_468_1519" result="effect4_dropShadow_468_1519"/>
<feBlend mode="normal" in="SourceGraphic" in2="effect4_dropShadow_468_1519" result="shape"/>
</filter>
<filter id="filter1_d_468_1519" x="67.1216" y="34.7793" width="19.5927" height="6.39455" filterUnits="userSpaceOnUse" color-interpolation-filters="sRGB">
<feFlood flood-opacity="0" result="BackgroundImageFix"/>
<feColorMatrix in="SourceAlpha" type="matrix" values="0 0 0 0 0 0 0 0 0 0 0 0 0 0 0 0 0 0 127 0" result="hardAlpha"/>
<feOffset dy="1.16263"/>
<feGaussianBlur stdDeviation="0.523185"/>
<feComposite in2="hardAlpha" operator="out"/>
<feColorMatrix type="matrix" values="0 0 0 0 0 0 0 0 0 0 0 0 0 0 0 0 0 0 0.25 0"/>
<feBlend mode="normal" in2="BackgroundImageFix" result="effect1_dropShadow_468_1519"/>
<feBlend mode="normal" in="SourceGraphic" in2="effect1_dropShadow_468_1519" result="shape"/>
</filter>
</defs>
</svg>
